<svg width="120" height="120" viewBox="0 0 120 120" fill="none" xmlns="http://www.w3.org/2000/svg">
<path fill-rule="evenodd" clip-rule="evenodd" d="M1.88281 116.478V63.2717C1.88281 62.3621 2.62022 61.6246 3.52987 61.6246H28.9696V34.4437C28.9696 33.5341 29.707 32.7966 30.6167 32.7966H65.0553C65.9649 32.7966 66.7023 33.5341 66.7023 34.4437V67.0421H74.2708V52.827C74.2708 51.9174 75.0082 51.1799 75.9179 51.1799H100.982C101.892 51.1799 102.629 51.9174 102.629 52.827V76.1032H116.471C117.381 76.1032 118.118 76.8406 118.118 77.7503V112.53C118.118 113.44 117.381 114.177 116.471 114.177H87.9849V116.478C87.9849 117.387 87.2475 118.125 86.3379 118.125H3.52987C2.62022 118.125 1.88281 117.387 1.88281 116.478ZM28.9696 64.9188H5.17693V73.8138H18.8146C19.7235 73.8138 20.4616 74.5517 20.4616 75.4609V104.482C20.4616 105.391 19.7235 106.129 18.8146 106.129H5.17693V114.831H28.9696V64.9188ZM63.4082 114.831V36.0908H32.2638L32.2635 114.831H63.4082ZM84.6908 70.3362H66.7023V114.831H84.6908V107.871H76.4706C75.5614 107.871 74.8235 107.133 74.8235 106.223V83.0063C74.8235 82.0974 75.5614 81.3592 76.4706 81.3592H84.6908V70.3362ZM99.335 110.883V54.4741H77.5649V67.0421H86.3379C87.2475 67.0421 87.9849 67.7795 87.9849 68.6891V110.883H98.3066H99.335ZM114.824 86.5232C114.824 82.3868 114.824 79.3974 114.824 79.3974H102.629V110.883H114.824C114.824 110.883 114.824 109.244 114.824 106.715H109.29C108.381 106.715 107.643 105.976 107.643 105.067V88.1703C107.643 87.2611 108.381 86.5232 109.29 86.5232H114.824ZM114.824 92.1555C114.824 91.3628 114.824 90.5807 114.824 89.8174H110.937V92.1555H114.824ZM114.824 97.7879C114.824 97.0148 114.824 96.2327 114.824 95.4496H110.937V97.7879H114.824ZM114.824 103.42C114.824 102.672 114.824 101.889 114.824 101.082H110.937V103.42H114.824ZM5.17693 96.4555V102.835H17.1675V96.4555H5.17693ZM5.17693 86.7816V93.1614H17.1675V86.7816H5.17693ZM5.17693 77.1079V83.4875H17.1675V77.1079H5.17693ZM78.1176 104.576H84.6908V100.131H78.1176V104.576ZM78.1176 92.3924V96.8373H84.6908V92.3924H78.1176ZM78.1176 84.6534V89.0983H84.6908V84.6534H78.1176ZM38.2565 46.6329C38.2565 45.7237 38.9943 44.9858 39.9035 44.9858H55.3816C56.2906 44.9858 57.0287 45.7237 57.0287 46.6329V85.3282C57.0287 86.2371 56.2906 86.9752 55.3816 86.9752H39.9035C38.9943 86.9752 38.2565 86.2371 38.2565 85.3282V46.6329ZM53.7346 48.2799H41.5506V54.6595H53.7346V48.2799ZM53.7346 64.3334V57.9536H41.5506V64.3334H53.7346ZM53.7346 74.0072V67.6275H41.5506V74.0072H53.7346ZM53.7346 83.6811V77.3014H41.5506V83.6811H53.7346ZM75.3896 29.2094C74.6767 29.7729 73.64 29.6517 73.0762 28.9385C72.5125 28.2254 72.6339 27.1889 73.3468 26.6251C76.0675 24.4745 79.4569 23.2009 83.1287 23.2009C86.8005 23.2009 90.1901 24.4745 92.9106 26.6251C93.6238 27.1889 93.7449 28.2254 93.1812 28.9385C92.6174 29.6517 91.5809 29.7729 90.8678 29.2094C88.7148 27.5075 86.0343 26.495 83.1287 26.495C80.2231 26.495 77.5426 27.5075 75.3896 29.2094ZM69.1468 20.6202C68.4546 21.2096 67.4143 21.1263 66.8249 20.4343C66.2355 19.7423 66.3188 18.7018 67.0108 18.1124C71.2793 14.4769 76.9311 12.2571 83.1287 12.2571C89.3263 12.2571 94.9781 14.4769 99.2466 18.1124C99.9388 18.7018 100.022 19.7423 99.4325 20.4343C98.843 21.1263 97.8028 21.2096 97.1108 20.6202C93.4087 17.467 88.5038 15.5512 83.1287 15.5512C77.7536 15.5512 72.8487 17.467 69.1468 20.6202ZM63.6238 12.1708C62.9263 12.7538 61.8868 12.6609 61.3038 11.9635C60.7207 11.2661 60.8136 10.2263 61.5113 9.64347C67.2958 4.80841 74.8574 1.875 83.1287 1.875C91.4002 1.875 98.9616 4.80841 104.746 9.64347C105.444 10.2263 105.537 11.2661 104.954 11.9635C104.371 12.6609 103.331 12.7538 102.634 12.1708C97.415 7.80888 90.5908 5.16912 83.1287 5.16912C75.6666 5.16912 68.8423 7.80888 63.6238 12.1708ZM83.1287 32.0094C85.22 32.0094 86.9179 33.7054 86.9179 35.7943C86.9179 37.8832 85.22 39.5792 83.1287 39.5792C81.0374 39.5792 79.3395 37.8832 79.3395 35.7943C79.3395 33.7054 81.0374 32.0094 83.1287 32.0094Z" fill="#178F57"/>
</svg>
