<svg width="120" height="120" viewBox="0 0 120 120" fill="none" xmlns="http://www.w3.org/2000/svg">
<path d="M5.9222 51.5746C7.90314 38.9139 14.347 27.2852 24.0673 18.8301C32.5657 11.4379 43.1332 6.88047 54.2658 5.72125L53.5622 5.26727C52.692 4.7057 52.4417 3.54531 53.0032 2.67508C53.5645 1.80508 54.7252 1.55477 55.5952 2.11586L61.1881 5.7243C61.7049 6.05781 62.0252 6.62359 62.0456 7.23836C62.066 7.85313 61.7834 8.43859 61.2895 8.80539L55.946 12.7734C55.6102 13.0227 55.2183 13.1432 54.8297 13.1432C54.2567 13.1432 53.6909 12.8814 53.3229 12.3859C52.7056 11.5544 52.879 10.3799 53.7103 9.76281L54.0506 9.51016C31.4745 12.0782 13.2075 29.271 9.6272 52.154C9.48259 53.0788 8.68478 53.7395 7.77704 53.7395C7.68072 53.7395 7.58322 53.7323 7.48478 53.7168C6.46173 53.5565 5.76212 52.5977 5.9222 51.5744V51.5746ZM83.2643 32.5495C83.2643 34.5787 82.6751 36.4717 81.6621 38.0713C87.5552 40.1076 89.2685 44.3903 89.5144 48.1452C92.9203 49.8421 95.2669 53.3594 95.2669 57.4159C95.2669 59.4456 94.6774 61.3389 93.6642 62.9385C100.105 65.1634 101.551 70.0766 101.551 74.0284V81.5434C101.551 84.0238 99.5334 86.0418 97.0531 86.0418H77.3738V88.4849C77.3738 91.0377 75.2972 93.1143 72.7446 93.1143H47.2561C44.7035 93.1143 42.627 91.0377 42.627 88.4849V86.0418H22.9477C20.4673 86.0418 18.4493 84.0238 18.4493 81.5434V74.0284C18.4493 70.067 19.9008 65.1623 26.3363 62.9383C25.3231 61.3387 24.7336 59.4452 24.7336 57.4157C24.7336 53.3591 27.0802 49.8419 30.4861 48.145C30.7317 44.3938 32.4443 40.1085 38.3388 38.0718C37.3256 36.4722 36.7362 34.5787 36.7362 32.5492C36.7362 26.841 41.3803 22.1966 47.0888 22.1966C52.7972 22.1966 57.4413 26.8408 57.4413 32.5492C57.4413 34.5777 56.8526 36.4703 55.8401 38.0695C57.4777 38.6348 58.8663 39.4014 60.0035 40.3602C61.0791 39.4516 62.4401 38.6643 64.1609 38.0697C63.1484 36.4705 62.5596 34.5777 62.5596 32.5492C62.5596 26.841 67.2038 22.1966 72.9122 22.1966C78.6206 22.1966 83.2648 26.8408 83.2648 32.5492L83.2643 32.5495ZM66.3092 32.5495C66.3092 36.19 69.271 39.152 72.9117 39.152C76.5525 39.152 79.5143 36.19 79.5143 32.5495C79.5143 28.9089 76.5525 25.9469 72.9117 25.9469C69.271 25.9469 66.3092 28.9089 66.3092 32.5495ZM60 56.128C56.126 56.128 52.9744 59.2797 52.9744 63.1537C52.9744 67.0277 56.126 70.1793 60 70.1793C63.874 70.1793 67.0256 67.0277 67.0256 63.1537C67.0256 59.2797 63.874 56.128 60 56.128ZM40.4857 32.5495C40.4857 36.19 43.4475 39.152 47.0883 39.152C50.7291 39.152 53.6909 36.19 53.6909 32.5495C53.6909 28.9089 50.7291 25.9469 47.0883 25.9469C43.4475 25.9469 40.4857 28.9089 40.4857 32.5495ZM34.3861 47.0896C34.6177 47.0741 34.8502 47.0634 35.0855 47.0634C40.7939 47.0634 45.4381 51.7075 45.4381 57.4159V57.4258H50.8798C52.1379 55.4296 54.0307 53.8722 56.2749 53.0427V49.1622C56.2749 47.2745 56.6056 45.1799 57.6387 43.2623C56.4992 42.2758 54.923 41.5724 52.8722 41.1318C51.2196 42.2491 49.2288 42.902 47.0883 42.902C44.9478 42.902 42.9565 42.2488 41.3039 41.1313C37.2122 42.0074 35.0063 43.8871 34.3861 47.0896ZM49.2246 63.1537C49.2246 62.4777 49.2902 61.8173 49.4098 61.1758H44.7286C44.4865 61.7945 44.187 62.3842 43.8359 62.9385C47.7813 64.3084 49.8019 66.6808 50.801 69.055C50.8524 69.0372 50.9053 69.0201 50.9574 69.0025C49.8633 67.3166 49.2249 65.309 49.2249 63.1537H49.2246ZM28.4831 57.4157C28.4831 61.0562 31.4449 64.0183 35.0857 64.0183C38.7265 64.0183 41.6883 61.0562 41.6883 57.4157C41.6883 53.7752 38.7265 50.8131 35.0857 50.8131C31.4449 50.8131 28.4831 53.7752 28.4831 57.4157ZM47.4438 70.716C46.7616 68.8776 45.1233 66.9173 40.868 65.999C39.2159 67.1155 37.2253 67.7683 35.0855 67.7683C32.9456 67.7683 30.9537 67.1151 29.3011 65.9976C24.3945 67.048 22.1986 69.5413 22.1986 74.0284V81.5434C22.1986 81.9562 22.5345 82.2918 22.947 82.2918H42.6263V80.5949C42.6263 77.2844 43.6006 73.3436 47.4436 70.7158L47.4438 70.716ZM73.6235 80.5952C73.6235 75.8898 71.2104 73.1648 66.0504 72.0651C64.3242 73.2407 62.2411 73.9293 60 73.9293C57.7589 73.9293 55.6742 73.2402 53.948 72.0639C48.7861 73.1641 46.3765 75.8856 46.3765 80.5952V88.4852C46.3765 88.9698 46.771 89.3645 47.2556 89.3645H72.7442C73.2288 89.3645 73.6233 88.9698 73.6233 88.4852V80.5952H73.6235ZM70.7756 63.1537C70.7756 65.3083 70.1374 67.3155 69.0438 69.0011C69.0914 69.0173 69.1395 69.033 69.1866 69.0494C70.3751 66.1621 72.7099 64.1156 76.1613 62.9331C75.8117 62.3802 75.5133 61.7924 75.2719 61.1755H70.5907C70.7103 61.8173 70.7759 62.4777 70.7759 63.1534L70.7756 63.1537ZM90.6968 65.999C89.0447 67.1155 87.0544 67.7683 84.9143 67.7683C82.7742 67.7683 80.7839 67.1155 79.1318 65.999C74.8097 66.9295 73.219 68.9167 72.5564 70.7179C76.3943 73.342 77.3735 77.2755 77.3735 80.5952V82.292H97.0528C97.4656 82.292 97.8012 81.9562 97.8012 81.5437V74.0287C97.8012 69.6006 95.5404 67.0434 90.6966 65.9992L90.6968 65.999ZM84.9143 50.8131C81.2735 50.8131 78.3117 53.7752 78.3117 57.4157C78.3117 61.0562 81.2735 64.0183 84.9143 64.0183C88.5551 64.0183 91.5169 61.0562 91.5169 57.4157C91.5169 53.7752 88.5551 50.8131 84.9143 50.8131ZM78.6952 41.1318C77.0428 42.2488 75.052 42.9018 72.9117 42.9018C70.7714 42.9018 68.7809 42.2488 67.1283 41.1318C62.2249 42.178 60.0246 44.6781 60.0246 49.162V52.3785C63.852 52.3872 67.215 54.4026 69.1202 57.4253H74.562C74.562 57.422 74.562 57.4188 74.562 57.4155C74.562 51.7073 79.2061 47.0629 84.9145 47.0629C85.1499 47.0629 85.3826 47.0737 85.6142 47.0891C84.9938 43.8873 82.7857 42.006 78.6954 41.1316L78.6952 41.1318ZM117.287 53.0962C116.413 52.5414 115.255 52.8004 114.7 53.6748L114.287 54.325C111.638 29.2527 91.9029 8.8382 66.451 5.81031C65.423 5.68844 64.4899 6.42227 64.3676 7.4507C64.2453 8.47914 64.9795 9.41172 66.008 9.5343C89.554 12.3353 107.845 31.1158 110.506 54.2549L110.205 53.857C109.582 53.0301 108.406 52.8658 107.58 53.4895C106.753 54.1131 106.588 55.289 107.212 56.1156L111.221 61.4289C111.576 61.8995 112.13 62.1747 112.717 62.1747C112.742 62.1747 112.768 62.1742 112.793 62.173C113.408 62.1484 113.971 61.8236 114.301 61.3042L117.866 55.6841C118.421 54.8097 118.162 53.6507 117.287 53.0962ZM52.7185 110.499C29.7061 107.238 11.8458 88.3952 9.32181 65.6399L9.81353 66.258C10.4581 67.0684 11.6379 67.2027 12.4481 66.558C13.2586 65.9134 13.3929 64.7338 12.7484 63.9234L8.60509 58.7146C8.22212 58.2332 7.62775 57.9698 7.01392 58.011C6.40009 58.0516 5.84556 58.3907 5.52939 58.9183L2.10868 64.6277C1.57642 65.5159 1.86517 66.6674 2.75345 67.1997C3.05533 67.3804 3.38744 67.4666 3.71533 67.4666C4.35283 67.4666 4.97415 67.1416 5.32572 66.5549L5.59689 66.1023C6.82619 77.2267 11.4452 87.7549 18.8998 96.2149C27.522 106 39.3455 112.391 52.1927 114.211C52.2818 114.224 52.3704 114.23 52.4581 114.23C53.3768 114.23 54.1795 113.554 54.3122 112.618C54.4575 111.593 53.7441 110.644 52.7187 110.498L52.7185 110.499ZM112.551 64.7186C111.525 64.592 110.588 65.3235 110.461 66.3515C107.588 89.789 88.7447 108.062 65.6545 110.68L66.2445 110.212C67.0556 109.568 67.1916 108.389 66.5478 107.578C65.9039 106.766 64.7248 106.631 63.9134 107.274L58.6995 111.411C58.2176 111.793 57.9539 112.387 57.9938 113.001C58.0336 113.615 58.372 114.17 58.8994 114.487L64.6048 117.914C64.9071 118.096 65.2397 118.183 65.5685 118.183C66.2051 118.183 66.826 117.858 67.1775 117.273C67.7107 116.385 67.4236 115.233 66.5358 114.7L66.0518 114.409C77.3534 113.139 88.0165 108.372 96.5297 100.693C106.318 91.8637 112.587 79.8297 114.184 66.8078C114.31 65.7799 113.578 64.8445 112.551 64.7186Z" fill="#178F57"/>
</svg>
