<svg width="120" height="120" viewBox="0 0 120 120" fill="none" xmlns="http://www.w3.org/2000/svg">
<g clip-path="url(#clip0_3230_996)">
<path d="M117.422 58.3594H79.1405C78.2344 58.3594 77.4998 59.0939 77.4998 60V79.2598H40.8593C39.9532 79.2598 39.2187 79.9943 39.2187 80.9004V100.16H2.57813C1.67203 100.16 0.9375 100.895 0.9375 101.801V117.422C0.9375 118.328 1.67203 119.062 2.57813 119.062H117.422C118.328 119.062 119.063 118.328 119.063 117.422V60C119.063 59.0939 118.328 58.3594 117.422 58.3594H117.422ZM115.781 115.781H4.21875V103.441H40.8595C41.7656 103.441 42.5002 102.707 42.5002 101.801V82.541H79.1407C80.0468 82.541 80.7813 81.8065 80.7813 80.9004V61.6406H115.781V115.781H115.781ZM2.99344 66.0991L4.76508 66.4484L5.99016 69.4052L4.98398 70.9057C4.30805 71.914 4.4407 73.2689 5.29898 74.1272L8.75039 77.5788C9.60938 78.4369 10.9638 78.5688 11.9719 77.8929L13.4719 76.887L16.4288 78.112L16.778 79.8839C17.0128 81.0752 18.0645 81.9398 19.2787 81.9398H24.1591C25.373 81.9398 26.4246 81.0755 26.6599 79.8841L27.0094 78.1123L29.966 76.8872L31.466 77.8931C32.4748 78.5688 33.8295 78.4366 34.6877 77.5784L38.1389 74.1272C38.9977 73.2687 39.1301 71.9135 38.4537 70.9052L37.4477 69.4052L38.6728 66.4484L40.4447 66.0991C41.6358 65.8643 42.5004 64.8124 42.5004 63.5984V58.718C42.5004 57.5034 41.6358 56.452 40.4447 56.2174L38.6728 55.868L37.4477 52.9111L38.4539 51.4106C39.1298 50.4021 38.9974 49.0474 38.1389 48.1889L34.6882 44.7384C33.8299 43.8792 32.4743 43.747 31.466 44.4234L29.966 45.4294L27.0094 44.2043L26.6599 42.4322C26.4248 41.2411 25.3732 40.3767 24.1591 40.3767H19.2787C18.0642 40.3767 17.0126 41.2416 16.7782 42.4327L16.4288 44.2043L13.4719 45.4294L11.9719 44.4234C10.9631 43.7473 9.60844 43.8799 8.75016 44.7382L5.29898 48.1891C4.44047 49.0477 4.30805 50.4026 4.98422 51.4113L5.99016 52.9113L4.76508 55.8682L2.99367 56.2174C1.80211 56.452 0.9375 57.5037 0.9375 58.7182V63.5986C0.9375 64.8129 1.80211 65.8643 2.99344 66.0991ZM4.21875 59.3198L6.26203 58.917C6.80039 58.8108 7.25016 58.4423 7.46016 57.9354L9.35789 53.355C9.56789 52.8478 9.51047 52.2691 9.20484 51.8133L8.04469 50.0834L10.6444 47.4839L12.3743 48.6438C12.8299 48.9495 13.4088 49.0069 13.9158 48.7969L18.4964 46.8991C19.0036 46.6891 19.372 46.2394 19.478 45.7008L19.8811 43.6577H23.5575L23.9606 45.7008C24.0668 46.2394 24.435 46.6889 24.9422 46.8991L29.5223 48.7969C30.0295 49.0066 30.6084 48.9495 31.0641 48.6438L32.794 47.4839L35.3937 50.0834L34.2335 51.8133C33.9277 52.2691 33.8702 52.8478 34.0805 53.355L35.9782 57.9354C36.1882 58.4426 36.638 58.8108 37.1763 58.917L39.2196 59.3198V62.9963L37.1766 63.3991C36.638 63.5053 36.1882 63.8738 35.9782 64.3807L34.0805 68.9611C33.8705 69.4683 33.9279 70.047 34.2335 70.5028L35.3937 72.2327L32.794 74.8322L31.0638 73.6723C30.6082 73.3664 30.0295 73.3088 29.5221 73.5192L24.942 75.417C24.435 75.627 24.0666 76.0767 23.9604 76.6151L23.5573 78.6584H19.8809L19.4777 76.6148C19.3718 76.0765 19.0034 75.6267 18.4962 75.4167L13.9158 73.5192C13.4086 73.3088 12.8297 73.3666 12.3743 73.6723L10.6441 74.8322L8.04445 72.2327L9.20461 70.5028C9.51047 70.047 9.56789 69.4683 9.35766 68.9611L7.45992 64.3807C7.24992 63.8735 6.80016 63.5053 6.26156 63.3991L4.21852 62.9963L4.21875 59.3198ZM21.7191 72.6145C28.0362 72.6145 33.1755 67.4752 33.1755 61.1581C33.1755 54.8409 28.0362 49.7016 21.7191 49.7016C15.402 49.7016 10.2623 54.8409 10.2623 61.1581C10.2623 67.4752 15.402 72.6145 21.7191 72.6145ZM21.7191 52.9828C26.2268 52.9828 29.8943 56.6501 29.8943 61.1581C29.8943 65.666 26.227 69.3333 21.7191 69.3333C17.2111 69.3333 13.5436 65.666 13.5436 61.1581C13.5436 56.6501 17.2109 52.9828 21.7191 52.9828ZM48.9016 50.7124C49.1695 52.5586 50.7181 53.8985 52.5834 53.8985H67.4166C69.2815 53.8985 70.83 52.5588 71.0984 50.7129C71.5132 47.8601 73.0549 45.7094 74.8399 43.2192C77.4169 39.6241 80.3377 35.5493 80.3377 28.4883C80.3377 22.7965 78.1034 18.0089 73.8762 14.6428C70.196 11.7122 65.2678 10.0983 60 10.0983C54.7322 10.0983 49.8042 11.7122 46.1238 14.6428C41.8969 18.0087 39.6626 22.7965 39.6626 28.4883C39.6626 35.5493 42.5834 39.6241 45.1603 43.2192C46.9453 45.7092 48.4866 47.8598 48.9016 50.7124ZM61.3308 50.6173H58.6692V38.3077C59.5432 38.3963 60.4575 38.3963 61.3308 38.3077V50.6173ZM59.9998 13.3795C68.2148 13.3795 77.0562 18.1076 77.0562 28.4883C77.0562 34.4948 74.5737 37.9582 72.1727 41.3077C70.3085 43.9083 68.3808 46.5977 67.8513 50.2409C67.819 50.4626 67.6404 50.6175 67.4166 50.6175H64.612V37.8586C64.612 37.7435 64.6125 37.6296 64.6137 37.5164C67.2382 36.4805 69.3626 34.5544 70.5544 31.9995C71.981 28.9409 71.9639 26.194 70.5091 24.6518C69.543 23.6278 68.1323 23.3477 66.7374 23.9023C64.4299 24.8189 61.983 28.2089 61.4412 34.9812C60.4545 35.1342 59.5463 35.1342 58.5591 34.9812C58.0172 28.2089 55.5703 24.8189 53.2629 23.9023C51.8667 23.3477 50.4567 23.628 49.4911 24.6518C48.0361 26.1942 48.019 28.9409 49.4456 31.9995C50.6374 34.5544 52.7618 36.4805 55.3866 37.5164C55.3877 37.6296 55.3882 37.7433 55.3882 37.8584V50.6173H52.5834C52.3596 50.6173 52.1808 50.4626 52.1489 50.2411C52.1489 50.2411 52.1489 50.2411 52.1489 50.2406C51.6192 46.5975 49.6917 43.908 47.8275 41.3074C45.4266 37.958 42.9441 34.4948 42.9441 28.488C42.9441 18.1073 51.7856 13.3793 60.0002 13.3793L59.9998 13.3795ZM64.8806 33.7029C65.366 30.237 66.4336 28.1459 67.4494 27.273C67.8059 26.967 68.0517 26.9079 68.1258 26.9062C68.2765 27.0635 68.7049 28.2019 67.5806 30.6122C66.9387 31.9884 65.9766 32.996 64.8806 33.7029ZM55.1194 33.7029C54.0232 32.996 53.0613 31.9889 52.4191 30.6124C51.2948 28.2019 51.7235 27.0633 51.874 26.9062C51.9478 26.9079 52.1939 26.9667 52.5504 27.2728C53.5664 28.1456 54.634 30.2365 55.1194 33.7029ZM59.2737 68.3072H60.7261C63.1057 68.3072 65.0416 66.3713 65.0416 63.9916V63.6888H66.7566C67.6627 63.6888 68.3972 62.9543 68.3972 62.0482C68.3972 61.1421 67.6627 60.4076 66.7566 60.4076H53.2432C52.3371 60.4076 51.6026 61.1421 51.6026 62.0482C51.6026 62.9543 52.3371 63.6888 53.2432 63.6888H54.9579V63.9916C54.9579 66.3713 56.8938 68.3072 59.2734 68.3072H59.2737ZM61.7604 63.9916C61.7604 64.5523 61.2867 65.0259 60.7261 65.0259H59.2737C58.7128 65.0259 58.2394 64.5523 58.2394 63.9916V63.6888H61.7604V63.9916ZM68.1614 58.7939H51.8384C50.9323 58.7939 50.1977 58.0594 50.1977 57.1533C50.1977 56.2472 50.9323 55.5127 51.8384 55.5127H68.1614C69.0675 55.5127 69.802 56.2472 69.802 57.1533C69.802 58.0594 69.0675 58.7939 68.1614 58.7939ZM70.6151 8.49656L72.3717 5.45367C72.825 4.66898 73.8286 4.40016 74.6128 4.8532C75.3975 5.30625 75.6663 6.30961 75.2133 7.0943L73.4566 10.1372C73.1527 10.6636 72.6012 10.9577 72.0342 10.9577C71.7558 10.9577 71.4738 10.887 71.2156 10.7377C70.4309 10.2846 70.162 9.28125 70.6151 8.49656ZM58.3594 6.09188V2.57812C58.3594 1.67203 59.0939 0.9375 60 0.9375C60.9061 0.9375 61.6406 1.67203 61.6406 2.57812V6.09188C61.6406 6.99797 60.9061 7.7325 60 7.7325C59.0939 7.7325 58.3594 6.99797 58.3594 6.09188ZM44.7867 7.09406C44.3337 6.30937 44.6027 5.30602 45.3872 4.85297C46.1721 4.39945 47.1752 4.66875 47.6283 5.45344L49.3849 8.49633C49.838 9.28102 49.5689 10.2844 48.7845 10.7374C48.5259 10.8867 48.244 10.9575 47.9658 10.9575C47.3986 10.9575 46.8473 10.6634 46.5434 10.137L44.7867 7.09406ZM98.2814 53.3264C105.972 53.3264 112.229 47.0695 112.229 39.3787C112.229 32.2432 106.842 26.3459 99.922 25.5307V16.0455H117.422C118.029 16.0455 118.586 15.7109 118.871 15.1755C119.156 14.6402 119.122 13.9913 118.783 13.4883L115.416 8.49141L118.783 3.49477C119.122 2.9918 119.156 2.34281 118.871 1.8075C118.586 1.27195 118.029 0.9375 117.422 0.9375H98.2814C97.3753 0.9375 96.6408 1.67203 96.6408 2.57812V25.5307C89.7206 26.3456 84.3335 32.2432 84.3335 39.3787C84.3335 47.0695 90.5904 53.3264 98.2814 53.3264ZM99.922 4.21875H114.338L112.077 7.57477C111.704 8.12883 111.704 8.85398 112.077 9.40828L114.338 12.7645H99.922V4.21875ZM98.2814 28.7121C104.163 28.7121 108.948 33.4971 108.948 39.3785C108.948 45.2599 104.163 50.0449 98.2814 50.0449C92.4 50.0449 87.6148 45.2599 87.6148 39.3785C87.6148 33.4971 92.3998 28.7121 98.2814 28.7121ZM91.5335 39.2885C91.0805 38.5038 91.3495 37.5005 92.134 37.0474C92.9192 36.5941 93.9223 36.8634 94.3751 37.6479L96.1003 40.6364L102.448 34.2888C103.088 33.6483 104.127 33.6483 104.768 34.2888C105.409 34.9296 105.409 35.9684 104.768 36.6089L96.9084 44.4682C96.5991 44.7778 96.1807 44.9487 95.7488 44.9487C95.6773 44.9487 95.606 44.944 95.5343 44.9346C95.0288 44.868 94.5827 44.5702 94.3277 44.1284L91.5333 39.2883L91.5335 39.2885ZM48.3591 86.7593H84.9996V67.4995C84.9996 66.5934 85.7341 65.8589 86.6402 65.8589H109.923C110.829 65.8589 111.563 66.5934 111.563 67.4995C111.563 68.4056 110.829 69.1402 109.923 69.1402H88.2809V88.3999C88.2809 89.306 87.5463 90.0406 86.6402 90.0406H49.9997V109.3C49.9997 110.206 49.2652 110.941 48.3591 110.941H10.0777C9.17156 110.941 8.43703 110.206 8.43703 109.3C8.43703 108.394 9.17156 107.66 10.0777 107.66H46.7184V88.3999C46.7184 87.4938 47.453 86.7593 48.3591 86.7593Z" fill="#178F57"/>
</g>
<defs>
<clipPath id="clip0_3230_996">
<rect width="120" height="120" fill="white"/>
</clipPath>
</defs>
</svg>
