<svg width="120" height="120" viewBox="0 0 120 120" fill="none" xmlns="http://www.w3.org/2000/svg">
<g clip-path="url(#clip0_3230_990)">
<path d="M109.463 98.474C108.371 98.2038 107.236 98.157 106.125 98.3365C111.204 92.2242 115.017 85.1641 117.345 77.5659C119.672 69.9678 120.467 61.983 119.683 54.0751C118.899 46.1673 116.552 38.4939 112.779 31.5004C109.005 24.507 103.88 18.3329 97.7003 13.3365L99.9253 11.124C100.418 10.6315 100.808 10.0469 101.075 9.40345C101.341 8.76002 101.479 8.0704 101.479 7.37396C101.479 6.67752 101.341 5.9879 101.075 5.34448C100.808 4.70105 100.418 4.11642 99.9253 3.62396C99.4329 3.1315 98.8482 2.74087 98.2048 2.47435C97.5614 2.20783 96.8718 2.07066 96.1753 2.07066C95.4789 2.07066 94.7893 2.20783 94.1459 2.47435C93.5024 2.74087 92.9178 3.1315 92.4253 3.62396L88.6753 7.37396C79.8602 2.55118 69.9735 0.0234375 59.9253 0.0234375C49.8772 0.0234375 39.9905 2.55118 31.1753 7.37396L27.4253 3.62396C26.9329 3.1315 26.3482 2.74087 25.7048 2.47435C25.0614 2.20783 24.3718 2.07066 23.6753 2.07066C22.2688 2.07066 20.9199 2.6294 19.9253 3.62396C18.9308 4.61852 18.372 5.96744 18.372 7.37396C18.372 8.78048 18.9308 10.1294 19.9253 11.124L22.1503 13.349C15.9709 18.3454 10.8456 24.5195 7.07195 31.5129C3.29826 38.5064 0.951389 46.1798 0.167579 54.0876C-0.61623 61.9955 0.178639 69.9803 2.50604 77.5784C4.83344 85.1766 8.647 92.2367 13.7253 98.349C12.6149 98.1695 11.4797 98.2163 10.3878 98.4865C9.75313 98.6535 9.17339 98.9842 8.70654 99.4455C8.2397 99.9068 7.9021 100.483 7.72748 101.115C7.55287 101.748 7.54735 102.415 7.71149 103.051C7.87563 103.686 8.20367 104.268 8.66283 104.736L19.1003 114.999C19.3345 115.232 19.6513 115.362 19.9816 115.362C20.3118 115.362 20.6286 115.232 20.8628 114.999L26.2503 109.599C31.0687 112.895 36.3461 115.465 41.9128 117.224C42.1823 117.937 42.6628 118.552 43.2904 118.985C43.918 119.418 44.6627 119.65 45.4253 119.649H53.5503C57.8125 120.118 62.1132 120.118 66.3753 119.649H74.5003C75.2629 119.65 76.0077 119.418 76.6353 118.985C77.2628 118.552 77.7434 117.937 78.0128 117.224C83.6056 115.471 88.9088 112.902 93.7503 109.599L99.1378 114.999C99.372 115.232 99.6889 115.362 100.019 115.362C100.349 115.362 100.666 115.232 100.9 114.999L111.25 104.724C111.709 104.251 112.035 103.665 112.196 103.026C112.356 102.386 112.345 101.716 112.164 101.082C111.983 100.448 111.637 99.8735 111.163 99.4156C110.689 98.9578 110.103 98.6329 109.463 98.474ZM101.675 99.574L95.2503 91.649C99.7582 86.654 103.143 80.7504 105.175 74.3365C110.475 72.174 114.563 69.599 117.088 66.7615C115.635 79.0782 110.227 90.5917 101.675 99.574ZM76.1003 42.7115C76.1046 42.3852 76.1551 42.0611 76.2503 41.749C85.4186 42.5295 94.4522 44.4614 103.138 47.499C105.488 55.6284 105.488 64.257 103.138 72.3865C96.8185 74.6777 90.2797 76.3113 83.6253 77.2615L75.8253 67.624C76.2503 64.0865 76.1003 68.474 76.1003 42.7115ZM102.15 44.524C94.4035 41.9339 86.3911 40.219 78.2628 39.4115C79.2253 38.999 78.0253 39.124 99.7378 39.124C100.658 40.8698 101.464 42.6736 102.15 44.524ZM106.063 48.749C121.175 55.474 121.45 64.424 106.063 71.249C107.859 63.8565 107.859 56.1414 106.063 48.749ZM102.138 75.499C100.219 80.7165 97.3404 85.5286 93.6503 89.6865L85.4878 79.6115C91.1463 78.7186 96.717 77.3384 102.138 75.4865V75.499ZM117.138 53.2615C114.638 50.424 110.538 47.8615 105.238 45.699C104.528 43.4472 103.646 41.2532 102.6 39.1365H103.5C104.903 39.1365 106.248 38.5794 107.239 37.5878C108.231 36.5962 108.788 35.2513 108.788 33.849C108.788 32.4466 108.231 31.1017 107.239 30.1101C106.248 29.1185 104.903 28.5615 103.5 28.5615H95.4253C93.4002 26.2656 91.1563 24.1723 88.7253 22.3115L95.9128 15.124C107.715 24.5512 115.327 38.2487 117.1 53.249L117.138 53.2615ZM91.9878 28.549H82.5003L86.9378 24.1115C88.7325 25.4589 90.4208 26.9425 91.9878 28.549ZM94.2128 5.42396C94.7452 4.91654 95.4524 4.63348 96.1878 4.63348C96.9233 4.63348 97.6305 4.91654 98.1628 5.42396C98.6842 5.94653 98.977 6.65455 98.977 7.39271C98.977 8.13087 98.6842 8.83889 98.1628 9.36146L78.9753 28.549H71.0878L94.2128 5.42396ZM67.3128 28.549C66.9813 28.549 66.6634 28.4173 66.4289 28.1828C66.1945 27.9484 66.0628 27.6305 66.0628 27.299V25.924C67.7082 24.9691 69.1084 23.6439 70.1521 22.0534C71.1958 20.4629 71.8543 18.6509 72.0753 16.7615C73.9228 17.267 75.735 17.8934 77.5003 18.6365C66.4628 29.6365 67.6503 28.549 67.3128 28.549ZM53.9003 27.299C53.9003 27.6305 53.7686 27.9484 53.5342 28.1828C53.2998 28.4173 52.9818 28.549 52.6503 28.549C52.3128 28.549 53.4503 29.5865 42.5003 18.6365C44.2413 17.8965 46.0283 17.2701 47.8503 16.7615C48.0714 18.6509 48.7299 20.4629 49.7736 22.0534C50.8173 23.6439 52.2174 24.9691 53.8628 25.924L53.9003 27.299ZM50.3503 16.124C50.3503 15.6115 50.3503 15.5115 50.3503 12.5365C50.3503 9.96718 51.371 7.50312 53.1877 5.68636C55.0045 3.86961 57.4685 2.84896 60.0378 2.84896C62.6071 2.84896 65.0712 3.86961 66.8879 5.68636C68.7047 7.50312 69.7253 9.96718 69.7253 12.5365V16.124C69.5496 18.5633 68.4566 20.8456 66.6663 22.5116C64.8759 24.1777 62.521 25.1039 60.0753 25.1039C57.6297 25.1039 55.2748 24.1777 53.4844 22.5116C51.694 20.8456 50.601 18.5633 50.4253 16.124H50.3503ZM79.3628 16.7115C77.0426 15.6859 74.6431 14.8498 72.1878 14.2115V12.5865C72.1859 10.7373 71.7627 8.91295 70.9505 7.25174C70.1384 5.59054 68.9584 4.13615 67.5003 2.99896C74.2766 3.90633 80.8349 6.02326 86.8628 9.24896L79.3628 16.7115ZM52.5003 2.99896C51.0524 4.13734 49.8817 5.58938 49.0762 7.24575C48.2708 8.90211 47.8516 10.7196 47.8503 12.5615V14.1865C45.3951 14.8248 42.9956 15.6609 40.6753 16.6865L33.1753 9.18646C39.1959 5.98675 45.7409 3.89117 52.5003 2.99896ZM21.8378 9.36146C21.3157 8.83766 21.023 8.12789 21.0242 7.38829C21.0254 6.6487 21.3203 5.93986 21.8441 5.41771C22.3679 4.89557 23.0777 4.60289 23.8172 4.60406C24.5568 4.60523 25.2657 4.90016 25.7878 5.42396L48.9128 28.549H41.0253L21.8378 9.36146ZM37.5003 28.549H28.0128C29.5639 26.9444 31.2354 25.4609 33.0128 24.1115L37.5003 28.549ZM24.0878 15.1365L31.2503 22.324C28.8194 24.1848 26.5755 26.2781 24.5503 28.574H16.5378C15.1355 28.574 13.7906 29.131 12.799 30.1226C11.8074 31.1142 11.2503 32.4591 11.2503 33.8615C11.2503 35.2638 11.8074 36.6087 12.799 37.6003C13.7906 38.5919 15.1355 39.149 16.5378 39.149H17.5003C16.4545 41.2614 15.5727 43.4512 14.8628 45.699C9.50033 47.849 5.41283 50.4115 2.90033 53.249C4.67703 38.2532 12.2889 24.5607 24.0878 15.1365ZM43.9003 42.7115C43.9003 68.4615 43.8003 64.0865 44.1753 67.7115L36.3753 77.3115C29.7232 76.3816 23.1845 74.7689 16.8628 72.499C14.513 64.3695 14.513 55.7409 16.8628 47.6115C25.5435 44.5355 34.5771 42.5658 43.7503 41.749C43.8456 42.0611 43.8961 42.3852 43.9003 42.7115ZM34.5128 79.599L26.3503 89.674C22.6603 85.5161 19.7815 80.704 17.8628 75.4865C23.2841 77.3342 28.8548 78.7101 34.5128 79.599ZM13.9628 71.249C-1.24967 64.474 -1.32467 55.5365 13.9628 48.749C12.1476 56.1391 12.1476 63.8588 13.9628 71.249ZM17.8503 44.5115C18.5366 42.6611 19.3425 40.8573 20.2628 39.1115C41.9753 39.1115 40.7878 38.9865 41.7378 39.399C33.609 40.2106 25.5966 41.9296 17.8503 44.524V44.5115ZM2.91283 66.7615C5.41283 69.599 9.52533 72.174 14.8253 74.3365C16.8581 80.7504 20.2425 86.654 24.7503 91.649L18.3253 99.574C9.77363 90.5917 4.36561 79.0782 2.91283 66.7615ZM20.0003 112.361L10.5878 102.961C10.4399 102.806 10.3346 102.614 10.2821 102.406C10.2296 102.198 10.2318 101.979 10.2883 101.772C10.3448 101.565 10.4539 101.375 10.6049 101.222C10.7559 101.069 10.9437 100.958 11.1503 100.899C12.0885 100.659 13.0729 100.668 14.0066 100.925C14.9403 101.181 15.7912 101.676 16.4753 102.361L17.0503 102.924C17.2237 103.097 17.444 103.215 17.684 103.264C17.924 103.313 18.1731 103.29 18.4003 103.199C18.7878 103.036 16.8753 105.361 44.5378 71.174C45.9628 84.7365 44.7128 72.7865 46.1128 86.174L20.0003 112.361ZM47.9128 103.236C44.1665 102.188 40.5735 100.655 37.2253 98.674L46.4628 89.4365L47.9128 103.236ZM35.4128 100.486C39.3712 102.93 43.679 104.755 48.1878 105.899L48.6253 110.086C47.328 110.184 46.073 110.591 44.9659 111.274C43.8587 111.957 42.9317 112.896 42.2628 114.011C42.1487 114.192 42.0564 114.385 41.9878 114.586C37.068 112.975 32.3946 110.691 28.1003 107.799L35.4128 100.486ZM61.2503 117.149V75.299C61.2503 74.9675 61.1186 74.6495 60.8842 74.4151C60.6498 74.1807 60.3319 74.049 60.0003 74.049C59.6688 74.049 59.3509 74.1807 59.1164 74.4151C58.882 74.6495 58.7503 74.9675 58.7503 75.299V117.149H45.4628C45.2519 117.144 45.0456 117.086 44.8632 116.98C44.6807 116.874 44.5281 116.723 44.4196 116.542C44.311 116.361 44.25 116.156 44.2423 115.945C44.2346 115.734 44.2803 115.525 44.3753 115.336C44.8688 114.494 45.5734 113.795 46.4196 113.309C47.2658 112.822 48.2242 112.564 49.2003 112.561H50.0003C50.1767 112.563 50.3513 112.526 50.5127 112.455C50.6741 112.384 50.8186 112.279 50.9366 112.148C51.0547 112.017 51.1437 111.863 51.1978 111.695C51.2518 111.527 51.2697 111.349 51.2503 111.174C50.3378 102.586 46.7753 68.499 46.4003 64.999V42.7115C46.397 41.098 45.7546 39.5515 44.6137 38.4106C43.4728 37.2697 41.9263 36.6273 40.3128 36.624H16.5628C15.8235 36.624 15.1145 36.3303 14.5918 35.8075C14.069 35.2848 13.7753 34.5758 13.7753 33.8365C13.7753 33.0972 14.069 32.3882 14.5918 31.8654C15.1145 31.3426 15.8235 31.049 16.5628 31.049H52.6878C53.6824 31.049 54.6362 30.6539 55.3395 29.9506C56.0427 29.2474 56.4378 28.2935 56.4378 27.299V26.999C58.7849 27.7118 61.2908 27.7118 63.6378 26.999V27.299C63.6378 28.2935 64.0329 29.2474 64.7362 29.9506C65.4394 30.6539 66.3933 31.049 67.3878 31.049H103.463C104.202 31.049 104.911 31.3426 105.434 31.8654C105.957 32.3882 106.25 33.0972 106.25 33.8365C106.25 34.5758 105.957 35.2848 105.434 35.8075C104.911 36.3303 104.202 36.624 103.463 36.624H79.7128C78.0993 36.6273 76.5529 37.2697 75.412 38.4106C74.2711 39.5515 73.6286 41.098 73.6253 42.7115V64.999C72.2128 78.124 69.3503 105.574 68.7503 111.174C68.7309 111.349 68.7488 111.527 68.8029 111.695C68.857 111.863 68.946 112.017 69.064 112.148C69.1821 112.279 69.3266 112.384 69.4879 112.455C69.6493 112.526 69.8239 112.563 70.0003 112.561H70.8003C71.7672 112.565 72.7168 112.817 73.5575 113.295C74.3983 113.772 75.1019 114.458 75.6003 115.286C75.6953 115.475 75.7411 115.684 75.7334 115.895C75.7256 116.106 75.6646 116.311 75.5561 116.492C75.4475 116.673 75.2949 116.824 75.1125 116.93C74.9301 117.036 74.7238 117.094 74.5128 117.099L61.2503 117.149ZM73.5503 89.4365L82.7878 98.674C79.4397 100.655 75.8467 102.188 72.1003 103.236L73.5503 89.4365ZM78.0253 114.586C77.9568 114.385 77.8645 114.192 77.7503 114.011C77.0815 112.896 76.1545 111.957 75.0473 111.274C73.9401 110.591 72.6851 110.184 71.3878 110.086L71.8253 105.899C76.3353 104.758 80.6436 102.933 84.6003 100.486L91.9128 107.799C87.6185 110.691 82.9452 112.975 78.0253 114.586ZM109.413 102.961L100 112.361L73.8878 86.249C75.2878 72.824 74.0378 84.724 75.4628 71.249C103.013 105.224 101.25 103.036 101.6 103.199C101.828 103.29 102.077 103.313 102.317 103.264C102.557 103.215 102.777 103.097 102.95 102.924L103.525 102.361C104.21 101.677 105.061 101.183 105.995 100.926C106.928 100.67 107.912 100.661 108.85 100.899C109.057 100.958 109.245 101.069 109.396 101.222C109.547 101.375 109.656 101.565 109.712 101.772C109.769 101.979 109.771 102.198 109.719 102.406C109.666 102.614 109.561 102.806 109.413 102.961Z" fill="#178F57"/>
</g>
<defs>
<clipPath id="clip0_3230_990">
<rect width="120" height="120" fill="white"/>
</clipPath>
</defs>
</svg>
