<svg width="107" height="107" viewBox="0 0 107 107" fill="none" xmlns="http://www.w3.org/2000/svg">
<g clip-path="url(#clip0_3230_1796)">
<path d="M52.605 61.9859L29.5932 59.8711L28.3596 73.2946L40.6481 76.3578L51.3714 75.4094L53.8588 69.3851L52.605 61.9859Z" fill="#FFDA2D"/>
<path d="M74.3831 77.5227L75.6167 64.0991L52.6049 61.9844L51.3713 75.4079L62.701 78.3829L74.3831 77.5227Z" fill="#FFB64C"/>
<path d="M93.1713 30.9023L104.677 31.9597L104.149 37.7127L92.6426 36.6553L93.1713 30.9023Z" fill="#FFB64C"/>
<path d="M84.0463 50.0234L88.4873 46.33L95.8744 55.2122L91.4334 58.9057L84.0463 50.0234Z" fill="#FFB64C"/>
<path d="M87.1576 16.207L96.04 8.81981L99.7336 13.2609L90.8512 20.6481L87.1576 16.207Z" fill="#FFB64C"/>
<path d="M6.87639 22.9727L18.3823 24.03L17.8536 29.783L6.3477 28.7256L6.87639 22.9727Z" fill="#FFDA2D"/>
<path d="M11.2729 47.4336L20.155 40.0466L23.8486 44.4879L14.9665 51.8749L11.2729 47.4336Z" fill="#FFDA2D"/>
<path d="M15.1342 5.48047L19.5755 1.7868L26.9627 10.6692L22.5214 14.3629L15.1342 5.48047Z" fill="#FFDA2D"/>
<path d="M51.3711 75.4078L28.3593 73.293L19.7299 72.5L18.4963 85.9235L34.4922 89.3274L50.1375 88.8313L52.672 82.2958L51.3711 75.4078Z" fill="#FF9963"/>
<path d="M50.1369 88.8337L64.9184 92.1259L81.7781 91.7415L83.0117 78.3179L74.3823 77.5249L51.3705 75.4102L50.1369 88.8337Z" fill="#FF6666"/>
<path d="M48.3868 20.0242L30.2451 20.9803L42.039 34.7983L37.3423 52.3474L54.1285 45.4006L57.4299 30.5193L57.8838 4.53724L48.3868 20.0242Z" fill="#FFDA2D"/>
<path d="M67.9483 37.1811L82.0631 25.7441L64.3995 21.4976L57.8842 4.53906L54.1289 45.4024L69.3678 55.2923L67.9483 37.1811Z" fill="#FFB64C"/>
<path d="M18.496 85.9258L9.86662 85.1328L8.63301 98.5564L48.9037 102.257L51.4381 95.7216L50.1373 88.8336L18.496 85.9258Z" fill="#007680"/>
<path d="M90.4078 92.5329L81.7783 91.7398L50.1371 88.832L48.9035 102.256L89.1742 105.956L90.4078 92.5329Z" fill="#0D5767"/>
</g>
<defs>
<clipPath id="clip0_3230_1796">
<rect width="98.2122" height="98.2122" fill="white" transform="translate(8.98772) rotate(5.25067)"/>
</clipPath>
</defs>
</svg>
