<svg width="1409" height="624" viewBox="0 0 1409 624" fill="none" xmlns="http://www.w3.org/2000/svg">
<g filter="url(#filter0_n_207_156)">
<rect x="24.1172" y="142.12" width="1384" height="481" rx="12" fill="url(#paint0_linear_207_156)"/>
</g>
<g opacity="0.81" clip-path="url(#clip0_207_156)">
<path d="M41.9709 74.8023C41.7622 74.8345 41.566 74.6907 41.5339 74.4819L40.0778 65.0218C40.0457 64.8131 40.1895 64.6169 40.3983 64.5848C40.6071 64.5526 40.8032 64.6965 40.8354 64.9052L42.2914 74.3653C42.3235 74.5741 42.1797 74.7702 41.9709 74.8023Z" fill="#364F66"/>
<path d="M38.7704 76.5665C38.5616 76.5986 38.3655 76.4548 38.3334 76.246L35.2302 56.0843C35.198 55.8756 35.3419 55.6794 35.5506 55.6473C35.7594 55.6151 35.9556 55.759 35.9877 55.9677L39.0909 76.1294C39.123 76.3382 38.9792 76.5344 38.7704 76.5665Z" fill="#364F66"/>
<path d="M35.4484 78.7116C35.2397 78.7438 35.0435 78.6 35.0114 78.3912L32.4997 62.0726C32.4676 61.8638 32.6114 61.6677 32.8202 61.6355C33.029 61.6034 33.2251 61.7472 33.2572 61.956L35.7689 78.2746C35.801 78.4834 35.6572 78.6795 35.4484 78.7116Z" fill="#364F66"/>
<path d="M31.8393 80.6424C31.6305 80.6745 31.4344 80.5307 31.4022 80.3219L30.031 71.4125C29.9988 71.2037 30.1426 71.0075 30.3514 70.9754C30.5602 70.9433 30.7564 71.0871 30.7885 71.2959L32.1598 80.2053C32.1919 80.4141 32.0481 80.6102 31.8393 80.6424Z" fill="#364F66"/>
<path d="M194.781 165.1C194.572 165.132 194.376 164.988 194.343 164.779L192.887 155.319C192.855 155.11 192.999 154.914 193.208 154.882C193.417 154.85 193.613 154.994 193.645 155.203L195.101 164.663C195.133 164.871 194.989 165.068 194.781 165.1Z" fill="#364F66"/>
<path d="M191.58 166.864C191.371 166.896 191.175 166.752 191.143 166.543L188.04 146.382C188.008 146.173 188.151 145.977 188.36 145.945C188.569 145.912 188.765 146.056 188.797 146.265L191.9 166.427C191.933 166.636 191.789 166.832 191.58 166.864Z" fill="#364F66"/>
<path d="M188.258 169.009C188.049 169.041 187.853 168.897 187.821 168.689L185.309 152.37C185.277 152.161 185.421 151.965 185.63 151.933C185.839 151.901 186.035 152.045 186.067 152.253L188.578 168.572C188.611 168.781 188.467 168.977 188.258 169.009Z" fill="#364F66"/>
<path d="M184.649 170.938C184.44 170.97 184.244 170.826 184.212 170.617L182.841 161.71C182.808 161.501 182.952 161.305 183.161 161.273C183.37 161.241 183.566 161.384 183.598 161.593L184.969 170.501C185.001 170.71 184.857 170.906 184.649 170.938Z" fill="#364F66"/>
<path d="M66.3036 189.151C66.0948 189.183 65.8987 189.039 65.8665 188.83L64.9892 183.13C63.728 183.341 59.7946 183.998 58.9998 184.044C58.79 184.058 58.6082 183.897 58.5946 183.685C58.583 183.475 58.7331 183.27 58.954 183.28C59.834 183.222 65.1898 182.32 65.245 182.31C65.3513 182.263 65.4487 182.318 65.5334 182.377C65.6165 182.438 65.6719 182.528 65.6876 182.629L66.6241 188.714C66.6562 188.922 66.5124 189.118 66.3036 189.151Z" fill="#364F66"/>
<path d="M168.112 140.862C167.903 140.894 167.707 140.751 167.675 140.542L166.797 134.84C165.534 135.051 161.604 135.707 160.808 135.754C160.598 135.768 160.416 135.606 160.402 135.395C160.391 135.185 160.511 134.996 160.762 134.989C161.644 134.935 166.998 134.032 167.053 134.019C167.159 134.035 167.256 134.026 167.341 134.087C167.424 134.147 167.48 134.237 167.495 134.339L168.432 140.425C168.464 140.634 168.32 140.83 168.112 140.862Z" fill="#364F66"/>
<path d="M43.5088 143.998C41.7036 144.276 40.0086 143.033 39.7305 141.226C39.4526 139.421 40.6955 137.726 42.5006 137.448C44.3058 137.17 46.0008 138.413 46.2786 140.218C46.5567 142.025 45.3139 143.72 43.5088 143.998ZM42.6172 138.205C41.2296 138.419 40.2745 139.722 40.488 141.109C40.7019 142.499 42.0046 143.454 43.3922 143.24C44.7798 143.027 45.7349 141.724 45.5211 140.334C45.3075 138.947 44.0048 137.992 42.6172 138.205Z" fill="#364F66"/>
<path d="M181.108 52.325C180.269 52.4541 179.535 52.3288 178.916 51.9474C176.719 50.5966 176.893 46.541 176.9 46.3696C176.92 44.7381 176.563 43.7225 175.84 43.3628C174.576 42.7345 172.308 44.1617 171.542 44.7601C171.374 44.8843 171.135 44.8605 171.004 44.6935C170.874 44.5262 170.903 44.2871 171.07 44.1555C171.201 44.0542 174.227 41.7178 176.179 42.677C177.19 43.1777 177.689 44.4268 177.666 46.3936C177.665 46.4449 177.506 50.1822 179.319 51.2952C180.234 51.8599 181.552 51.6589 183.236 50.7019C183.423 50.5899 183.653 50.6603 183.757 50.8448C183.863 51.029 183.799 51.2621 183.614 51.3662C182.696 51.8895 181.86 52.2092 181.108 52.325Z" fill="#364F66"/>
<path d="M143.635 183.217L144.737 190.386C145.173 193.279 143.723 196.456 140.28 199.243C133.348 204.855 120.963 206.758 112.615 203.495C108.415 201.853 106.037 199.215 105.596 196.285L104.494 189.115C104.936 192.046 112.91 187.163 117.111 188.805C125.458 192.069 127.782 192.871 134.715 187.26C138.158 184.473 144.071 186.109 143.635 183.217Z" fill="#AAC4E8"/>
<path d="M125.942 191.364C123.59 191.314 121.006 190.328 117.111 188.805C112.911 187.163 104.936 192.046 104.494 189.115L105.596 196.285C106.038 199.215 108.415 201.853 112.615 203.495C117.069 205.236 122.672 205.505 127.983 204.527L125.942 191.364Z" fill="#8FB0D8"/>
<path d="M136.613 176.008C144.96 179.272 146.107 186.465 139.175 192.075C132.243 197.687 119.858 199.59 111.51 196.327C103.163 193.063 102.016 185.87 108.949 180.259C115.88 174.648 128.265 172.745 136.613 176.008Z" fill="#DBE7FE"/>
<path d="M139.175 192.077C132.243 197.689 119.858 199.592 111.511 196.329C105.22 193.868 103.018 189.18 105.28 184.619C107.674 184.139 110.301 184.336 112.767 184.523C116.628 184.82 120.966 184.832 123.783 182.174C124.174 181.807 124.528 181.389 124.99 181.119C125.491 180.822 126.078 180.719 126.657 180.647C129.103 180.336 132.046 180.238 133.299 178.11C133.812 177.24 133.907 176.21 134.134 175.22C134.99 175.438 135.818 175.7 136.611 176.01C144.959 179.274 146.107 186.466 139.175 192.077Z" fill="#C6D7F4"/>
<path d="M131.718 23.4504C121.85 19.5804 109.419 22.2527 96.8048 32.3767C71.7371 52.4958 55.4354 94.4242 60.391 126.024C64.1249 149.835 97.3085 176.454 113.444 188.133C113.775 188.372 114.121 188.561 114.48 188.701L121.381 191.407C125.068 190.514 125.674 177.527 121.179 178.063C101.401 180.421 101.972 129.013 98.2378 105.202C93.2826 73.6017 93.9245 72.0333 122.455 86.8372C145.241 98.6603 136.568 39.1534 138.62 26.1566L131.718 23.4504Z" fill="#1C323D"/>
<path d="M103.707 35.0837C128.775 14.9649 153.117 24.2736 158.072 55.8737C161.806 79.6847 143.452 147.666 134.178 179.739C132.929 184.06 130.559 187.622 127.957 189.71C125.356 191.798 122.522 192.412 120.346 190.84C104.211 179.161 71.0274 152.542 67.2934 128.731C62.3379 97.1312 78.6395 55.2028 103.707 35.0837Z" fill="#324566"/>
<path d="M158.072 55.8759C161.811 79.6749 143.457 147.671 134.174 179.741C132.921 184.053 130.558 187.617 127.947 189.705C125.355 191.79 122.52 192.418 120.341 190.838C104.211 179.159 71.0242 152.534 67.2845 128.735C64.3111 109.667 69.0543 86.8231 78.7939 67.3114C84.5163 66.6414 90.2458 66.1429 94.5351 62.5124C96.0079 61.251 97.2231 59.6843 98.8159 58.5768C104.731 54.428 113.935 57.7061 119.418 52.9914C120.992 51.6377 122.058 49.7298 123.654 48.392C127.049 45.5508 131.972 45.7895 136.39 45.6078C140.826 45.4232 146.005 44.0894 147.549 39.9236C148.067 38.56 148.13 36.979 149.112 35.8889C149.372 35.5806 149.72 35.3545 150.071 35.1472C153.931 40.3019 156.709 47.271 158.072 55.8759Z" fill="#26404F"/>
<g opacity="0.1">
<path d="M158.56 62.2622C158.782 77.2965 154.161 101.637 148.523 125.534C144.449 127.129 140.019 128.295 135.384 129.009C125.299 130.561 115.43 129.736 107.581 126.683C99.1958 123.422 94.0477 118.036 93.059 111.487L91.472 100.924L83.6668 97.9029C80.6537 96.7009 78.7225 94.5964 78.376 92.0932L77.8809 88.8767C77.4995 86.3982 78.6924 83.8323 81.1595 81.8644L114.891 54.6315C116.989 52.9141 119.938 51.6855 123.154 51.1904C126.371 50.6954 129.552 50.9804 132.108 51.9815L158.56 62.2622Z" fill="white"/>
</g>
<path d="M164.057 75.3892L167.802 100.187C168.606 105.511 165.926 111.362 159.564 116.498C146.758 126.836 123.887 130.354 108.472 124.36C100.717 121.344 96.3286 116.494 95.5144 111.102L91.7695 86.3041C92.5838 91.6961 96.9724 96.5461 104.727 99.5619C120.142 105.556 143.013 102.038 155.819 91.7002C162.181 86.5644 164.861 80.7128 164.057 75.3892Z" fill="#FBD46C"/>
<path d="M166.437 91.0871L167.808 100.192C168.605 105.508 165.928 111.36 159.563 116.503C146.758 126.834 123.887 130.354 108.476 124.356C100.723 121.344 96.3267 116.499 95.5167 111.102L94.238 102.662C95.9704 102.426 97.8039 102.648 99.4412 103.198C103.163 104.466 106.24 107.087 109.589 109.142C112.597 110.982 116.18 112.415 119.608 111.569C123.173 110.681 125.961 107.486 129.617 107.191C131.791 107.02 133.894 107.92 135.991 108.523C140.057 109.686 145.081 109.458 147.684 106.127C148.638 104.911 149.192 103.365 150.387 102.38C152.825 100.38 156.729 101.63 159.413 99.9621C162.011 98.3386 162.457 94.6917 164.55 92.4571C165.089 91.8807 165.728 91.4225 166.437 91.0871Z" fill="#F9C539"/>
<path d="M175.529 73.9091L176.016 77.1541C176.249 78.6947 175.475 80.3862 173.637 81.8667L139.922 109.086C136.222 112.071 129.609 113.093 125.155 111.359L84.573 95.579C82.3324 94.7059 81.0658 93.304 80.8302 91.7475L80.3397 88.5072C84.8779 83.6808 117.56 70.7955 115.687 77.7657L123.065 98.6951C127.52 100.429 134.128 99.4079 137.828 96.4228L154.096 74.2302C146.986 67.6106 167.369 70.6353 175.529 73.9091Z" fill="#D89A1E"/>
<path d="M171.784 70.0777C176.238 71.8098 176.849 75.6349 173.149 78.6221L139.432 105.84C135.734 108.825 129.122 109.845 124.668 108.113L84.0844 92.3308C79.6306 90.5988 79.0197 86.7736 82.7201 83.7865L116.437 56.5683C120.138 53.5812 126.747 52.5639 131.201 54.2959L171.784 70.0777Z" fill="#FBD46C"/>
<path d="M173.145 78.6233L139.43 105.842C135.73 108.827 129.121 109.849 124.666 108.115L84.08 92.3316C79.6301 90.6009 79.017 86.7766 82.716 83.7875L86.0459 81.0998C86.3279 81.0523 86.611 81.0128 86.8908 80.9778C91.7275 80.3516 96.6521 80.8523 101.495 80.2943C106.342 79.7316 111.399 77.8371 114.034 73.7328C115.131 72.02 115.767 69.9832 117.212 68.5508C119.191 66.5883 122.185 66.2131 124.915 65.6665C127.647 65.1239 130.656 64.0334 131.745 61.4706C132.506 59.6671 132.108 57.5611 132.753 55.7143C132.838 55.4731 132.937 55.242 133.053 55.0204L171.781 70.0792C176.235 71.8132 176.849 75.6376 173.145 78.6233Z" fill="#F9C539"/>
<path d="M105.058 114.079C104.674 114.138 104.314 113.875 104.255 113.49L102.633 102.956C102.367 101.227 103.048 99.4697 104.409 98.3705L129.149 78.3975C129.452 78.1534 129.896 78.2008 130.14 78.5032C130.384 78.8059 130.337 79.2496 130.034 79.4941L105.294 99.4671C104.322 100.252 103.836 101.507 104.026 102.741L105.647 113.276C105.707 113.66 105.443 114.02 105.058 114.079Z" fill="#D89A1E"/>
<path d="M104.312 113.65C103.927 113.709 103.568 113.445 103.509 113.06L101.887 102.526C101.621 100.797 102.301 99.04 103.663 97.9408L128.403 77.9678C128.706 77.7237 129.15 77.7711 129.393 78.0736C129.638 78.3762 129.591 78.8199 129.288 79.0645L104.548 99.0374C103.576 99.8223 103.09 101.077 103.28 102.312L104.901 112.846C104.961 113.23 104.697 113.59 104.312 113.65Z" fill="#324566"/>
<path d="M134.229 74.6585C137.524 75.9398 137.977 78.7666 135.24 80.9764C132.502 83.1862 127.617 83.9369 124.322 82.6556C121.029 81.3752 120.576 78.5484 123.313 76.3386C126.051 74.1288 130.936 73.3781 134.229 74.6585Z" fill="#D89A1E"/>
<path d="M132.58 75.2171C135.875 76.4984 136.329 79.3252 133.591 81.535C130.854 83.7448 125.969 84.4955 122.674 83.2141C119.381 81.9338 118.928 79.107 121.665 76.8972C124.402 74.6874 129.288 73.9367 132.58 75.2171Z" fill="#324566"/>
<path d="M133.59 81.5382C130.854 83.7475 125.969 84.4949 122.674 83.2138C121.207 82.6444 120.303 81.7642 119.996 80.7701C120.535 80.6433 121.118 80.6063 121.673 80.5604C122.732 80.4765 123.946 80.1974 124.419 79.2458C124.718 78.6505 124.661 77.8816 125.118 77.3939C125.653 76.8151 126.701 76.8602 127.092 76.1761C127.345 75.7373 127.198 75.2371 127.067 74.7257C128.993 74.4512 130.975 74.5944 132.582 75.217C135.877 76.4981 136.33 79.3282 133.59 81.5382Z" fill="#26404F"/>
<path d="M103.062 108.955L102.404 117.712C102.658 119.361 107.607 118.6 107.353 116.95L104.093 108.797L103.062 108.955Z" fill="#324566"/>
<path d="M107.354 116.948C107.608 118.599 102.662 119.36 102.408 117.709L102.705 113.736C102.831 113.713 102.957 113.681 103.081 113.642C103.357 113.555 103.621 113.392 103.744 113.132C103.833 112.94 103.834 112.711 103.946 112.535C104.116 112.265 104.489 112.179 104.651 111.905C104.748 111.74 104.754 111.539 104.761 111.347C104.769 111.109 104.788 110.866 104.83 110.631L107.354 116.948Z" fill="#26404F"/>
<path d="M128.388 83.9638C126.36 84.2761 124.258 84.1418 122.57 83.4842C120.872 82.8244 119.826 81.7428 119.624 80.4405C119.423 79.1455 120.085 77.8085 121.487 76.6773C124.285 74.4137 129.307 73.6408 132.687 74.9534C134.385 75.6132 135.433 76.6946 135.635 77.9987C135.837 79.2937 135.174 80.6289 133.773 81.7619C132.373 82.8928 130.417 83.6516 128.388 83.9638ZM126.959 75.0349C125.034 75.3313 123.176 76.0504 121.847 77.125C120.612 78.1208 120.024 79.2686 120.191 80.3513C120.361 81.4448 121.28 82.3663 122.779 82.949C125.982 84.1961 130.755 83.4634 133.413 81.3142C134.647 80.3165 135.235 79.1706 135.066 78.0863C134.898 76.9944 133.979 76.071 132.478 75.4887C130.877 74.8651 128.883 74.7389 126.959 75.0349Z" fill="white"/>
<path d="M88.2602 173.718C88.1549 173.734 88.0409 173.707 87.9537 173.631C82.02 168.554 76.7049 163.515 72.1562 158.65C72.0116 158.496 72.0198 158.255 72.1753 158.11C72.3252 157.966 72.5682 157.972 72.7154 158.129C77.2455 162.972 82.5387 167.992 88.4502 173.048C88.6114 173.186 88.6296 173.427 88.4936 173.588C88.4312 173.662 88.3471 173.705 88.2602 173.718Z" fill="#364F66"/>
<path d="M69.5282 155.503C69.4044 155.522 69.271 155.478 69.1816 155.376C59.3789 144.222 53.6949 134.021 52.2892 125.06C48.5985 101.523 56.4949 71.6472 72.4046 48.9431C72.5236 48.7697 72.7629 48.7272 72.9387 48.8495C73.1106 48.9706 73.1531 49.21 73.0323 49.3836C57.2293 71.9332 49.3845 101.592 53.0461 124.94C54.4278 133.757 60.0501 143.827 69.7583 154.872C69.8962 155.03 69.8824 155.272 69.7224 155.412C69.6655 155.461 69.5984 155.492 69.5282 155.503Z" fill="#364F66"/>
<path d="M76.716 44.292C76.6144 44.3077 76.5044 44.2811 76.418 44.2112C76.254 44.0794 76.2262 43.8378 76.3598 43.6735C80.2715 38.8082 84.4714 34.5623 88.8432 31.0523C89.0083 30.921 89.2468 30.9467 89.38 31.1115C89.5132 31.2764 89.4859 31.517 89.3208 31.6484C84.9928 35.1233 80.8324 39.3309 76.9557 44.153C76.8938 44.2306 76.8066 44.2781 76.716 44.292Z" fill="#364F66"/>
</g>
<defs>
<filter id="filter0_n_207_156" x="24.1172" y="142.12" width="1384" height="481" filterUnits="userSpaceOnUse" color-interpolation-filters="sRGB">
<feFlood flood-opacity="0" result="BackgroundImageFix"/>
<feBlend mode="normal" in="SourceGraphic" in2="BackgroundImageFix" result="shape"/>
<feTurbulence type="fractalNoise" baseFrequency="5 5" stitchTiles="stitch" numOctaves="3" result="noise" seed="5442" />
<feColorMatrix in="noise" type="luminanceToAlpha" result="alphaNoise" />
<feComponentTransfer in="alphaNoise" result="coloredNoise1">
<feFuncA type="discrete" tableValues="0 0 1 1 1 1 1 1 1 1 1 1 1 1 1 1 1 1 1 1 1 1 1 1 1 1 1 1 1 1 1 1 1 1 1 1 1 1 1 1 1 1 1 1 1 1 1 1 0 0 0 0 0 0 0 0 0 0 0 0 0 0 0 0 0 0 0 0 0 0 0 0 0 0 0 0 0 0 0 0 0 0 0 0 0 0 0 0 0 0 0 0 0 0 0 0 0 0 0 0 "/>
</feComponentTransfer>
<feComposite operator="in" in2="shape" in="coloredNoise1" result="noise1Clipped" />
<feFlood flood-color="rgba(243, 247, 255, 0.46)" result="color1Flood" />
<feComposite operator="in" in2="noise1Clipped" in="color1Flood" result="color1" />
<feMerge result="effect1_noise_207_156">
<feMergeNode in="shape" />
<feMergeNode in="color1" />
</feMerge>
</filter>
<linearGradient id="paint0_linear_207_156" x1="54.142" y1="235.915" x2="1427.37" y2="357.466" gradientUnits="userSpaceOnUse">
<stop stop-color="#FFA0A0"/>
<stop offset="0.477092" stop-color="#B8CCFF"/>
<stop offset="1" stop-color="#AAAFFF"/>
</linearGradient>
<clipPath id="clip0_207_156">
<rect width="201" height="201" fill="white" transform="translate(0 30.5767) rotate(-8.75)"/>
</clipPath>
</defs>
</svg>
