<svg width="182" height="204" viewBox="0 0 182 204" fill="none" xmlns="http://www.w3.org/2000/svg">
<path d="M18.3381 61.9086C18.1293 61.9407 17.9332 61.7969 17.9011 61.5881L16.445 52.1281C16.4129 51.9193 16.5567 51.7232 16.7655 51.691C16.9743 51.6589 17.1704 51.8027 17.2026 52.0115L18.6586 61.4715C18.6907 61.6803 18.5469 61.8765 18.3381 61.9086Z" fill="#364F66"/>
<path d="M15.1376 63.6728C14.9288 63.7049 14.7327 63.5611 14.7005 63.3523L11.5974 43.1906C11.5652 42.9818 11.709 42.7857 11.9178 42.7535C12.1266 42.7214 12.3228 42.8652 12.3549 43.074L15.4581 63.2357C15.4902 63.4445 15.3464 63.6406 15.1376 63.6728Z" fill="#364F66"/>
<path d="M11.8156 65.8179C11.6068 65.85 11.4107 65.7062 11.3786 65.4974L8.86689 49.1789C8.83476 48.9701 8.97858 48.7739 9.18736 48.7418C9.39615 48.7097 9.5923 48.8535 9.62443 49.0623L12.1361 65.3808C12.1682 65.5896 12.0244 65.7858 11.8156 65.8179Z" fill="#364F66"/>
<path d="M8.2065 67.7486C7.99772 67.7808 7.80157 67.6369 7.76943 67.4281L6.39814 58.5187C6.36601 58.3099 6.50983 58.1138 6.71861 58.0816C6.9274 58.0495 7.12355 58.1933 7.15568 58.4021L8.52698 67.3115C8.55911 67.5203 8.41529 67.7165 8.2065 67.7486Z" fill="#364F66"/>
<path d="M171.147 152.205C170.938 152.238 170.742 152.094 170.71 151.885L169.254 142.425C169.221 142.216 169.365 142.02 169.574 141.988C169.783 141.956 169.979 142.1 170.011 142.308L171.467 151.768C171.499 151.977 171.356 152.173 171.147 152.205Z" fill="#364F66"/>
<path d="M167.946 153.97C167.737 154.002 167.541 153.858 167.509 153.649L164.406 133.487C164.374 133.279 164.518 133.083 164.726 133.05C164.935 133.018 165.131 133.162 165.163 133.371L168.267 153.533C168.299 153.741 168.155 153.937 167.946 153.97Z" fill="#364F66"/>
<path d="M164.624 156.115C164.415 156.147 164.219 156.003 164.187 155.794L161.675 139.476C161.643 139.267 161.787 139.071 161.996 139.039C162.205 139.007 162.401 139.15 162.433 139.359L164.945 155.678C164.977 155.886 164.833 156.083 164.624 156.115Z" fill="#364F66"/>
<path d="M161.015 158.044C160.806 158.076 160.61 157.932 160.578 157.723L159.207 148.816C159.175 148.607 159.318 148.411 159.527 148.379C159.736 148.346 159.932 148.49 159.964 148.699L161.335 157.607C161.367 157.815 161.224 158.012 161.015 158.044Z" fill="#364F66"/>
<path d="M42.6708 176.257C42.462 176.289 42.2658 176.145 42.2337 175.936L41.3564 170.236C40.0951 170.447 36.1618 171.104 35.367 171.151C35.1572 171.164 34.9754 171.003 34.9617 170.791C34.9502 170.581 35.1003 170.376 35.3212 170.386C36.2012 170.328 41.557 169.426 41.6122 169.416C41.7185 169.369 41.8158 169.424 41.9006 169.483C41.9837 169.544 42.0391 169.634 42.0548 169.735L42.9912 175.82C43.0234 176.029 42.8796 176.225 42.6708 176.257Z" fill="#364F66"/>
<path d="M144.477 127.968C144.268 128.001 144.072 127.857 144.04 127.648L143.162 121.946C141.899 122.158 137.969 122.813 137.173 122.86C136.963 122.874 136.781 122.713 136.768 122.501C136.756 122.291 136.876 122.102 137.127 122.096C138.009 122.041 143.363 121.138 143.418 121.126C143.524 121.141 143.621 121.132 143.706 121.193C143.79 121.254 143.845 121.344 143.861 121.445L144.797 127.531C144.83 127.74 144.686 127.936 144.477 127.968Z" fill="#364F66"/>
<path d="M19.8759 131.104C18.0708 131.382 16.3758 130.139 16.0977 128.332C15.8198 126.527 17.0626 124.832 18.8678 124.554C20.673 124.276 22.3679 125.519 22.6458 127.324C22.9239 129.131 21.6811 130.826 19.8759 131.104ZM18.9844 125.312C17.5968 125.525 16.6416 126.828 16.8552 128.215C17.0691 129.605 18.3718 130.56 19.7593 130.346C21.1469 130.133 22.1021 128.83 21.8882 127.441C21.6747 126.053 20.372 125.098 18.9844 125.312Z" fill="#364F66"/>
<path d="M157.475 39.4312C156.636 39.5604 155.902 39.435 155.283 39.0536C153.086 37.7028 153.26 33.6473 153.267 33.4759C153.287 31.8444 152.93 30.8287 152.207 30.4691C150.943 29.8408 148.676 31.2679 147.909 31.8663C147.741 31.9906 147.503 31.9667 147.371 31.7997C147.241 31.6324 147.271 31.3934 147.438 31.2618C147.568 31.1604 150.594 28.824 152.546 29.7833C153.557 30.2839 154.056 31.5331 154.033 33.4999C154.032 33.5512 153.873 37.2885 155.686 38.4015C156.602 38.9661 157.919 38.7652 159.603 37.8081C159.79 37.6961 160.02 37.7666 160.124 37.9511C160.23 38.1353 160.166 38.3684 159.981 38.4724C159.063 38.9958 158.227 39.3155 157.475 39.4312Z" fill="#364F66"/>
<path d="M120.002 170.323L121.104 177.493C121.54 180.385 120.091 183.563 116.648 186.35C109.715 191.961 97.3299 193.864 88.9824 190.601C84.7819 188.959 82.4047 186.321 81.9629 183.391L80.861 176.222C81.3028 179.152 89.2777 174.27 93.4782 175.912C101.826 179.175 104.149 179.977 111.082 174.366C114.525 171.579 120.439 173.215 120.002 170.323Z" fill="#AAC4E8"/>
<path d="M102.309 178.47C99.9569 178.421 97.3736 177.434 93.4784 175.912C89.2777 174.269 81.3028 179.152 80.8611 176.222L81.9629 183.391C82.4048 186.321 84.782 188.959 88.9825 190.601C93.4361 192.342 99.039 192.612 104.35 191.633L102.309 178.47Z" fill="#8FB0D8"/>
<path d="M112.98 163.115C121.327 166.378 122.474 173.571 115.543 179.182C108.61 184.793 96.225 186.696 87.8775 183.433C79.5301 180.17 78.3833 172.976 85.316 167.365C92.2472 161.755 104.632 159.851 112.98 163.115Z" fill="#DBE7FE"/>
<path d="M115.542 179.184C108.61 184.795 96.2251 186.698 87.8778 183.435C81.5871 180.974 79.3854 176.287 81.6474 171.725C84.041 171.245 86.6678 171.442 89.134 171.63C92.9949 171.926 97.333 171.938 100.15 169.28C100.541 168.913 100.895 168.496 101.357 168.226C101.859 167.928 102.446 167.825 103.024 167.753C105.47 167.442 108.413 167.345 109.666 165.216C110.179 164.346 110.275 163.316 110.501 162.326C111.357 162.545 112.186 162.806 112.978 163.117C121.326 166.38 122.474 173.572 115.542 179.184Z" fill="#C6D7F4"/>
<path d="M108.086 10.5567C98.2168 6.68662 85.7862 9.35898 73.172 19.483C48.1043 39.602 31.8026 81.5305 36.7582 113.131C40.4921 136.942 73.6757 163.56 89.811 175.239C90.1423 175.478 90.4887 175.667 90.8468 175.807L97.748 178.514C101.435 177.62 102.041 164.633 97.5466 165.169C77.7683 167.528 78.3389 116.119 74.605 92.3081C69.6498 60.7079 70.2917 59.1395 98.8224 73.9435C121.608 85.7665 112.935 26.2597 114.987 13.2629L108.086 10.5567Z" fill="#1C323D"/>
<path d="M80.0745 22.19C105.142 2.07117 129.484 11.3798 134.439 42.98C138.173 66.7909 119.82 134.773 110.545 166.845C109.296 171.166 106.926 174.728 104.324 176.816C101.723 178.904 98.8895 179.519 96.7137 177.946C80.5782 166.267 47.3945 139.649 43.6606 115.838C38.7051 84.2375 55.0067 42.309 80.0745 22.19Z" fill="#324566"/>
<path d="M134.439 42.9821C138.179 66.7811 119.824 134.777 110.541 166.847C109.289 171.159 106.925 174.723 104.314 176.811C101.723 178.897 98.8873 179.525 96.7086 177.944C80.5777 166.266 47.3914 139.641 43.6517 115.842C40.6783 96.7728 45.4215 73.9293 55.1611 54.4177C60.8834 53.7477 66.613 53.2491 70.9023 49.6187C72.3751 48.3573 73.5903 46.7906 75.1831 45.6831C81.0979 41.5343 90.3022 44.8124 95.7852 40.0977C97.3588 38.744 98.4256 36.8361 100.021 35.4983C103.416 32.657 108.339 32.8957 112.757 32.714C117.194 32.5294 122.373 31.1957 123.916 27.0298C124.434 25.6662 124.497 24.0852 125.48 22.9951C125.739 22.6869 126.087 22.4607 126.439 22.2535C130.298 27.4081 133.076 34.3772 134.439 42.9821Z" fill="#26404F"/>
<g opacity="0.1">
<path d="M134.927 49.3685C135.149 64.4028 130.528 88.7433 124.89 112.64C120.816 114.235 116.386 115.401 111.751 116.115C101.666 117.667 91.7972 116.842 83.9479 113.79C75.5629 110.529 70.4149 105.142 69.4262 98.5932L67.8392 88.0301L60.034 85.0091C57.0208 83.8071 55.0897 81.7027 54.7432 79.1994L54.2481 75.983C53.8666 73.5045 55.0596 70.9386 57.5267 68.9706L91.2579 41.7378C93.3564 40.0203 96.3052 38.7917 99.5215 38.2967C102.738 37.8016 105.92 38.0867 108.475 39.0878L134.927 49.3685Z" fill="white"/>
</g>
<path d="M140.424 62.4955L144.169 87.2935C144.973 92.6171 142.293 98.4687 135.931 103.604C123.125 113.942 100.254 117.46 84.8395 111.466C77.0845 108.45 72.6958 103.6 71.8816 98.2083L68.1367 73.4104C68.951 78.8023 73.3396 83.6524 81.0947 86.6681C96.509 92.6624 119.38 89.1444 132.186 78.8065C138.548 73.6707 141.228 67.8191 140.424 62.4955Z" fill="#FBD46C"/>
<path d="M142.804 78.1933L144.175 87.298C144.972 92.6145 142.295 98.4658 135.93 103.61C123.125 113.94 100.254 117.46 84.8434 111.462C77.0899 108.45 72.6939 103.606 71.8839 98.2087L70.6051 89.7685C72.3376 89.5327 74.1711 89.7543 75.8084 90.3044C79.5302 91.572 82.6072 94.1934 85.9567 96.2484C88.9646 98.0886 92.5474 99.5216 95.9748 98.6753C99.5398 97.7873 102.328 94.5922 105.984 94.2968C108.158 94.1267 110.261 95.0267 112.359 95.6292C116.424 96.7925 121.448 96.5643 124.051 93.2332C125.005 92.017 125.559 90.4717 126.754 89.4858C129.192 87.486 133.096 88.7359 135.78 87.0683C138.378 85.4448 138.824 81.798 140.918 79.5634C141.456 78.9869 142.095 78.5287 142.804 78.1933Z" fill="#F9C539"/>
<path d="M151.896 61.0154L152.383 64.2603C152.616 65.8009 151.842 67.4925 150.004 68.9729L116.289 96.1919C112.59 99.177 105.977 100.199 101.522 98.4648L60.9402 82.6853C58.6996 81.8122 57.433 80.4103 57.1974 78.8538L56.7068 75.6134C61.2451 70.7871 93.9271 57.9018 92.0539 64.8719L99.4322 85.8013C103.887 87.5354 110.496 86.5141 114.196 83.5291L130.463 61.3364C123.353 54.7169 143.736 57.7415 151.896 61.0154Z" fill="#D89A1E"/>
<path d="M148.151 57.184C152.605 58.916 153.216 62.7412 149.516 65.7283L115.799 92.9464C112.101 95.9317 105.489 96.9509 101.035 95.2188L60.4516 79.437C55.9978 77.705 55.3869 73.8799 59.0873 70.8927L92.8043 43.6746C96.5047 40.6875 103.114 39.6701 107.568 41.4021L148.151 57.184Z" fill="#FBD46C"/>
<path d="M149.512 65.7295L115.797 92.9485C112.097 95.9336 105.488 96.9549 101.034 95.2208L60.4472 79.4379C55.9973 77.7072 55.3842 73.8828 59.0832 70.8938L62.4131 68.206C62.695 68.1585 62.9782 68.119 63.258 68.0841C68.0947 67.4578 73.0193 67.9586 77.8624 67.4005C82.7089 66.8379 87.766 64.9434 90.4011 60.839C91.4982 59.1263 92.1339 57.0894 93.5795 55.6571C95.5586 53.6945 98.5519 53.3194 101.283 52.7728C104.014 52.2302 107.024 51.1396 108.112 48.5769C108.873 46.7733 108.476 44.6673 109.12 42.8206C109.205 42.5793 109.304 42.3483 109.421 42.1266L148.148 57.1854C152.603 58.9195 153.216 62.7439 149.512 65.7295Z" fill="#F9C539"/>
<path d="M81.4245 101.185C81.0397 101.244 80.6801 100.98 80.6209 100.596L78.9995 90.0616C78.7334 88.3325 79.4137 86.5755 80.7749 85.4763L105.515 65.5033C105.818 65.2592 106.262 65.3066 106.506 65.609C106.75 65.9117 106.703 66.3554 106.4 66.5999L81.6602 86.5728C80.6882 87.3577 80.2022 88.6124 80.3923 89.8472L82.0137 100.381C82.0728 100.766 81.8092 101.126 81.4245 101.185Z" fill="#D89A1E"/>
<path d="M80.6784 100.755C80.2937 100.814 79.934 100.551 79.8748 100.166L78.2534 89.6319C77.9873 87.9028 78.6677 86.1458 80.0288 85.0466L104.769 65.0736C105.072 64.8295 105.516 64.8769 105.76 65.1793C106.004 65.482 105.957 65.9257 105.654 66.1702L80.9141 86.1431C79.9421 86.928 79.4562 88.1827 79.6462 89.4175L81.2676 99.9517C81.3268 100.336 81.0631 100.696 80.6784 100.755Z" fill="#324566"/>
<path d="M110.595 61.7642C113.89 63.0456 114.343 65.8723 111.606 68.0822C108.868 70.292 103.983 71.0427 100.688 69.7613C97.3957 68.4809 96.9422 65.6542 99.6796 63.4444C102.417 61.2345 107.302 60.4838 110.595 61.7642Z" fill="#D89A1E"/>
<path d="M108.946 62.3228C112.241 63.6042 112.695 66.4309 109.957 68.6408C107.22 70.8506 102.335 71.6013 99.0398 70.3199C95.7472 69.0395 95.2937 66.2128 98.0312 64.003C100.769 61.7931 105.654 61.0424 108.946 62.3228Z" fill="#324566"/>
<path d="M109.956 68.6439C107.221 70.8532 102.336 71.6007 99.0407 70.3196C97.5736 69.7501 96.6692 68.87 96.3624 67.8759C96.9009 67.7491 97.4839 67.7121 98.0393 67.6661C99.0984 67.5822 100.312 67.3031 100.785 66.3516C101.084 65.7563 101.028 64.9873 101.484 64.4997C102.019 63.9209 103.067 63.966 103.458 63.2819C103.712 62.8431 103.565 62.3429 103.433 61.8315C105.359 61.557 107.341 61.7002 108.948 62.3227C112.243 63.6039 112.696 66.434 109.956 68.6439Z" fill="#26404F"/>
<path d="M79.4278 96.0611L78.7701 104.817C79.024 106.467 83.9732 105.705 83.7193 104.056L80.4589 95.9024L79.4278 96.0611Z" fill="#324566"/>
<path d="M83.7201 104.054C83.9743 105.705 79.0279 106.466 78.7737 104.815L79.0709 100.842C79.1976 100.819 79.323 100.787 79.4474 100.748C79.7232 100.66 79.9873 100.497 80.1103 100.238C80.1988 100.045 80.2002 99.817 80.3118 99.641C80.4818 99.3704 80.8556 99.2843 81.0172 99.011C81.1138 98.8454 81.1198 98.6449 81.1267 98.4523C81.1349 98.2148 81.1545 97.9715 81.1958 97.737L83.7201 104.054Z" fill="#26404F"/>
<path d="M104.755 71.0701C102.727 71.3823 100.625 71.248 98.9374 70.5905C97.2394 69.9307 96.1934 68.849 95.9911 67.5467C95.7899 66.2518 96.4523 64.9147 97.8537 63.7836C100.653 61.52 105.675 60.747 109.054 62.0596C110.752 62.7194 111.8 63.8008 112.003 65.105C112.204 66.3999 111.541 67.7351 110.14 68.8681C108.74 69.999 106.784 70.7578 104.755 71.0701ZM103.326 62.1412C101.401 62.4375 99.5428 63.1567 98.2139 64.2312C96.9789 65.2271 96.3914 66.3748 96.558 67.4576C96.7282 68.5511 97.6475 69.4726 99.1462 70.0552C102.349 71.3023 107.122 70.5696 109.78 68.4204C111.015 67.4228 111.602 66.2769 111.434 65.1926C111.265 64.1006 110.346 63.1773 108.845 62.5949C107.244 61.9714 105.25 61.8451 103.326 62.1412Z" fill="white"/>
<path d="M64.6303 160.825C64.525 160.841 64.411 160.813 64.3238 160.737C58.3901 155.661 53.075 150.621 48.5264 145.756C48.3817 145.603 48.3899 145.361 48.5454 145.216C48.6953 145.072 48.9384 145.078 49.0855 145.235C53.6156 150.078 58.9088 155.098 64.8203 160.154C64.9815 160.292 64.9997 160.533 64.8637 160.694C64.8013 160.768 64.7172 160.811 64.6303 160.825Z" fill="#364F66"/>
<path d="M45.8983 142.609C45.7746 142.628 45.6411 142.584 45.5517 142.483C35.749 131.328 30.065 121.127 28.6593 112.166C24.9686 88.6297 32.865 58.7534 48.7747 36.0493C48.8937 35.8759 49.133 35.8334 49.3088 35.9558C49.4807 36.0769 49.5232 36.3162 49.4024 36.4899C33.5994 59.0395 25.7546 88.6979 29.4163 112.046C30.7979 120.863 36.4202 130.934 46.1284 141.978C46.2663 142.136 46.2525 142.379 46.0925 142.519C46.0356 142.567 45.9686 142.598 45.8983 142.609Z" fill="#364F66"/>
<path d="M53.0862 31.3983C52.9845 31.4139 52.8745 31.3874 52.7881 31.3174C52.6241 31.1857 52.5964 30.9441 52.7299 30.7798C56.6416 25.9144 60.8415 21.6686 65.2133 18.1586C65.3785 18.0272 65.617 18.0529 65.7501 18.2178C65.8833 18.3826 65.8561 18.6233 65.6909 18.7546C61.3629 22.2295 57.2025 26.4371 53.3258 31.2593C53.264 31.3369 53.1767 31.3844 53.0862 31.3983Z" fill="#364F66"/>
</svg>
