<svg width="113" height="113" viewBox="0 0 113 113" fill="none" xmlns="http://www.w3.org/2000/svg">
<g opacity="0.1">
<path d="M59.1356 98.0275C58.3672 98.5794 57.445 98.8762 56.499 98.8762C55.5529 98.8762 54.6307 98.5794 53.8623 98.0275C31.1258 81.8214 6.99555 48.4864 31.3894 24.3986C38.0863 17.8109 47.1051 14.1209 56.499 14.125C65.9156 14.125 74.9509 17.821 81.6085 24.3939C106.002 48.4817 81.8722 81.812 59.1356 98.0275Z" stroke="#5885DD" stroke-width="1.5" stroke-linecap="round" stroke-linejoin="round"/>
<path d="M56.4987 56.5013C58.9962 56.5013 61.3913 55.5092 63.1573 53.7432C64.9233 51.9773 65.9154 49.5821 65.9154 47.0846C65.9154 44.5872 64.9233 42.192 63.1573 40.426C61.3913 38.6601 58.9962 37.668 56.4987 37.668C54.0012 37.668 51.6061 38.6601 49.8401 40.426C48.0741 42.192 47.082 44.5872 47.082 47.0846C47.082 49.5821 48.0741 51.9773 49.8401 53.7432C51.6061 55.5092 54.0012 56.5013 56.4987 56.5013Z" stroke="#5885DD" stroke-width="1.5" stroke-linecap="round" stroke-linejoin="round"/>
</g>
</svg>
