<svg width="113" height="113" viewBox="0 0 113 113" fill="none" xmlns="http://www.w3.org/2000/svg">
<g opacity="0.1">
<path d="M91.8138 103.583C93.6869 103.583 95.4833 102.839 96.8077 101.515C98.1322 100.19 98.8763 98.3939 98.8763 96.5208V80.0417C98.8763 78.1686 98.1322 76.3722 96.8077 75.0477C95.4833 73.7233 93.6869 72.9792 91.8138 72.9792C86.3051 72.9792 80.8905 72.1317 75.7113 70.3896C74.4731 69.9987 73.1514 69.9545 71.8898 70.2616C70.6282 70.5687 69.4747 71.2154 68.5546 72.1317L61.7746 78.9117C50.0614 72.5197 40.4345 62.8928 34.0426 51.1796L40.7755 44.4467C42.7059 42.6104 43.4121 39.8796 42.5646 37.2429C40.8696 32.1108 40.0221 26.6962 40.0221 21.1875C40.0221 19.3144 39.2781 17.518 37.9536 16.1936C36.6291 14.8691 34.8327 14.125 32.9596 14.125H16.4805C14.6074 14.125 12.811 14.8691 11.4865 16.1936C10.1621 17.518 9.41797 19.3144 9.41797 21.1875C9.41797 66.6229 46.3784 103.583 91.8138 103.583ZM16.4805 18.8333H32.9596C33.584 18.8333 34.1828 19.0814 34.6243 19.5229C35.0658 19.9643 35.3138 20.5631 35.3138 21.1875C35.3138 27.2142 36.2555 33.0996 38.0917 38.7025C38.3271 39.3617 38.2801 40.3033 37.5267 41.0567L28.2513 50.285C36.0201 65.4929 47.4142 76.8871 62.6692 84.75L71.8505 75.4746C72.5096 74.8154 73.4042 74.6271 74.2517 74.8625C79.9017 76.7458 85.7871 77.6875 91.8138 77.6875C92.4382 77.6875 93.037 77.9355 93.4785 78.377C93.9199 78.8185 94.168 79.4173 94.168 80.0417V96.5208C94.168 97.1452 93.9199 97.744 93.4785 98.1855C93.037 98.627 92.4382 98.875 91.8138 98.875C48.968 98.875 14.1263 64.0333 14.1263 21.1875C14.1263 20.5631 14.3743 19.9643 14.8158 19.5229C15.2573 19.0814 15.8561 18.8333 16.4805 18.8333Z" fill="#5885DD"/>
</g>
</svg>
