<svg width="34" height="28" viewBox="0 0 34 28" fill="none" xmlns="http://www.w3.org/2000/svg">
<path d="M14.3602 0C14.7122 1.04869 14.8882 1.9226 14.8882 2.62173C14.8882 3.25094 14.7826 4.08989 14.5714 5.13858C9.85507 5.13858 7.49689 7.55056 7.49689 12.3745C7.49689 14.1223 8.41201 15.1011 10.2422 15.3109C12.9172 15.5206 14.2547 17.2335 14.2547 20.4494C14.2547 22.8964 13.6563 24.784 12.4596 26.1124C11.3333 27.3708 9.25673 28 6.22981 28C2.0766 28 0 25.2035 0 19.6105C0 14.0175 1.12629 9.36829 3.37888 5.66292C5.63147 1.88764 9.29193 0 14.3602 0ZM33.472 0C33.824 1.04869 34 1.9226 34 2.62173C34 3.25094 33.8944 4.08989 33.6832 5.13858C28.9669 5.13858 26.6087 7.55056 26.6087 12.3745C26.6087 14.1223 27.5238 15.1011 29.354 15.3109C32.029 15.5206 33.3665 17.2335 33.3665 20.4494C33.3665 22.8964 32.7681 24.784 31.5714 26.1124C30.4451 27.3708 28.3685 28 25.3416 28C21.1884 28 19.1118 25.2035 19.1118 19.6105C19.1118 14.0175 20.2381 9.36829 22.4907 5.66292C24.7433 1.88764 28.4037 0 33.472 0Z" fill="#5885DD"/>
</svg>
