<svg width="113" height="113" viewBox="0 0 113 113" fill="none" xmlns="http://www.w3.org/2000/svg">
<g opacity="0.1">
<path d="M21.7337 89.4596C19.5647 89.4596 17.7551 88.7346 16.305 87.2844C14.8548 85.8342 14.1281 84.0231 14.125 81.851V31.1516C14.125 28.9827 14.8517 27.1731 16.305 25.7229C17.7583 24.2728 19.5663 23.5461 21.729 23.543H91.271C93.4369 23.543 95.2449 24.2696 96.695 25.7229C98.1452 27.1762 98.8719 28.9858 98.875 31.1516V81.8557C98.875 84.0215 98.1484 85.8311 96.695 87.2844C95.2417 88.7377 93.4337 89.4628 91.271 89.4596H21.7337ZM56.5 57.0475L18.8333 32.4182V81.8557C18.8333 82.7 19.1048 83.3937 19.6479 83.9368C20.1909 84.4798 20.8862 84.7513 21.7337 84.7513H91.271C92.1154 84.7513 92.8091 84.4798 93.3521 83.9368C93.8952 83.3937 94.1667 82.6985 94.1667 81.851V32.4135L56.5 57.0475ZM56.5 51.793L92.7165 28.2513H20.2835L56.5 51.793ZM18.8333 32.4182V28.2513V81.8557C18.8333 82.7 19.1048 83.3937 19.6479 83.9368C20.1909 84.4798 20.8862 84.7513 21.7337 84.7513H18.8333V32.4182Z" fill="black"/>
</g>
</svg>
