<svg width="75" height="75" viewBox="0 0 75 75" fill="none" xmlns="http://www.w3.org/2000/svg">
<path d="M57.2932 4.94014C47.4468 3.43595 38.7798 10.9001 39.3742 19.5925C39.6604 23.8838 42.6423 27.6779 42.2873 31.6657C42.1783 32.7499 41.8493 33.7816 41.9244 35.0346C41.273 35.0373 40.6428 35.3105 40.1916 35.8122C38.6193 37.5378 36.4601 38.5319 34.3566 39.3513C32.3449 40.1452 30.2336 41.071 27.7121 42.2673C24.3919 43.8545 22.1026 46.5736 16.9957 48.2192C16.9961 48.1897 16.994 48.326 17.0002 47.9314C17.0148 46.6687 15.9973 45.6286 14.7297 45.613L7.47968 45.5329C6.23163 45.53 5.17695 46.5319 5.1623 47.7937L4.94159 67.8532C4.92567 69.103 5.92125 70.1573 7.20038 70.1716L14.4514 70.2526C14.4601 70.2526 14.4699 70.2526 14.4787 70.2526C15.7299 70.2526 16.7546 69.2491 16.7687 67.9812L16.7806 66.9321L30.6584 68.6677C36.4271 69.387 42.8361 68.8333 47.8215 65.9362C49.0627 65.2121 51.3315 63.5367 52.3225 61.9108C54.0617 58.9841 57.4943 52.6394 58.7863 50.2507L58.1437 49.863L57.467 49.5378C56.1789 51.9187 52.757 58.2439 51.0373 61.1374C50.1752 62.5524 47.8681 64.1727 47.0666 64.6403C41.4396 67.9108 34.4865 67.6345 30.8439 67.1794L16.7976 65.4226L16.9733 49.812C22.4215 48.2158 25.2606 45.1007 28.3566 43.6218C30.8459 42.4411 32.9269 41.528 34.9045 40.7478C37.0656 39.906 39.5158 38.7819 41.3039 36.819C41.5531 36.5391 41.9469 36.4376 42.3356 36.6396C42.4479 36.8656 42.626 37.1472 42.7989 37.3332C43.0902 39.1432 43.0862 40.2442 41.0119 41.7429C38.8747 43.2859 36.6345 44.6021 35.5871 47.1765C34.5822 49.6355 35.0305 52.4499 36.7277 54.3444C38.5529 56.3903 41.2561 57.0485 44.841 56.2731C45.3371 56.1032 49.7678 54.4841 52.4738 50.1306C52.967 49.3425 53.3889 48.4851 53.7316 47.573C53.9982 46.8327 54.6467 46.2595 55.383 46.113C55.4084 46.1081 55.4338 46.1022 55.4582 46.0944C55.926 46.0437 57.2258 46.2731 57.6926 47.5231C57.9172 48.1189 57.841 48.8425 57.4836 49.5075L58.1437 49.863L58.8029 50.2194C58.8039 50.2194 58.8039 50.2185 58.8039 50.2185C60.1309 47.7508 58.7486 45.0823 56.2161 44.6398C56.2515 44.3105 56.243 44.01 56.1477 43.7263C56.3049 43.5847 56.4348 43.4235 56.5275 43.2556C56.7941 42.8493 56.8898 42.4362 56.965 42.0456C57.0357 41.5578 57.0242 41.0748 56.972 40.5981C58.4189 40.4567 59.4693 38.8948 60.0256 37.5456C61.436 33.6392 60.7294 34.2837 64.4908 30.8928C64.4905 30.8929 64.491 30.8927 64.4908 30.8928C67.7105 27.8057 69.9231 23.6831 70.0512 19.1355C70.2678 11.8343 63.9733 5.96206 57.2932 4.94014ZM14.4689 68.7526L7.21796 68.6716C6.78167 68.6675 6.43562 68.3069 6.44159 67.8708L6.6623 47.8103C6.66631 47.3851 7.02404 47.0329 7.45331 47.0329C8.11406 47.0402 15.1626 47.118 14.7121 47.113C15.1516 47.1189 15.5051 47.4772 15.5002 47.9128C15.5016 47.6035 15.4471 52.1254 15.2687 67.9646C15.2643 68.4485 14.8316 68.7858 14.4689 68.7526ZM55.4865 41.7956C55.4299 42.0896 55.3811 42.2683 55.2443 42.4802C55.2054 42.5506 55.1373 42.6129 55.0633 42.6646L44.1151 40.3947C44.3364 39.8586 44.4665 39.2761 44.4147 38.2817C44.4559 38.2153 44.505 38.1433 44.561 38.0673C59.6017 41.2489 51.3252 39.4158 55.4508 40.4355C55.5364 40.8825 55.5487 41.3635 55.4865 41.7956ZM51.4112 48.9591C51.2067 48.8442 51.6307 48.9862 43.6915 47.2243C43.2559 46.4841 42.6871 45.396 42.6242 45.2927C42.6148 45.2543 42.6256 45.206 42.6375 45.1574L52.3771 46.9316C52.099 47.63 51.8736 48.1574 51.4112 48.9591ZM51.1711 27.2985C51.9952 24.933 51.7457 23.8814 52.2707 23.4636C52.6748 23.1436 53.8514 23.1788 54.3566 23.6335C54.7238 23.9636 54.7541 24.5183 54.6603 24.9274C54.4981 25.6425 53.6356 26.7264 53.384 27.7478C53.1379 28.7497 53.1301 29.9528 53.6574 30.8396C53.5471 31.1784 53.4611 31.5095 53.4006 31.8317L51.7477 37.4367L49.0563 36.872C51.2383 25.8505 50.4978 29.2454 51.1711 27.2985ZM47.6223 28.7087C47.0217 28.5347 46.0407 27.471 46.0969 26.4939C46.1317 25.8867 46.6466 25.2468 47.3664 25.2468C47.8176 25.2468 48.3137 25.4753 48.6623 25.8562C49.2277 26.4763 49.342 27.0935 49.2687 27.8728C48.7779 28.6279 48.0789 28.8382 47.6223 28.7087ZM40.8703 19.4919C40.3495 11.8592 48.0441 5.05265 57.0666 6.42256C68.8704 8.22899 71.613 20.8144 62.9367 29.0915C60.2477 31.636 59.6393 31.6093 58.5568 34.9704C58.2068 36.0544 57.6228 37.8667 56.4738 38.3581C56.1135 38.5163 55.1467 38.239 54.5676 38.072C53.6201 37.8017 53.8035 37.8795 53.2204 37.7456C54.089 34.7619 54.7537 32.6019 54.924 31.8728C55.9582 32.2224 57.2336 31.9167 57.8312 31.6696C58.883 31.236 59.9865 29.9782 59.9338 28.7009C59.8869 27.6022 59.0002 26.6286 57.9143 26.4831C57.2463 26.3952 56.5236 26.6022 55.9279 27.0573C55.4377 27.4333 55.0824 27.9262 54.7707 28.4538C54.958 27.2415 55.8265 26.5577 56.1232 25.2624C56.5314 23.4826 55.5081 21.8612 53.2863 21.7585C52.4982 21.7214 51.8195 21.905 51.3361 22.2897C50.4081 23.0304 50.4506 24.1371 50.1711 25.3542C49.3116 24.076 47.9689 23.5831 46.8566 23.7946C45.6232 24.029 44.673 25.1286 44.5988 26.4079C44.5022 28.1144 45.9597 29.7918 47.2082 30.1501C47.7375 30.3024 48.3264 30.2644 48.8752 30.0612C48.5455 31.7294 47.9025 34.9787 47.5889 36.5642C43.9312 35.8043 44.3226 35.8639 43.9045 35.8054C43.8233 35.7935 43.7072 35.7719 43.6055 35.7413C43.5972 35.7329 43.5866 35.7268 43.5781 35.7183C43.1497 34.538 43.6347 33.2757 43.7805 31.8073C44.1787 27.3364 41.1427 23.5427 40.8703 19.4919ZM55.4143 30.4548C55.6946 29.8233 56.292 28.6678 56.8391 28.2487C57.1154 28.0378 57.4455 27.9314 57.715 27.9694C58.1281 28.0251 58.4211 28.4255 58.4357 28.7644C58.4562 29.2683 57.8625 30.0339 57.259 30.2829C56.718 30.5046 55.8898 30.611 55.4143 30.4548ZM44.4406 54.8308C41.507 55.4587 39.2863 54.9606 37.8459 53.3454C36.5285 51.8737 36.1867 49.6745 36.9758 47.7429C37.8302 45.6431 39.8263 44.4292 41.7244 43.0766C41.7491 43.26 41.7867 43.4567 41.8547 43.6657C41.1687 44.3432 40.8703 45.2861 41.3566 46.1198C41.8024 46.8814 42.2332 47.783 42.7127 48.4903C43.2169 50.8007 46.1462 52.6813 49.2866 51.7089C47.0933 53.8581 44.7144 54.7323 44.4406 54.8308ZM53.3039 45.5748L43.5172 43.7921C43.4735 43.4537 43.2251 43.4312 43.1818 42.5524C43.1418 42.1814 43.1857 42.0319 43.2297 41.9724C43.2535 41.9398 43.3336 41.8796 43.5482 41.809L54.6876 44.1186C54.7996 44.3421 54.741 44.5444 54.6758 44.7556C54.1629 44.9238 53.6966 45.2064 53.3039 45.5748Z" fill="#5885DD"/>
<path d="M38.1457 12.2109C38.8654 12.2109 39.1733 11.2914 38.5949 10.8593L30.9026 5.12008C30.5686 4.87398 30.0998 4.94332 29.8527 5.2734C29.6057 5.60543 29.674 6.07516 30.0061 6.3232C37.9642 12.1915 37.6792 12.2109 38.1457 12.2109ZM26.1545 21.2812C26.2533 21.6892 26.6647 21.9294 27.0608 21.832L36.386 19.5625C36.7883 19.4648 37.0354 19.0595 36.9367 18.6562C36.8391 18.2539 36.4328 18.0048 36.0305 18.1054L26.7053 20.375C26.3029 20.4726 26.0559 20.8779 26.1545 21.2812ZM30.3752 14.998C35.8832 15.5659 35.4431 15.5244 35.5061 15.5244C35.886 15.5244 36.2111 15.2373 36.2512 14.8515C36.2942 14.4394 35.9944 14.0712 35.5822 14.0283L30.5295 13.5058C30.1125 13.4609 29.7492 13.7636 29.7063 14.1748C29.6633 14.5869 29.9631 14.955 30.3752 14.998Z" fill="#5885DD"/>
<path d="M11.7386 65.8131C12.5974 65.8131 13.2936 65.1169 13.2936 64.2581C13.2936 63.3993 12.5974 62.7031 11.7386 62.7031C10.8798 62.7031 10.1836 63.3993 10.1836 64.2581C10.1836 65.1169 10.8798 65.8131 11.7386 65.8131Z" fill="#5885DD"/>
</svg>
