<svg width="75" height="75" viewBox="0 0 75 75" fill="none" xmlns="http://www.w3.org/2000/svg">
<path d="M7.29599 18.484C10.5411 19.5811 15.8076 17.4013 18.8303 15.8255L27.238 18.5809C25.7749 21.1134 24.6469 23.9431 23.9552 27.002C22.9426 31.4976 22.9848 36.0396 23.9521 40.2221L19.0986 42.1457C16.9248 41.1737 10.9139 38.7733 7.42685 40.19C4.57076 41.3366 4.45674 43.5164 6.11728 44.6441L8.5886 46.3111L7.44931 46.7628C7.06455 46.9156 6.87607 47.3512 7.02842 47.7364C7.1835 48.1261 7.62312 48.3081 8.00205 48.1573L9.13913 47.7066L8.48154 50.6158C8.11661 52.2438 9.10016 53.3365 10.6905 53.3365C14.8305 53.3365 18.0487 47.3639 19.6477 43.5417L24.3318 41.6851C25.6194 46.1334 27.9956 50.0872 31.2903 53.0418L22.6856 67.4532C22.1006 68.4774 22.8661 69.7252 24.0099 69.7252C24.4933 69.7252 24.9679 69.4937 25.2706 69.0606L34.3867 55.3365C36.224 56.4625 38.2164 57.2906 40.3341 57.7657C41.3387 57.9997 42.3641 58.1234 43.3825 58.1812L43.545 65.4854C43.587 66.2901 44.2306 66.9127 45.0626 66.9346C45.879 66.9346 46.5509 66.2974 46.5919 65.4664L46.7807 58.203C50.1489 58.0535 53.3944 57.0754 56.3486 55.4152L60.9679 68.8595C61.254 69.6165 62.0779 70.0245 62.8507 69.776C63.6231 69.5318 64.0714 68.7257 63.8644 67.9176L59.6042 53.2213C69.8188 45.0679 73.4358 29.3098 67.129 17.399C64.0362 11.5601 59.0577 7.60653 53.1085 6.26668C51.4073 5.88729 49.7032 5.72518 48.0353 5.79207C48.0334 5.79207 48.032 5.79317 48.03 5.79329C40.2357 5.62874 32.7315 10.0726 28.045 17.2666L19.3016 14.4012C18.2527 12.263 15.1706 6.57405 11.5792 5.43123C8.6355 4.48355 7.17256 6.10183 7.72471 8.01815L8.5582 10.8805L7.39267 10.4986C7.00107 10.3692 6.57529 10.5846 6.44638 10.9781C6.31748 11.3717 6.53232 11.795 6.92588 11.9244L8.08811 12.3053L5.72178 14.1202C4.1216 15.3536 4.39849 17.5135 7.29599 18.484ZM25.4181 27.3326C26.1006 24.3137 27.2317 21.533 28.698 19.0593L32.3077 20.2423C30.7336 22.5714 29.5625 25.2346 28.9103 28.1212C28.1916 31.3027 28.1163 34.9041 28.873 38.2718L25.3567 39.6654C24.4892 35.7616 24.4734 31.5274 25.4181 27.3326ZM46.2363 31.6635C45.8106 31.5703 45.551 31.1444 45.6445 30.729C45.7379 30.3136 46.1533 30.0435 46.5791 30.1369C47.6281 30.3758 48.2718 31.5183 48.0122 32.671C47.9292 33.0345 47.6073 33.2838 47.2541 33.2838C46.7512 33.2838 46.3878 32.8211 46.4961 32.3283C46.5688 31.9856 46.4233 31.7052 46.2363 31.6635ZM42.7301 34.3934C43.8229 36.6789 46.4543 37.1948 48.3447 35.5581C50.9176 33.2918 50.2197 28.7688 47.0464 28.0599C45.011 27.5926 42.9236 29.0985 42.4043 31.4039C42.2865 31.9268 42.27 32.4443 42.3218 32.9416L35.4299 35.6731C35.0503 33.767 35.0521 31.7017 35.5235 29.6148C36.1633 26.7826 37.5634 24.3571 39.3906 22.5633L46.2091 24.7979C46.2862 24.8233 46.3653 24.835 46.4425 24.835C46.7579 24.835 47.0519 24.6348 47.1554 24.3184C47.2843 23.9249 47.0694 23.5015 46.6759 23.3722L40.7212 21.4206C43.1558 19.6224 46.0858 18.8508 48.9806 19.5035C54.8419 20.8277 58.3419 27.5181 56.7833 34.4176C55.2247 41.3175 49.1895 45.8531 43.3263 44.5289C39.7033 43.7103 36.987 40.8389 35.8054 37.1378L42.7301 34.3934ZM34.0606 29.2847C33.5195 31.6799 33.5353 34.054 34.0122 36.2349L30.5224 37.618C29.6489 34.3534 29.6801 31.519 30.3731 28.4513C31.0172 25.6005 32.1989 22.9852 33.7942 20.7293L37.8049 22.0438C36.0407 23.9669 34.7024 26.443 34.0606 29.2847ZM62.4634 30.2874C62.1091 42.3098 52.096 51.7003 41.9669 49.418C36.8308 48.2617 32.8337 44.3501 30.9682 39.055L34.4123 37.69C35.771 41.8357 38.8725 45.0601 42.9962 45.9918C49.8403 47.5388 56.5522 42.2474 58.2462 34.7476C59.9874 27.0416 55.9786 19.547 49.3106 18.0406C45.6389 17.2093 41.9211 18.3729 39.0259 20.8651L34.7639 19.4683C38.708 14.739 44.4644 12.1759 50.337 13.4996C57.5132 15.1209 62.2973 22.1469 62.4634 30.2874ZM64.6642 18.1007C67.5665 23.5836 68.3565 30.1895 66.8888 36.7017C64.8443 45.753 58.486 53.2116 50.6595 55.7747C40.2836 59.2043 29.2068 53.3846 25.7322 41.1302L29.2519 39.7352C32.7915 51.5073 45.335 56.2039 55.2013 48.8678C60.9731 44.5761 64.1805 37.3396 63.9767 29.9503C63.9759 29.9254 63.9638 29.9044 63.9607 29.8802C63.6391 21.2249 58.4155 13.7872 50.6671 12.0367C44.0139 10.5317 37.4847 13.562 33.2297 18.9657L29.529 17.7529C38.959 3.72524 57.0878 3.78361 64.6642 18.1007Z" fill="#5885DD"/>
<path d="M51.6308 29.9141C51.6084 30.3276 51.9257 30.6812 52.3388 30.7036C52.3762 30.7056 55.2614 30.8628 55.2988 30.8628C55.6943 30.8628 56.0254 30.5532 56.0468 30.1533C56.0693 29.7398 55.7519 29.3862 55.3388 29.3638L52.4209 29.2056C51.9785 29.1836 51.6533 29.5 51.6308 29.9141ZM51.415 27.2236L53.0312 25.9771C53.3593 25.7241 53.4199 25.2534 53.167 24.9253C52.915 24.5982 52.4443 24.5347 52.1152 24.7896L50.499 26.0361C50.1709 26.2891 50.1103 26.7598 50.3632 27.0879C50.6152 27.415 51.0861 27.4774 51.415 27.2236Z" fill="#5885DD"/>
</svg>
