<svg width="56" height="47" viewBox="0 0 56 47" fill="none" xmlns="http://www.w3.org/2000/svg">
<path d="M4.87705 0H51.1066L55.5 29H0L4.87705 0Z" fill="#5885DD"/>
<rect x="4.5" width="47" height="47" fill="#5885DD"/>
<path d="M35 34C35.3978 34 35.7794 33.842 36.0607 33.5607C36.342 33.2794 36.5 32.8978 36.5 32.5V29C36.5 28.6022 36.342 28.2206 36.0607 27.9393C35.7794 27.658 35.3978 27.5 35 27.5C33.83 27.5 32.68 27.32 31.58 26.95C31.317 26.867 31.0363 26.8576 30.7683 26.9228C30.5004 26.988 30.2554 27.1254 30.06 27.32L28.62 28.76C26.1322 27.4024 24.0876 25.3578 22.73 22.87L24.16 21.44C24.57 21.05 24.72 20.47 24.54 19.91C24.18 18.82 24 17.67 24 16.5C24 16.1022 23.842 15.7206 23.5607 15.4393C23.2794 15.158 22.8978 15 22.5 15H19C18.6022 15 18.2206 15.158 17.9393 15.4393C17.658 15.7206 17.5 16.1022 17.5 16.5C17.5 26.15 25.35 34 35 34ZM19 16H22.5C22.6326 16 22.7598 16.0527 22.8536 16.1464C22.9473 16.2402 23 16.3674 23 16.5C23 17.78 23.2 19.03 23.59 20.22C23.64 20.36 23.63 20.56 23.47 20.72L21.5 22.68C23.15 25.91 25.57 28.33 28.81 30L30.76 28.03C30.9 27.89 31.09 27.85 31.27 27.9C32.47 28.3 33.72 28.5 35 28.5C35.1326 28.5 35.2598 28.5527 35.3536 28.6464C35.4473 28.7402 35.5 28.8674 35.5 29V32.5C35.5 32.6326 35.4473 32.7598 35.3536 32.8536C35.2598 32.9473 35.1326 33 35 33C25.9 33 18.5 25.6 18.5 16.5C18.5 16.3674 18.5527 16.2402 18.6464 16.1464C18.7402 16.0527 18.8674 16 19 16Z" fill="white"/>
</svg>
