<svg width="56" height="47" viewBox="0 0 56 47" fill="none" xmlns="http://www.w3.org/2000/svg">
<path d="M4.87705 0H51.1066L55.5 29H0L4.87705 0Z" fill="#5885DD"/>
<rect x="4.5" width="47" height="47" fill="#5885DD"/>
<path d="M28.56 32.82C28.3968 32.9372 28.201 33.0003 28 33.0003C27.7991 33.0003 27.6032 32.9372 27.44 32.82C22.611 29.378 17.486 22.298 22.667 17.182C24.0894 15.7828 26.0049 14.9991 28 15C30 15 31.919 15.785 33.333 17.181C38.514 22.297 33.389 29.376 28.56 32.82Z" stroke="white" stroke-width="1.5" stroke-linecap="round" stroke-linejoin="round"/>
<path d="M28 24C28.5304 24 29.0391 23.7893 29.4142 23.4142C29.7893 23.0391 30 22.5304 30 22C30 21.4696 29.7893 20.9609 29.4142 20.5858C29.0391 20.2107 28.5304 20 28 20C27.4696 20 26.9609 20.2107 26.5858 20.5858C26.2107 20.9609 26 21.4696 26 22C26 22.5304 26.2107 23.0391 26.5858 23.4142C26.9609 23.7893 27.4696 24 28 24Z" stroke="white" stroke-width="1.5" stroke-linecap="round" stroke-linejoin="round"/>
</svg>
