<svg width="56" height="47" viewBox="0 0 56 47" fill="none" xmlns="http://www.w3.org/2000/svg">
<path d="M4.87705 0H51.1066L55.5 29H0L4.87705 0Z" fill="#5885DD"/>
<rect x="4.5" width="47" height="47" fill="#5885DD"/>
<path d="M20.616 31C20.1553 31 19.771 30.846 19.463 30.538C19.155 30.23 19.0007 29.8453 19 29.384V18.616C19 18.1553 19.1543 17.771 19.463 17.463C19.7717 17.155 20.1557 17.0007 20.615 17H35.385C35.845 17 36.229 17.1543 36.537 17.463C36.845 17.7717 36.9993 18.156 37 18.616V29.385C37 29.845 36.8457 30.2293 36.537 30.538C36.2283 30.8467 35.8443 31.0007 35.385 31H20.616ZM28 24.116L20 18.885V29.385C20 29.5643 20.0577 29.7117 20.173 29.827C20.2883 29.9423 20.436 30 20.616 30H35.385C35.5643 30 35.7117 29.9423 35.827 29.827C35.9423 29.7117 36 29.564 36 29.384V18.884L28 24.116ZM28 23L35.692 18H20.308L28 23ZM20 18.885V18V29.385C20 29.5643 20.0577 29.7117 20.173 29.827C20.2883 29.9423 20.436 30 20.616 30H20V18.885Z" fill="white"/>
</svg>
