<svg width="66" height="66" viewBox="0 0 66 66" fill="none" xmlns="http://www.w3.org/2000/svg">
<path d="M38.6185 57.7123L34.0665 55.0722C33.8727 54.9559 33.7561 54.7132 33.7755 54.325L34.1153 48.6082C34.1248 48.3558 34.0471 48.1812 33.9016 48.0938L38.4536 50.7434C38.5896 50.8212 38.6768 50.9958 38.6574 51.2579L38.3275 56.9747C38.2982 57.3532 38.4247 57.5958 38.6185 57.7123Z" fill="black"/>
<path d="M38.6196 58.0992C38.5532 58.0992 38.4859 58.0821 38.4252 58.0461L33.8737 55.4064C33.6747 55.287 33.3543 54.9893 33.3894 54.3031L33.7287 48.5838C33.7325 48.4777 33.7088 48.4303 33.7012 48.4237C33.5192 48.3128 33.4605 48.0767 33.5695 47.8938C33.6794 47.7099 33.9145 47.6483 34.0984 47.7564L38.6499 50.4065C38.9304 50.5658 39.0755 50.8871 39.0451 51.2861L38.7162 56.9959C38.7011 57.1931 38.739 57.3296 38.8196 57.3779C39.0025 57.4879 39.0622 57.7248 38.9541 57.9077C38.8812 58.031 38.7523 58.0992 38.6196 58.0992ZM34.4889 48.8815L34.1647 54.3458C34.1543 54.5458 34.1931 54.6927 34.268 54.7382L37.9456 56.8708L38.2708 51.234C38.2783 51.1297 38.2594 51.0814 38.2527 51.0719L34.4889 48.8815Z" fill="black"/>
<path d="M54.4732 5.21534C57.0207 3.74457 59.0876 4.92231 59.0959 7.84964L59.1679 33.2409C59.1761 36.1604 57.1227 39.7248 54.5752 41.1956L48.3813 44.7717C48.2234 44.8629 48.0727 45.0131 47.9493 45.195L39.9697 57.0335C39.778 57.3175 39.5614 57.5203 39.3498 57.6425C38.7992 57.9604 38.2832 57.7321 38.3258 56.971L38.6604 51.2534C38.6866 50.764 38.3629 50.5558 37.9575 50.7898L16.0732 63.4248C13.5257 64.8956 11.4592 63.7098 11.4509 60.7903L11.3789 35.399C11.3706 32.4717 13.4237 28.9153 15.9712 27.4445L54.4732 5.21534Z" fill="#F4AE3D"/>
<path d="M59.1651 33.2431C59.175 36.1646 57.1172 39.7267 54.5747 41.1923L48.382 44.7738C48.217 44.8611 48.0715 45.0164 47.9455 45.1911L39.967 57.0322C39.7732 57.3137 39.5595 57.5175 39.3457 57.6438C38.7927 57.964 38.2784 57.7311 38.3268 56.974L38.6566 51.2572C38.686 50.7622 38.3557 50.5585 37.9581 50.7914L16.071 63.4285C13.5185 64.8941 11.4607 63.71 11.4513 60.7885L11.4219 50.6846C14.4213 51.3447 17.5952 51.694 20.8657 51.694C39.9476 51.694 55.4092 39.882 55.4092 25.3232C55.4092 19.1502 52.6235 13.4626 47.9644 8.96865L54.4676 5.2126C57.0201 3.747 59.0878 4.92138 59.0973 7.85257L59.1651 33.2431Z" fill="#E9EDF4"/>
<path d="M6.83207 32.7582L6.90031 58.149C6.90979 59.5951 7.41451 60.6239 8.24909 61.0995L12.7916 63.7492C11.9665 63.2639 11.4523 62.2448 11.4523 60.7889L11.3746 35.3983C11.3699 34.0018 11.8466 32.4627 12.6144 31.0725L8.06758 28.4297C7.30219 29.8195 6.82733 31.3578 6.83207 32.7582Z" fill="#177EDE"/>
<path d="M53.2098 2.25536C52.3652 1.77006 51.2103 1.83807 49.9293 2.57573L11.4257 24.8021C10.0925 25.5725 8.90678 26.9134 8.07031 28.4323L12.6171 31.0751C13.455 29.5569 14.6407 28.2167 15.9682 27.4518L54.4713 5.2157C55.7528 4.47804 56.9172 4.41003 57.7518 4.89533L53.2098 2.25536Z" fill="#03284B"/>
<path d="M14.0043 64.4463C13.4982 64.4463 13.0271 64.3269 12.6082 64.0861C11.6148 63.5146 11.0651 62.344 11.0603 60.7905L10.9883 35.3998C10.9798 32.3562 13.1266 28.636 15.7749 27.1071L54.2771 4.87836C55.6363 4.09354 56.9367 3.97696 57.9358 4.5504C58.9282 5.12195 59.4779 6.29253 59.4826 7.84794L59.5547 33.2396C59.5623 36.2831 57.4145 40.0025 54.7671 41.5313L48.574 45.1075C48.4697 45.1672 48.3616 45.2753 48.2688 45.4127L40.2898 57.2503C40.0756 57.5678 39.8169 57.819 39.542 57.9783C39.1373 58.2114 38.7212 58.2342 38.3998 58.0351C38.2103 57.9185 37.8984 57.6228 37.9363 56.9489L38.2709 51.2296C38.2757 51.1472 38.2624 51.0969 38.2529 51.077C38.2444 51.0837 38.2074 51.0912 38.1496 51.1254L16.2649 63.761C15.4754 64.2169 14.7057 64.4463 14.0043 64.4463ZM56.5396 4.9684C55.9747 4.9684 55.3358 5.16366 54.6657 5.55132L16.1635 27.7801C13.7304 29.1848 11.757 32.6017 11.7655 35.3979L11.8376 60.7886C11.8404 62.053 12.2527 62.9857 12.9958 63.4132C13.7446 63.8444 14.7673 63.7279 15.8763 63.0881L37.761 50.4524C38.0776 50.2704 38.4055 50.2543 38.6633 50.4135C38.9268 50.5747 39.0662 50.8884 39.0463 51.2723L38.7117 56.9935C38.6984 57.2228 38.7553 57.3423 38.8074 57.3745C38.8586 57.4077 38.9903 57.3991 39.1534 57.3053C39.2747 57.2361 39.4586 57.0939 39.6462 56.8162L47.6252 44.9777C47.7863 44.7407 47.9797 44.553 48.1863 44.4346L54.3785 40.8584C56.8116 39.4537 58.785 36.0367 58.7775 33.2415L58.7054 7.84983C58.7026 6.58352 58.2912 5.65085 57.5491 5.22337C57.2514 5.05276 56.9112 4.9684 56.5396 4.9684Z" fill="black"/>
<path d="M12.794 64.1362C12.7276 64.1362 12.6603 64.1192 12.5987 64.0831L8.05573 61.4339C7.07282 60.8728 6.52402 59.706 6.51359 58.1506L6.44535 32.758C6.44061 31.3571 6.89747 29.7533 7.72967 28.2406C7.77991 28.1496 7.86521 28.0823 7.96663 28.0538C8.0671 28.0245 8.17421 28.0396 8.2652 28.0927L12.812 30.7362C12.994 30.8424 13.0584 31.0746 12.957 31.2594C12.1836 32.6575 11.7608 34.1267 11.7656 35.3958L11.8433 60.7866C11.8433 62.0453 12.2509 62.978 12.9911 63.413C13.175 63.5211 13.2376 63.759 13.1286 63.9438C13.0565 64.067 12.9267 64.1362 12.794 64.1362ZM8.22444 28.9676C7.57233 30.2585 7.21784 31.5902 7.22258 32.7561L7.29082 58.1468C7.29841 59.4131 7.70787 60.342 8.4434 60.761L11.3172 62.4367C11.1523 61.9552 11.0661 61.4008 11.0661 60.7875L10.9883 35.3977C10.9846 34.102 11.377 32.631 12.0983 31.2196L8.22444 28.9676Z" fill="black"/>
<path d="M12.6147 31.4634C12.5465 31.4634 12.4792 31.4454 12.4195 31.4103L7.8727 28.7668C7.69071 28.6606 7.62626 28.4284 7.72768 28.2436C8.64234 26.583 9.88591 25.2408 11.229 24.4646L49.7322 2.23866C51.0942 1.45479 52.3956 1.3401 53.4003 1.91829L53.4022 1.91923L57.9442 4.55897C58.1291 4.66702 58.1926 4.90398 58.0845 5.08976C57.9765 5.27554 57.7395 5.33809 57.5537 5.23004C56.8049 4.79498 55.7784 4.90872 54.6619 5.55136L16.1597 27.7877C14.9417 28.4891 13.8043 29.7232 12.955 31.2625C12.9038 31.3535 12.8185 31.4208 12.7181 31.4492C12.6839 31.4587 12.6498 31.4634 12.6147 31.4634ZM8.59685 28.2891L12.4726 30.5431C13.3664 29.0407 14.5275 27.8322 15.771 27.1147L54.2742 4.87839C54.8249 4.56181 55.3652 4.35423 55.8789 4.25661L53.0126 2.59125C52.26 2.15904 51.2326 2.27088 50.1198 2.91162L11.6176 25.1375C10.483 25.7925 9.42052 26.9043 8.59685 28.2891Z" fill="black"/>
<path d="M47.2512 16.4169C47.4403 16.3077 47.6308 16.1994 47.8254 16.0907C48.8182 15.5418 49.6235 16.0006 49.6268 17.1414L49.6702 32.4689C49.6735 33.6152 48.8813 34.9948 47.8972 35.563C47.8603 35.5843 47.823 35.6045 47.7855 35.6235C47.4233 35.8101 47.0144 36.0311 46.5655 36.2903C43.8847 37.838 39.7538 40.7539 35.3107 45.9012L35.2578 27.2364C35.4073 26.9554 38.2467 21.616 47.2512 16.4169Z" fill="white"/>
<path d="M23.232 30.2869C32.2368 25.0879 35.107 27.1312 35.2581 27.2387L35.311 45.9035C30.853 45.8953 26.719 47.7511 24.0386 49.2987C23.5894 49.558 23.1809 49.8089 22.8185 50.0407C22.781 50.065 22.744 50.0876 22.7068 50.1091C21.723 50.6771 20.9256 50.2152 20.9224 49.0689L20.8789 33.7414C20.8757 32.6006 21.6755 31.215 22.6579 30.6236C22.8521 30.5079 23.0429 30.396 23.232 30.2869Z" fill="white"/>
<path d="M49.6672 32.4686C49.6672 33.6131 48.8775 34.998 47.8931 35.5703C47.8588 35.5817 47.8244 35.6045 47.7786 35.6274C47.424 35.8106 47.0119 36.0281 46.5656 36.2913C43.8874 37.8364 39.7557 40.7547 35.3038 45.9049L35.2923 41.3042C42.1363 39.2213 46.9317 34.3228 46.9317 28.6118C46.9317 25.2013 45.2149 22.0767 42.3652 19.6733C43.7385 18.609 45.3639 17.5102 47.2522 16.423C47.4352 16.3086 47.6299 16.2055 47.8244 16.0911C48.8202 15.5417 49.6213 15.9995 49.6213 17.144L49.6672 32.4686ZM35.3038 45.9049C30.8518 45.8936 26.7201 47.7477 24.0419 49.2927C23.5842 49.5559 23.1835 49.8078 22.8175 50.0367C22.7831 50.0596 22.7373 50.0825 22.7029 50.1054C21.7185 50.6776 20.9289 50.2197 20.9174 49.0637L20.8945 41.4644C23.0463 42.0711 25.3808 42.4029 27.8302 42.4029C30.474 42.4029 32.9919 42.0138 35.2923 41.3042L35.3038 45.9049Z" fill="#E9EDF4"/>
<path d="M35.3089 46.2915C35.2634 46.2915 35.2179 46.283 35.1743 46.2669C35.0217 46.211 34.9212 46.066 34.9203 45.9039L34.8672 27.24C34.8672 27.1765 34.8833 27.1139 34.9127 27.058C35.2217 26.4732 38.1846 21.2041 47.0545 16.0829L47.0536 16.0839C47.246 15.972 47.4384 15.863 47.6346 15.754C48.2459 15.4166 48.8365 15.3825 49.2962 15.6526C49.7559 15.9228 50.0108 16.4516 50.0127 17.1426L50.0563 32.4701C50.0601 33.7554 49.1966 35.2625 48.0896 35.9013L47.9606 35.9705C47.6043 36.1544 47.2005 36.3724 46.7578 36.6283C44.0925 38.1676 39.9941 41.069 35.6027 46.157C35.5278 46.2442 35.4198 46.2915 35.3089 46.2915ZM35.6444 27.3366L35.6947 44.8764C39.8993 40.1818 43.7911 37.4454 46.3692 35.9563C46.8232 35.6938 47.2384 35.4701 47.6052 35.2805L47.6981 35.2303C48.5597 34.7326 49.2829 33.4711 49.2791 32.472L49.2355 17.1445C49.2345 16.7398 49.117 16.4479 48.9028 16.3218C48.6914 16.1986 48.3663 16.2374 48.0109 16.4327C47.8194 16.5398 47.6308 16.6469 47.4431 16.755C39.0908 21.5766 36.1231 26.4703 35.6444 27.3366Z" fill="black"/>
<path d="M21.911 50.744C21.675 50.744 21.4541 50.6871 21.256 50.5725C20.7916 50.3061 20.5347 49.7725 20.5319 49.072L20.4883 33.7445C20.4854 32.4753 21.3499 30.9597 22.456 30.2934L23.0351 29.9531L23.0361 29.9522C31.8169 24.8841 34.9419 26.5409 35.4822 26.9248C35.5836 26.9978 35.6443 27.1153 35.6452 27.2404L35.6983 45.9043C35.6983 46.0077 35.6575 46.1062 35.5845 46.1792C35.5116 46.2522 35.413 46.2939 35.3097 46.2939C35.3106 46.2958 35.2926 46.2939 35.2822 46.2939C30.9373 46.2939 26.8758 48.1109 24.2313 49.6369C23.7877 49.8929 23.3839 50.1412 23.0257 50.3696L22.9024 50.4464C22.5593 50.6445 22.2228 50.744 21.911 50.744ZM23.4247 30.6252L22.8541 30.9597C21.9916 31.4801 21.2627 32.755 21.2655 33.7426L21.3091 49.0701C21.3101 49.4758 21.4314 49.7782 21.6428 49.8995C21.8532 50.0227 22.1688 49.9744 22.511 49.7753L22.6058 49.7175C22.9745 49.4815 23.3877 49.2275 23.8427 48.964C26.4966 47.4332 30.542 45.6171 34.9201 45.5214L34.8689 27.466C34.1618 27.1276 31.0757 26.2073 23.4247 30.6252Z" fill="black"/>
<path d="M23.6883 36.1833C23.5784 36.1833 23.4694 36.1368 23.3926 36.0458C23.2533 35.8828 23.2732 35.6373 23.4372 35.4989C26.6987 32.7303 29.8796 31.7104 32.9032 32.4782C33.1108 32.5312 33.2369 32.7417 33.1838 32.9502C33.1307 33.1568 32.9231 33.2867 32.7118 33.2307C29.9507 32.5293 26.9982 33.4942 23.9395 36.0904C23.8665 36.1529 23.7774 36.1833 23.6883 36.1833ZM23.6267 40.3206C23.5082 40.3206 23.3917 40.2666 23.3149 40.1632C23.1869 39.9917 23.2229 39.7481 23.3955 39.6201C27.0769 36.8809 30.2133 35.9188 32.9866 36.678C33.1933 36.7349 33.3155 36.9482 33.2587 37.1548C33.2018 37.3614 32.9876 37.4828 32.7819 37.4268C30.254 36.7349 27.3356 37.6553 23.858 40.2438C23.7888 40.295 23.7073 40.3206 23.6267 40.3206ZM23.6883 44.8115C23.585 44.8115 23.4808 44.7697 23.4049 44.6882C23.258 44.5309 23.2665 44.2854 23.4229 44.1394C26.5935 41.1765 29.8142 40.1282 32.9895 41.0267C33.1961 41.0845 33.3165 41.2988 33.2577 41.5054C33.199 41.712 32.9829 41.8352 32.7791 41.7736C29.8777 40.9585 26.91 41.9433 23.9537 44.7062C23.8789 44.7764 23.7831 44.8115 23.6883 44.8115Z" fill="black"/>
<path d="M37.7244 30.4061C37.6523 30.4061 37.5803 30.3861 37.5158 30.3444C37.3348 30.2298 37.2817 29.99 37.3974 29.8089C39.7215 26.1635 42.8683 23.4688 46.7497 21.8016C46.9487 21.7163 47.1762 21.8072 47.2596 22.0044C47.3449 22.2016 47.2539 22.43 47.0568 22.5143C43.2683 24.1427 40.3224 26.6649 38.0514 30.226C37.9774 30.3425 37.8523 30.4061 37.7244 30.4061ZM37.7244 34.5955C37.6561 34.5955 37.5869 34.5775 37.5253 34.5396C37.3405 34.4296 37.2808 34.1917 37.3917 34.0078C39.4096 30.6383 42.3849 28.136 46.7535 26.1332C46.9516 26.0403 47.1781 26.1294 47.2682 26.3237C47.3582 26.519 47.272 26.7493 47.0777 26.8384C42.8579 28.7729 39.9916 31.1776 38.0571 34.4059C37.985 34.5282 37.8561 34.5955 37.7244 34.5955ZM37.7357 38.9423C37.658 38.9423 37.5803 38.9186 37.513 38.8712C37.3367 38.748 37.295 38.5063 37.4182 38.3309C39.9442 34.7339 43.0019 32.1558 46.7677 30.4487C46.963 30.3615 47.1923 30.4478 47.2814 30.6421C47.3696 30.8373 47.2833 31.0676 47.0881 31.1558C43.4531 32.8041 40.4977 35.2969 38.0533 38.7764C37.9774 38.8845 37.858 38.9423 37.7357 38.9423Z" fill="black"/>
</svg>
