<svg width="64" height="64" viewBox="0 0 64 64" fill="none" xmlns="http://www.w3.org/2000/svg">
<g clip-path="url(#clip0_2789_1179)">
<path opacity="0.5" d="M32 64C49.6731 64 64 49.6731 64 32C64 14.3269 49.6731 0 32 0C14.3269 0 0 14.3269 0 32C0 49.6731 14.3269 64 32 64Z" fill="#F1EEFF"/>
<path d="M32 58C46.3594 58 58 46.3594 58 32C58 17.6406 46.3594 6 32 6C17.6406 6 6 17.6406 6 32C6 46.3594 17.6406 58 32 58Z" fill="white"/>
<path d="M32 57C45.8071 57 57 45.8071 57 32C57 18.1929 45.8071 7 32 7C18.1929 7 7 18.1929 7 32C7 45.8071 18.1929 57 32 57Z" fill="#B77700"/>
<path d="M29.7807 23.25H28.5366C27.2969 23.25 26.1317 23.7326 25.2556 24.6093L19.2448 30.6198C19.1481 30.7165 19.0938 30.8477 19.0938 30.9844C19.0938 31.1211 19.1481 31.2523 19.2448 31.3489L21.8229 33.9271C22.0244 34.1285 22.3506 34.1285 22.5521 33.9271L27.3438 29.1354V34.5066L23.2474 46.2837C23.1926 46.4413 23.2172 46.6158 23.3139 46.752C23.4111 46.8879 23.5677 46.9688 23.7344 46.9688H28.375C28.5945 46.9688 28.7899 46.8298 28.8619 46.6226L32.5287 36.0815L36.6603 46.6409C36.7378 46.8386 36.9281 46.9688 37.1406 46.9688H41.7812C41.9514 46.9688 42.1111 46.8847 42.2072 46.7439C42.3034 46.6029 42.3236 46.4239 42.2616 46.2653L37.6562 34.4966V29.1354L42.4479 33.9271C42.6494 34.1285 42.9756 34.1285 43.1771 33.9271L45.7552 31.3489C45.8519 31.2523 45.9062 31.1211 45.9062 30.9844C45.9062 30.8477 45.8519 30.7165 45.7552 30.6198L39.7444 24.6093C38.8683 23.7326 37.7031 23.25 36.4634 23.25H35.2193C36.0789 22.4935 36.625 21.3886 36.625 20.1562C36.625 17.8818 34.7745 16.0312 32.5 16.0312C30.2255 16.0312 28.375 17.8818 28.375 20.1562C28.375 21.3886 28.9211 22.4935 29.7807 23.25ZM36.4634 24.2812C37.4276 24.2812 38.3335 24.6566 39.0153 25.3384L44.6615 30.9844L42.8125 32.8334L37.5052 27.5261C37.3577 27.3785 37.1361 27.335 36.9432 27.4143C36.7504 27.4941 36.625 27.6822 36.625 27.8906V34.5938C36.625 34.658 36.6371 34.7217 36.6602 34.7816L41.0259 45.9375H37.4926L32.9804 34.4059C32.9028 34.208 32.712 34.0781 32.5 34.0781C32.497 34.0781 32.4935 34.0781 32.4899 34.0781C32.2744 34.0824 32.0841 34.2204 32.0131 34.4243L28.0084 45.9375H24.4595L28.3463 34.7632C28.3654 34.7086 28.375 34.6514 28.375 34.5938V27.8906C28.375 27.6822 28.2496 27.4941 28.0568 27.4143C27.8639 27.3347 27.6423 27.3785 27.4948 27.5261L22.1875 32.8334L20.3385 30.9844L25.9847 25.3384C26.6665 24.6566 27.5724 24.2812 28.5366 24.2812H36.4634ZM32.5 17.0625C34.206 17.0625 35.5938 18.4503 35.5938 20.1562C35.5938 21.8622 34.206 23.25 32.5 23.25C30.794 23.25 29.4062 21.8622 29.4062 20.1562C29.4062 18.4503 30.794 17.0625 32.5 17.0625Z" fill="white"/>
<path d="M32.145 31.8751C32.2447 31.9695 32.3721 32.0166 32.5 32.0166C32.6279 32.0166 32.7553 31.9695 32.855 31.8751L35.066 29.7766C35.4064 29.4541 35.5938 29.023 35.5938 28.563C35.5938 28.1031 35.4064 27.672 35.0665 27.3495C34.3832 26.702 33.2709 26.7009 32.5876 27.3495C32.5871 27.3495 32.5871 27.3495 32.5871 27.3498L32.5 27.4323L32.4124 27.3495C31.7301 26.7015 30.6173 26.701 29.934 27.3495C29.5936 27.672 29.4062 28.1031 29.4062 28.563C29.4062 29.023 29.5936 29.4541 29.9335 29.7766L32.145 31.8751ZM30.6434 28.0978C30.7895 27.959 30.9813 27.8898 31.1732 27.8898C31.365 27.8898 31.5569 27.959 31.7029 28.0975L32.145 28.5172C32.3444 28.706 32.6556 28.706 32.855 28.5172L33.2971 28.0975C33.5891 27.8206 34.064 27.8208 34.357 28.0978C34.4895 28.2237 34.5625 28.3888 34.5625 28.563C34.5625 28.7373 34.4895 28.9024 34.3566 29.0283L32.5 30.7902L30.6429 29.0283C30.5105 28.9024 30.4375 28.7373 30.4375 28.563C30.4375 28.3888 30.5105 28.2237 30.6434 28.0978Z" fill="white"/>
<path d="M43.1898 21.0469C42.9376 20.7891 42.6747 20.5393 42.4094 20.3047L41.7266 21.0776C41.9733 21.2957 42.218 21.5283 42.4537 21.7685L43.1898 21.0469Z" fill="white"/>
<path d="M43.7493 23.2985L44.5821 22.6897C44.3701 22.4002 44.1461 22.1157 43.9154 21.8438L43.1289 22.5104C43.3434 22.7637 43.5524 23.0288 43.7493 23.2985Z" fill="white"/>
<path d="M39.7781 18.4402C39.4649 18.2652 39.1421 18.1 38.8189 17.9492L38.3828 18.8838C38.6834 19.024 38.984 19.1776 39.2756 19.3405L39.7781 18.4402Z" fill="white"/>
<path d="M44.8096 24.998L45.721 24.5151C45.5528 24.1981 45.3721 23.8842 45.1827 23.582L44.3086 24.1294C44.4848 24.4106 44.6535 24.7029 44.8096 24.998Z" fill="white"/>
<path d="M46.4011 30.7524L47.4314 30.6975C47.4117 30.338 47.38 29.9772 47.3357 29.625L46.3125 29.7534C46.3538 30.0812 46.3835 30.4173 46.4011 30.7524Z" fill="white"/>
<path d="M45.6206 26.8321L46.5924 26.4857C46.4721 26.1488 46.3382 25.8119 46.1936 25.4844L45.25 25.9008C45.3844 26.2052 45.5093 26.5186 45.6206 26.8321Z" fill="white"/>
<path d="M45.9637 38.0083L45.0362 37.5586C44.8917 37.8562 44.7336 38.1543 44.5664 38.4446L45.4597 38.9597C45.6395 38.648 45.8091 38.328 45.9637 38.0083Z" fill="white"/>
<path d="M46.7607 36.0099L45.7778 35.6992C45.6766 36.0185 45.5638 36.3359 45.4414 36.6423L46.3991 37.0245C46.5306 36.6945 46.6524 36.3531 46.7607 36.0099Z" fill="white"/>
<path d="M44.8871 39.871L44.0331 39.293C43.8478 39.5669 43.6489 39.8391 43.4414 40.1022L44.2511 40.7406C44.4742 40.4579 44.6882 40.1654 44.8871 39.871Z" fill="white"/>
<path d="M42.0938 41.5842L42.8048 42.3315C43.0631 42.0858 43.3163 41.8269 43.558 41.5621L42.7957 40.8672C42.5711 41.1139 42.3349 41.3551 42.0938 41.5842Z" fill="white"/>
<path d="M46.1535 28.7618L47.1646 28.5603C47.0946 28.2074 47.0105 27.8546 46.9159 27.5117L45.9219 27.7872C46.01 28.1056 46.088 28.4334 46.1535 28.7618Z" fill="white"/>
<path d="M47.257 33.9157L46.2388 33.75C46.1855 34.0786 46.1195 34.4091 46.043 34.7327L47.046 34.9708C47.1286 34.6234 47.1996 34.2684 47.257 33.9157Z" fill="white"/>
<path d="M47.4518 31.7715L46.4206 31.7539C46.415 32.0867 46.3969 32.4234 46.3672 32.7544L47.3944 32.8466C47.4261 32.4908 47.4458 32.1293 47.4518 31.7715Z" fill="white"/>
<path d="M41.577 19.6195C41.295 19.4035 40.9994 19.1937 40.6988 18.9961L40.1328 19.8582C40.4128 20.0419 40.6877 20.2373 40.9506 20.4382L41.577 19.6195Z" fill="white"/>
<path d="M18.6344 32.7364C18.6052 32.4071 18.5876 32.07 18.582 31.7344L17.5508 31.752C17.5573 32.112 17.576 32.4736 17.6072 32.8271L18.6344 32.7364Z" fill="white"/>
<path d="M18.6902 29.7354L17.667 29.6055C17.6227 29.9574 17.59 30.3182 17.5703 30.6778L18.5995 30.7342C18.6182 30.399 18.6484 30.0629 18.6902 29.7354Z" fill="white"/>
<path d="M19.0841 27.7676L18.0901 27.4922C17.9954 27.8341 17.9113 28.1863 17.8398 28.5393L18.851 28.7432C18.9174 28.4142 18.9955 28.0861 19.0841 27.7676Z" fill="white"/>
<path d="M26.6331 18.8765L26.198 17.9414C25.8727 18.0925 25.55 18.2571 25.2383 18.4308L25.7398 19.3317C26.0298 19.1703 26.3305 19.0172 26.6331 18.8765Z" fill="white"/>
<path d="M20.6981 24.1143L19.8239 23.5664C19.6341 23.8698 19.4523 24.1832 19.2852 24.4985L20.1956 24.9824C20.3517 24.689 20.5208 24.397 20.6981 24.1143Z" fill="white"/>
<path d="M19.7565 25.8849L18.8129 25.4688C18.6668 25.8003 18.5324 26.1369 18.4141 26.4693L19.3849 26.8157C19.4952 26.507 19.62 26.1938 19.7565 25.8849Z" fill="white"/>
<path d="M23.288 21.0659L22.6052 20.293C22.3353 20.5314 22.073 20.7806 21.8242 21.0342L22.5604 21.7563C22.792 21.5203 23.0367 21.288 23.288 21.0659Z" fill="white"/>
<path d="M22.8979 41.5772C22.6532 41.3435 22.4175 41.1021 22.197 40.8594L21.4336 41.5528C21.6708 41.8136 21.9235 42.0727 22.1859 42.3229L22.8979 41.5772Z" fill="white"/>
<path d="M21.8829 22.4963L21.0974 21.8281C20.8652 22.1008 20.6407 22.3853 20.4297 22.6736L21.2615 23.2829C21.4579 23.0147 21.6669 22.7501 21.8829 22.4963Z" fill="white"/>
<path d="M19.5542 36.6287C19.4313 36.3188 19.318 36.0008 19.2183 35.6836L18.2344 35.9938C18.3421 36.3344 18.4635 36.6761 18.5954 37.0089L19.5542 36.6287Z" fill="white"/>
<path d="M24.8817 19.8513L24.3167 18.9883C24.0196 19.1826 23.724 19.3921 23.4375 19.6102L24.0629 20.4304C24.3293 20.227 24.6047 20.0321 24.8817 19.8513Z" fill="white"/>
<path d="M17.7383 33.898C17.7947 34.2498 17.8657 34.6055 17.9488 34.9555L18.9518 34.7178C18.8748 34.392 18.8088 34.0612 18.7564 33.7344L17.7383 33.898Z" fill="white"/>
<path d="M20.4286 38.4339C20.2634 38.1468 20.1058 37.8485 19.9598 37.5469L19.0312 37.9965C19.1884 38.3201 19.3575 38.6403 19.5353 38.9485L20.4286 38.4339Z" fill="white"/>
<path d="M21.5506 40.0946C21.3462 39.835 21.1473 39.5629 20.9595 39.2852L20.1055 39.8627C20.3069 40.1611 20.5209 40.4539 20.7409 40.7331L21.5506 40.0946Z" fill="white"/>
<path d="M33.0373 46.4431C33.3963 46.43 33.7578 46.4038 34.1123 46.3651L33.9995 45.3398C33.6702 45.3761 33.3338 45.4003 33 45.4124L33.0373 46.4431Z" fill="white"/>
<path d="M31.9608 46.4433L31.999 45.4126C31.6672 45.4005 31.3303 45.3761 30.9985 45.3398L30.8867 46.3651C31.2432 46.4038 31.6048 46.4303 31.9608 46.4433Z" fill="white"/>
</g>
<defs>
<clipPath id="clip0_2789_1179">
<rect width="64" height="64" fill="white"/>
</clipPath>
</defs>
</svg>
