<svg width="66" height="66" viewBox="0 0 66 66" fill="none" xmlns="http://www.w3.org/2000/svg">
<path d="M64.0622 52.2602C63.0722 50.6602 61.2422 49.2702 60.3722 48.6602C60.9022 48.2602 61.2322 47.7302 61.3322 47.0902C61.5722 45.5402 60.3822 43.7802 60.1122 43.5402C56.7322 40.4102 53.3422 37.9902 49.3322 35.2302C50.5622 35.3902 51.7422 35.4802 52.8422 35.4802C53.0022 35.4802 53.1522 35.4702 53.3122 35.4702C53.5522 36.4502 54.4322 37.1702 55.4822 37.1702C56.7122 37.1702 57.7122 36.1602 57.7122 34.9302C57.7122 34.8602 57.7022 34.7902 57.6922 34.7202C58.0322 34.5902 58.3622 34.4402 58.6522 34.2702C60.1122 33.4302 60.8822 32.1802 60.8922 30.6602C60.8922 28.6602 59.5822 26.3302 57.2322 23.9802C59.5722 21.6302 60.8922 19.3002 60.8922 17.3002C60.8922 15.7802 60.1122 14.5402 58.6522 13.6902C58.3622 13.5202 58.0322 13.3702 57.6922 13.2402C57.7022 13.1702 57.7122 13.1002 57.7122 13.0302C57.7122 11.8002 56.7122 10.8002 55.4822 10.8002C54.4322 10.8002 53.5622 11.5202 53.3122 12.5002C51.9622 12.4702 50.4922 12.5702 48.9422 12.7902C47.3622 6.96016 44.5722 3.16016 41.3122 3.16016C38.0622 3.16016 35.2622 6.96016 33.6822 12.7902C32.1022 12.5602 30.6022 12.4602 29.2322 12.5002C28.9922 11.5302 28.1122 10.8102 27.0722 10.8102C25.8322 10.8102 24.8322 11.8102 24.8322 13.0402C24.8322 13.1202 24.8522 13.2002 24.8522 13.2802C24.5422 13.4102 24.2422 13.5502 23.9722 13.7002C22.5122 14.5402 21.7422 15.7902 21.7322 17.3102C21.7322 17.7202 21.7922 18.1402 21.9022 18.5802C21.7122 18.5202 21.5322 18.4702 21.3722 18.4302C21.1222 16.6302 20.3222 15.2602 19.1022 14.5302C19.0822 14.5202 19.0722 14.5002 19.0622 14.4902C19.0422 14.4802 19.0222 14.4702 19.0022 14.4502L15.0622 12.2102C13.4922 11.3002 11.4422 11.4902 9.27221 12.7402C4.97221 15.2302 1.48221 21.2702 1.49221 26.2102C1.50221 28.6702 2.35221 30.5202 3.90221 31.4202L7.90221 33.6902C7.90221 33.6902 7.90221 33.6902 7.91221 33.6902C8.55221 34.0602 9.28221 34.2502 10.0822 34.2502C10.3522 34.2502 10.6422 34.2202 10.9322 34.1802C11.9522 36.3802 11.4922 38.1502 11.4622 38.2602C9.97221 45.6302 20.5622 53.4302 21.0022 53.7502C27.1622 58.6802 31.7322 57.7902 33.4122 57.1702C33.6822 57.0702 33.9622 57.0702 34.2222 57.1702L48.0622 62.4802C48.6822 62.7202 49.3222 62.8402 49.9222 62.8402C50.1322 62.8402 50.3422 62.8202 50.5522 62.7902C51.5722 62.6402 52.3622 62.1802 52.8922 61.4402C53.5122 60.5702 53.6422 59.4902 53.6422 58.7402C54.6922 59.5202 56.0322 59.9402 57.0522 60.1702C58.0022 60.3802 58.9322 60.3402 59.7322 60.0402C60.6122 59.7102 61.1722 59.1902 61.4022 58.4902C61.6222 57.8302 61.4822 57.1402 61.3022 56.6402C62.2422 56.7802 63.1722 56.4202 63.8122 55.6302C64.6322 54.6502 64.7222 53.3202 64.0622 52.2602ZM60.1622 30.6602C60.1622 31.9202 59.5322 32.9202 58.2922 33.6402C58.0522 33.7802 57.7922 33.9002 57.5122 34.0102C57.1622 33.2402 56.3822 32.7002 55.4822 32.7002C54.3022 32.7002 53.3422 33.6202 53.2622 34.7702C51.9922 34.8002 50.6022 34.7102 49.1222 34.5002C49.5122 32.9102 49.8222 31.1802 50.0222 29.3502C50.0622 29.3302 50.0922 29.3102 50.1322 29.2902C52.7422 27.7702 54.9622 26.1402 56.6922 24.5002C58.9122 26.7002 60.1722 28.8702 60.1622 30.6602ZM32.5222 28.4402C30.1422 27.0202 28.0922 25.5002 26.4722 23.9802C28.0922 22.4602 30.1322 20.9402 32.5222 19.5202C32.3922 20.9502 32.3222 22.4402 32.3222 23.9802C32.3222 25.5202 32.3922 27.0102 32.5222 28.4402ZM32.5122 29.2802C32.5522 29.3002 32.5822 29.3202 32.6222 29.3402C32.8222 31.1702 33.1322 32.9002 33.5222 34.4902C32.0222 34.7002 30.6022 34.8002 29.3122 34.7602C29.2222 33.6102 28.2722 32.6902 27.0922 32.6902C26.2022 32.6902 25.4322 33.2202 25.0722 33.9802C24.8222 33.8702 24.5822 33.7602 24.3522 33.6302C23.1122 32.9102 22.4822 31.9102 22.4822 30.6502C22.4822 28.8602 23.7422 26.6902 25.9422 24.4802C27.6822 26.1302 29.8922 27.7602 32.5122 29.2802ZM33.0522 23.9802C33.0522 22.2902 33.1422 20.6402 33.3022 19.0702C35.8922 17.6002 38.6222 16.3802 41.3222 15.4302C44.0222 16.3702 46.7522 17.6002 49.3422 19.0602C49.5022 20.6302 49.5922 22.2802 49.5922 23.9702C49.5922 25.6602 49.5022 27.3102 49.3422 28.8802C46.7522 30.3502 44.0222 31.5702 41.3222 32.5202C38.6222 31.5802 35.8922 30.3502 33.3022 28.8802C33.1422 27.3202 33.0522 25.6802 33.0522 23.9802ZM33.4122 29.7902C35.6222 31.0102 37.9322 32.0602 40.2322 32.9102C38.1722 33.5802 36.1522 34.0702 34.2522 34.3902C33.8922 32.9502 33.6122 31.4102 33.4122 29.7902ZM41.3222 33.2902C43.6822 34.1002 46.0122 34.7002 48.2022 35.0602C48.2022 35.0802 48.2022 35.0902 48.2022 35.1102C47.0822 39.2002 45.3522 42.2402 43.3322 43.4702C42.9722 42.7202 42.2122 42.2002 41.3222 42.2002C40.4322 42.2002 39.6722 42.7202 39.3122 43.4702C37.2822 42.2402 35.5522 39.1802 34.4322 35.0602C36.6222 34.7002 38.9622 34.1002 41.3222 33.2902ZM42.4222 32.9002C44.7222 32.0502 47.0322 31.0102 49.2422 29.7902C49.0422 31.4202 48.7522 32.9602 48.4022 34.3802C46.4922 34.0602 44.4822 33.5702 42.4222 32.9002ZM50.1222 19.5202C52.5122 20.9402 54.5522 22.4602 56.1722 23.9802C54.5522 25.5002 52.5022 27.0202 50.1222 28.4402C50.2522 27.0102 50.3222 25.5202 50.3222 23.9802C50.3222 22.4502 50.2522 20.9602 50.1222 19.5202ZM52.8122 13.1902C52.9622 13.1902 53.1122 13.2002 53.2622 13.2002C53.3522 14.3602 54.3122 15.2702 55.4822 15.2702C56.3822 15.2702 57.1622 14.7302 57.5122 13.9502C57.7822 14.0602 58.0522 14.1802 58.2922 14.3202C59.5322 15.0402 60.1622 16.0402 60.1622 17.2902C60.1622 19.0802 58.9022 21.2502 56.7022 23.4502C54.9622 21.8102 52.7522 20.1802 50.1322 18.6602C50.0922 18.6402 50.0622 18.6202 50.0222 18.6002C49.8222 16.7702 49.5122 15.0402 49.1222 13.4602C50.4222 13.2902 51.6622 13.1902 52.8122 13.1902ZM49.2422 18.1702C47.0322 16.9502 44.7322 15.9102 42.4322 15.0602C44.4822 14.4002 46.5022 13.9002 48.4022 13.5802C48.7522 15.0102 49.0322 16.5502 49.2422 18.1702ZM41.3222 3.89016C44.1922 3.89016 46.7322 7.48016 48.2122 12.9002C46.0222 13.2602 43.6822 13.8602 41.3222 14.6702C38.9622 13.8602 36.6222 13.2602 34.4322 12.9002C35.9122 7.47016 38.4522 3.89016 41.3222 3.89016ZM34.2522 13.5902C36.1522 13.9002 38.1722 14.4002 40.2222 15.0702C37.9222 15.9202 35.6222 16.9602 33.4122 18.1802C33.6122 16.5502 33.8922 15.0102 34.2522 13.5902ZM24.3522 14.3302C24.5722 14.2002 24.8122 14.0902 25.0622 13.9802C25.4222 14.7402 26.1922 15.2802 27.0922 15.2802C28.2722 15.2802 29.2222 14.3602 29.3122 13.2002C29.4922 13.2002 29.6622 13.1902 29.8422 13.1902C30.9822 13.1902 32.2222 13.2902 33.5222 13.4702C33.1322 15.0602 32.8222 16.7802 32.6222 18.6202C32.5922 18.6402 32.5522 18.6602 32.5122 18.6802C29.9022 20.2002 27.6822 21.8302 25.9422 23.4702C23.7422 21.2702 22.4822 19.1002 22.4822 17.3102C22.4822 16.0502 23.1122 15.0502 24.3522 14.3302ZM8.24221 33.0302C8.10221 32.9402 7.96221 32.8502 7.83221 32.7402C7.78221 32.7002 7.74221 32.6502 7.69221 32.6102C7.61221 32.5302 7.52221 32.4602 7.45221 32.3702C7.38221 32.3002 7.33221 32.2202 7.27221 32.1402C7.22221 32.0802 7.17221 32.0202 7.13221 31.9502C7.06221 31.8502 7.00221 31.7502 6.95221 31.6402C6.92221 31.5802 6.89221 31.5302 6.86221 31.4702C6.80221 31.3502 6.75221 31.2302 6.70221 31.1002C6.68221 31.0402 6.65221 30.9802 6.63221 30.9202C6.58221 30.7902 6.54221 30.6602 6.50221 30.5202C6.48221 30.4502 6.46221 30.3702 6.45221 30.3002C6.42221 30.1702 6.39221 30.0402 6.36221 29.9002C6.34221 29.7902 6.33221 29.6702 6.31221 29.5602C6.30221 29.4502 6.28221 29.3402 6.27221 29.2202C6.25221 28.9802 6.24221 28.7402 6.24221 28.4802C6.24221 26.7602 6.68221 24.9102 7.43221 23.1302C8.08221 21.6002 8.97221 20.1202 10.0222 18.8302C10.0522 18.7902 10.0822 18.7502 10.1122 18.7102C10.1222 18.6902 10.1422 18.6802 10.1622 18.6602C11.2022 17.4202 12.3922 16.3602 13.6522 15.6302C13.8922 15.4902 14.1222 15.3702 14.3522 15.2602C14.4022 15.2302 14.4622 15.2202 14.5122 15.1902C14.6822 15.1102 14.8522 15.0402 15.0222 14.9802C15.1422 14.9402 15.2722 14.9002 15.3922 14.8702C15.4922 14.8402 15.5822 14.8102 15.6822 14.7802C15.8222 14.7502 15.9522 14.7302 16.0822 14.7002C16.1622 14.6902 16.2422 14.6702 16.3222 14.6602C16.4522 14.6402 16.5722 14.6402 16.7022 14.6402C16.7822 14.6402 16.8622 14.6302 16.9422 14.6302C17.0522 14.6302 17.1622 14.6402 17.2722 14.6502C17.3622 14.6602 17.4522 14.6602 17.5322 14.6802C17.6222 14.7002 17.7122 14.7202 17.8022 14.7402C17.8922 14.7602 17.9922 14.7802 18.0822 14.8102C18.1622 14.8402 18.2422 14.8702 18.3222 14.9102C18.4222 14.9502 18.5122 14.9902 18.6022 15.0402C19.6422 15.6002 20.3422 16.7102 20.6122 18.2102C20.3922 18.1602 20.2422 18.1202 20.1822 18.1102C18.2722 17.3902 16.4222 17.5102 14.7022 18.4602C10.7622 20.6302 8.78221 26.4202 8.62221 27.2202C8.25221 29.0702 8.72221 30.9902 9.90221 32.5002C10.1622 32.8302 10.3822 33.1602 10.5722 33.4802C9.70221 33.5902 8.90221 33.4302 8.24221 33.0302ZM60.7122 58.2702C60.5522 58.7502 60.1422 59.1102 59.4822 59.3602C58.8122 59.6102 58.0322 59.6502 57.2122 59.4602C56.2522 59.2502 54.4822 58.7302 53.4722 57.6202C53.3822 57.5202 46.0922 49.6302 33.4522 45.9702C33.2522 45.9102 33.0522 46.0302 33.0022 46.2202C32.9422 46.4102 33.0622 46.6202 33.2522 46.6702C45.0422 50.0902 52.0922 57.2302 52.8622 58.0402C52.9122 58.4402 53.0522 59.9702 52.2922 61.0302C51.8822 61.6002 51.2522 61.9602 50.4322 62.0802C49.7722 62.1802 49.0422 62.0802 48.3122 61.8102L34.4722 56.5002C34.3622 56.4602 34.2422 56.4302 34.1222 56.4102C33.9322 50.6902 29.6622 47.8402 27.8122 46.8802C27.4622 46.7002 27.0622 46.5502 26.5622 46.4202C23.5922 45.6402 23.7222 41.7902 23.7222 41.6202C23.7322 41.4202 23.5722 41.2502 23.3722 41.2402C23.1922 41.2302 23.0022 41.3902 22.9922 41.5902C22.9922 41.6402 22.8322 46.2002 26.3722 47.1302C26.8222 47.2502 27.1722 47.3702 27.4722 47.5302C29.2122 48.4302 33.2122 51.1002 33.3922 56.4402C33.3122 56.4602 33.2322 56.4802 33.1422 56.5102C32.9822 56.5702 32.7922 56.6302 32.5722 56.6902C32.7222 56.3902 32.8022 56.0802 32.8022 55.7502C32.8022 54.2602 31.1322 53.0402 29.0922 53.0402C27.0722 53.0402 25.4222 54.2302 25.3922 55.7102C24.1822 55.1402 22.8522 54.3302 21.4422 53.1902C21.3322 53.1102 10.7822 45.3302 12.1722 38.4502C12.2122 38.3202 13.0222 35.3002 10.4822 32.0802C9.42221 30.7402 9.01221 29.0402 9.34221 27.4002C9.59221 26.1802 11.6422 21.0102 15.0622 19.1302C16.6022 18.2802 18.2522 18.1802 19.9622 18.8302C19.9822 18.8402 20.0022 18.8402 20.0222 18.8502C20.0322 18.8502 20.3722 18.9202 20.9822 19.0802C21.3122 19.1702 21.7222 19.2902 22.2022 19.4302C22.7622 20.8802 23.8722 22.4402 25.4322 24.0002C23.0922 26.3502 21.7722 28.6802 21.7722 30.6802C21.7722 32.2002 22.5522 33.4402 24.0122 34.2902C24.2822 34.4502 24.5822 34.5802 24.9022 34.7102C24.8922 34.7902 24.8822 34.8702 24.8822 34.9502C24.8822 36.1902 25.8922 37.1902 27.1222 37.1902C28.1722 37.1902 29.0422 36.4602 29.2822 35.4802C29.4622 35.4802 29.6422 35.4902 29.8322 35.4902C31.0422 35.4902 32.3522 35.3802 33.7322 35.1902C34.9422 39.6502 36.8522 42.9202 39.1422 44.2102C39.1322 44.2902 39.1222 44.3702 39.1222 44.4502C39.1222 45.6902 40.1322 46.6902 41.3622 46.6902C42.1622 46.6902 42.8622 46.2602 43.2522 45.6302C51.1322 48.1902 59.7222 55.7202 60.3722 56.3002C60.4422 56.4602 60.9922 57.4302 60.7122 58.2702ZM63.2622 55.1702C62.8122 55.7202 61.9822 56.1802 60.9922 55.8102C60.9422 55.7902 60.8822 55.7702 60.8322 55.7402C60.0822 55.0702 51.5822 47.5702 43.5122 44.9402C43.5522 44.7802 43.5722 44.6102 43.5722 44.4402C43.5722 44.3602 43.5522 44.2802 43.5522 44.2002C45.7422 42.9602 47.5922 39.9102 48.8122 35.7502C52.8522 38.5302 56.2622 40.9602 59.6422 44.0802C59.8322 44.2702 60.8322 45.8102 60.6322 47.0202C60.5422 47.5402 60.2422 47.9302 59.7322 48.2202C58.5622 47.4202 52.3122 43.1602 48.3622 40.6202C48.1922 40.5102 47.9622 40.5602 47.8622 40.7302C47.7522 40.9002 47.8022 41.1302 47.9722 41.2302C52.3122 44.0102 59.4422 48.9002 59.5122 48.9502H59.5222C59.5522 48.9702 62.2522 50.6802 63.4722 52.6402C63.9322 53.4402 63.8622 54.4302 63.2622 55.1702Z" fill="#111925"/>
<path d="M44.5725 23.9805C44.5725 22.1905 43.1125 20.7305 41.3225 20.7305C39.5225 20.7305 38.0625 22.1905 38.0625 23.9805C38.0625 25.7705 39.5225 27.2305 41.3225 27.2305C43.1225 27.2305 44.5725 25.7705 44.5725 23.9805Z" fill="#9900A2"/>
</svg>
