<svg width="64" height="64" viewBox="0 0 64 64" fill="none" xmlns="http://www.w3.org/2000/svg">
<g clip-path="url(#clip0_2567_15693)">
<path opacity="0.5" d="M32 64C49.6731 64 64 49.6731 64 32C64 14.3269 49.6731 0 32 0C14.3269 0 0 14.3269 0 32C0 49.6731 14.3269 64 32 64Z" fill="#F1EEFF"/>
<path d="M32 58C46.3594 58 58 46.3594 58 32C58 17.6406 46.3594 6 32 6C17.6406 6 6 17.6406 6 32C6 46.3594 17.6406 58 32 58Z" fill="white"/>
<path d="M32 57C45.8071 57 57 45.8071 57 32C57 18.1929 45.8071 7 32 7C18.1929 7 7 18.1929 7 32C7 45.8071 18.1929 57 32 57Z" fill="white"/>
<path d="M33.2141 42.4624C33.0166 42.4854 32.8098 42.5038 32.6076 42.5176C32.1067 42.5497 31.6058 42.5543 31.1095 42.5268C30.9809 42.5176 30.8614 42.6233 30.8522 42.7519C30.843 42.8852 30.9441 43.0001 31.0819 43.0093C31.3209 43.023 31.5599 43.0276 31.7988 43.0276C32.0791 43.0276 32.3594 43.0185 32.6397 43.0001C32.8511 42.9863 33.0625 42.9679 33.2693 42.9449C33.4026 42.9311 33.4991 42.8071 33.4807 42.6784C33.4669 42.5405 33.3474 42.444 33.2141 42.4624ZM29.0325 42.2097C28.8165 42.1545 28.6005 42.0948 28.3891 42.0259C28.4305 41.9937 28.4764 41.9615 28.5178 41.9248C28.697 41.7823 28.8578 41.6169 29.0095 41.4239C29.2025 41.1712 29.2622 40.9368 29.1795 40.73C29.06 40.4267 28.7062 40.3578 28.5729 40.3302C28.1318 40.2475 27.709 40.1878 27.2541 40.151C27.7182 39.6915 28.1502 39.1998 28.5362 38.6713C28.867 38.221 29.2301 37.6236 29.1473 36.9757C29.0738 36.4105 28.674 35.9555 28.3799 35.6247L28.3156 35.5511C28.0031 35.1973 27.7734 34.94 27.3414 34.6597C27.3276 34.6505 27.3138 34.6459 27.3 34.6367C27.2954 34.6321 27.2909 34.6321 27.2863 34.6275C26.7532 34.3058 26.1696 34.2001 25.6687 34.3426C25.1862 34.4804 24.8094 34.8297 24.5015 35.11C23.7617 35.7947 23.0035 36.4978 22.2958 37.2468C22.0109 36.7275 21.7673 36.1853 21.5697 35.6293C21.5238 35.5052 21.3859 35.4363 21.2619 35.4822C21.1378 35.5282 21.0689 35.666 21.1148 35.7901C21.3354 36.4242 21.6203 37.04 21.9511 37.6236C21.5008 38.1199 21.0735 38.6438 20.6875 39.1998C20.5726 39.3652 20.4623 39.5352 20.3474 39.7053C19.8879 40.3991 19.4513 41.0563 18.808 41.4974C18.5644 41.672 18.3209 41.8926 18.0636 42.1775C17.9716 42.2786 17.9808 42.4303 18.0819 42.5176C18.183 42.6049 18.3347 42.6003 18.422 42.4992C18.6563 42.2419 18.8723 42.0443 19.0837 41.8926C19.8052 41.4009 20.2831 40.6749 20.7518 39.9718C20.8621 39.8064 20.9724 39.6409 21.0826 39.4755C22.1258 37.9728 23.4998 36.7 24.8278 35.473C25.1081 35.2111 25.4298 34.917 25.7974 34.8159C26.0639 34.7424 26.3718 34.7654 26.6797 34.8802C25.8158 35.496 25.0392 36.2266 24.3683 37.0492C24.2855 37.1503 24.2993 37.3065 24.4004 37.3892C24.4464 37.426 24.5015 37.4444 24.5521 37.4444C24.621 37.4444 24.6899 37.4122 24.7405 37.3571C25.439 36.5024 26.2523 35.7579 27.1622 35.1376C27.3919 35.2938 27.5574 35.4455 27.7274 35.6339C26.6613 36.3599 25.7193 37.2422 24.9381 38.2669C24.8554 38.3726 24.8783 38.5243 24.984 38.607C25.03 38.6392 25.0805 38.6575 25.1311 38.6575C25.2046 38.6575 25.2735 38.6254 25.3241 38.561C26.0915 37.5593 27.0105 36.7 28.0537 35.9969C28.2375 36.2083 28.4075 36.4105 28.5178 36.6172C27.6309 37.2422 26.8313 37.9866 26.142 38.8276C26.0593 38.9333 26.0731 39.0849 26.1742 39.1676C26.2202 39.2044 26.2753 39.2228 26.3258 39.2228C26.3948 39.2228 26.4637 39.1906 26.5143 39.1355C27.1392 38.3726 27.8653 37.6971 28.6648 37.1135C28.6924 37.5685 28.4167 38.0142 28.141 38.391C27.6631 39.0389 27.1162 39.6455 26.5143 40.1832C26.4407 40.2475 26.4132 40.3532 26.4453 40.4451C26.4775 40.537 26.5648 40.6013 26.6613 40.6059C27.3184 40.6381 27.8744 40.7024 28.4718 40.8173C28.6786 40.8587 28.7154 40.9046 28.72 40.9184C28.7292 40.9368 28.7154 41.0103 28.6189 41.139C28.4948 41.2998 28.357 41.4423 28.2099 41.5572C27.5436 42.0856 26.9968 42.3935 26.3764 42.5911C25.9077 42.7427 25.3884 42.8622 24.8921 42.9771C24.382 43.0966 23.8582 43.216 23.3665 43.3723C23.0218 43.4826 22.7277 43.7537 22.4934 44.1811C22.1809 44.7463 21.8501 45.2058 21.4778 45.5918C21.3859 45.6883 21.3905 45.8399 21.487 45.9319C21.533 45.9778 21.5927 46.0008 21.6525 46.0008C21.7168 46.0008 21.7811 45.9778 21.8271 45.9273C22.2269 45.5091 22.5807 45.0174 22.9162 44.4154C23.0908 44.0983 23.293 43.9007 23.5135 43.8318C23.9823 43.6802 24.5015 43.5607 24.9978 43.4458C25.5079 43.3263 26.0317 43.2069 26.5188 43.0506C26.9922 42.899 27.4241 42.6876 27.8882 42.3843C28.2191 42.4992 28.5637 42.6003 28.9038 42.6876C28.9222 42.6922 28.9406 42.6968 28.9635 42.6968C29.0738 42.6968 29.1703 42.6233 29.1979 42.513C29.2392 42.3751 29.1611 42.2419 29.0325 42.2097ZM42.9929 34.0898C43.0067 34.0944 43.025 34.0944 43.0388 34.0944C43.1537 34.0944 43.2548 34.0163 43.2778 33.9014C43.411 33.2305 43.4754 32.5412 43.4754 31.8565V31.7141C43.4754 31.5808 43.3651 31.4751 43.2318 31.4751C43.2318 31.4751 43.2318 31.4751 43.2272 31.4751C43.094 31.4751 42.9883 31.5854 42.9883 31.7187V31.852C42.9883 32.5045 42.9239 33.1616 42.7999 33.8049C42.7769 33.9382 42.8642 34.0623 42.9929 34.0898ZM32.1435 21.4023C32.217 21.4023 32.2905 21.4023 32.364 21.4023C32.9844 21.4161 33.6093 21.4804 34.2251 21.5953C34.2389 21.5999 34.2527 21.5999 34.2711 21.5999C34.3859 21.5999 34.487 21.5172 34.51 21.4023C34.533 21.2691 34.4457 21.145 34.317 21.122C33.6737 21.0025 33.0211 20.9382 32.3778 20.9244C32.2997 20.9244 32.2262 20.9244 32.148 20.9244H32.1343C32.001 20.9244 31.8953 21.0347 31.8953 21.168C31.8999 21.2966 32.0102 21.4023 32.1435 21.4023ZM20.7518 31.2454C20.6139 31.2362 20.5036 31.3419 20.499 31.4751C20.4899 31.6727 20.4807 31.8749 20.4807 32.0771C20.4807 32.6056 20.5174 33.1386 20.5955 33.6671C20.6139 33.7866 20.715 33.8739 20.8345 33.8739C20.8437 33.8739 20.8575 33.8739 20.8667 33.8693C20.9999 33.8509 21.0918 33.7268 21.0735 33.5936C20.9999 33.0881 20.9632 32.578 20.9632 32.0725C20.9632 31.8795 20.9678 31.6865 20.977 31.4935C20.9861 31.3649 20.885 31.25 20.7518 31.2454ZM21.3032 29.4257C21.3905 29.0948 21.4962 28.7639 21.6157 28.4469C21.7398 28.116 21.8822 27.7851 22.0431 27.4635C22.1028 27.344 22.0522 27.1969 21.9328 27.1372C21.8133 27.0775 21.6662 27.128 21.6065 27.2475C21.4411 27.5829 21.2894 27.9276 21.1608 28.2768C21.0367 28.6123 20.9264 28.9569 20.8345 29.3016C20.8023 29.4302 20.8759 29.5635 21.0091 29.5957C21.0275 29.6003 21.0505 29.6049 21.0689 29.6049C21.1791 29.6095 21.2756 29.5359 21.3032 29.4257ZM44.4036 41.0747C44.0866 40.9 43.889 40.6978 43.82 40.4773C43.6684 40.0086 43.5489 39.4893 43.434 38.993C43.3145 38.4829 43.1951 37.9591 43.0388 37.4674C42.9102 37.0676 42.7355 36.6908 42.5012 36.3048C42.5471 36.2037 42.5931 36.1026 42.6344 36.0015C42.685 35.8774 42.6299 35.735 42.5058 35.6844C42.3817 35.6339 42.2393 35.689 42.1887 35.8131C42.1887 35.8177 42.1841 35.8223 42.1841 35.8269C42.1014 35.712 42.0187 35.5971 41.9222 35.4822C41.7797 35.303 41.6143 35.1422 41.4213 34.9905C41.1686 34.7975 40.9342 34.7378 40.7274 34.8205C40.4241 34.94 40.3552 35.2938 40.3276 35.4271C40.2449 35.8682 40.1852 36.291 40.1484 36.7459C39.6889 36.2818 39.1972 35.8498 38.6687 35.4638C38.2184 35.133 37.621 34.7699 36.9731 34.8527C36.8582 34.8664 36.7479 34.8986 36.6422 34.9354C36.2286 35.087 35.8886 35.3857 35.6267 35.6155L35.5531 35.6798C35.1993 35.9923 34.942 36.2175 34.6663 36.654C34.6571 36.6678 34.6525 36.6816 34.6433 36.6954C34.6387 36.7 34.6387 36.7046 34.6341 36.7137C34.3124 37.2468 34.2067 37.8304 34.3492 38.3267C34.487 38.8092 34.8363 39.186 35.1166 39.4939C35.7002 40.1234 36.293 40.7622 36.9133 41.3733C36.3849 41.6307 35.8335 41.8558 35.2728 42.0259C35.1442 42.0672 35.0752 42.2005 35.112 42.3292C35.1442 42.4349 35.2407 42.4992 35.3418 42.4992C35.3647 42.4992 35.3877 42.4946 35.4107 42.49C36.054 42.2924 36.6836 42.0351 37.281 41.7272C37.8829 42.2924 38.5125 42.83 39.1926 43.308C39.358 43.4228 39.528 43.5331 39.6981 43.648C40.392 44.1075 41.0491 44.5441 41.4902 45.1874C41.6648 45.431 41.8854 45.6745 42.1703 45.9319C42.2163 45.9732 42.276 45.9962 42.3312 45.9962C42.3955 45.9962 42.4644 45.9686 42.5104 45.9181C42.6023 45.817 42.5931 45.6653 42.492 45.578C42.2347 45.3483 42.0371 45.1277 41.8854 44.9163C41.3937 44.1948 40.6677 43.7169 39.9646 43.2482C39.7992 43.1379 39.6337 43.0276 39.4683 42.9128C37.9657 41.8696 36.6928 40.4956 35.4658 39.1676C35.2039 38.8873 34.9098 38.5656 34.8087 38.198C34.7352 37.9315 34.7582 37.6236 34.873 37.3157C35.4888 38.1796 36.2195 38.9562 37.042 39.6271C37.088 39.6639 37.1431 39.6823 37.1937 39.6823C37.2626 39.6823 37.3315 39.6501 37.3821 39.595C37.4648 39.4939 37.451 39.3376 37.3499 39.2549C36.4952 38.5564 35.7507 37.7431 35.1304 36.8332C35.2866 36.6035 35.4383 36.438 35.6267 36.268C36.3481 37.3341 37.235 38.2761 38.2598 39.0573C38.3057 39.0895 38.3563 39.1079 38.4068 39.1079C38.4803 39.1079 38.5493 39.0757 38.5998 39.0114C38.6825 38.9057 38.6595 38.754 38.5539 38.6713C37.5521 37.9039 36.6928 36.9849 35.9897 35.9417C36.2011 35.7579 36.4033 35.5879 36.6101 35.4776C37.235 36.3645 37.9794 37.1641 38.8204 37.8534C38.8663 37.8901 38.9215 37.9085 38.972 37.9085C39.0409 37.9085 39.1099 37.8763 39.1604 37.8212C39.2431 37.7201 39.2294 37.5639 39.1283 37.4812C38.3654 36.8562 37.6899 36.1301 37.1063 35.3306C37.5567 35.303 38.007 35.5787 38.3838 35.8544C39.0318 36.3323 39.6383 36.8792 40.176 37.4812C40.2403 37.5547 40.346 37.5823 40.4379 37.5501C40.5298 37.5179 40.5941 37.4306 40.5987 37.3341C40.6309 36.677 40.6952 36.121 40.8101 35.5236C40.8469 35.3214 40.8928 35.2846 40.9112 35.2754C40.9342 35.2662 41.0031 35.28 41.1318 35.3765C41.2926 35.5006 41.4351 35.6385 41.55 35.7855C42.0784 36.4472 42.3863 36.9987 42.5839 37.619C42.7355 38.0877 42.855 38.607 42.9699 39.1033C43.0894 39.6134 43.2089 40.1372 43.3651 40.6289C43.4754 40.9736 43.7465 41.2677 44.1739 41.502C44.7391 41.8145 45.1986 42.1454 45.5846 42.5176C45.6811 42.6095 45.8328 42.6049 45.9247 42.5084C46.0166 42.4119 46.012 42.2602 45.9155 42.1683C45.5019 41.7593 45.0056 41.4055 44.4036 41.0747ZM18.8126 22.5052C19.4559 22.9417 19.8879 23.5989 20.3474 24.2927C20.4577 24.4628 20.5726 24.6328 20.6875 24.7982C21.7627 26.3468 23.1551 27.6335 24.5015 28.8788C24.8048 29.1591 25.1862 29.513 25.6687 29.6462C25.8158 29.6876 25.9674 29.706 26.1282 29.706C26.4959 29.706 26.8865 29.5911 27.2541 29.3751C27.2725 29.3659 27.2863 29.3613 27.3046 29.3475C27.3184 29.3383 27.3322 29.3337 27.3414 29.3246C27.7779 29.0488 28.0031 28.7915 28.3156 28.4331L28.3799 28.3595C28.6143 28.0976 28.913 27.753 29.06 27.344C29.0968 27.2383 29.129 27.128 29.1473 27.0131C29.2301 26.3652 28.8624 25.7678 28.5362 25.3175C28.1502 24.7936 27.7182 24.2973 27.2541 23.8378C27.709 23.801 28.1272 23.7413 28.5729 23.6586C28.7062 23.631 29.06 23.5667 29.1795 23.2588C29.2622 23.052 29.2025 22.8177 29.0095 22.5649C28.8624 22.3719 28.697 22.2019 28.5178 22.064C28.4902 22.0411 28.4672 22.0227 28.4397 22.0043C28.9635 21.8297 29.5012 21.6918 30.0434 21.5907C30.1767 21.5677 30.264 21.4391 30.2364 21.3104C30.2134 21.1771 30.0848 21.0898 29.9561 21.1174C29.2806 21.2415 28.6097 21.4253 27.9664 21.6597C27.4793 21.3288 27.0289 21.1082 26.5326 20.952C26.0455 20.7957 25.5171 20.6763 25.007 20.5568C24.5061 20.4419 23.9914 20.3224 23.5227 20.1708C23.3022 20.1019 23.1 19.9043 22.9253 19.5872C22.5945 18.9852 22.2361 18.4935 21.8363 18.0753C21.7444 17.9788 21.5927 17.9742 21.4962 18.0662C21.3997 18.1581 21.3951 18.3097 21.487 18.4062C21.8592 18.7922 22.1901 19.2563 22.5026 19.8169C22.7415 20.2443 23.0356 20.52 23.3757 20.6257C23.8628 20.782 24.3912 20.9014 24.9013 21.0209C25.4022 21.1358 25.9169 21.2553 26.3856 21.4069C27.0059 21.6045 27.5528 21.9124 28.2191 22.4408C28.3661 22.5557 28.504 22.6982 28.6281 22.859C28.7292 22.9877 28.7384 23.0612 28.7292 23.0796C28.7246 23.0934 28.6924 23.1393 28.481 23.1807C27.8836 23.2956 27.3276 23.3599 26.6705 23.3921C26.574 23.3967 26.4867 23.461 26.4545 23.5529C26.4223 23.6448 26.4499 23.7505 26.5188 23.8148C27.1208 24.3525 27.6677 24.9545 28.1456 25.607C28.4259 25.9884 28.697 26.4341 28.6694 26.8845C27.8699 26.3055 27.1438 25.63 26.5188 24.8626C26.4361 24.7615 26.2845 24.7431 26.1788 24.8304C26.0731 24.9131 26.0593 25.0693 26.1466 25.1704C26.8313 26.0114 27.6309 26.7512 28.5224 27.3808C28.4075 27.5875 28.2421 27.7897 28.0583 28.0011C27.0105 27.298 26.0915 26.4387 25.3287 25.437C25.246 25.3313 25.0943 25.3083 24.9886 25.391C24.8829 25.4737 24.8645 25.6254 24.9427 25.7311C25.7285 26.7558 26.6659 27.6427 27.732 28.3641C27.5574 28.5526 27.3965 28.7042 27.1668 28.8604C26.2569 28.2401 25.439 27.4956 24.7451 26.6409C24.6624 26.5398 24.5107 26.5214 24.405 26.6088C24.2993 26.6915 24.2855 26.8477 24.3729 26.9488C25.0438 27.7714 25.8204 28.4974 26.6843 29.1178C26.3764 29.2326 26.0685 29.2556 25.802 29.1821C25.4344 29.0764 25.1127 28.7823 24.8324 28.5204C23.5043 27.2934 22.1304 26.0206 21.0872 24.5179C20.9724 24.3571 20.8667 24.187 20.7564 24.0216C20.2923 23.3185 19.8098 22.5925 19.0929 22.1054C18.8769 21.9492 18.6563 21.7516 18.4266 21.4988C18.3347 21.3977 18.183 21.3931 18.0865 21.4804C17.9854 21.5723 17.9808 21.724 18.0681 21.8205C18.3163 22.1054 18.5598 22.326 18.8126 22.5052ZM35.1166 24.5041C34.8363 24.8074 34.4824 25.1888 34.3492 25.6713C34.2067 26.1676 34.3124 26.7558 34.6341 27.2843C34.6387 27.2889 34.6387 27.298 34.6433 27.3026C34.6525 27.3164 34.6571 27.3302 34.6663 27.3394C34.942 27.776 35.1993 28.0011 35.5577 28.3136L35.6313 28.3779C35.8886 28.6031 36.2149 28.8926 36.6101 29.0488C36.6192 29.0534 36.6284 29.058 36.6376 29.058C36.7479 29.0994 36.8628 29.1316 36.9823 29.1453C37.6302 29.2281 38.2276 28.8604 38.6779 28.5342C39.2018 28.1482 39.6981 27.7162 40.1576 27.2521C40.1944 27.707 40.2541 28.1252 40.3368 28.5709C40.3644 28.7042 40.4287 29.058 40.7366 29.1775C40.7963 29.2005 40.8607 29.2143 40.9296 29.2143C41.0858 29.2143 41.2559 29.1453 41.4305 29.0075C41.6235 28.8604 41.7935 28.695 41.9314 28.5158C42.0554 28.3595 42.1703 28.2079 42.2714 28.0563C42.4185 28.4285 42.5425 28.8145 42.6482 29.2005L42.6804 29.32C42.6942 29.3659 42.7034 29.4165 42.7172 29.467C42.7309 29.5222 42.7447 29.5773 42.7539 29.6324C42.7769 29.7473 42.878 29.8208 42.9883 29.8208C43.0067 29.8208 43.025 29.8208 43.0434 29.8162C43.1721 29.7887 43.2548 29.66 43.2272 29.5267C43.2134 29.4716 43.1997 29.4119 43.1859 29.3567C43.1721 29.3062 43.1629 29.2556 43.1491 29.2051L43.117 29.0856C42.9791 28.5617 42.7999 28.0517 42.5885 27.56C42.7861 27.2199 42.9331 26.8845 43.048 26.5306C43.2043 26.0435 43.3237 25.5151 43.4432 25.005C43.5581 24.5041 43.6776 23.9895 43.8292 23.5207C43.8981 23.3002 44.0957 23.098 44.4128 22.9233C45.0148 22.5925 45.5065 22.2341 45.9247 21.8343C46.0212 21.7424 46.0258 21.5907 45.9338 21.4942C45.8419 21.3977 45.6903 21.3931 45.5938 21.485C45.2078 21.8572 44.7437 22.1881 44.1831 22.5006C43.7557 22.7395 43.48 23.0336 43.3743 23.3737C43.218 23.8608 43.0986 24.3892 42.9791 24.8993C42.8642 25.4002 42.7447 25.9149 42.5931 26.3836C42.3955 27.0039 42.0876 27.5508 41.5592 28.2171C41.4443 28.3641 41.3018 28.502 41.141 28.6261C41.0123 28.7226 40.9388 28.7364 40.9204 28.7272C40.902 28.7226 40.8607 28.6812 40.8193 28.479C40.7044 27.8816 40.6401 27.3256 40.6079 26.6685C40.6033 26.572 40.539 26.4847 40.4471 26.4525C40.3552 26.4203 40.2495 26.4479 40.1852 26.5214C39.6475 27.1234 39.0455 27.6703 38.393 28.1482C38.0116 28.4285 37.5659 28.6996 37.1155 28.672C37.6945 27.8725 38.37 27.1464 39.1374 26.5214C39.2431 26.4387 39.2569 26.2825 39.1696 26.1814C39.0869 26.0803 38.9353 26.0619 38.8296 26.1492C37.9886 26.8385 37.2488 27.6335 36.6192 28.525C36.4125 28.4101 36.2103 28.2447 35.9989 28.0609C36.702 27.0131 37.5613 26.0941 38.563 25.3313C38.6687 25.2486 38.6871 25.0969 38.609 24.9912C38.5263 24.8855 38.3746 24.8626 38.2689 24.9453C37.2442 25.7311 36.3573 26.6685 35.6359 27.7346C35.4474 27.56 35.2958 27.3991 35.1396 27.1694C35.7599 26.2595 36.5044 25.4416 37.3591 24.7477C37.4648 24.665 37.4786 24.5087 37.3912 24.4076C37.3085 24.3065 37.1569 24.2881 37.0512 24.3755C36.2286 25.0464 35.5026 25.823 34.8822 26.6869C34.7673 26.379 34.7444 26.0711 34.8179 25.8046C34.9236 25.437 35.2177 25.1153 35.4796 24.835C36.7066 23.5069 37.9794 22.133 39.4821 21.0898C39.6429 20.975 39.813 20.8647 39.9784 20.759C40.6815 20.2949 41.4075 19.8124 41.8946 19.0955C42.0508 18.8795 42.2484 18.6589 42.5012 18.4292C42.6023 18.3373 42.6069 18.1856 42.5196 18.0891C42.4277 17.988 42.276 17.9834 42.1795 18.0707C41.8992 18.3281 41.674 18.5716 41.4994 18.8198C41.0629 19.4631 40.4057 19.8951 39.7119 20.3546C39.5418 20.4649 39.3718 20.5798 39.2064 20.6946C38.5768 21.1312 37.9886 21.6275 37.428 22.1467C37.1063 21.9905 36.7755 21.8435 36.4354 21.7148C36.3114 21.6688 36.1689 21.7286 36.123 21.8572C36.077 21.9813 36.1367 22.1238 36.2654 22.1697C36.5319 22.2708 36.7939 22.3857 37.0512 22.5052C36.3711 23.1485 35.737 23.8332 35.1166 24.5041ZM31.6839 36.9711C31.7437 36.9711 31.8034 36.9481 31.8494 36.9067C33.2325 35.6385 34.0872 34.7286 34.6203 33.9612C34.7536 33.8049 36.0494 32.2471 35.907 30.9145C35.8564 30.4366 35.6359 30.046 35.2453 29.7473C33.784 28.6353 32.1297 29.6141 31.6104 29.9771C31.2795 29.7197 30.48 29.1867 29.6528 29.3154C29.1198 29.3981 28.6786 29.7289 28.3432 30.3033C26.8221 32.9043 31.3393 36.7551 31.5323 36.9159C31.5736 36.9527 31.6288 36.9711 31.6839 36.9711ZM28.7567 30.5423C29.0141 30.1012 29.3403 29.8484 29.7217 29.7887C29.7815 29.7795 29.8458 29.7749 29.9056 29.7749C30.6776 29.7749 31.4312 30.4504 31.4358 30.4596C31.5231 30.5423 31.661 30.5423 31.7529 30.4688C31.8218 30.409 33.5082 29.0351 34.9466 30.1333C35.2315 30.3493 35.3877 30.6204 35.4199 30.9651C35.5439 32.1323 34.2527 33.6441 34.2389 33.6579C34.2343 33.6625 34.2297 33.6717 34.2251 33.6763C33.7334 34.3839 32.943 35.2295 31.6793 36.4059C30.9027 35.7028 27.5849 32.5458 28.7567 30.5423Z" fill="#3D3AAD"/>
<path d="M42.1723 40.426C42.1953 40.5409 42.2963 40.619 42.4066 40.619C42.425 40.619 42.4388 40.619 42.4572 40.6144C42.5858 40.5869 42.6732 40.4582 42.6456 40.3295C42.5445 39.8332 42.4158 39.3369 42.2642 38.8544C42.2228 38.7258 42.0896 38.6568 41.9609 38.6936C41.8322 38.735 41.7633 38.8682 41.8001 38.9969C41.9517 39.4656 42.0758 39.9435 42.1723 40.426ZM41.8874 37.77C41.823 37.6045 41.7541 37.4391 41.6852 37.2783C41.63 37.1542 41.4876 37.099 41.3681 37.1542C41.244 37.2093 41.1889 37.3472 41.244 37.4713C41.313 37.6275 41.3773 37.7883 41.4416 37.9492C41.4784 38.0457 41.5703 38.1008 41.6668 38.1008C41.6944 38.1008 41.7265 38.0962 41.7541 38.0824C41.8782 38.0365 41.9379 37.894 41.8874 37.77Z" fill="#8CEDBC"/>
</g>
<defs>
<clipPath id="clip0_2567_15693">
<rect width="64" height="64" fill="white"/>
</clipPath>
</defs>
</svg>
