<svg width="64" height="64" viewBox="0 0 64 64" fill="none" xmlns="http://www.w3.org/2000/svg">
<g clip-path="url(#clip0_2567_19397)">
<path opacity="0.5" d="M32 64C49.6731 64 64 49.6731 64 32C64 14.3269 49.6731 0 32 0C14.3269 0 0 14.3269 0 32C0 49.6731 14.3269 64 32 64Z" fill="#F1EEFF"/>
<path d="M32 58C46.3594 58 58 46.3594 58 32C58 17.6406 46.3594 6 32 6C17.6406 6 6 17.6406 6 32C6 46.3594 17.6406 58 32 58Z" fill="white"/>
<path d="M32 57C45.8071 57 57 45.8071 57 32C57 18.1929 45.8071 7 32 7C18.1929 7 7 18.1929 7 32C7 45.8071 18.1929 57 32 57Z" fill="#4E1031"/>
<path d="M36.1334 27.8159C36.0314 27.8159 35.9304 27.7859 35.8414 27.7219C34.7474 26.9349 33.4354 26.6569 33.4224 26.6549C33.1904 26.6059 33.0234 26.4019 33.0234 26.1649V24.8789C33.0234 24.6029 33.2474 24.3789 33.5234 24.3789C33.7994 24.3789 34.0234 24.6029 34.0234 24.8789V25.7759C34.5584 25.9299 35.5394 26.2719 36.4254 26.9099C36.6504 27.0709 36.7004 27.3839 36.5394 27.6079C36.4414 27.7439 36.2884 27.8159 36.1334 27.8159Z" fill="#F3B8D5"/>
<path d="M39.8827 44.4098C39.8397 44.4098 39.7987 44.4068 39.7627 44.3998C39.6117 44.3728 39.4817 44.2768 39.4087 44.1408L38.1257 41.7148C38.0827 41.6338 38.0637 41.5418 38.0687 41.4498C38.0907 41.0958 38.0547 40.7308 37.9607 40.3638V40.3618C37.8297 39.8448 37.6307 39.5038 37.6287 39.5008C37.6087 39.4678 37.5927 39.4318 37.5807 39.3948L35.2637 32.0078C34.3057 29.2608 35.3767 27.4938 35.7287 27.0198C35.8927 26.7988 36.2017 26.7508 36.4217 26.9108C37.4397 27.6398 38.0507 28.5468 38.2377 29.6058L40.2697 39.4918L43.2597 42.5898C43.4417 42.7898 43.5357 43.0308 43.5357 43.2788C43.5357 43.4288 43.4997 43.5808 43.4317 43.7148C43.3097 43.9678 43.0757 44.1608 42.7927 44.2348C42.5117 44.3038 42.2147 44.2548 41.9797 44.0878L40.7697 43.2378C40.7737 43.6338 40.6807 43.9278 40.4917 44.1368C40.3097 44.3408 40.0707 44.4098 39.8827 44.4098ZM40.0727 41.6358C40.1737 41.6358 40.2737 41.6658 40.3597 41.7268L42.5547 43.2688L39.4497 40.0828C39.3837 40.0148 39.3387 39.9288 39.3187 39.8358L37.2557 29.7938C37.1407 29.1438 36.8097 28.5668 36.2667 28.0688C35.9597 28.7128 35.6077 29.9578 36.2127 31.6948L38.5207 39.0468C38.5977 39.1888 38.7947 39.5808 38.9297 40.1188C39.0367 40.5378 39.0857 40.9568 39.0747 41.3688L39.6367 42.4318C39.6227 42.3808 39.6087 42.3278 39.5927 42.2738C39.5337 42.0698 39.6107 41.8508 39.7827 41.7278C39.8697 41.6668 39.9717 41.6358 40.0727 41.6358Z" fill="#F3B8D5"/>
<path d="M27.5037 27.8161C27.3497 27.8161 27.1957 27.7441 27.0987 27.6091C26.9367 27.3841 26.9877 27.0721 27.2107 26.9111C28.0947 26.2731 29.0747 25.9311 29.6087 25.7771V25.1211C29.6087 24.8451 29.8327 24.6211 30.1087 24.6211C30.3847 24.6211 30.6087 24.8451 30.6087 25.1211V26.1651C30.6087 26.4021 30.4417 26.6061 30.2097 26.6541C30.1967 26.6571 28.8857 26.9351 27.7967 27.7211C27.7077 27.7861 27.6047 27.8161 27.5037 27.8161Z" fill="#F3B8D5"/>
<path d="M23.7507 44.4085C23.5627 44.4085 23.3228 44.3395 23.1388 44.1345C22.9498 43.9245 22.8568 43.6305 22.8608 43.2355L21.6497 44.0865C21.4617 44.2145 21.2468 44.2745 21.0438 44.2625C20.6758 44.2455 20.3497 44.0325 20.1917 43.7045C20.1297 43.5755 20.0938 43.4275 20.0938 43.2785C20.0938 43.0275 20.1887 42.7865 20.3617 42.5985L23.3598 39.4915L25.3937 29.5925C25.5807 28.5475 26.1927 27.6415 27.2127 26.9105C27.4337 26.7495 27.7458 26.8005 27.9078 27.0215C28.2568 27.5005 29.3188 29.2745 28.3668 32.0225L26.0478 39.3955C26.0368 39.4315 26.0207 39.4675 26.0007 39.5005C25.9957 39.5095 25.4938 40.3735 25.5608 41.4495C25.5668 41.5415 25.5468 41.6335 25.5037 41.7145L24.2257 44.1405C24.1537 44.2765 24.0237 44.3715 23.8717 44.3995C23.8347 44.4055 23.7947 44.4085 23.7507 44.4085ZM27.3687 28.0665C26.8227 28.5655 26.4897 29.1395 26.3757 29.7795L24.3108 39.8345C24.2908 39.9275 24.2468 40.0135 24.1798 40.0815L21.1688 43.2005L23.2708 41.7245C23.4427 41.6025 23.6737 41.6035 23.8477 41.7265C24.0207 41.8495 24.0968 42.0685 24.0378 42.2725C24.0208 42.3295 24.0068 42.3835 23.9928 42.4355L24.5548 41.3675C24.5228 40.2015 24.9798 39.2805 25.1098 39.0445L27.4177 31.7075C28.0217 29.9625 27.6867 28.7285 27.3687 28.0665Z" fill="#F3B8D5"/>
<path d="M36.4503 39.8675C36.2423 39.8675 36.0483 39.7365 35.9773 39.5295C34.3463 34.7635 35.3653 32.1975 35.4093 32.0915C35.5133 31.8355 35.8063 31.7125 36.0613 31.8205C36.3163 31.9245 36.4373 32.2165 36.3333 32.4705C36.3153 32.5165 35.4353 34.8585 36.9223 39.2055C37.0123 39.4675 36.8723 39.7515 36.6113 39.8405C36.5593 39.8585 36.5043 39.8675 36.4503 39.8675Z" fill="#F3B8D5"/>
<path d="M38.4461 40.7426C38.3751 40.7426 38.3021 40.7276 38.2341 40.6956L36.4571 39.8656L27.4361 39.7156C27.2761 39.7126 27.1261 39.6336 27.0351 39.5016C26.9441 39.3696 26.9201 39.2016 26.9731 39.0506C28.7621 33.9246 27.4431 32.9396 27.4291 32.9296C27.1861 32.7996 27.1051 32.5036 27.2351 32.2596C27.3651 32.0156 27.6781 31.9306 27.9231 32.0606C28.1351 32.1736 29.8741 33.2916 28.1351 38.7276L36.5801 38.8686C36.6501 38.8696 36.7191 38.8866 36.7831 38.9156L38.6571 39.7906C38.9071 39.9076 39.0151 40.2046 38.8981 40.4556C38.8141 40.6366 38.6341 40.7426 38.4461 40.7426Z" fill="#F3B8D5"/>
<path d="M25.0623 41.9836C24.9303 41.9836 24.7983 41.9316 24.7003 41.8286C24.5103 41.6286 24.5173 41.3116 24.7183 41.1216L27.1023 38.8526C27.3013 38.6636 27.6183 38.6686 27.8093 38.8706C27.9993 39.0706 27.9923 39.3876 27.7913 39.5776L25.4073 41.8466C25.3113 41.9386 25.1863 41.9836 25.0623 41.9836Z" fill="#F3B8D5"/>
<path d="M29.5331 48.499C29.1801 48.499 28.8521 48.321 28.6551 48.01C28.5571 47.854 28.5031 47.683 28.4921 47.512C28.4111 47.624 28.2841 47.701 28.1371 47.716L21.2361 48.411C21.2001 48.417 21.1641 48.416 21.1261 48.41C20.1731 48.294 19.5621 47.909 19.3101 47.267C18.7371 45.805 20.4851 43.676 20.6861 43.438C20.8651 43.228 21.1801 43.204 21.3901 43.379C21.6011 43.557 21.6271 43.872 21.4501 44.083C20.9341 44.694 19.9621 46.187 20.2421 46.901C20.3461 47.166 20.6661 47.337 21.1941 47.41L27.5901 46.765L27.5931 44.836C27.5931 44.561 27.8181 44.337 28.0931 44.337H30.0041C30.3951 44.337 30.8011 44.237 31.1771 44.048C32.4021 43.433 33.4281 43.45 34.0631 44.101C34.1601 44.201 34.2111 44.334 34.2051 44.473C34.1991 44.612 34.1361 44.741 34.0311 44.83L33.7631 45.059C33.3041 45.454 32.7121 45.701 32.0521 45.774C31.4501 45.84 30.5211 46.178 29.5091 47.412C29.9741 47.392 30.4361 47.246 30.9301 47.058C31.5431 46.827 32.2031 46.708 32.8931 46.708H42.0681C42.6551 46.708 43.1981 46.467 43.5191 46.062C44.4231 44.924 42.8851 43.619 42.8191 43.564C42.6071 43.387 42.5781 43.073 42.7551 42.86C42.9301 42.648 43.2441 42.619 43.4571 42.794C44.2791 43.474 45.5151 45.161 44.3031 46.686C43.7851 47.336 42.9711 47.709 42.0691 47.709H32.8941C32.3261 47.709 31.7851 47.805 31.2861 47.994C30.7551 48.196 30.2531 48.355 29.7961 48.467C29.7061 48.488 29.6191 48.499 29.5331 48.499ZM28.5901 45.339L28.5871 47.011C28.6251 46.93 28.6741 46.852 28.7331 46.779C29.3041 46.084 29.8691 45.621 30.3881 45.317C30.2591 45.332 30.1301 45.339 30.0011 45.339H28.5901ZM32.6071 44.61C32.4041 44.635 32.1941 44.699 32.0031 44.773C32.2201 44.744 32.4221 44.689 32.6071 44.61Z" fill="#F3B8D5"/>
<path d="M28.094 45.3395C27.992 45.3395 27.89 45.3095 27.802 45.2455C27.577 45.0835 27.527 44.7705 27.688 44.5475C27.723 44.4995 28.549 43.3595 29.621 42.6265C31.361 41.4305 33.58 41.4385 35.137 42.6415C35.765 43.1255 36.176 43.7155 36.358 44.3945C36.4 44.5475 36.366 44.7105 36.267 44.8345C36.168 44.9595 36.019 45.0325 35.859 45.0235L33.691 44.9525C33.416 44.9425 33.199 44.7125 33.208 44.4355C33.217 44.1645 33.439 43.9525 33.708 43.9525C33.713 43.9525 33.719 43.9525 33.725 43.9525L35.08 43.9975C34.935 43.7945 34.751 43.6055 34.526 43.4325C33.314 42.4965 31.57 42.5015 30.187 43.4515C29.258 44.0875 28.508 45.1215 28.501 45.1325C28.401 45.2675 28.249 45.3395 28.094 45.3395Z" fill="#F3B8D5"/>
<path d="M36.3097 47.7126C36.2477 47.7126 36.1827 47.7006 36.1217 47.6756C33.8917 46.7706 33.8017 45.0846 34.0647 44.3206C34.1547 44.0596 34.4407 43.9236 34.7007 44.0106C34.9607 44.1006 35.0977 44.3816 35.0127 44.6416C34.9677 44.7816 34.6447 45.9966 36.4987 46.7496C36.7547 46.8536 36.8777 47.1456 36.7727 47.4006C36.6937 47.5956 36.5067 47.7126 36.3097 47.7126Z" fill="#F3B8D5"/>
<path d="M28.086 47.7243C27.813 47.7243 27.589 47.5033 27.586 47.2293C27.583 46.9533 27.805 46.7273 28.081 46.7243L29.041 46.7143C29.322 46.6783 29.543 46.9333 29.546 47.2093C29.549 47.4853 29.327 47.7113 29.051 47.7143L28.091 47.7243C28.089 47.7243 28.088 47.7243 28.086 47.7243Z" fill="#F3B8D5"/>
<path d="M39.105 45.0234H35.875C35.599 45.0234 35.375 44.7994 35.375 44.5234C35.375 44.2474 35.599 44.0234 35.875 44.0234H39.105C39.381 44.0234 39.605 44.2474 39.605 44.5234C39.605 44.7994 39.381 45.0234 39.105 45.0234Z" fill="#F3B8D5"/>
<path d="M28.8088 22.9747C28.6618 22.9747 28.5138 22.9097 28.4148 22.7837C27.8748 22.0957 27.5898 21.2707 27.5898 20.3977C27.5898 18.2787 29.3158 16.5547 31.4358 16.5547C33.5548 16.5547 35.2788 18.2787 35.2788 20.3977C35.2788 21.0707 35.1008 21.7347 34.7658 22.3177C34.6268 22.5577 34.3188 22.6367 34.0828 22.5027C33.8438 22.3647 33.7608 22.0597 33.8978 21.8197C34.1468 21.3877 34.2778 20.8957 34.2778 20.3977C34.2778 18.8307 33.0028 17.5547 31.4348 17.5547C29.8658 17.5547 28.5888 18.8297 28.5888 20.3977C28.5888 21.0437 28.8008 21.6567 29.2008 22.1667C29.3708 22.3837 29.3338 22.6977 29.1158 22.8687C29.0248 22.9387 28.9168 22.9747 28.8088 22.9747Z" fill="#F3B8D5"/>
<path d="M33.2017 18.064C32.9527 18.064 32.7367 17.877 32.7067 17.624C32.6287 16.983 32.0827 16.5 31.4357 16.5C30.7867 16.5 30.2387 16.983 30.1607 17.624C30.1277 17.899 29.8617 18.103 29.6047 18.061C29.3307 18.028 29.1347 17.779 29.1677 17.505C29.3057 16.361 30.2797 15.5 31.4357 15.5C32.5877 15.5 33.5617 16.361 33.6997 17.505C33.7327 17.778 33.5377 18.027 33.2627 18.061C33.2427 18.063 33.2227 18.064 33.2017 18.064Z" fill="#F3B8D5"/>
<path d="M31.6471 26.4551C31.2681 26.4551 30.8911 26.3451 30.5651 26.1251C29.2631 25.2521 28.4641 23.9731 28.3151 22.5241C28.2871 22.2491 28.4861 22.0031 28.7601 21.9751C29.0311 21.9431 29.2811 22.1451 29.3091 22.4201C29.4301 23.5851 30.0571 24.5791 31.1211 25.2941C31.4141 25.4891 31.8071 25.5021 32.1251 25.3291C33.4681 24.5881 34.0131 23.5721 33.8371 22.1331C33.8041 21.8591 33.9981 21.6101 34.2731 21.5761C34.5441 21.5331 34.7971 21.7361 34.8301 22.0121C35.0561 23.8571 34.3081 25.2671 32.6081 26.2041C32.3061 26.3721 31.9761 26.4551 31.6471 26.4551Z" fill="#F3B8D5"/>
<path d="M28.9153 23.0809C28.7463 23.0809 28.5823 22.9959 28.4873 22.8419C28.3433 22.6069 28.4183 22.2989 28.6533 22.1539C29.7423 21.4879 32.7073 19.4159 33.3353 17.8529C33.4383 17.5959 33.7283 17.4719 33.9853 17.5759C34.2413 17.6789 34.3663 17.9709 34.2623 18.2259C33.3823 20.4149 29.3463 22.9019 29.1743 23.0069C29.0943 23.0579 29.0043 23.0809 28.9153 23.0809Z" fill="#F3B8D5"/>
<path d="M34.2271 22.5737C33.6841 22.5737 33.2181 22.3967 32.8411 22.0477C32.0081 21.2747 31.9631 19.9167 31.9611 19.8597C31.9541 19.5847 32.1711 19.3557 32.4461 19.3477C32.7091 19.3487 32.9521 19.5567 32.9611 19.8317C32.9701 20.1077 33.0881 20.9147 33.5231 21.3157C33.7271 21.5037 33.9921 21.5827 34.3031 21.5717C34.6091 21.5397 34.8131 21.7707 34.8261 22.0467C34.8401 22.3227 34.6271 22.5577 34.3511 22.5697C34.3101 22.5727 34.2691 22.5737 34.2271 22.5737Z" fill="#F3B8D5"/>
<path d="M30.6498 23.5251C30.3708 23.5251 30.1238 23.4291 29.9778 23.3391C29.7438 23.1931 29.6718 22.8841 29.8178 22.6501C29.9628 22.4191 30.2678 22.3441 30.4998 22.4861C30.5118 22.4921 30.6458 22.5601 30.7288 22.5021C30.9578 22.3491 31.2688 22.4041 31.4238 22.6331C31.5788 22.8621 31.5208 23.1721 31.2928 23.3281C31.0798 23.4741 30.8558 23.5251 30.6498 23.5251Z" fill="#F3B8D5"/>
<path d="M32.598 23.5251C32.32 23.5251 32.073 23.4291 31.927 23.3391C31.693 23.1931 31.621 22.8841 31.767 22.6501C31.912 22.4191 32.217 22.3441 32.449 22.4861C32.461 22.4921 32.593 22.5601 32.677 22.5021C32.904 22.3491 33.216 22.4041 33.371 22.6331C33.527 22.8611 33.47 23.1721 33.241 23.3281C33.027 23.4741 32.804 23.5251 32.598 23.5251Z" fill="#F3B8D5"/>
<path d="M31.6481 25.1472C31.2271 25.1472 30.8791 25.0032 30.8231 24.9782C30.5701 24.8682 30.4551 24.5732 30.5651 24.3202C30.6751 24.0662 30.9701 23.9512 31.2211 24.0612C31.3301 24.1062 31.6931 24.2132 31.9011 24.0892C32.1381 23.9512 32.4451 24.0272 32.5871 24.2652C32.7281 24.5022 32.6491 24.8092 32.4111 24.9512C32.1591 25.0992 31.8911 25.1472 31.6481 25.1472Z" fill="#F3B8D5"/>
<path d="M31.7672 27.3907C30.8462 27.3907 30.1092 26.9097 29.7392 26.4997C29.5532 26.2947 29.5692 25.9787 29.7732 25.7937C29.9772 25.6087 30.2942 25.6237 30.4782 25.8257C30.6022 25.9587 31.6962 27.0447 33.1982 25.7807C33.4092 25.6037 33.7242 25.6317 33.9032 25.8417C34.0812 26.0537 34.0532 26.3687 33.8422 26.5467C33.1032 27.1677 32.3932 27.3907 31.7672 27.3907Z" fill="#F3B8D5"/>
</g>
<defs>
<clipPath id="clip0_2567_19397">
<rect width="64" height="64" fill="white"/>
</clipPath>
</defs>
</svg>
