<svg width="66" height="66" viewBox="0 0 66 66" fill="none" xmlns="http://www.w3.org/2000/svg">
<path d="M49.4571 2.95916L23.3062 18.1578C23.2813 18.1703 23.2564 18.1952 23.2377 18.2139C23.0696 18.3571 22.9638 18.5812 22.9638 18.8676L22.9326 30.069C19.807 31.8871 15.2305 34.5333 15.1807 34.5893C14.6204 34.9878 14.9939 34.6703 14.8321 53.9348C14.8196 58.8412 20.0934 64.7065 23.4058 62.7452L49.5319 47.559C50.5032 46.9986 51.0449 45.8343 51.0511 44.2776C51.0511 44.2029 51.1632 4.52199 51.1632 4.58425C51.1632 3.65651 50.1919 2.56067 49.4571 2.95916ZM22.9388 30.6107C22.5715 59.3207 23.4992 59.5884 22.0298 60.4352C20.5853 61.2509 18.6239 59.3331 17.7834 57.8948C16.2019 55.1303 17.1732 54.9933 16.9366 36.1709C16.9366 35.5918 16.5443 34.9131 16.0462 34.6143L22.9388 30.6107ZM49.2953 47.1543L24.4519 61.5933C24.7632 60.9831 24.9002 60.1612 24.9064 59.4763C24.6387 19.621 25.8341 19.235 24.1281 18.2201L49.6937 3.36387C49.9802 3.20821 50.7024 3.88067 50.7024 4.58425C50.1483 45.0746 51.5741 45.8467 49.2953 47.1543Z" fill="black"/>
<path d="M44.132 25.929C42.5816 26.8194 40.2218 29.6213 39.238 30.8417C39.0886 30.4245 38.6652 30.4121 38.3289 30.6923C37.3576 31.5204 36.6976 31.62 36.5108 31.7258C36.1808 31.9189 35.9193 32.3734 35.9193 32.7594V32.8653C34.0016 32.6972 30.988 32.8466 29.9046 34.4343C28.6967 36.2026 28.404 42.6158 31.0876 41.0655C32.6442 40.1689 35.0414 37.3109 35.9754 36.1528C36.0189 36.2649 36.0874 36.3645 36.1933 36.4206C36.7786 36.763 37.1086 35.7668 38.5655 35.3247C38.9765 35.2002 39.3003 34.6647 39.3003 34.2289V34.123C41.2118 34.2973 44.2253 34.1479 45.315 32.5602C46.5353 30.767 46.8155 24.3724 44.132 25.929ZM36.5855 35.9411C36.4859 36.0221 36.4921 35.9847 36.4237 36.0158C36.4174 36.0158 36.3987 35.9847 36.3987 35.9038L36.3925 34.3285C36.4548 33.326 36.1746 32.3111 36.791 32.1119C37.8433 31.7881 38.6029 31.0596 38.7025 31.0036C38.7648 30.9662 38.7337 30.9787 38.7959 30.9724C38.8582 31.0223 38.8084 31.4145 38.8333 34.2289C38.8333 35.0694 38.0923 34.6523 36.5855 35.9411ZM27.6257 32.94C27.9557 32.94 26.7603 33.5066 47.4382 21.6017C48.5901 20.923 47.8491 19.8085 48.0608 12.2683C48.0608 11.7515 47.625 11.5087 47.1767 11.7702C27.7067 23.3202 27.0529 22.7287 27.084 24.1109C27.302 31.5453 26.642 32.94 27.6257 32.94ZM48.1418 40.5549C48.1418 40.0443 47.7121 39.7953 47.2576 40.0568C27.9993 51.4823 27.1587 50.9904 27.1587 52.4038C27.2397 52.9828 26.8972 54.197 27.688 54.197C28.018 54.197 26.9035 54.7075 47.5004 42.8587C48.4344 42.317 48.0608 41.1153 48.1418 40.5549ZM26.8599 45.5298C26.5921 45.6855 26.8287 46.0902 27.0965 45.9345C49.2127 33.0396 48.7146 33.7183 48.4842 33.3198C48.2476 32.9213 49.1878 32.7657 26.8599 45.5298ZM48.1604 36.3085L26.8599 48.6057C26.5921 48.7613 26.8287 49.166 27.0965 49.0104L48.3971 36.7132C48.6648 36.5575 48.422 36.1528 48.1604 36.3085Z" fill="#FF846D"/>
</svg>
