<svg width="28" height="36" viewBox="0 0 28 36" fill="none" xmlns="http://www.w3.org/2000/svg">
<path d="M16.4864 23.2981C22.6991 22.337 25.8497 16.5351 24.5572 10.6162C23.3302 4.99645 17.2762 1.84042 11.8801 2.21791C5.44764 2.66835 1.92635 9.18066 2.76751 15.1177C3.63314 21.229 11.0297 23.8734 16.3728 23.3138C16.9163 23.257 16.9217 22.3997 16.3728 22.457C11.4557 22.972 5.78302 20.9989 3.89606 16.0602C1.60859 10.0747 6.37104 3.46054 12.4408 3.03555C17.2056 2.70213 22.0215 5.70589 23.5603 10.2274C25.4566 15.7992 22.0205 21.5815 16.2592 22.4726C15.7143 22.5564 15.9464 23.3813 16.4864 23.2981Z" fill="#8E8585"/>
<path d="M13.8508 5.56662C13.8141 8.64725 13.56 11.674 13.8577 14.7512C13.9972 16.1936 14.1936 17.639 14.2846 19.0863C14.5652 19.0486 14.8452 19.0109 15.1258 18.9722C15.1131 18.8811 15.1008 18.7895 15.0881 18.698C15.0186 18.1579 14.1613 18.1516 14.2318 18.698C14.2533 18.8654 14.2734 19.0334 14.3003 19.1993C14.3782 19.6777 15.1713 19.5636 15.1415 19.0858C15.0509 17.6409 14.8707 16.1897 14.715 14.7507C14.3821 11.6804 14.6714 8.64137 14.7077 5.56612C14.7135 5.01384 13.8572 5.01483 13.8508 5.56662Z" fill="#8E8585"/>
<path d="M13.528 5.3486C12.3182 6.93543 10.9135 8.36804 9.91223 10.1066C9.63609 10.5865 10.3764 11.0168 10.652 10.539C11.6513 8.80281 13.059 7.3663 14.2678 5.78094C14.6022 5.34127 13.858 4.91578 13.528 5.3486Z" fill="#8E8585"/>
<path d="M10.4728 19.6971C12.9938 19.6961 15.5119 19.6839 18.0089 19.301C18.5533 19.2173 18.3213 18.3923 17.7812 18.4745C15.363 18.8456 12.9135 18.8393 10.4728 18.8398C9.92052 18.8402 9.92052 19.6971 10.4728 19.6971Z" fill="#8E8585"/>
<path d="M17.2261 25.8422C24.704 24.7454 28.7374 17.8287 27.2877 10.6417C25.8653 3.5918 18.363 -0.42596 11.6015 0.0313363C4.10164 0.538573 -1.12888 8.27248 0.209228 15.5373C1.6149 23.1718 10.0622 26.6192 17.1126 25.8574C17.6555 25.7986 17.6614 24.9413 17.1126 25.0005C10.8304 25.6801 3.34372 23.0215 1.29274 16.5038C-1.0383 9.09551 4.73176 1.35281 12.1665 0.84998C18.3209 0.433321 24.5277 4.30663 26.3089 10.2554C28.3619 17.1139 24.0146 23.9875 16.999 25.0157C16.4535 25.096 16.6861 25.921 17.2261 25.8422Z" fill="#8E8585"/>
<path d="M8.20275 24.3797C6.62865 26.7577 5.12996 29.1837 3.63517 31.6117C3.42317 31.9559 3.76933 32.3055 4.11891 32.2409C5.57942 31.9696 6.90088 31.3664 8.30557 30.9086C8.13029 30.7329 7.95452 30.5571 7.77875 30.3818C7.4605 32.0029 7.55011 33.6103 7.57361 35.2534C7.57948 35.677 8.15428 35.841 8.37167 35.4694C10.2518 32.256 11.6237 28.5947 14.2044 25.85C14.5819 25.4485 13.9777 24.8414 13.5988 25.2448C10.9612 28.0498 9.5531 31.7542 7.63187 35.0375C7.89821 35.1095 8.16408 35.1815 8.42993 35.2534C8.4079 33.6891 8.30068 32.1576 8.60473 30.6095C8.66397 30.3089 8.40986 29.9745 8.07791 30.0827C6.67321 30.5409 5.35126 31.1441 3.89124 31.4149C4.05232 31.6249 4.2134 31.8345 4.37498 32.044C5.86976 29.6156 7.36846 27.19 8.94256 24.812C9.24807 24.3498 8.50582 23.9214 8.20275 24.3797Z" fill="#8E8585"/>
<path d="M16.7215 26.4257C17.5646 29.3918 18.3466 32.4543 19.9995 35.0918C20.2433 35.4811 20.7466 35.2823 20.7975 34.8759C20.9885 33.3488 21.1917 31.8668 21.7337 30.4219C21.4952 30.4851 21.2563 30.5482 21.0179 30.6109C22.0916 31.9436 23.5183 32.7637 24.9113 33.7229C25.2182 33.9349 25.656 33.5853 25.5404 33.2396C24.5343 30.2364 22.8187 27.5264 21.9241 24.4849C21.7689 23.9561 20.9425 24.1813 21.0982 24.7126C21.9932 27.757 23.7078 30.4635 24.7144 33.4673C24.924 33.3062 25.134 33.1451 25.3436 32.9841C24.0172 32.0704 22.6483 31.2773 21.624 30.0057C21.4022 29.7301 21.0086 29.9269 20.9082 30.1947C20.3398 31.7086 20.141 33.2812 19.9412 34.8759C20.2071 34.8039 20.4734 34.732 20.7393 34.66C19.125 32.0846 18.3705 29.0946 17.547 26.1985C17.3967 25.6678 16.5702 25.8935 16.7215 26.4257Z" fill="#8E8585"/>
</svg>
