<svg width="64" height="64" viewBox="0 0 64 64" fill="none" xmlns="http://www.w3.org/2000/svg">
<g clip-path="url(#clip0_2567_19455)">
<path opacity="0.5" d="M32 64C49.6731 64 64 49.6731 64 32C64 14.3269 49.6731 0 32 0C14.3269 0 0 14.3269 0 32C0 49.6731 14.3269 64 32 64Z" fill="#F1EEFF"/>
<path d="M32 58C46.3594 58 58 46.3594 58 32C58 17.6406 46.3594 6 32 6C17.6406 6 6 17.6406 6 32C6 46.3594 17.6406 58 32 58Z" fill="white"/>
<path d="M32 57C45.8071 57 57 45.8071 57 32C57 18.1929 45.8071 7 32 7C18.1929 7 7 18.1929 7 32C7 45.8071 18.1929 57 32 57Z" fill="#91EAC0"/>
<path d="M21.2129 26.4003C21.1391 26.4002 21.0667 26.3809 21.0026 26.3442C20.9386 26.3076 20.8852 26.2548 20.8478 26.1913C20.8103 26.1277 20.7901 26.0555 20.7891 25.9817C20.7881 25.9079 20.8064 25.8351 20.8421 25.7706C21.7337 24.1501 22.9728 22.747 24.4707 21.6619C25.9685 20.5768 27.6879 19.8366 29.5055 19.4944C29.6152 19.4756 29.7279 19.5006 29.8193 19.5641C29.9107 19.6276 29.9735 19.7245 29.9942 19.8339C30.0148 19.9433 29.9917 20.0564 29.9297 20.1488C29.8677 20.2413 29.7719 20.3057 29.6629 20.3282C27.968 20.6474 26.3647 21.3377 24.968 22.3496C23.5713 23.3616 22.4159 24.6701 21.5846 26.1813C21.5479 26.2477 21.4941 26.303 21.4287 26.3415C21.3633 26.3801 21.2888 26.4003 21.2129 26.4003Z" fill="#3D3AAD"/>
<path d="M31.8503 22.4025C31.316 22.4025 30.7938 22.2441 30.3496 21.9473C29.9053 21.6504 29.5591 21.2286 29.3547 20.735C29.1502 20.2414 29.0967 19.6983 29.2009 19.1743C29.3052 18.6503 29.5624 18.169 29.9402 17.7912C30.318 17.4134 30.7993 17.1561 31.3233 17.0519C31.8473 16.9477 32.3904 17.0012 32.884 17.2056C33.3776 17.4101 33.7995 17.7563 34.0963 18.2005C34.3931 18.6447 34.5515 19.167 34.5515 19.7013C34.5507 20.4174 34.2659 21.104 33.7595 21.6105C33.2531 22.1169 32.5665 22.4017 31.8503 22.4025ZM31.8503 17.8486C31.4839 17.8486 31.1257 17.9573 30.821 18.1609C30.5164 18.3644 30.2789 18.6538 30.1387 18.9923C29.9985 19.3308 29.9618 19.7033 30.0333 20.0627C30.1048 20.422 30.2812 20.7521 30.5403 21.0112C30.7994 21.2703 31.1295 21.4468 31.4889 21.5183C31.8482 21.5897 32.2207 21.553 32.5592 21.4128C32.8978 21.2726 33.1871 21.0352 33.3907 20.7305C33.5942 20.4258 33.7029 20.0677 33.7029 19.7013C33.7023 19.2101 33.507 18.7392 33.1596 18.3919C32.8123 18.0446 32.3415 17.8492 31.8503 17.8486ZM25.9751 42.9139C25.9034 42.914 25.8328 42.8957 25.7701 42.8609C24.1499 41.969 22.7469 40.7297 21.6619 39.2318C20.5769 37.7339 19.8367 36.0146 19.4944 34.197C19.4756 34.0873 19.5006 33.9746 19.5641 33.8832C19.6276 33.7918 19.7245 33.729 19.8339 33.7084C19.9433 33.6877 20.0564 33.7109 20.1488 33.7728C20.2413 33.8348 20.3057 33.9306 20.3282 34.0396C20.6473 35.7348 21.3376 37.3385 22.3495 38.7355C23.3615 40.1325 24.67 41.2883 26.1813 42.12C26.2637 42.1656 26.3286 42.2372 26.3657 42.3237C26.4029 42.4102 26.4103 42.5066 26.3866 42.5978C26.363 42.6889 26.3098 42.7696 26.2353 42.8271C26.1608 42.8847 26.0692 42.9158 25.9751 42.9156V42.9139Z" fill="#3D3AAD"/>
<path d="M19.7017 34.5509C19.1674 34.551 18.6451 34.3927 18.2008 34.0959C17.7566 33.7991 17.4103 33.3773 17.2057 32.8837C17.0012 32.3901 16.9477 31.847 17.0519 31.323C17.156 30.7989 17.4133 30.3176 17.791 29.9398C18.1688 29.5619 18.6501 29.3046 19.1741 29.2004C19.6981 29.0961 20.2413 29.1496 20.7349 29.354C21.2285 29.5585 21.6504 29.9047 21.9472 30.3489C22.2441 30.7931 22.4025 31.3154 22.4025 31.8497C22.4017 32.5658 22.1169 33.2523 21.6106 33.7587C21.1043 34.2651 20.4178 34.55 19.7017 34.5509ZM19.7017 29.9971C19.3352 29.997 18.977 30.1056 18.6723 30.3091C18.3676 30.5126 18.1301 30.8019 17.9898 31.1404C17.8495 31.4789 17.8128 31.8515 17.8842 32.2109C17.9556 32.5702 18.132 32.9004 18.3911 33.1595C18.6502 33.4187 18.9803 33.5951 19.3397 33.6667C19.6991 33.7382 20.0716 33.7015 20.4101 33.5613C20.7487 33.4211 21.038 33.1836 21.2416 32.879C21.4452 32.5743 21.5539 32.2161 21.5539 31.8497C21.5533 31.3586 21.358 30.8878 21.0108 30.5405C20.6635 30.1932 20.1928 29.9978 19.7017 29.9971ZM34.1185 44.2132C34.0127 44.2134 33.9106 44.174 33.8324 44.1028C33.7541 44.0316 33.7053 43.9337 33.6954 43.8283C33.6856 43.723 33.7155 43.6177 33.7792 43.5333C33.843 43.4488 33.936 43.3912 34.04 43.3718C35.7354 43.0529 37.3391 42.3627 38.7361 41.3507C40.1332 40.3388 41.2889 39.0301 42.1204 37.5187C42.147 37.4693 42.1832 37.4256 42.2268 37.3903C42.2704 37.355 42.3206 37.3287 42.3744 37.3128C42.4282 37.297 42.4847 37.2921 42.5405 37.2982C42.5962 37.3044 42.6502 37.3215 42.6993 37.3487C42.7484 37.3758 42.7917 37.4125 42.8265 37.4564C42.8614 37.5004 42.8871 37.5509 42.9024 37.6049C42.9176 37.6589 42.9219 37.7154 42.9152 37.7711C42.9084 37.8268 42.8907 37.8806 42.863 37.9294C41.9712 39.5501 40.7317 40.9534 39.2335 42.0385C37.7353 43.1236 36.0155 43.8637 34.1974 44.2056C34.1714 44.2106 34.145 44.2132 34.1185 44.2132Z" fill="#3D3AAD"/>
<path d="M31.8536 46.7008C31.3193 46.7008 30.7971 46.5424 30.3529 46.2456C29.9086 45.9488 29.5624 45.5269 29.358 45.0333C29.1535 44.5397 29.1 43.9966 29.2042 43.4726C29.3085 42.9486 29.5657 42.4673 29.9435 42.0895C30.3213 41.7117 30.8026 41.4545 31.3266 41.3502C31.8506 41.246 32.3937 41.2995 32.8873 41.504C33.3809 41.7084 33.8028 42.0546 34.0996 42.4989C34.3964 42.9431 34.5548 43.4653 34.5548 43.9996C34.5542 44.7158 34.2694 45.4025 33.7629 45.9089C33.2565 46.4154 32.5698 46.7002 31.8536 46.7008ZM31.8536 42.147C31.4872 42.147 31.129 42.2556 30.8243 42.4592C30.5197 42.6628 30.2822 42.9521 30.142 43.2906C30.0018 43.6292 29.9651 44.0016 30.0366 44.361C30.1081 44.7204 30.2845 45.0505 30.5436 45.3096C30.8027 45.5687 31.1328 45.7451 31.4922 45.8166C31.8515 45.8881 32.224 45.8514 32.5626 45.7112C32.9011 45.571 33.1904 45.3335 33.394 45.0288C33.5975 44.7242 33.7062 44.366 33.7062 43.9996C33.7056 43.5084 33.5103 43.0375 33.163 42.6902C32.8157 42.3429 32.3448 42.1476 31.8536 42.147ZM43.7924 30.0071C43.6935 30.007 43.5978 29.9724 43.5217 29.9093C43.4456 29.8461 43.394 29.7584 43.3757 29.6613C43.0566 27.966 42.3663 26.3624 41.3544 24.9653C40.3424 23.5683 39.0339 22.4125 37.5226 21.5808C37.4241 21.5263 37.3513 21.4349 37.3202 21.3267C37.2892 21.2185 37.3023 21.1024 37.3569 21.004C37.4114 20.9055 37.5028 20.8327 37.611 20.8017C37.7192 20.7706 37.8353 20.7838 37.9337 20.8383C39.554 21.7302 40.9569 22.9695 42.0419 24.4673C43.1269 25.9652 43.8671 27.6845 44.2095 29.5021C44.2198 29.557 44.2192 29.6133 44.2077 29.6679C44.1962 29.7225 44.1741 29.7743 44.1426 29.8203C44.111 29.8664 44.0707 29.9057 44.024 29.9362C43.9772 29.9666 43.9249 29.9875 43.87 29.9977C43.8445 30.0033 43.8185 30.0064 43.7924 30.0071Z" fill="#3D3AAD"/>
<path d="M44.0015 34.5523C43.4672 34.5523 42.945 34.3939 42.5008 34.097C42.0566 33.8002 41.7103 33.3783 41.5059 32.8848C41.3014 32.3912 41.2479 31.848 41.3522 31.324C41.4564 30.8001 41.7137 30.3187 42.0914 29.941C42.4692 29.5632 42.9505 29.3059 43.4745 29.2017C43.9985 29.0975 44.5416 29.151 45.0352 29.3554C45.5288 29.5599 45.9507 29.9061 46.2475 30.3503C46.5443 30.7945 46.7028 31.3168 46.7028 31.851C46.702 32.5672 46.4171 33.2538 45.9107 33.7602C45.4043 34.2666 44.7177 34.5515 44.0015 34.5523ZM44.0015 29.9984C43.6351 29.9984 43.2769 30.1071 42.9723 30.3106C42.6676 30.5142 42.4301 30.8036 42.2899 31.1421C42.1497 31.4806 42.113 31.8531 42.1845 32.2125C42.256 32.5718 42.4324 32.9019 42.6915 33.161C42.9506 33.4201 43.2807 33.5965 43.6401 33.668C43.9994 33.7395 44.3719 33.7028 44.7105 33.5626C45.049 33.4224 45.3383 33.1849 45.5419 32.8803C45.7455 32.5756 45.8541 32.2174 45.8541 31.851C45.8535 31.3599 45.6582 30.889 45.3109 30.5417C44.9636 30.1944 44.4927 29.999 44.0015 29.9984ZM26.2274 30.0383C26.1606 30.0383 26.0947 30.0225 26.0351 29.9922C25.9755 29.9619 25.9239 29.9179 25.8846 29.8639C25.6863 29.6269 25.5414 29.35 25.4596 29.052C25.3779 28.754 25.3611 28.4419 25.4106 28.1369C25.4372 28.0275 25.5062 27.9332 25.6023 27.8747C25.6985 27.8161 25.814 27.7982 25.9234 27.8248C26.0328 27.8514 26.1271 27.9204 26.1856 28.0166C26.2442 28.1128 26.2621 28.2282 26.2355 28.3376C26.2206 28.5223 26.2424 28.708 26.2998 28.8841C26.3572 29.0603 26.449 29.2232 26.5698 29.3636C26.6161 29.4269 26.6439 29.5017 26.6502 29.5798C26.6565 29.6579 26.6411 29.7362 26.6056 29.806C26.5702 29.8759 26.5161 29.9346 26.4493 29.9756C26.3825 30.0166 26.3057 30.0383 26.2274 30.0383ZM31.0639 27.4949C30.9974 27.4951 30.9318 27.4796 30.8724 27.4497C30.813 27.4199 30.7614 27.3765 30.7218 27.3231C30.5029 27.0347 30.1944 26.8271 29.8448 26.7328C29.789 26.723 29.7358 26.7021 29.6883 26.6714C29.6407 26.6407 29.5998 26.6008 29.5679 26.5541C29.536 26.5073 29.5138 26.4547 29.5026 26.3992C29.4913 26.3438 29.4913 26.2866 29.5025 26.2311C29.5137 26.1756 29.5358 26.123 29.5677 26.0762C29.5995 26.0294 29.6404 25.9895 29.6879 25.9587C29.7354 25.928 29.7886 25.907 29.8443 25.8971C29.9001 25.8873 29.9572 25.8886 30.0124 25.9012C30.5679 26.0383 31.0594 26.3622 31.4046 26.8185C31.4511 26.8816 31.4793 26.9563 31.486 27.0344C31.4927 27.1125 31.4776 27.1909 31.4425 27.2609C31.4073 27.331 31.3535 27.3899 31.2868 27.4312C31.2202 27.4725 31.1435 27.4946 31.0651 27.4949H31.0639ZM34.8552 27.7745C34.7598 27.7745 34.6673 27.7423 34.5924 27.6832C34.5176 27.624 34.4649 27.5414 34.4427 27.4487C34.369 27.1495 34.1916 26.8861 33.942 26.7052C33.8464 26.6457 33.7783 26.5506 33.7528 26.4409C33.7272 26.3312 33.7463 26.2158 33.8058 26.1201C33.8654 26.0244 33.9605 25.9564 34.0702 25.9308C34.1799 25.9053 34.2953 25.9244 34.391 25.9839C34.8284 26.2846 35.1405 26.735 35.2685 27.2501C35.2834 27.3125 35.284 27.3775 35.2702 27.4402C35.2564 27.5029 35.2286 27.5616 35.1888 27.612C35.149 27.6623 35.0983 27.703 35.0405 27.731C34.9827 27.7589 34.9194 27.7734 34.8552 27.7733V27.7745ZM38.6911 29.9636C38.6098 29.9636 38.5303 29.9401 38.4619 29.8962C38.4085 29.8622 37.2675 29.157 36.2487 29.8847C36.1571 29.9502 36.0432 29.9765 35.9322 29.958C35.8211 29.9395 35.722 29.8777 35.6565 29.7861C35.5911 29.6944 35.5647 29.5806 35.5832 29.4696C35.6017 29.3585 35.6636 29.2594 35.7552 29.1939C37.2514 28.1259 38.8528 29.1392 38.9215 29.1829C38.9985 29.2326 39.0573 29.3059 39.0891 29.3919C39.121 29.4778 39.1242 29.5717 39.0982 29.6596C39.0722 29.7475 39.0184 29.8246 38.945 29.8794C38.8715 29.9342 38.7827 29.9638 38.6911 29.9636ZM37.4924 35.2503C37.4098 35.2502 37.3291 35.226 37.26 35.1807C37.191 35.1354 37.1367 35.0709 37.1038 34.9952C37.0709 34.9195 37.0607 34.8358 37.0747 34.7544C37.0886 34.673 37.126 34.5975 37.1822 34.537C37.5577 34.1335 37.4185 33.3608 37.3337 33.0973C37.2985 32.9904 37.3072 32.8739 37.358 32.7734C37.4087 32.6729 37.4973 32.5967 37.6042 32.5616C37.7111 32.5264 37.8276 32.5351 37.9281 32.5859C38.0285 32.6366 38.1047 32.7252 38.1399 32.8321C38.159 32.8902 38.5994 34.2603 37.803 35.1154C37.7632 35.158 37.7152 35.1919 37.6617 35.2152C37.6083 35.2384 37.5506 35.2503 37.4924 35.2503Z" fill="#3D3AAD"/>
<path d="M36.0125 38.9911H34.3533C34.26 38.991 34.1693 38.9602 34.0953 38.9033C34.0213 38.8465 33.968 38.7668 33.9439 38.6767C33.707 37.861 33.3362 37.0904 32.8466 36.3964C32.3708 36.1881 31.9408 35.888 31.5812 35.5134C31.4411 35.5276 31.3003 35.5345 31.1595 35.5342C30.574 35.5414 29.9941 35.4207 29.4602 35.1805C28.9262 34.9404 28.4512 34.5865 28.0683 34.1436C27.6531 34.3456 27.201 34.4605 26.7398 34.4813C26.2786 34.5021 25.818 34.4283 25.3864 34.2644C24.9547 34.1006 24.5612 33.8501 24.23 33.5285C23.8987 33.2069 23.6368 32.8209 23.4603 32.3943C23.2838 31.9677 23.1964 31.5095 23.2035 31.0479C23.2107 30.5863 23.3122 30.131 23.5019 29.7101C23.6915 29.2891 23.9653 28.9115 24.3063 28.6003C24.6474 28.2891 25.0485 28.051 25.485 27.9006C25.7948 27.0519 26.426 26.3592 27.2422 25.9719C28.0584 25.5847 28.9942 25.5339 29.8474 25.8307C30.4869 25.3403 31.2728 25.0795 32.0786 25.0902C32.8844 25.1009 33.6631 25.3825 34.2893 25.8897C34.5218 25.8514 34.7571 25.8323 34.9928 25.8328C37.1569 25.8328 38.9225 27.3557 39.102 29.3343C39.461 29.6523 39.7489 30.0423 39.947 30.479C40.145 30.9157 40.2488 31.3893 40.2515 31.8688C40.2374 32.6153 39.988 33.3382 39.5389 33.9345C39.0897 34.5309 38.4636 34.9701 37.7501 35.1896C37.4567 35.5746 37.093 35.9005 36.6782 36.1498C36.3171 36.536 36.2255 37.3825 36.4283 38.4904C36.4395 38.5516 36.4371 38.6144 36.4213 38.6746C36.4055 38.7347 36.3767 38.7906 36.3369 38.8384C36.2971 38.8862 36.2473 38.9246 36.191 38.951C36.1348 38.9774 36.0733 38.9911 36.0112 38.9911H36.0125ZM34.6703 38.1425H35.519C35.4078 37.1937 35.471 36.1032 36.1495 35.4811C36.1878 35.4462 36.2321 35.4184 36.2802 35.3992C36.6198 35.1884 36.9134 34.9111 37.1433 34.5841C37.1981 34.5055 37.278 34.4479 37.3699 34.4207C37.9394 34.273 38.4456 33.9443 38.8123 33.4841C39.1789 33.0239 39.3862 32.457 39.4028 31.8688C39.399 31.4835 39.3089 31.104 39.139 30.7581C38.9692 30.4122 38.7239 30.1088 38.4213 29.8703C38.3744 29.8322 38.3362 29.7845 38.3092 29.7304C38.2822 29.6763 38.267 29.6171 38.2648 29.5567C38.2028 27.9443 36.7648 26.6815 34.9915 26.6815C34.7454 26.6802 34.4998 26.7067 34.2596 26.7604C34.1914 26.7756 34.1206 26.7739 34.0533 26.7554C33.986 26.737 33.9242 26.7022 33.8734 26.6543C33.3751 26.1884 32.7166 25.9321 32.0344 25.9385C31.362 25.934 30.7123 26.1819 30.2136 26.6331C30.1527 26.6885 30.0769 26.7251 29.9956 26.7384C29.9143 26.7518 29.8309 26.7413 29.7554 26.7082C29.4272 26.5631 29.0721 26.4888 28.7132 26.4901C28.1525 26.4906 27.6071 26.6731 27.159 27.0103C26.711 27.3474 26.3845 27.821 26.2288 28.3597C26.2087 28.4306 26.1704 28.495 26.1178 28.5467C26.0652 28.5983 26.0001 28.6354 25.9288 28.6542C25.3344 28.8128 24.8179 29.1822 24.4757 29.6935C24.1336 30.2048 23.989 30.8231 24.069 31.4331C24.1491 32.0431 24.4482 32.6032 24.9107 33.0089C25.3732 33.4147 25.9675 33.6383 26.5827 33.6383C27.0678 33.6403 27.5429 33.5008 27.9499 33.2369C28.0432 33.1759 28.1567 33.1541 28.266 33.1762C28.3752 33.1982 28.4714 33.2624 28.5337 33.3548C28.8289 33.7749 29.2227 34.116 29.6805 34.3483C30.1383 34.5806 30.6462 34.697 31.1595 34.6872C31.3326 34.6878 31.5055 34.6736 31.6763 34.6448C31.7494 34.6327 31.8245 34.6398 31.894 34.6655C31.9636 34.6912 32.0253 34.7345 32.073 34.7912C32.3831 35.1567 32.7742 35.4447 33.2153 35.6322C33.308 35.6542 33.3904 35.7074 33.4487 35.7828C33.9757 36.5013 34.3879 37.2974 34.6703 38.1425Z" fill="#3D3AAD"/>
<path d="M31.7526 35.486C31.6526 35.486 31.5558 35.4507 31.4792 35.3863C31.4027 35.3219 31.3514 35.2325 31.3343 35.134C31.3173 35.0354 31.3356 34.934 31.386 34.8476C31.4365 34.7613 31.5158 34.6955 31.61 34.6619C32.1447 34.4427 32.6144 34.0902 32.9742 33.638C33.1313 33.4245 33.3295 33.2445 33.5572 33.1087C33.7849 32.9729 34.0374 32.884 34.2999 32.8473C34.5625 32.8106 34.8297 32.8267 35.0859 32.8948C35.3421 32.9629 35.5821 33.0816 35.7918 33.2438C35.8834 33.3092 35.9452 33.4083 35.9638 33.5193C35.9823 33.6303 35.956 33.7442 35.8906 33.8358C35.8252 33.9274 35.7261 33.9893 35.6151 34.0078C35.5041 34.0263 35.3903 34 35.2987 33.9346C35.1773 33.8372 35.0375 33.7654 34.8876 33.7235C34.7377 33.6816 34.5808 33.6706 34.4266 33.6911C34.2723 33.7115 34.1237 33.7631 33.9899 33.8426C33.8561 33.9221 33.7398 34.0279 33.6481 34.1536C33.1894 34.7372 32.5841 35.1886 31.8939 35.4618C31.8485 35.4778 31.8007 35.486 31.7526 35.486Z" fill="#3D3AAD"/>
<path d="M34.0247 35.4856C33.7078 35.4859 33.3978 35.3927 33.1336 35.2176C32.8694 35.0424 32.6627 34.7932 32.5396 34.5012C32.4967 34.3977 32.4964 34.2814 32.5389 34.1778C32.5814 34.0741 32.6631 33.9914 32.7663 33.9478C32.8695 33.9042 32.9857 33.9031 33.0897 33.9448C33.1936 33.9866 33.2769 34.0677 33.3212 34.1706C33.3796 34.309 33.4775 34.427 33.6026 34.51C33.7277 34.5931 33.8746 34.6373 34.0247 34.6374C34.1373 34.6374 34.2452 34.6821 34.3248 34.7617C34.4044 34.8412 34.4491 34.9492 34.4491 35.0617C34.4491 35.1742 34.4044 35.2822 34.3248 35.3617C34.2452 35.4413 34.1373 35.4856 34.0247 35.4856ZM28.1835 34.0149C28.1071 34.0149 28.0322 33.9944 27.9666 33.9554C27.9009 33.9164 27.847 33.8604 27.8105 33.7934C27.464 33.2158 27.3218 32.5384 27.4068 31.8702C27.4919 31.202 27.7992 30.5818 28.2794 30.1094C28.5375 29.849 28.8449 29.6427 29.1837 29.5025C29.5225 29.3623 29.8859 29.2911 30.2525 29.293C30.7216 29.2929 31.1833 29.4106 31.5951 29.6354C31.7498 29.7199 31.8788 29.8446 31.9685 29.9963C32.0582 30.1481 32.1053 30.3212 32.1048 30.4975C32.1043 30.6738 32.0561 30.8466 31.9655 30.9978C31.8749 31.149 31.7452 31.2729 31.59 31.3565C31.4395 31.44 31.269 31.4808 31.097 31.4745C30.925 31.4681 30.7579 31.4148 30.614 31.3204C30.5673 31.2901 30.527 31.2508 30.4955 31.2048C30.4639 31.1589 30.4417 31.1072 30.4302 31.0527C30.4186 30.9982 30.4179 30.9419 30.4281 30.8871C30.4382 30.8323 30.4591 30.7801 30.4895 30.7334C30.5198 30.6867 30.5591 30.6464 30.6051 30.6148C30.651 30.5833 30.7027 30.5611 30.7572 30.5495C30.8117 30.538 30.868 30.5372 30.9228 30.5474C30.9776 30.5576 31.0298 30.5785 31.0765 30.6088C31.0928 30.6195 31.1118 30.6251 31.1313 30.6251C31.1507 30.6251 31.1697 30.6195 31.186 30.6088C31.2072 30.598 31.225 30.5816 31.2375 30.5613C31.25 30.5411 31.2567 30.5178 31.2569 30.4941C31.2572 30.4703 31.2509 30.4469 31.2387 30.4264C31.2266 30.406 31.2091 30.3892 31.1881 30.378C30.8169 30.1751 30.3897 30.0985 29.971 30.1597C29.5524 30.2209 29.1651 30.4167 28.8675 30.7175C28.5219 31.0614 28.303 31.5124 28.2466 31.9967C28.1902 32.481 28.2996 32.9702 28.5569 33.3843C28.592 33.4489 28.6096 33.5215 28.6082 33.595C28.6068 33.6685 28.5863 33.7404 28.5487 33.8036C28.5111 33.8667 28.4578 33.9191 28.3939 33.9555C28.3301 33.9918 28.2578 34.011 28.1843 34.0111L28.1835 34.0149Z" fill="#3D3AAD"/>
<path d="M30.4955 30.1571C30.393 30.1573 30.2939 30.1204 30.2165 30.0532C30.1391 29.9861 30.0886 29.8931 30.0744 29.7917C30.0602 29.6902 30.0832 29.587 30.1391 29.5011C30.1951 29.4153 30.2802 29.3525 30.3788 29.3246C30.6164 29.2567 30.745 29.151 30.7225 29.042C30.7059 28.9892 30.7 28.9336 30.7052 28.8785C30.7104 28.8233 30.7264 28.7698 30.7525 28.721C30.7786 28.6722 30.8141 28.629 30.857 28.5941C30.9 28.5591 30.9494 28.5331 31.0025 28.5175C31.1114 28.486 31.2282 28.4983 31.328 28.5519C31.4278 28.6054 31.5028 28.6959 31.5368 28.8039C31.6053 29.0485 31.5758 29.3102 31.4544 29.5333C31.3629 29.6865 31.241 29.8193 31.0962 29.9235C30.9514 30.0278 30.7868 30.1014 30.6126 30.1397C30.5745 30.1508 30.5351 30.1567 30.4955 30.1571ZM34.1425 31.7695C34.0849 31.7695 34.0278 31.7577 33.9748 31.7349C33.9219 31.712 33.8741 31.6786 33.8345 31.6367C33.4907 31.2721 33.2512 30.8218 33.141 30.333C33.0307 29.8442 33.0538 29.3347 33.2077 28.8578C33.262 28.6901 33.3604 28.5402 33.4927 28.4238C33.625 28.3074 33.7863 28.2288 33.9595 28.1964C34.1327 28.164 34.3115 28.1789 34.4769 28.2396C34.6424 28.3003 34.7884 28.4045 34.8995 28.5413C35.01 28.6735 35.0821 28.8335 35.108 29.0038C35.1338 29.1742 35.1125 29.3484 35.0463 29.5074C35.0002 29.6199 34.9453 29.7286 34.8821 29.8325C34.8239 29.9291 34.7297 29.9986 34.6202 30.0258C34.5107 30.0529 34.3949 30.0354 34.2983 29.9772C34.2016 29.9189 34.1321 29.8247 34.105 29.7152C34.0779 29.6057 34.0953 29.4899 34.1536 29.3933C34.1939 29.3266 34.2292 29.2569 34.2592 29.185C34.2668 29.167 34.269 29.1473 34.2657 29.1281C34.2624 29.109 34.2537 29.0911 34.2406 29.0768C34.2258 29.058 34.2063 29.0437 34.184 29.0353C34.1617 29.0269 34.1376 29.0248 34.1142 29.0292C34.0908 29.0336 34.069 29.0443 34.0513 29.0601C34.0336 29.076 34.0205 29.0964 34.0135 29.1192C33.9065 29.4511 33.8905 29.8056 33.9671 30.1458C34.0438 30.486 34.2103 30.7994 34.4493 31.0533C34.5063 31.1134 34.5445 31.1889 34.5591 31.2705C34.5737 31.352 34.5641 31.4361 34.5314 31.5123C34.4988 31.5884 34.4446 31.6534 34.3755 31.6991C34.3064 31.7448 34.2254 31.7693 34.1425 31.7695Z" fill="#3D3AAD"/>
<path d="M33.5055 30.3434C33.4269 30.3435 33.3497 30.3217 33.2828 30.2805C33.2158 30.2393 33.1616 30.1803 33.1262 30.1101C33.0793 29.9877 32.9904 29.886 32.8754 29.8232C32.8508 29.8166 32.8252 29.8147 32.7999 29.8177C32.7007 29.8709 32.5844 29.8825 32.4766 29.8499C32.3689 29.8174 32.2785 29.7434 32.2253 29.6441C32.1721 29.5449 32.1606 29.4287 32.1931 29.3209C32.2257 29.2132 32.2997 29.1228 32.3989 29.0696C32.6265 28.9572 32.8888 28.9373 33.1308 29.014C33.2984 29.0753 33.4516 29.1703 33.581 29.293C33.7105 29.4158 33.8134 29.5637 33.8836 29.7277C33.9162 29.7924 33.9318 29.8643 33.9288 29.9367C33.9258 30.009 33.9044 30.0794 33.8665 30.1412C33.8286 30.2029 33.7755 30.2539 33.7123 30.2893C33.6491 30.3247 33.5779 30.3433 33.5055 30.3434ZM28.0054 29.1303C27.9417 29.1304 27.8787 29.116 27.8212 29.0884C27.7638 29.0608 27.7133 29.0206 27.6735 28.9708C27.6337 28.921 27.6056 28.8628 27.5914 28.8007C27.5772 28.7385 27.5771 28.6739 27.5913 28.6118C27.6472 28.3676 27.7592 28.1399 27.9185 27.9466C28.0777 27.7533 28.2798 27.5997 28.5087 27.4981C28.7376 27.3965 28.9871 27.3496 29.2373 27.3611C29.4874 27.3726 29.7315 27.4423 29.9501 27.5645C30.0454 27.6209 30.1149 27.7124 30.1437 27.8193C30.1725 27.9262 30.1583 28.0402 30.1043 28.1368C30.0502 28.2335 29.9605 28.3052 29.8543 28.3366C29.7482 28.368 29.6339 28.3567 29.536 28.305C29.405 28.2317 29.2554 28.1986 29.1057 28.2098C28.9561 28.2211 28.8131 28.2762 28.6945 28.3682C28.5548 28.4755 28.4571 28.6283 28.4183 28.8002C28.397 28.8938 28.3445 28.9774 28.2695 29.0374C28.1945 29.0973 28.1014 29.1301 28.0054 29.1303ZM25.0415 32.7349C24.929 32.7349 24.821 32.6902 24.7415 32.6106C24.6619 32.5311 24.6172 32.4231 24.6172 32.3106C24.6172 32.1981 24.6619 32.0901 24.7415 32.0106C24.821 31.931 24.929 31.8863 25.0415 31.8863C25.1915 31.886 25.338 31.8416 25.4629 31.7586C25.5878 31.6756 25.6855 31.5577 25.7438 31.4195C25.8127 31.2573 25.8225 31.076 25.7714 30.9074C25.7393 30.7994 25.7514 30.6832 25.805 30.5842C25.8587 30.4852 25.9494 30.4116 26.0573 30.3795C26.1653 30.3474 26.2815 30.3595 26.3805 30.4132C26.4795 30.4668 26.5531 30.5576 26.5852 30.6655C26.6565 30.9057 26.6708 31.1592 26.627 31.4059C26.5832 31.6526 26.4826 31.8858 26.333 32.0868C26.1834 32.2878 25.989 32.4512 25.7653 32.564C25.5416 32.6768 25.2946 32.7359 25.0441 32.7366L25.0415 32.7349ZM37.4819 32.0802C37.2431 32.0802 37.0072 32.0272 36.7914 31.925C36.5756 31.8228 36.3852 31.6739 36.2339 31.4891C36.1969 31.4462 36.1689 31.3963 36.1515 31.3423C36.1341 31.2884 36.1277 31.2315 36.1326 31.175C36.1376 31.1185 36.1538 31.0636 36.1803 31.0135C36.2068 30.9634 36.2431 30.9192 36.2871 30.8833C36.331 30.8475 36.3816 30.8208 36.436 30.8049C36.4904 30.7889 36.5475 30.7841 36.6038 30.7905C36.6601 30.797 36.7145 30.8147 36.7639 30.8426C36.8133 30.8704 36.8566 30.9079 36.8912 30.9528C36.9891 31.0719 37.1208 31.1586 37.269 31.2015C37.4171 31.2444 37.5748 31.2414 37.7212 31.1929C37.8281 31.1575 37.9447 31.1661 38.0453 31.2166C38.1459 31.2672 38.2223 31.3557 38.2577 31.4626C38.2931 31.5695 38.2846 31.6861 38.234 31.7867C38.1835 31.8873 38.095 31.9638 37.9881 31.9991C37.8248 32.0531 37.6538 32.0804 37.4819 32.0802Z" fill="#3D3AAD"/>
</g>
<defs>
<clipPath id="clip0_2567_19455">
<rect width="64" height="64" fill="white"/>
</clipPath>
</defs>
</svg>
