<svg width="200" height="200" viewBox="0 0 200 200" fill="none" xmlns="http://www.w3.org/2000/svg">
<path d="M157.355 35.4705L159.808 36.98C159.053 36.6026 157.921 36.6026 156.789 37.3573L154.336 35.8479C155.468 35.0932 156.6 35.0932 157.355 35.4705Z" fill="#E1A948"/>
<path d="M115.845 107.357L113.392 105.847C113.203 105.847 113.203 105.659 113.203 105.281L115.656 106.791C115.656 106.979 115.656 107.168 115.845 107.357Z" fill="#E1A948"/>
<path d="M115.657 106.791L113.204 105.282L113.016 64.5273L115.468 65.8481L115.657 106.791Z" fill="#E1A948"/>
<path d="M119.617 58.6818L117.164 57.361L154.334 35.8516L156.787 37.361L119.617 58.6818Z" fill="#E1A948"/>
<path d="M115.468 65.8472L113.016 64.3378C113.016 61.6963 114.902 58.4887 117.167 57.168L119.619 58.6774C117.355 59.9982 115.468 63.2057 115.468 65.8472Z" fill="#E1A948"/>
<path d="M156.79 37.3581C159.054 36.0373 160.94 37.1694 160.94 39.8109V64.9053C160.94 67.5468 159.054 70.7543 156.79 72.0751L128.299 88.3015L117.167 106.603C116.978 106.981 116.79 107.169 116.601 107.169C116.035 107.358 115.657 107.358 115.657 106.603L115.469 65.8486C115.469 63.2071 117.356 59.9996 119.62 58.6788L156.79 37.3581Z" fill="#FFC557"/>
<path d="M57.5472 177.918V152.446C57.5472 139.616 66.0378 124.333 76.9812 117.163L91.3208 125.465L98.3019 136.786L98.6793 136.031L100 133.39L102.264 133.956L109.434 127.918L111.132 129.428L118.113 110.182L103.585 101.88C116.226 95.4653 137.547 104.899 137.547 122.824C137.547 130.182 137.925 135.654 138.113 139.805C139.811 167.163 57.3585 212.824 57.5472 177.918Z" fill="#A1C4FE"/>
<path d="M106.414 134.9L92.0742 126.598L94.9044 119.617L109.244 127.919L106.414 134.9Z" fill="#A1C4FE"/>
<path d="M104.528 124.148L109.245 127.922L106.226 134.903L102.83 136.979L100 133.394C101.698 129.62 104.528 124.337 104.528 124.148Z" fill="#A1C4FE"/>
<path d="M104.527 124.146L90.1875 115.656L100.187 98.8633L114.527 107.165L104.527 124.146Z" fill="#404060"/>
<path d="M106.414 134.898L110.565 175.087C106.98 177.54 103.018 179.804 98.8672 182.068L102.829 136.974L106.414 134.898Z" fill="#A1C4FE"/>
<g opacity="0.1">
<path d="M136.604 147.733C125.472 174.902 57.3586 209.808 57.5473 177.921V152.45C57.5473 142.638 62.6416 131.129 70.1888 123.016C67.5473 128.676 66.0378 134.525 66.0378 139.997V165.468C65.6605 192.638 115.094 171.318 136.604 147.733Z" fill="black"/>
</g>
<path d="M81.696 162.074C82.4507 161.696 83.0167 162.074 83.0167 162.829V188.678L80.5639 189.432V164.338C80.3752 163.395 80.9413 162.451 81.696 162.074Z" fill="#4A4870"/>
<path d="M125.466 136.976C126.22 136.599 126.786 136.976 126.786 137.731V161.693C126.032 162.448 125.277 163.203 124.333 164.146V139.24C124.145 138.486 124.711 137.542 125.466 136.976Z" fill="#4A4870"/>
<path d="M104.526 124.146C105.092 122.825 110.941 115.09 113.771 111.127C108.111 102.825 104.715 100.939 106.413 90.75H84.5259C86.4127 97.9198 84.1486 104.335 80.375 110.561C87.7335 117.731 91.5071 121.882 96.2241 123.014C98.6769 124.335 103.771 126.41 104.526 124.146Z" fill="#FFAF8E"/>
<path d="M109.809 104.145C96.413 117.164 86.7904 97.3523 85.281 95.2768C84.5262 94.1447 83.2055 90.1825 82.8281 88.4844H104.904C103.96 94.1448 104.904 97.7297 106.224 100.182C106.413 100.371 107.168 101.126 107.356 101.315C107.922 102.447 108.677 103.39 109.809 104.145Z" fill="#FF846D"/>
<path d="M120.187 52.6384C120.187 59.0535 118.867 61.5064 116.036 67.3554C116.225 63.0158 115.659 56.6007 114.527 52.4498C113.395 60.563 109.999 64.9026 105.659 67.3554C101.697 69.6196 90.942 72.0724 85.4703 69.6196C82.0741 74.3366 84.3382 79.0535 84.7156 82.6384C84.5269 81.5064 84.3382 80.3743 84.1496 79.2422L83.7722 83.5818L84.7156 84.3366L88.1118 90.3743L81.8854 92.4498C78.4892 92.4498 76.6024 92.4498 74.1496 89.8083C68.3005 83.5818 66.6024 73.3932 65.659 64.5252C65.2816 60.3743 66.225 57.5441 68.4892 54.1479C68.4892 54.1479 68.4892 53.9592 68.6779 53.9592C69.4326 52.6384 70.1873 51.695 71.1307 51.129C71.3194 50.9403 71.3194 50.9403 71.508 50.9403C71.6967 50.7517 71.6967 50.7516 71.8854 50.563C73.0175 49.6196 74.1496 49.0535 75.0929 48.6762C74.7156 29.8083 110.942 20.1856 120.942 39.2422C118.112 43.9592 117.357 48.6762 120.187 52.6384Z" fill="#393949"/>
<path d="M116.038 67.3537C116.038 73.3914 115.661 80.3726 113.962 87.165C109.245 107.354 96.6039 112.259 82.6416 93.9575C81.8869 92.8254 81.3209 89.4292 81.6982 84.5235C82.0756 80.1839 80.7548 72.2594 83.3964 68.6745C88.8681 71.1273 101.321 69.9952 105.283 67.5424C109.623 64.9009 113.208 60.7499 114.151 52.6367C114.528 54.3348 114.906 56.2216 115.283 58.2971C115.283 58.6745 115.283 59.0518 115.472 59.2405C115.472 59.6179 115.472 59.8065 115.472 60.1839C115.849 62.0707 116.038 64.5235 116.038 67.3537Z" fill="#FFAF8E"/>
<path d="M81.886 93.2048C79.8105 94.3369 77.9237 93.0161 76.603 91.318C75.4709 89.8086 74.7162 88.1105 74.3388 86.2237C73.7728 83.3935 74.1502 81.318 76.037 80.5633C78.6785 79.4312 82.8294 82.0727 83.7728 88.4878C83.9615 89.8086 83.0181 92.4501 81.886 93.2048Z" fill="#FFAF8E"/>
<path d="M94.529 118.672L104.529 124.144L98.4913 136.03L98.3026 136.785L91.1328 125.653L94.529 118.672Z" fill="#4A4870"/>
<path d="M91.1338 125.654L76.6055 117.164C77.7375 114.899 79.0583 112.635 80.1904 110.371L94.3413 118.673L91.1338 125.654Z" fill="#404060"/>
<path d="M111.135 129.24L104.531 124.145L114.531 107.164L117.927 110.183" fill="#4A4870"/>
<path d="M110.747 53.7693C100.181 59.6183 83.5771 59.4297 73.3884 53.3919C68.1054 50.1844 65.6526 46.0334 66.0299 41.8825C66.2186 40.5617 66.7846 36.5995 71.1243 33.0146C75.6526 29.241 80.7469 27.9202 83.3884 27.3542C83.7658 27.3542 86.7846 26.5995 90.9356 26.4108C94.3318 26.2221 97.162 26.5995 98.4828 26.7882C99.6148 26.9768 105.653 27.9202 110.747 30.9391C113.954 33.0146 115.464 34.7127 116.596 36.2221C117.162 36.9768 118.483 39.0523 118.86 41.8825C119.237 46.0334 116.407 50.3731 110.747 53.7693Z" fill="#4FA1EA"/>
<path d="M112.261 74.904C100.94 81.3191 82.6382 81.1305 71.6948 74.5267C65.8457 70.9418 63.2042 66.4135 63.7702 61.8852C64.5249 55.0927 65.2797 48.4889 66.0344 41.6965C65.657 45.8474 67.9212 49.9984 73.3929 53.2059C83.3929 59.2437 100.185 59.4323 110.751 53.5833C116.6 50.3757 119.242 45.8474 118.865 41.5078C119.619 48.3003 120.374 54.904 121.317 61.6965C121.695 66.4135 118.676 71.3191 112.261 74.904Z" fill="#5D608D"/>
<path d="M145.848 42.0725L92.4521 68.865L38.8672 42.0725L92.4521 15.4688L145.848 42.0725Z" fill="#4A4870"/>
<path d="M86.6021 103.955C83.5832 105.653 78.6775 105.653 75.6586 103.766C74.1492 102.823 73.3945 101.502 73.5832 100.37C74.3379 95.2758 75.0926 90.1815 75.6586 85.0871C75.47 86.0305 76.036 86.9739 77.1681 87.5399C79.2436 88.8607 82.8285 88.8607 85.0926 87.5399C86.4134 86.7852 86.9794 85.8418 86.7907 84.8984C87.5454 89.9928 88.3002 95.0871 89.0549 100.181C89.2436 101.502 88.4888 102.823 86.6021 103.955Z" fill="#5D608D"/>
<path d="M86.7883 85.0886C86.7883 86.032 86.2223 86.7867 85.0902 87.3527C82.8261 88.6735 79.2412 88.4848 77.1657 87.3527C76.2223 86.7867 75.6562 85.8433 75.6562 85.0886C75.6562 84.5225 75.6563 83.3904 76.411 82.2584C76.977 81.5037 77.543 80.7489 78.4864 80.1829C80.5619 78.8621 82.8261 79.4282 84.1468 80.1829C85.0902 80.7489 85.6562 81.315 86.0336 82.2584C86.7883 83.5791 86.7883 84.5225 86.7883 85.0886Z" fill="#FFC557"/>
<path d="M80.5672 82.2582C80.0012 81.8809 79.8125 81.5035 79.8125 80.9375C79.8125 81.1262 80.0012 81.3149 80.1899 81.5035C80.3785 81.8809 80.3785 82.0696 80.5672 82.2582Z" fill="#4A4870"/>
<path d="M82.0743 82.2582C81.8856 82.4469 81.5083 82.4469 81.3196 82.4469C81.1309 82.4469 81.1309 82.4469 80.9422 82.4469C80.9422 82.4469 80.7535 82.4469 80.5649 82.2582C80.3762 82.0696 80.1875 81.8809 80.1875 81.5035C80.7535 81.8809 81.6969 81.8809 82.263 81.5035C82.6403 81.3149 82.6403 81.1262 82.6403 80.9375C82.829 81.6922 82.4517 82.0696 82.0743 82.2582Z" fill="#4A4870"/>
<path d="M79.8125 80.9428V55.0938C79.8125 55.2824 80.0012 55.4711 80.1899 55.6598V81.5088C80.0012 81.3202 79.8125 81.1315 79.8125 80.9428Z" fill="#4A4870"/>
<path d="M82.8302 55.0901C82.8302 55.2788 82.6415 55.4675 82.4528 55.6561C81.8868 56.0335 80.9434 56.0335 80.3774 55.6561C80.1887 55.4675 80 55.2788 80 55.0901C80 53.7693 81.3207 53.2033 82.2641 53.7693C82.2641 53.958 82.8302 54.3354 82.8302 55.0901Z" fill="#4A4870"/>
<path d="M82.8356 55.0938V80.9428C82.8356 81.1315 82.647 81.3202 82.4583 81.5088C81.8923 81.8862 80.9489 81.8862 80.3828 81.5088V55.6598C80.9489 56.0371 81.8923 56.0371 82.4583 55.6598C82.647 55.4711 82.8356 55.2824 82.8356 55.0938Z" fill="#4A4870"/>
<path d="M145.849 36.2266V42.0756L92.4531 68.8681V63.019L145.849 36.2266Z" fill="#4A4870"/>
<path d="M38.8672 36.2227V42.0717L92.4521 68.8642V63.0151L38.8672 36.2227Z" fill="#37375B"/>
<path d="M145.848 36.226L92.4521 63.0185L38.8672 36.226L92.4521 9.43359L145.848 36.226Z" fill="#5D608D"/>
<path d="M138.304 49.2457C138.87 48.8683 139.436 49.2457 139.436 50.0004V53.9627L147.36 49.4344C147.926 49.057 148.492 49.4344 148.492 50.1891C148.492 50.9438 147.926 51.8872 147.36 52.2646L143.02 54.7174C142.266 58.1136 140.945 61.6985 139.247 65.0948C141.134 65.6608 143.209 65.8495 145.473 65.2834C146.039 65.0947 146.417 65.6608 146.228 66.6042C146.039 67.3589 145.662 67.9249 145.096 68.3023C144.907 68.3023 144.907 68.491 144.719 68.491C142.077 69.057 139.813 68.8683 137.549 68.3023C135.473 71.6985 133.02 74.9061 130.379 77.5476C130.379 77.1702 130.19 77.1702 130.19 77.3589C129.624 77.5476 129.247 77.5476 129.058 76.9815C128.87 76.4155 129.247 75.4721 129.813 74.9061C132.077 72.6419 134.153 70.0004 136.039 66.9815C134.907 66.2268 133.775 65.4721 132.832 64.34C132.454 63.9627 132.643 63.0193 133.209 62.2646C133.398 62.0759 133.587 61.8872 133.775 61.6985C134.153 61.5098 134.53 61.5098 134.719 61.6985C135.473 62.6419 136.417 63.3966 137.549 63.9627C138.87 61.3212 140.002 58.491 140.568 55.8495L129.624 62.2646C128.87 62.6419 128.492 62.2646 128.492 61.5098C128.492 60.7551 129.058 59.8117 129.624 59.4344L137.171 55.0948V51.1325C137.171 50.5665 137.549 49.6231 138.304 49.2457Z" fill="#E1A948"/>
<path d="M140.186 51.1324C140.752 50.7551 141.318 51.1324 141.318 51.8871V55.8494L149.243 51.3211C149.809 50.9437 150.375 51.3211 150.375 52.0758C150.375 52.8305 149.809 53.7739 149.243 54.1513L144.903 56.6041C144.149 60.0003 142.828 63.5852 141.13 66.9815C143.017 67.5475 145.092 67.7362 147.356 67.1701C147.922 66.9815 148.3 67.5475 148.111 68.4909C147.922 69.2456 147.545 69.8117 146.979 70.189C146.79 70.189 146.79 70.3777 146.601 70.3777C143.96 70.9437 141.696 70.7551 139.432 70.189C137.356 73.5852 134.903 76.7928 132.262 79.4343C132.262 79.0569 132.073 79.0569 132.073 79.2456C131.507 79.4343 131.13 79.4343 130.941 78.8683C130.752 78.3022 131.13 77.3588 131.696 76.7928C133.96 74.5286 136.035 71.8871 137.922 68.8683C136.79 68.1135 135.658 67.3588 134.715 66.2267C134.337 65.8494 134.526 64.906 135.092 64.1513C135.281 63.9626 135.469 63.7739 135.658 63.5852C136.035 63.3966 136.413 63.3966 136.601 63.5852C137.356 64.5286 138.3 65.2834 139.432 65.8494C140.752 63.2079 141.884 60.3777 142.45 57.7362L131.507 64.1513C130.752 64.5286 130.375 64.1513 130.375 63.3966C130.375 62.6418 130.941 61.6985 131.507 61.3211L139.054 56.9815V53.0192C139.054 52.4532 139.432 51.5098 140.186 51.1324Z" fill="white"/>
</svg>
