<svg width="47" height="53" viewBox="0 0 47 53" fill="none" xmlns="http://www.w3.org/2000/svg">
<path d="M25.3234 5.34087C30.049 12.6925 33.6776 20.6845 38.5735 27.9313C38.7519 28.1954 39.0669 28.291 39.3537 28.1359C41.7652 26.8349 44.04 25.3279 46.6127 24.3492C47.293 24.09 46.9982 22.9875 46.31 23.2492C43.964 24.1415 41.8522 25.4235 39.6791 26.6645C38.7261 27.2093 35.4462 20.7323 34.9848 19.9221C32.1014 14.8601 29.4619 9.67058 26.3088 4.76482C25.9123 4.14831 24.925 4.72007 25.3234 5.34087Z" fill="#8E8585"/>
<path d="M25.9955 5.36967C26.6003 4.9891 32.7128 1.01792 32.7226 1.02773C33.1307 1.4561 33.4151 2.11734 33.7166 2.62109C35.2113 5.11227 36.6343 7.6482 38.0635 10.178C40.5179 14.5212 43.4858 18.9158 45.4071 23.5311C45.6853 24.2003 46.7896 23.9067 46.5071 23.2283C44.3168 17.9677 40.9628 12.9762 38.1584 8.02999C36.7875 5.61236 35.4374 3.17081 33.9519 0.821199C33.7503 0.502524 33.5033 0 33.0609 0C32.1214 0 30.7817 1.05958 29.9936 1.50634C28.4284 2.39311 26.9423 3.42698 25.42 4.38423C24.7992 4.77522 25.3704 5.76189 25.9955 5.36967Z" fill="#8E8585"/>
<path d="M27.6522 8.89761C23.4125 10.6675 19.958 13.7666 15.8121 15.7105C15.6013 15.8092 15.4628 16.1352 15.5498 16.3546C17.8112 22.0282 21.2057 27.1344 24.4158 32.3006C24.5463 32.5102 24.8135 32.6438 25.0598 32.5629C29.6022 31.0615 33.3644 28.0003 37.8399 26.3622C38.5245 26.1116 38.2291 25.0091 37.5372 25.2622C34.6232 26.3285 32.0119 27.9611 29.3117 29.4644C27.6944 30.3647 25.6439 32.1094 24.3863 30.0962C23.2998 28.3576 22.2151 26.6184 21.1585 24.862C20.2656 23.3777 19.423 21.8652 18.6128 20.335C17.878 18.9469 16.2583 16.8142 18.0901 15.849C21.4925 14.0577 24.379 11.4917 27.9555 9.99826C28.6235 9.71819 28.3312 8.61448 27.6522 8.89761Z" fill="#8E8585"/>
<path d="M16.8285 19.7204C14.854 20.886 12.7538 21.8095 10.7792 22.9751C10.5077 23.1357 10.4232 23.4832 10.5745 23.7553C12.4314 27.0922 14.5825 30.2348 16.766 33.364C16.9609 33.6434 17.2416 33.6992 17.5462 33.5686C19.5532 32.7088 21.374 31.4905 23.392 30.6571C24.0619 30.3801 23.7689 29.2763 23.0893 29.557C20.9793 30.4291 19.0691 31.6854 16.9707 32.5832C17.2312 32.6512 17.491 32.7199 17.7508 32.7879C15.5673 29.6594 13.4156 26.5167 11.5594 23.1792C11.4913 23.4397 11.4227 23.6995 11.3547 23.9594C13.3292 22.7938 15.4294 21.8702 17.404 20.704C18.0371 20.3314 17.4634 19.3453 16.8285 19.7204Z" fill="#8E8585"/>
<path d="M2.18589 33.1035C2.95439 34.35 3.68366 35.5965 4.3063 36.9233C4.435 37.1978 4.84193 37.283 5.08645 37.128C8.42641 35.0106 11.4943 32.4949 14.939 30.5406C15.5782 30.1772 15.0034 29.1923 14.3636 29.5557C10.9188 31.5101 7.85095 34.0258 4.51099 36.1431C4.77083 36.2112 5.03129 36.2798 5.29114 36.3478C4.66849 35.021 3.9386 33.7745 3.17072 32.528C2.78586 31.9029 1.79919 32.4759 2.18589 33.1035Z" fill="#8E8585"/>
<path d="M3.14378 33.1975C6.34095 30.9944 9.73238 29.1038 13.0374 27.0728C13.6631 26.6886 13.0901 25.7019 12.462 26.088C9.15693 28.1195 5.76549 30.0102 2.56771 32.2127C1.96713 32.627 2.53646 33.6155 3.14378 33.1975Z" fill="#8E8585"/>
<path d="M3.02948 32.5274C2.14086 32.0727 0.60387 31.5083 0.117278 32.7971C-0.270648 33.8242 0.388768 35.1436 0.860039 36.0286C1.40975 37.0612 2.20521 38.2323 3.27155 38.7882C4.40836 39.3808 5.26266 38.5682 5.50779 37.4663C5.66713 36.7499 4.5677 36.4453 4.40775 37.1635C4.34892 37.4289 4.26066 37.766 4.06885 37.8708C4.08172 37.8634 4.04127 37.8628 3.97447 37.8475C3.82617 37.8125 3.70115 37.7261 3.57245 37.6403C2.87688 37.1758 2.367 36.3638 1.95701 35.656C1.57154 34.9898 1.17013 34.1882 1.15787 33.402C1.15358 33.1323 1.16523 33.1513 1.29087 33.1225C1.59483 33.0526 2.15803 33.3615 2.45342 33.5129C3.10731 33.8469 3.6846 32.8633 3.02948 32.5274Z" fill="#8E8585"/>
<path d="M22.91 29.6372C20.5511 32.3 19.486 35.882 17.7505 38.9462C15.3138 43.2464 13.0629 47.6393 10.3529 51.779C9.94908 52.3967 10.937 52.9673 11.3384 52.355C13.6696 48.7926 15.6889 45.0537 17.7352 41.324C19.649 37.8357 21.0721 33.4288 23.7177 30.4443C24.2024 29.8958 23.399 29.0862 22.91 29.6372Z" fill="#8E8585"/>
<path d="M22.3281 30.2508C22.3281 37.5926 22.3281 44.9349 22.3281 52.2767C22.3281 53.0121 23.4686 53.0121 23.4686 52.2767C23.4686 44.9349 23.4686 37.5926 23.4686 30.2508C23.4686 29.5154 22.3281 29.5154 22.3281 30.2508Z" fill="#8E8585"/>
<path d="M23.3858 31.4381C24.3479 34.6843 26.2839 37.3851 28.1726 40.1527C30.6295 43.7512 32.7456 47.5637 35.2871 51.1077C35.7117 51.6997 36.7021 51.131 36.2719 50.5317C34.127 47.541 32.24 44.3874 30.2722 41.2797C28.1806 37.9759 25.6134 34.9442 24.4852 31.1348C24.2768 30.4319 23.1762 30.7315 23.3858 31.4381Z" fill="#8E8585"/>
<path d="M35.1609 4.2232C42.3035 4.3329 47.4845 12.5118 44.2266 18.9497C43.8957 19.6042 44.8793 20.1821 45.2114 19.5251C48.856 12.3237 43.1983 3.20528 35.1609 3.0821C34.4249 3.07168 34.4261 4.21217 35.1609 4.2232Z" fill="#8E8585"/>
</svg>
