<svg width="76" height="76" viewBox="0 0 76 76" fill="none" xmlns="http://www.w3.org/2000/svg">
<path d="M42.5684 4.39648V4.39746C59.6764 13.9164 67.9388 18.3723 71.9209 20.5508C73.9271 21.6483 74.8163 22.152 75.2109 22.4316C75.2835 22.483 75.3272 22.5206 75.3535 22.5439C75.3526 22.5642 75.3516 22.5888 75.3516 22.6152C75.3515 22.6812 75.3244 22.7431 75.2783 22.7881L75.2266 22.8271L43.6357 40.2422C43.5185 40.3066 43.3712 40.2636 43.3066 40.1465C43.2423 40.0292 43.2854 39.8819 43.4023 39.8174L73.8135 23.0527L74.6074 22.6152L73.8135 22.1768L42.6943 5.02051L42.4531 4.8877L42.2119 5.02051L11.0928 22.1768L10.2988 22.6152L11.0928 23.0527L38.0146 37.8936C38.1316 37.9581 38.1738 38.1054 38.1094 38.2227C38.0449 38.3396 37.8974 38.3829 37.7803 38.3184L9.67969 22.8271C9.60251 22.7844 9.5548 22.7032 9.55469 22.6152C9.55469 22.5274 9.6021 22.4461 9.67871 22.4033C26.8907 12.9915 35.0649 8.39495 39.0186 6.2002C41.0093 5.09508 41.9031 4.61526 42.3438 4.42871C42.4261 4.39383 42.481 4.37561 42.5146 4.36523C42.5302 4.37475 42.5483 4.38538 42.5684 4.39648Z" fill="#353938" stroke="black"/>
<path d="M43 5L12 22.5C20.1667 27.5 36.1 37.8 38.5 37C40.9 36.2 43.8333 37.8333 44.5 39L74 22.5L43 5Z" fill="#065FB1" stroke="black"/>
<path d="M63.0548 20.4137L62.0245 19.8455C61.6656 19.6476 61.5351 19.1962 61.7331 18.8372C61.9308 18.4783 62.3819 18.3473 62.7414 18.5458L63.7717 19.114C64.1307 19.3119 64.2611 19.7633 64.0631 20.1223C63.8653 20.4811 63.4139 20.6119 63.0548 20.4137Z" fill="black"/>
<path d="M59.5406 18.4757L43.9582 9.8846C43.5993 9.68659 43.4687 9.23519 43.6666 8.87627C43.8644 8.51735 44.3157 8.38657 44.6749 8.58459L60.2573 17.1757C60.6162 17.3737 60.7468 17.8251 60.5489 18.184C60.3508 18.5434 59.8992 18.6733 59.5406 18.4757Z" fill="black"/>
<path d="M47.371 42.9162L74.3694 28.0303V22.6172C74.3694 22.2072 74.7016 21.875 75.1116 21.875C75.5216 21.875 75.8538 22.2072 75.8538 22.6172V28.4686C75.8538 28.7389 75.7068 28.988 75.4699 29.1186L48.0876 44.2162C47.2279 44.69 46.5145 43.3886 47.371 42.9162Z" fill="#008F63"/>
<path d="M28.9759 39.8892L9.43855 29.1186C9.20179 28.988 9.05469 28.7389 9.05469 28.4686V22.6172C9.05469 22.2072 9.38689 21.875 9.79688 21.875C10.2069 21.875 10.5391 22.2072 10.5391 22.6172V28.0303L29.6925 38.5892C30.0515 38.7871 30.1821 39.2385 29.9842 39.5975C29.7861 39.9569 29.3345 40.0868 28.9759 39.8892Z" fill="black"/>
<path d="M51.1945 52.1071C50.9922 51.7507 51.1172 51.2976 51.4737 51.0953C55.0334 49.0748 59.0495 47.8852 63.1315 47.6367V34.6602C63.1315 34.2502 63.4637 33.918 63.8737 33.918C64.2837 33.918 64.6159 34.2502 64.6159 34.6602V48.3445C64.6159 48.7446 64.2987 49.0727 63.8988 49.0862C59.8098 49.2241 55.7668 50.3651 52.2062 52.3861C51.85 52.5886 51.3968 52.4636 51.1945 52.1071Z" fill="black"/>
<path d="M21.0312 42.2305C20.6213 42.2305 20.2891 41.8983 20.2891 41.4883V34.6602C20.2891 34.2502 20.6213 33.918 21.0312 33.918C21.4412 33.918 21.7734 34.2502 21.7734 34.6602V41.4883C21.7734 41.8983 21.4412 42.2305 21.0312 42.2305Z" fill="black"/>
<path d="M57.472 60.8697C55.6222 60.8697 54.1172 59.3648 54.1172 57.515C54.1172 55.6652 55.6222 54.1602 57.472 54.1602C59.3218 54.1602 60.8267 55.6652 60.8267 57.515C60.8267 59.3648 59.3218 60.8697 57.472 60.8697ZM57.472 55.6447C56.4407 55.6447 55.6016 56.4837 55.6016 57.5151C55.6016 58.5463 56.4405 59.3855 57.472 59.3855C58.5032 59.3855 59.3423 58.5465 59.3423 57.5151C59.3423 56.4838 58.5032 55.6447 57.472 55.6447Z" fill="black"/>
<path d="M60.0844 69.358H54.8594C54.4494 69.358 54.1172 69.0258 54.1172 68.6158V62.7375C54.1172 60.8877 55.6222 59.3828 57.472 59.3828C59.3218 59.3828 60.8267 60.8877 60.8267 62.7375V68.6158C60.8266 69.0256 60.4942 69.358 60.0844 69.358ZM55.6014 67.8736H59.342V62.7375C59.342 61.7063 58.5031 60.8672 57.4717 60.8672C56.4404 60.8672 55.6013 61.7062 55.6013 62.7375V67.8736H55.6014Z" fill="black"/>
<path d="M57.4752 55.6426C57.0652 55.6426 56.733 55.3104 56.733 54.9004V32.5791L42.0548 23.2396C41.7091 23.0196 41.6069 22.5608 41.8271 22.2149C42.047 21.8692 42.5054 21.7671 42.8517 21.9872L57.8736 31.5456C58.5291 31.9628 58.0857 31.338 58.2172 54.9006C58.2174 55.3104 57.8852 55.6426 57.4752 55.6426Z" fill="black"/>
<path d="M22.22 59.5557C20.1081 59.5557 18.5156 56.2707 18.5156 51.9146C18.5156 47.5584 20.1082 44.2734 22.22 44.2734C24.3319 44.2734 25.9243 47.5584 25.9243 51.9146C25.9243 56.2707 24.3319 59.5557 22.22 59.5557ZM22.22 45.758C21.3149 45.758 20 48.1563 20 51.9147C20 55.6731 21.3149 58.0714 22.22 58.0714C23.1252 58.0714 24.4399 55.6731 24.4399 51.9147C24.4399 48.1563 23.1252 45.758 22.22 45.758Z" fill="black"/>
<path d="M0.148438 63.447V46.7261C0.148438 44.9944 1.50694 43.6055 3.24128 43.5636C21.2099 43.1332 22.8787 37.6821 41.0404 37.2237C42.8159 37.178 44.288 38.6 44.288 40.386V57.1071C44.288 58.8388 42.9295 60.2277 41.1951 60.2695C23.2268 60.6997 21.5574 66.1508 3.39595 66.6095C1.61693 66.6562 0.148438 65.2285 0.148438 63.447ZM41.0779 38.7075C23.1414 39.1605 21.5415 44.6098 3.27691 45.0477C2.35496 45.0697 1.63281 45.807 1.63281 46.7261V63.447C1.63281 64.3961 2.41538 65.1485 3.35855 65.1255C21.2923 64.6725 22.8934 59.2229 41.1595 58.7853C42.0814 58.7633 42.8036 58.0261 42.8036 57.1069V40.386C42.8036 39.4635 42.0528 38.6882 41.0779 38.7075Z" fill="black"/>
<path d="M7.25486 61.9243L7.25649 61.8693C7.25649 60.3438 6.06246 59.1095 4.53816 59.0595C4.13797 59.0464 3.82031 58.7181 3.82031 58.3178V51.2024C3.82031 50.8021 4.13797 50.4737 4.53816 50.4607C6.02402 50.412 7.21701 49.2093 7.25441 47.7229C7.26377 47.3432 7.55856 47.032 7.93723 47.0018C20.863 45.9694 24.5281 42.216 36.3738 41.159C36.8021 41.123 37.1615 41.4477 37.181 41.863C37.2501 43.3144 38.4426 44.4887 39.8958 44.5365C40.296 44.5496 40.6137 44.8779 40.6137 45.2783V52.3936C40.6137 52.7939 40.296 53.1223 39.8958 53.1353C38.3567 53.1858 37.1208 54.4529 37.1806 56.0625C37.196 56.4605 36.8949 56.7995 36.4981 56.8313C23.5689 57.8634 19.9117 61.6162 8.06295 62.6738C7.6172 62.7116 7.24907 62.3581 7.25486 61.9243ZM5.30469 57.6587C7.03948 58.0063 8.37675 59.3818 8.67734 61.1238C19.5148 60.0224 23.4003 56.5018 35.7262 55.4064C35.9527 53.567 37.3265 52.0955 39.1294 51.7344V45.9348C37.4971 45.5981 36.1881 44.3228 35.8065 42.7038C24.932 43.7998 21.0379 47.3369 8.66917 48.4297C8.35374 50.1486 7.01409 51.5122 5.30484 51.86L5.30469 57.6587Z" fill="#008F63"/>
<path d="M10.2483 53.4388L13.8028 52.8464C14.2079 52.778 14.5895 53.0523 14.6569 53.4563C14.7243 53.8607 14.4512 54.2431 14.047 54.3104L10.4925 54.9029C9.51412 55.0676 9.28805 53.599 10.2483 53.4388Z" fill="black"/>
<path d="M29.1899 50.1444C29.1225 49.74 29.3956 49.3577 29.7998 49.2903L33.3543 48.6979C33.7594 48.6299 34.1412 48.9036 34.2084 49.3078C34.2758 49.7121 34.0027 50.0945 33.5985 50.1619L30.044 50.7543C29.6426 50.8219 29.2576 50.551 29.1899 50.1444Z" fill="black"/>
<path d="M27.2793 61.2884C27.1733 60.8923 27.4086 60.4855 27.8045 60.3796C28.2013 60.2734 28.6074 60.5092 28.7132 60.9048C29.2099 62.7622 29.9936 63.6081 30.5117 63.6081C31.1651 63.6081 32.0888 62.3411 32.5137 59.9931C32.5865 59.5895 32.9729 59.3216 33.3761 59.3949C33.7795 59.4678 34.0473 59.854 33.9743 60.2573C32.8606 66.4148 28.7064 66.626 27.2793 61.2884Z" fill="black"/>
<path d="M8.44531 68.9851V65.5087C8.44531 65.0987 8.77752 64.7665 9.1875 64.7665C9.59748 64.7665 9.92969 65.0987 9.92969 65.5087V68.9851C9.92969 69.9328 10.7106 70.6871 11.6559 70.6641C29.5919 70.2111 31.1922 64.7615 49.4562 64.3236C50.3785 64.3021 51.1005 63.5648 51.1005 62.6449V45.9242C51.1005 45.4688 50.9208 45.0428 50.5947 44.7245C50.2668 44.4048 49.8386 44.236 49.3743 44.2465C47.3146 44.2988 45.4337 44.4147 43.6246 44.6009C43.2165 44.642 42.8522 44.3463 42.8104 43.9385C42.7684 43.5308 43.0649 43.1662 43.4727 43.1244C45.3203 42.9342 47.2386 42.8159 49.3369 42.7628C51.1212 42.7175 52.585 44.1456 52.585 45.9242V62.6451C52.585 64.3781 51.2262 65.7672 49.4915 65.8078C31.5232 66.2383 29.8549 71.6894 11.6933 72.148C9.92019 72.1945 8.44531 70.7728 8.44531 68.9851Z" fill="black"/>
<path d="M15.5522 67.4735C15.5488 67.4585 15.6468 66.1279 14.4911 65.2081C14.1703 64.9529 14.1171 64.4861 14.3725 64.1653C14.6278 63.8447 15.0947 63.7915 15.4152 64.0467C16.2486 64.7098 16.7947 65.6372 16.9735 66.6632C27.7991 65.5633 31.6994 62.0409 44.0231 60.9451C44.2498 59.1057 45.6236 57.6343 47.4264 57.2729V51.4736C45.7944 51.1371 44.4855 49.8622 44.1039 48.2436C43.9393 48.2601 43.7816 48.2768 43.6293 48.2938C43.2201 48.3389 42.8549 48.0451 42.8098 47.6378C42.7647 47.2304 43.0584 46.8634 43.4658 46.8183C43.8315 46.7779 44.2253 46.7386 44.67 46.6982C45.0926 46.6613 45.4584 46.9814 45.4783 47.4021C45.5473 48.8532 46.7395 50.0274 48.1926 50.0749C48.5928 50.0879 48.9106 50.4161 48.9106 50.8166V57.9318C48.9106 58.3322 48.5929 58.6604 48.1928 58.6736C46.6058 58.7258 45.4045 60.0591 45.4771 61.5944C45.4962 61.9946 45.1943 62.3377 44.7949 62.3697C31.8637 63.4026 28.2132 67.155 16.3602 68.2129C15.9152 68.2509 15.5522 67.9 15.5522 67.4735Z" fill="#008F63"/>
</svg>
