<svg width="247" height="231" viewBox="0 0 247 231" fill="none" xmlns="http://www.w3.org/2000/svg">
<g opacity="0.06">
<path d="M24.0284 60.8742C34.7155 64.4875 52.06 57.3085 62.0147 52.1191L89.7041 61.1934C84.8855 69.5337 81.1708 78.8529 78.8926 88.9271C75.5578 103.733 75.6969 118.691 78.8825 132.465L62.8983 138.8C55.7392 135.599 35.9434 127.694 24.4593 132.359C15.0533 136.136 14.6778 143.314 20.1465 147.028L28.2853 152.518L24.5333 154.006C23.2661 154.509 22.6454 155.943 23.1471 157.212C23.6579 158.495 25.1057 159.095 26.3536 158.598L30.0984 157.114L27.9328 166.695C26.7309 172.056 29.9701 175.655 35.2077 175.655C48.8421 175.655 59.4406 155.985 64.7066 143.398L80.1328 137.283C84.3733 151.933 92.199 164.954 103.049 174.685L74.7116 222.146C72.7848 225.519 75.3059 229.629 79.0727 229.629C80.6647 229.629 82.2277 228.866 83.2247 227.44L113.247 182.242C119.298 185.95 125.86 188.677 132.834 190.242C136.142 191.013 139.519 191.42 142.873 191.611L143.408 215.666C143.547 218.316 145.666 220.366 148.406 220.438C151.095 220.438 153.308 218.34 153.443 215.603L154.065 191.682C165.157 191.19 175.846 187.969 185.575 182.501L200.788 226.777C201.73 229.271 204.444 230.614 206.988 229.796C209.532 228.992 211.009 226.337 210.327 223.676L196.297 175.276C229.937 148.424 241.849 96.5273 221.078 57.3011C210.893 38.0718 194.497 25.0512 174.904 20.6386C169.302 19.3892 163.689 18.8553 158.196 19.0756C158.19 19.0756 158.185 19.0792 158.179 19.0796C132.51 18.5377 107.796 33.1728 92.3618 56.8649L63.5669 47.4283C60.1123 40.3866 49.9622 21.6509 38.1344 17.8872C28.4398 14.7662 23.6219 20.0957 25.4403 26.4068L28.1852 35.8333L24.3468 34.5758C23.0571 34.1497 21.6548 34.8588 21.2303 36.1549C20.8058 37.451 21.5133 38.8452 22.8094 39.2714L26.6371 40.5257L18.8439 46.5029C13.574 50.565 14.4859 57.6783 24.0284 60.8742ZM83.7104 90.0157C85.9581 80.0734 89.6832 70.9158 94.5122 62.7689L106.4 66.6649C101.216 74.3354 97.3593 83.1062 95.2113 92.6128C92.8444 103.091 92.5965 114.951 95.0887 126.042L83.5082 130.632C80.6514 117.775 80.5992 103.831 83.7104 90.0157ZM152.272 104.279C150.87 103.972 150.015 102.569 150.323 101.201C150.63 99.833 151.998 98.9437 153.401 99.2513C156.856 100.038 158.975 103.801 158.12 107.597C157.847 108.794 156.787 109.615 155.624 109.615C153.967 109.615 152.771 108.091 153.127 106.468C153.367 105.339 152.888 104.416 152.272 104.279ZM140.725 113.269C144.324 120.796 152.99 122.495 159.215 117.105C167.689 109.641 165.39 94.7455 154.94 92.4109C148.236 90.872 141.362 95.8313 139.652 103.424C139.264 105.146 139.209 106.85 139.38 108.488L116.683 117.484C115.432 111.207 115.438 104.405 116.991 97.5319C119.098 88.2042 123.709 80.2165 129.727 74.3089L152.182 81.6682C152.436 81.7518 152.697 81.7904 152.951 81.7904C153.99 81.7904 154.958 81.1311 155.299 80.0891C155.723 78.793 155.016 77.3988 153.719 76.9726L134.109 70.5456C142.127 64.6235 151.776 62.0825 161.31 64.2319C180.613 68.593 192.14 90.6268 187.007 113.349C181.874 136.073 161.998 151.01 142.688 146.649C130.757 143.953 121.811 134.497 117.919 122.307L140.725 113.269ZM112.173 96.4448C110.391 104.333 110.443 112.152 112.014 119.334L100.521 123.889C97.6441 113.138 97.7467 103.803 100.029 93.6998C102.15 84.3115 106.042 75.6982 111.296 68.269L124.504 72.5979C118.694 78.9313 114.287 87.0858 112.173 96.4448ZM205.713 99.747C204.546 139.341 171.57 170.267 138.211 162.75C121.296 158.942 108.133 146.06 101.989 128.622L113.331 124.126C117.806 137.779 128.02 148.398 141.601 151.467C164.141 156.562 186.246 139.135 191.824 114.436C197.559 89.0573 184.356 64.375 162.397 59.4141C150.304 56.6764 138.06 60.5084 128.525 68.716L114.489 64.1161C127.478 48.541 146.436 40.0995 165.777 44.459C189.41 49.7986 205.166 72.9376 205.713 99.747ZM212.961 59.6119C222.519 77.6689 225.121 99.4246 220.287 120.871C213.554 150.68 192.614 175.244 166.839 183.685C132.668 194.98 96.188 175.814 84.7448 135.456L96.3366 130.862C107.993 169.631 149.304 185.099 181.796 160.938C200.805 146.804 211.368 122.972 210.697 98.6366C210.694 98.5546 210.654 98.4854 210.644 98.4058C209.585 69.9011 192.382 45.4062 166.864 39.6412C144.953 34.6848 123.45 44.6644 109.437 62.4606L97.2491 58.4665C128.305 12.2688 188.009 12.461 212.961 59.6119Z" fill="#5885DD"/>
<path d="M170.038 98.518C169.964 99.88 171.009 101.044 172.369 101.118C172.492 101.125 181.994 101.642 182.117 101.642C183.42 101.642 184.51 100.623 184.581 99.3059C184.655 97.9439 183.61 96.7796 182.249 96.7057L172.64 96.1846C171.183 96.1123 170.112 97.1543 170.038 98.518ZM169.327 89.6575L174.65 85.5521C175.73 84.7191 175.93 83.1689 175.097 82.0883C174.267 81.0109 172.717 80.8018 171.633 81.6412L166.31 85.7466C165.23 86.5796 165.03 88.1298 165.863 89.2104C166.693 90.2876 168.244 90.4932 169.327 89.6575Z" fill="#5885DD"/>
</g>
</svg>
