<svg width="247" height="231" viewBox="0 0 247 231" fill="none" xmlns="http://www.w3.org/2000/svg">
<g opacity="0.1">
<path d="M188.685 16.268C156.258 11.3142 127.715 35.8963 129.672 64.523C130.615 78.6559 140.435 91.1509 139.266 104.284C138.907 107.855 137.823 111.253 138.071 115.379C135.926 115.388 133.85 116.288 132.364 117.94C127.186 123.623 120.075 126.897 113.148 129.595C106.522 132.21 99.569 135.259 91.2649 139.199C80.3303 144.426 72.791 153.381 55.9721 158.8C55.9737 158.703 55.9666 159.152 55.987 157.852C56.0353 153.694 52.684 150.269 48.5095 150.217L24.6328 149.953C20.5226 149.944 17.0491 153.244 17.0009 157.399L16.2741 223.462C16.2216 227.578 19.5004 231.05 23.713 231.097L47.5929 231.364C47.6218 231.364 47.654 231.364 47.6829 231.364C51.8035 231.364 55.1783 228.059 55.2248 223.883L55.2638 220.428L100.968 226.144C119.966 228.513 141.073 226.69 157.492 217.148C161.58 214.764 169.052 209.246 172.315 203.891C178.043 194.253 189.348 173.357 193.603 165.491L191.486 164.214L189.258 163.143C185.016 170.984 173.746 191.815 168.083 201.344C165.243 206.004 157.645 211.34 155.006 212.881C136.474 223.651 113.575 222.741 101.579 221.243L55.3197 215.457L55.8986 164.046C73.8414 158.789 83.1912 148.53 93.3876 143.66C101.586 139.771 108.439 136.764 114.952 134.194C122.069 131.422 130.138 127.72 136.027 121.256C136.848 120.334 138.145 120 139.425 120.665C139.795 121.409 140.381 122.336 140.951 122.949C141.91 128.91 141.897 132.536 135.066 137.472C128.027 142.553 120.65 146.888 117.2 155.366C113.891 163.465 115.367 172.733 120.956 178.973C126.967 185.711 135.87 187.878 147.676 185.325C149.31 184.765 163.902 179.433 172.814 165.095C174.438 162.5 175.827 159.676 176.956 156.672C177.834 154.234 179.969 152.346 182.394 151.864C182.478 151.848 182.562 151.829 182.642 151.803C184.183 151.636 188.463 152.391 190.001 156.508C190.74 158.47 190.489 160.853 189.312 163.043L191.486 164.214L193.657 165.388C193.661 165.388 193.661 165.385 193.661 165.385C198.031 157.258 193.478 148.469 185.138 147.012C185.255 145.928 185.227 144.938 184.913 144.004C185.43 143.537 185.858 143.007 186.164 142.453C187.042 141.116 187.357 139.755 187.605 138.469C187.837 136.862 187.8 135.271 187.628 133.702C192.393 133.236 195.852 128.092 197.684 123.649C202.329 110.783 200.002 112.906 212.389 101.739C212.389 101.739 212.39 101.738 212.389 101.739C222.993 91.5718 230.28 77.9949 230.702 63.0179C231.415 38.9727 210.685 19.6335 188.685 16.268ZM47.6508 226.424L23.7709 226.157C22.334 226.143 21.1944 224.956 21.2141 223.52L21.9409 157.454C21.9541 156.053 23.1322 154.893 24.546 154.893C26.722 154.918 49.9351 155.174 48.4516 155.157C49.8989 155.177 51.0631 156.357 51.047 157.791C51.0516 156.773 50.8721 171.665 50.2848 223.828C50.2703 225.422 48.8451 226.533 47.6508 226.424ZM182.735 137.645C182.549 138.613 182.388 139.202 181.938 139.9C181.809 140.132 181.585 140.337 181.342 140.507L145.285 133.032C146.014 131.266 146.443 129.348 146.272 126.073C146.408 125.854 146.569 125.617 146.754 125.367C196.288 135.845 169.031 129.808 182.618 133.166C182.9 134.638 182.94 136.222 182.735 137.645ZM169.314 161.237C168.64 160.859 170.037 161.326 143.89 155.524C142.456 153.086 140.583 149.502 140.375 149.162C140.345 149.036 140.38 148.877 140.419 148.717L172.495 154.56C171.579 156.86 170.837 158.597 169.314 161.237ZM168.523 89.9016C171.237 82.111 170.416 78.6477 172.145 77.2718C173.475 76.2179 177.35 76.3338 179.014 77.8314C180.224 78.9185 180.323 80.7453 180.014 82.0928C179.48 84.4478 176.64 88.0175 175.811 91.3811C175.001 94.6808 174.975 98.6431 176.712 101.563C176.348 102.679 176.065 103.77 175.866 104.831L170.422 123.29L161.559 121.43C168.745 85.1327 166.306 96.3131 168.523 89.9016ZM156.836 94.5457C154.858 93.9727 151.627 90.4696 151.812 87.2515C151.927 85.252 153.622 83.1445 155.993 83.1445C157.479 83.1445 159.113 83.8971 160.261 85.1514C162.123 87.1936 162.499 89.2262 162.258 91.7927C160.642 94.2796 158.34 94.9722 156.836 94.5457ZM134.599 64.1918C132.884 39.0547 158.225 16.6385 187.939 21.1501C226.813 27.0992 235.845 68.5471 207.271 95.8065C198.415 104.186 196.412 104.098 192.847 115.168C191.694 118.738 189.771 124.706 185.987 126.324C184.8 126.845 181.616 125.932 179.709 125.382C176.588 124.492 177.193 124.748 175.272 124.307C178.133 114.481 180.322 107.367 180.883 104.966C184.289 106.117 188.489 105.111 190.457 104.297C193.921 102.869 197.555 98.7267 197.382 94.52C197.227 90.9018 194.307 87.6953 190.731 87.2161C188.531 86.9267 186.151 87.6085 184.189 89.1072C182.575 90.3453 181.405 91.9689 180.378 93.7063C180.995 89.7139 183.855 87.4619 184.832 83.196C186.177 77.3345 182.806 71.9945 175.489 71.6564C172.894 71.5342 170.659 72.1389 169.067 73.406C166.01 75.8453 166.151 79.4898 165.23 83.4983C162.399 79.2888 157.977 77.6656 154.314 78.3621C150.252 79.134 147.123 82.7553 146.879 86.9685C146.56 92.5887 151.36 98.1129 155.472 99.2928C157.215 99.7945 159.155 99.6691 160.962 99.0001C159.876 104.494 157.759 115.195 156.726 120.416C144.68 117.914 145.969 118.11 144.592 117.917C144.325 117.878 143.942 117.807 143.607 117.706C143.58 117.679 143.545 117.659 143.517 117.631C142.106 113.744 143.703 109.587 144.183 104.751C145.495 90.0262 135.497 77.5325 134.599 64.1918ZM182.497 100.296C183.421 98.2164 185.388 94.4112 187.19 93.0309C188.1 92.3362 189.187 91.9857 190.075 92.1111C191.435 92.2944 192.4 93.6131 192.448 94.7291C192.516 96.3886 190.56 98.91 188.573 99.7302C186.791 100.46 184.064 100.811 182.497 100.296ZM146.358 180.574C136.696 182.642 129.383 181.002 124.639 175.683C120.3 170.836 119.175 163.593 121.773 157.232C124.587 150.316 131.161 146.319 137.412 141.864C137.493 142.468 137.617 143.116 137.841 143.804C135.582 146.035 134.599 149.141 136.201 151.886C137.669 154.395 139.088 157.364 140.667 159.693C142.328 167.302 151.975 173.496 162.317 170.293C155.094 177.371 147.259 180.25 146.358 180.574ZM175.547 150.091L143.316 144.22C143.172 143.106 142.354 143.032 142.212 140.138C142.08 138.916 142.225 138.424 142.369 138.227C142.448 138.12 142.712 137.922 143.418 137.69L180.104 145.296C180.473 146.032 180.28 146.698 180.066 147.393C178.376 147.947 176.841 148.878 175.547 150.091Z" fill="#5885DD"/>
<path d="M125.626 40.2129C127.996 40.2129 129.01 37.1848 127.105 35.7618L101.772 16.8605C100.672 16.05 99.1282 16.2784 98.3145 17.3654C97.5008 18.4589 97.7259 20.0059 98.8194 20.8228C125.028 40.1492 124.09 40.2129 125.626 40.2129ZM86.1349 70.0845C86.4603 71.4281 87.8152 72.2192 89.1195 71.8984L119.83 64.4241C121.156 64.1025 121.969 62.7678 121.644 61.4395C121.323 60.1145 119.985 59.2943 118.66 59.6256L87.9488 67.0999C86.6238 67.4215 85.8101 68.7562 86.1349 70.0845ZM100.035 49.3918C118.175 51.262 116.725 51.1253 116.933 51.1253C118.184 51.1253 119.255 50.1798 119.387 48.9094C119.528 47.5522 118.541 46.3397 117.184 46.1982L100.543 44.4776C99.17 44.3296 97.9736 45.3266 97.832 46.6806C97.6905 48.0378 98.6779 49.2503 100.035 49.3918Z" fill="#5885DD"/>
<path d="M38.6592 216.742C41.4875 216.742 43.7804 214.449 43.7804 211.621C43.7804 208.793 41.4875 206.5 38.6592 206.5C35.8309 206.5 33.5381 208.793 33.5381 211.621C33.5381 214.449 35.8309 216.742 38.6592 216.742Z" fill="#5885DD"/>
</g>
</svg>
