<svg width="333" height="433" viewBox="0 0 333 433" fill="none" xmlns="http://www.w3.org/2000/svg">
<g opacity="0.1">
<path d="M290.254 144.599C290.773 114.202 284.564 81.4222 265.704 56.8893C247.156 32.7677 220.164 43.5477 200.119 58.8802C165.02 85.7289 143.999 128.018 127.259 167.748C108.693 211.812 96.2437 260.24 97.2778 308.286C97.8007 332.482 103.149 366.784 124.681 382.037C144.71 396.227 168.519 389.056 186.742 374.941C253.041 323.583 286.105 225.722 290.254 144.599C290.49 140.007 283.351 139.869 283.118 144.466C279.767 209.984 256.921 275.974 219.802 329.994C203.665 353.479 173.446 387.997 141.139 382.227C113.306 377.263 106.782 337.381 104.771 314.915C98.4314 244.013 129.553 163.347 167.846 105.074C184.091 80.3549 225.36 30.2828 257.153 58.1562C278.971 77.2848 283.575 117.441 283.118 144.466C283.046 149.064 290.179 149.21 290.254 144.599Z" fill="#5885DD"/>
<path d="M206.467 330.167C237.647 355.206 326.215 395.902 315.582 319.323C309.033 272.163 285.889 230.49 259.949 191.309C234.259 152.506 203.212 115.892 165.334 88.5451C146.658 75.0613 121.237 61.008 97.3688 66.3563C77.1633 70.8801 73.8277 94.5191 74.44 111.614C75.8136 150.171 95.7823 188.145 114.888 220.579C138.902 261.342 169.809 298.943 205.812 329.63C209.002 332.346 213.812 327.876 210.6 325.134C157.955 280.271 114.282 220.133 90.449 155.015C82.6336 133.673 71.8499 96.695 89.9907 77.6652C107.014 59.8042 141.786 81.0794 157.038 90.8349C217.986 129.801 265.485 200.734 294.084 265.868C304.9 290.504 328.951 359.419 282.617 358.661C256.626 358.233 229.486 340.29 209.937 324.59C206.638 321.937 203.218 327.552 206.467 330.167Z" fill="#5885DD"/>
<path d="M124.822 299.379C100.686 301.82 75.8659 300.286 52.926 291.987C-0.704864 272.587 62.6891 220.783 86.2275 204.3C144.895 163.229 224.643 133.711 296.494 132.143C316.638 131.701 346.23 133.7 358.055 152.868C373.058 177.178 332.891 209.949 317.386 222.236C263.645 264.823 191.408 290.666 123.97 299.474C119.779 300.023 121.378 306.392 125.538 305.852C170.356 299.996 213.388 285.939 254.388 267.157C289.23 251.203 327.083 229.636 351.077 198.884C361.794 185.145 374.887 163.158 361.768 146.507C345.719 126.149 314.372 125.187 290.788 125.701C246.92 126.663 203.517 141.039 163.167 157.147C119.355 174.639 76.4663 197.58 43.7163 232.077C29.6318 246.913 13.7922 272.867 34.8768 289.102C59.0229 307.701 95.668 308.876 124.697 305.942C128.845 305.523 129.034 298.951 124.822 299.379Z" fill="#5885DD"/>
<path d="M101.476 139.649C98.5535 149.516 88.1881 155.14 78.3212 152.218C68.4542 149.295 62.8198 138.931 65.7425 129.064C68.6664 119.193 79.0375 113.566 88.9045 116.488C98.7714 119.411 104.4 129.778 101.476 139.649Z" fill="#5885DD"/>
<path d="M209.621 224.43C206.698 234.297 196.327 239.925 186.46 237.002C176.589 234.078 170.964 223.713 173.887 213.846C176.811 203.974 187.173 198.344 197.045 201.268C206.912 204.191 212.545 214.559 209.621 224.43Z" fill="#5885DD"/>
<path d="M219.555 368.967C216.631 378.839 206.269 384.469 196.398 381.545C186.531 378.622 180.902 368.256 183.826 358.384C186.748 348.517 197.115 342.889 206.982 345.811C216.855 348.731 222.478 359.101 219.555 368.967Z" fill="#5885DD"/>
<path d="M292.294 315.543C290.831 320.486 285.65 323.298 280.717 321.837C275.779 320.375 272.961 315.193 274.425 310.251C275.885 305.321 281.072 302.505 286.009 303.968C290.943 305.429 293.754 310.614 292.294 315.543Z" fill="#5885DD"/>
<path d="M170.136 53.1013C168.674 58.0391 163.493 60.8519 158.56 59.3905C153.622 57.9279 150.809 52.7475 152.272 47.8096C153.733 42.8761 158.915 40.0588 163.853 41.5215C168.786 42.9828 171.598 48.1678 170.136 53.1013Z" fill="#5885DD"/>
<path d="M332.361 180.274C330.898 185.212 325.719 188.02 320.786 186.559C315.848 185.096 313.029 179.919 314.492 174.981C315.953 170.048 321.138 167.236 326.076 168.699C331.009 170.16 333.822 175.34 332.361 180.274Z" fill="#5885DD"/>
</g>
</svg>
