<svg width="88" height="6" viewBox="0 0 88 6" fill="none" xmlns="http://www.w3.org/2000/svg">
<path d="M-3.26633e-05 2.88672L2.88672 5.77347L5.77347 2.88672L2.88672 -3.26633e-05L-3.26633e-05 2.88672ZM87.7735 2.88672L84.8867 -3.26633e-05L82 2.88672L84.8867 5.77347L87.7735 2.88672ZM2.88672 2.88672V3.38672H3.86291V2.88672V2.38672H2.88672V2.88672ZM5.81529 2.88672V3.38672H7.76767V2.88672V2.38672H5.81529V2.88672ZM9.72005 2.88672V3.38672H11.6724V2.88672V2.38672H9.72005V2.88672ZM13.6248 2.88672V3.38672H15.5772V2.88672V2.38672H13.6248V2.88672ZM17.5296 2.88672V3.38672H19.482V2.88672V2.38672H17.5296V2.88672ZM21.4343 2.88672V3.38672H23.3867V2.88672V2.38672H21.4343V2.88672ZM25.3391 2.88672V3.38672H27.2915V2.88672V2.38672H25.3391V2.88672ZM29.2439 2.88672V3.38672H31.1962V2.88672V2.38672H29.2439V2.88672ZM33.1486 2.88672V3.38672H35.101V2.88672V2.38672H33.1486V2.88672ZM37.0534 2.88672V3.38672H39.0058V2.88672V2.38672H37.0534V2.88672ZM40.9581 2.88672V3.38672H42.9105V2.88672V2.38672H40.9581V2.88672ZM44.8629 2.88672V3.38672H46.8153V2.88672V2.38672H44.8629V2.88672ZM48.7677 2.88672V3.38672H50.7201V2.88672V2.38672H48.7677V2.88672ZM52.6724 2.88672V3.38672H54.6248V2.88672V2.38672H52.6724V2.88672ZM56.5772 2.88672V3.38672H58.5296V2.88672V2.38672H56.5772V2.88672ZM60.482 2.88672V3.38672H62.4343V2.88672V2.38672H60.482V2.88672ZM64.3867 2.88672V3.38672H66.3391V2.88672V2.38672H64.3867V2.88672ZM68.2915 2.88672V3.38672H70.2439V2.88672V2.38672H68.2915V2.88672ZM72.1962 2.88672V3.38672H74.1486V2.88672V2.38672H72.1962V2.88672ZM76.101 2.88672V3.38672H78.0534V2.88672V2.38672H76.101V2.88672ZM80.0057 2.88672V3.38672H81.9581V2.88672V2.38672H80.0057V2.88672ZM83.9105 2.88672V3.38672H84.8867V2.88672V2.38672H83.9105V2.88672Z" fill="black"/>
</svg>
