<svg width="64" height="64" viewBox="0 0 64 64" fill="none" xmlns="http://www.w3.org/2000/svg">
<g clip-path="url(#clip0_3038_2997)">
<path d="M14.2876 40.85V34.0625H10.5376V40.85H14.2876ZM11.7876 35.3125H13.0376V39.6H11.7876V35.3125Z" fill="#178F57"/>
<path d="M16.05 40.85H19.8V34.0625H16.05V40.85ZM17.3 35.3125H18.55V39.6H17.3V35.3125Z" fill="#178F57"/>
<path d="M24.625 32.3H28.375V25.5H24.625V32.3ZM25.875 26.75H27.125V31.0375H25.875V26.75Z" fill="#178F57"/>
<path d="M30.125 40.85H33.875V34.0625H30.125V40.85ZM31.375 35.3125H32.625V39.6H31.375V35.3125Z" fill="#178F57"/>
<path d="M24.625 40.85H28.375V34.0625H24.625V40.85ZM25.875 35.3125H27.125V39.6H25.875V35.3125Z" fill="#178F57"/>
<path d="M18.2124 48.1484H14.5249V53.3734H18.2124V48.1484ZM16.9624 52.1109H15.7749V49.3859H16.9624V52.1109Z" fill="#178F57"/>
<path d="M14.5249 60.3375H18.2124V55.125H14.5249V60.3375ZM15.7749 56.375H16.9624V59.1H15.7749V56.375Z" fill="#178F57"/>
<path d="M9.4751 60.3375H13.1626V55.125H9.4751V60.3375ZM10.7251 56.375H11.9126V59.1H10.7251V56.375Z" fill="#178F57"/>
<path d="M8.11255 60.3375V55.125H4.42505V60.35L8.11255 60.3375ZM5.67505 56.375H6.86255V59.1H5.67505V56.375Z" fill="#178F57"/>
<path d="M9.46252 53.3617H13.1625V45.6367H9.46252V53.3617ZM10.7125 46.8992H11.9125V52.1242H10.7125V46.8992Z" fill="#178F57"/>
<path d="M8.1126 45.6484H4.4126V53.3734H8.1126V45.6484ZM6.8626 52.1109H5.6626V46.8859H6.8626V52.1109Z" fill="#178F57"/>
<path d="M49.4751 48.1484H45.7876V53.3734H49.4751V48.1484ZM48.2251 52.1109H47.0376V49.3859H48.2251V52.1109Z" fill="#178F57"/>
<path d="M45.7876 60.3375H49.4751V55.125H45.7876V60.3375ZM47.0376 56.375H48.2251V59.1H47.0376V56.375Z" fill="#178F57"/>
<path d="M50.8374 60.3375H54.5249V55.125H50.8374V60.3375ZM52.0874 56.375H53.2749V59.1H52.0874V56.375Z" fill="#178F57"/>
<path d="M55.8875 60.3375H59.575V55.125H55.8875V60.3375ZM57.1375 56.375H58.325V59.1H57.1375V56.375Z" fill="#178F57"/>
<path d="M50.8375 53.3617H54.5375V45.6367H50.8375V53.3617ZM52.0875 46.8992H53.2875V52.1242H52.0875V46.8992Z" fill="#178F57"/>
<path d="M59.5875 45.6484H55.8875V53.3734H59.5875V45.6484ZM58.3375 52.1109H57.1375V46.8859H58.3375V52.1109Z" fill="#178F57"/>
<path d="M33.8875 54.6992H35.1375V57.6617H33.8875V54.6992Z" fill="#178F57"/>
<path d="M28.8625 54.6992H30.1125V57.6617H28.8625V54.6992Z" fill="#178F57"/>
<path d="M18.55 31.0508H19.8V32.3008H18.55V31.0508Z" fill="#178F57"/>
<path d="M52.0625 62.1133H53.3125V63.3633H52.0625V62.1133Z" fill="#178F57"/>
<path d="M10.6875 62.1133H11.9375V63.3633H10.6875V62.1133Z" fill="#178F57"/>
<path d="M31.375 45.6484H32.625V46.8984H31.375V45.6484Z" fill="#178F57"/>
<path d="M57.8 7.07422L58.7125 6.22422C58.425 5.91172 58.125 5.61172 57.825 5.32422L56.975 6.23672C57.25 6.49922 57.525 6.78672 57.8 7.07422Z" fill="#178F57"/>
<path d="M56.5 28.6734C62.3375 22.8359 62.3375 13.3484 56.5 7.52344C53.675 4.69844 49.925 3.14844 45.925 3.14844C41.925 3.14844 38.175 4.69844 35.35 7.52344C30.0625 12.8109 29.5 21.2734 34.0625 27.1984L35.05 26.4359C30.875 20.9984 31.375 13.2484 36.225 8.39844C38.8125 5.81094 42.25 4.38594 45.9125 4.38594C49.575 4.38594 53.025 5.81094 55.6 8.39844C60.95 13.7484 60.95 22.4359 55.6 27.7859C50.75 32.6359 43 33.1484 37.5625 28.9734L36.8 29.9609C39.4875 32.0234 42.6875 33.0359 45.8875 33.0359C49.7625 33.0359 53.6 31.5609 56.5 28.6734Z" fill="#178F57"/>
<path d="M34.8875 28.1977C35.0375 28.3602 35.1875 28.5102 35.3375 28.6727C35.4875 28.8227 35.65 28.9727 35.8125 29.1227L36.6624 28.1977C36.5124 28.0602 36.3749 27.9227 36.2249 27.7852C36.0874 27.6477 35.95 27.4977 35.8125 27.3477L34.8875 28.1977Z" fill="#178F57"/>
<path d="M62.0875 62.1117V42.6242H56.4625V31.9992C60.6625 28.8117 63.375 23.7617 63.375 18.0992C63.375 14.0992 62.05 10.3242 59.5625 7.21172L58.5875 7.98672C60.9 10.8742 62.125 14.3742 62.125 18.0992C62.125 27.0367 54.85 34.3117 45.9125 34.3117C36.975 34.3117 29.7 27.0367 29.7 18.0992C29.7 9.16172 36.975 1.88672 45.9125 1.88672C49.625 1.88672 53.125 3.11172 56.025 5.42422L56.8 4.44922C53.675 1.94922 49.9125 0.636719 45.9125 0.636719C36.2875 0.636719 28.45 8.46172 28.45 18.0992C28.45 19.6117 28.65 21.0867 29.0125 22.4867H21.55V42.6242H8.7875V32.2992H17.3V31.0492H7.5375V42.6242H1.9125V62.1117H0.625V63.3617H9.4375V62.1117H3.1625V43.8742H14.525V46.8992H19.4625V62.1117H13.1875V63.3617H50.8V62.1117H44.525V46.8992H49.4625V43.8742H60.825V62.1117H54.55V63.3617H63.375V62.1117H62.0875ZM50.9625 34.8117C51.3875 34.6867 51.8 34.5367 52.2125 34.3742V39.5992H50.9625V34.8117ZM45.45 35.5492C45.6 35.5492 45.7625 35.5617 45.9125 35.5617C46.175 35.5617 46.4375 35.5492 46.7 35.5367V39.6117H45.45V35.5492ZM31.375 27.7367C31.7625 28.3117 32.175 28.8617 32.625 29.3992V31.0492H31.375V27.7367ZM22.8 23.7367H29.3875C29.6 24.3492 29.8375 24.9492 30.1125 25.5242V32.2992H33.8625V30.7242C35.9 32.6617 38.4 34.1242 41.1875 34.9117V42.6242H22.8V23.7367ZM21.9625 62.1117H20.7125V46.8992H21.9625V62.1117ZM31.375 62.1117H25.9375V49.8117H31.375V62.1117ZM38.0625 62.1117H32.625V49.8117H38.0625V62.1117ZM43.2875 62.1117H42.0375V46.8992H43.2875V62.1117ZM48.225 45.6492H33.875V46.8992H40.7875V62.1117H39.3125V48.5617H24.6875V62.1117H23.2125V46.8992H30.125V45.6492H15.775V43.8742H48.2375V45.6492H48.225ZM55.2125 42.6242H44.0375H42.45V35.1992C43.025 35.3117 43.6125 35.3992 44.2 35.4617V40.8492H47.95V35.4242C48.55 35.3492 49.125 35.2617 49.7 35.1242V40.8492H53.45V33.8242C54.05 33.5367 54.6375 33.2117 55.2 32.8492V42.6242H55.2125Z" fill="#178F57"/>
<path d="M38.125 39.6H36.875V35.3125H35.625V40.85H39.375V35.3125H38.125V39.6Z" fill="#178F57"/>
<path d="M38.6125 20.2625H37.3625V16.7L39.7001 17.8125V20.975C39.7001 24.4125 42.4875 27.2 45.925 27.2C49.3625 27.2 52.1501 24.4125 52.1501 20.975V17.8125L58.05 14.9875L45.925 9.1875L33.8 14.9875L36.1125 16.1V20.2625H34.8625V24.925H38.6125V20.2625ZM50.9001 20.975C50.9001 23.725 48.6625 25.95 45.925 25.95C43.175 25.95 40.9501 23.7125 40.9501 20.975V18.4125L45.925 20.8L50.9001 18.4125V20.975ZM45.9125 10.575L55.1501 15L45.9125 19.425L36.675 15L45.9125 10.575ZM37.3625 23.675H36.1125V21.5125H37.3625V23.675Z" fill="#178F57"/>
</g>
<defs>
<clipPath id="clip0_3038_2997">
<rect width="64" height="64" fill="white"/>
</clipPath>
</defs>
</svg>
