<svg width="235" height="131" viewBox="0 0 235 131" fill="none" xmlns="http://www.w3.org/2000/svg">
<path d="M8.46875 102.865V98.2788C8.46875 97.2035 9.34027 96.332 10.4155 96.332H93.2006V104.812H10.415C9.34027 104.812 8.46875 103.941 8.46875 102.865Z" fill="white"/>
<path d="M10.4155 96.333H95.1473V94.3867H10.4155C8.2655 94.3867 6.52246 96.1298 6.52246 98.2797V102.866C6.52246 105.016 8.2655 106.759 10.4155 106.759H95.1473V104.813H10.4155C9.34021 104.813 8.46869 103.942 8.46869 102.866V98.2797C8.46924 97.2045 9.34076 96.333 10.4155 96.333Z" fill="#3C6177"/>
<path d="M10.4155 94.3867H50.8349V96.333H10.4155C9.34021 96.333 8.46869 97.2045 8.46869 98.2792V102.866C8.46869 103.941 9.34021 104.813 10.4155 104.813H50.8349V106.759H10.4155C8.2655 106.759 6.52246 105.016 6.52246 102.866V98.2797C6.52246 96.1298 8.2655 94.3867 10.4155 94.3867Z" fill="#538294"/>
<path d="M93.2003 96.332H49.0049V104.812H93.2003V96.332Z" fill="#DFDFE1"/>
<path d="M191.715 35.8945H172.551V124.906H191.715V35.8945Z" fill="white"/>
<path d="M191.715 52.4219H172.551V109.629H191.715V52.4219Z" fill="#F1D87C"/>
<path d="M201.041 43.4688H191.716V124.906H201.041V43.4688Z" fill="#3C6177"/>
<path d="M215.648 30.1875H201.041V124.909H215.648V30.1875Z" fill="#E1A051"/>
<path d="M234.087 35.8945H215.647V124.906H234.087V35.8945Z" fill="#3C6177"/>
<path d="M229.379 53.5312H220.355V107.272H229.379V53.5312Z" fill="white"/>
<path d="M229.379 112.168H220.355V115.333H229.379V112.168Z" fill="white"/>
<path d="M215.648 35.8945H201.041V43.4691H215.648V35.8945Z" fill="white"/>
<path d="M215.648 74.4375H201.041V109.006H215.648V74.4375Z" fill="#F1D87C"/>
<path d="M201.041 64.7812H191.716V74.4388H201.041V64.7812Z" fill="white"/>
<path d="M198.385 81.5703H194.371V110.629H198.385V81.5703Z" fill="#E1A051"/>
<path opacity="0.2" d="M172.551 67.2695V93.888L188.373 109.709H172.551V124.907H230.188L172.551 67.2695Z" fill="#454545"/>
<path d="M151.596 49.4258V124.907H227.077L151.596 49.4258ZM166.793 86.1158L190.386 109.709H166.793V86.1158Z" fill="#538294"/>
<path opacity="0.2" d="M174.436 119.319L170.074 109.709H166.793V102.483L160.72 89.1055C160.462 88.5371 160.322 87.9215 160.31 87.2971L160.08 75.6658H160.881C162.141 75.6658 163.163 74.6444 163.163 73.3846C163.163 72.1248 162.141 71.1034 160.881 71.1034H157.05V54.88L151.596 49.4258V124.907H170.837C173.711 124.907 175.624 121.937 174.436 119.319Z" fill="#454545"/>
<path d="M156.397 121.191H154.531V124.906H156.397V121.191Z" fill="#3C6177"/>
<path d="M160.748 122.207H158.882V124.909H160.748V122.207Z" fill="#3C6177"/>
<path d="M165.098 122.207H163.232V124.909H165.098V122.207Z" fill="#3C6177"/>
<path d="M169.449 122.207H167.582V124.909H169.449V122.207Z" fill="#3C6177"/>
<path d="M173.799 122.207H171.933V124.909H173.799V122.207Z" fill="#3C6177"/>
<path d="M178.149 121.191H176.283V124.906H178.149V121.191Z" fill="#3C6177"/>
<path d="M182.5 122.207H180.634V124.909H182.5V122.207Z" fill="#3C6177"/>
<path d="M186.85 122.207H184.984V124.909H186.85V122.207Z" fill="#3C6177"/>
<path d="M191.2 122.207H189.334V124.909H191.2V122.207Z" fill="#3C6177"/>
<path d="M195.551 122.207H193.685V124.909H195.551V122.207Z" fill="#3C6177"/>
<path d="M199.9 121.191H198.034V124.906H199.9V121.191Z" fill="#3C6177"/>
<path d="M204.251 122.207H202.385V124.909H204.251V122.207Z" fill="#3C6177"/>
<path d="M208.601 122.207H206.735V124.909H208.601V122.207Z" fill="#3C6177"/>
<path d="M212.952 122.207H211.086V124.909H212.952V122.207Z" fill="#3C6177"/>
<path d="M217.303 122.207H215.437V124.909H217.303V122.207Z" fill="#3C6177"/>
<path d="M221.653 121.191H219.787V124.906H221.653V121.191Z" fill="#3C6177"/>
<path d="M130.983 26.8159V22.3468H106.298V26.8159H100.166V21.6894C100.166 18.6707 102.622 16.2148 105.641 16.2148H131.641C134.659 16.2148 137.115 18.6707 137.115 21.6894V26.8159H130.983Z" fill="#F1D87C"/>
<path d="M85.7426 125.066H151.718C153.369 125.066 154.708 123.727 154.708 122.076V32.2699C154.708 29.1935 152.214 26.6992 149.137 26.6992H88.3236C85.2467 26.6992 82.7529 29.1935 82.7529 32.2699V122.077C82.7529 123.728 84.0912 125.066 85.7426 125.066Z" fill="#E1A051"/>
<path d="M141.859 75.4337H95.6016V64.7119C95.6016 63.4472 96.6269 62.4219 97.8916 62.4219H139.569C140.834 62.4219 141.859 63.4472 141.859 64.7119V75.4337H141.859Z" fill="#4E4E4E"/>
<path d="M141.678 75.4336H95.6016V106.872H141.678V75.4336Z" fill="#F1D87C"/>
<path d="M154.708 106.867H82.7529V122.08C82.7529 123.731 84.0918 125.07 85.7431 125.07H151.718C153.37 125.07 154.709 123.731 154.709 122.08V106.867H154.708Z" fill="#4E4E4E"/>
<path d="M129.536 44.3321L118.731 33.5273L107.927 44.3321L118.731 55.1369L129.536 44.3321Z" fill="white"/>
<path opacity="0.2" d="M95.3908 124.411L96.5495 124.85C97.0229 125.029 97.5517 124.79 97.7313 124.317L99.6786 119.175C99.8577 118.702 99.6193 118.173 99.146 117.994L97.2261 117.267V110.909C97.2261 108.797 95.5138 107.085 93.4023 107.085H100.941V105.173H99.029V96.8442H100.941V94.9326H94.5341V93.0209H92.6225V84.6918H94.5341V82.7802H95.3199C97.2997 82.7802 98.9279 81.2754 99.124 79.3473C99.1372 79.2188 99.1438 79.0881 99.1438 78.9563V68.7156C99.1438 66.6035 97.432 64.8918 95.3199 64.8918H94.5341V62.9801H92.6225V48.9155H94.5341V47.0039H82.7529V122.079C82.7529 123.475 83.7101 124.643 85.0023 124.973H93.4023C94.1321 124.973 94.8109 124.765 95.3908 124.411ZM96.0646 80.718C96.0432 80.7274 96.019 80.7307 95.9965 80.7389C96.0805 80.7049 96.1618 80.6659 96.2409 80.6225C96.1821 80.6549 96.1267 80.6917 96.0646 80.718ZM97.2321 68.7156C97.2321 67.9621 96.7928 67.3169 96.1585 67.0066C96.7933 67.3169 97.2321 67.9616 97.2321 68.7156Z" fill="#454545"/>
<path d="M1.94629 90.4949V85.9077C1.94629 84.8324 2.81781 83.9609 3.89307 83.9609H86.6781V92.4405H3.89307C2.81781 92.4411 1.94629 91.5696 1.94629 90.4949Z" fill="white"/>
<path d="M3.89301 83.9619H88.6248V82.0156H3.89301C1.74304 82.0156 0 83.7587 0 85.9086V90.4952C0 92.6452 1.74304 94.3882 3.89301 94.3882H88.6248V92.442H3.89301C2.8183 92.442 1.94678 91.5705 1.94678 90.4952V85.9086C1.94623 84.8334 2.81775 83.9619 3.89301 83.9619Z" fill="#EEC86A"/>
<path d="M3.89301 82.0156H44.3124V83.9619H3.89301C2.8183 83.9619 1.94678 84.8334 1.94678 85.9081V90.4947C1.94678 91.5699 2.8183 92.4415 3.89301 92.4415H44.3124V94.3877H3.89301C1.74304 94.3877 0 92.6447 0 90.4947V85.9081C0 83.7587 1.74304 82.0156 3.89301 82.0156Z" fill="#E1A051"/>
<path d="M86.6779 83.9609H42.4824V92.4405H86.6779V83.9609Z" fill="#DFDFE1"/>
<path d="M89.4183 121.08V110.653C89.4183 109.578 88.5468 108.707 87.4721 108.707H4.68652V123.026H87.4716C88.5468 123.026 89.4183 122.154 89.4183 121.08Z" fill="white"/>
<path d="M87.4715 108.705H2.74023V106.758H87.4721C89.622 106.758 91.3651 108.501 91.3651 110.651V121.077C91.3651 123.227 89.622 124.97 87.4721 124.97H2.74023V123.023H87.4721C88.5473 123.023 89.4188 122.152 89.4188 121.077V110.65C89.4183 109.576 88.5468 108.705 87.4715 108.705Z" fill="#E1A051"/>
<path d="M87.4731 106.758H47.0537V108.704H87.4731C88.5484 108.704 89.4193 109.576 89.4193 110.651V121.077C89.4193 122.152 88.5478 123.023 87.4731 123.023H47.0537V124.97H87.4731C89.6231 124.97 91.3661 123.227 91.3661 121.077V110.651C91.3661 108.501 89.6231 106.758 87.4731 106.758Z" fill="#EEC86A"/>
<path d="M48.882 108.707H4.68652V123.026H48.882V108.707Z" fill="#DFDFE1"/>
<path d="M91.3705 78.1226V67.6962C91.3705 66.621 90.499 65.75 89.4243 65.75H6.63867V80.0688H89.4237C90.499 80.0688 91.3705 79.1973 91.3705 78.1226Z" fill="white"/>
<path d="M89.4237 65.7476H4.69238V63.8008H89.4242C91.5742 63.8008 93.3172 65.5438 93.3172 67.6938V78.1196C93.3172 80.2696 91.5742 82.0126 89.4242 82.0126H4.69238V80.067H89.4242C90.4995 80.067 91.371 79.1954 91.371 78.1202V67.6943C91.3704 66.6191 90.4989 65.7476 89.4237 65.7476Z" fill="#5D657A"/>
<path d="M89.4243 63.8008H49.0049V65.7476H89.4243C90.4995 65.7476 91.3711 66.6191 91.3711 67.6938V78.1202C91.3711 79.1949 90.4995 80.067 89.4243 80.067H49.0049V82.0132H89.4243C91.5743 82.0132 93.3173 80.2701 93.3173 78.1202V67.6938C93.3173 65.5438 91.5743 63.8008 89.4243 63.8008Z" fill="#454545"/>
<path d="M50.8341 65.75H6.63867V80.0694H50.8341V65.75Z" fill="#DFDFE1"/>
<path d="M69.2687 22.3398H26.9189V46.0219H69.2687V22.3398Z" fill="#454545"/>
<path d="M48.0932 0L2.19531 17.9702L48.0932 35.9404L93.991 17.9702L48.0932 0Z" fill="#505050"/>
<path d="M70.089 36.2368H68.4486V28.5963C68.4486 28.3399 68.2987 28.1059 68.0659 27.9994L47.7529 18.7142L48.4344 17.2227L68.7474 26.5079C69.5618 26.8802 70.0884 27.7001 70.0884 28.5963V36.2368H70.089Z" fill="#F1D87C"/>
<path d="M70.0033 36.8633H69.2685H68.5332C67.9483 37.2697 67.5996 37.9374 67.5996 38.6497V42.6602H69.2685H70.9374V38.6497C70.9369 37.9374 70.5881 37.2702 70.0033 36.8633Z" fill="#F1D87C"/>
<path d="M68.5328 36.8644H70.0029C70.5185 36.8644 70.937 36.4465 70.937 35.9303V34.5865C70.937 34.0708 70.5191 33.6523 70.0029 33.6523H68.5328C68.0171 33.6523 67.5986 34.0702 67.5986 34.5865V35.9303C67.5992 36.4465 68.0171 36.8644 68.5328 36.8644Z" fill="#F1D87C"/>
<path d="M46.9646 15.8707C44.3412 16.3775 44.3412 18.209 46.9646 18.7159C47.6906 18.8559 48.4967 18.8559 49.2222 18.7159C51.8455 18.209 51.8455 16.3775 49.2222 15.8707C48.4967 15.7306 47.6906 15.7306 46.9646 15.8707Z" fill="#F1D87C"/>
<path d="M1.94629 59.9083V49.4819C1.94629 48.4067 2.81781 47.5352 3.89307 47.5352H86.6781V61.8545H3.89307C2.81781 61.8551 1.94629 60.9836 1.94629 59.9083Z" fill="white"/>
<path d="M3.89301 47.5361H88.6248V45.5898H3.89301C1.74304 45.5898 0 47.3329 0 49.4828V59.9087C0 62.0586 1.74304 63.8017 3.89301 63.8017H88.6248V61.8555H3.89301C2.8183 61.8555 1.94623 60.9839 1.94623 59.9092V49.4828C1.94623 48.4076 2.81775 47.5361 3.89301 47.5361Z" fill="#3C6177"/>
<path d="M3.89301 45.5898H44.3124V47.5361H3.89301C2.8183 47.5361 1.94623 48.4076 1.94623 49.4828V59.9092C1.94623 60.9839 2.81775 61.8555 3.89301 61.8555H44.3124V63.8017H3.89301C1.74304 63.8017 0 62.0586 0 59.9087V49.4828C0 47.3323 1.74304 45.5898 3.89301 45.5898Z" fill="#538294"/>
<path d="M86.6779 47.5352H42.4824V61.8546H86.6779V47.5352Z" fill="#DFDFE1"/>
<path opacity="0.2" d="M151.316 90.6215C151.069 90.0773 150.936 89.4881 150.924 88.89L150.703 77.7519H151.471C152.678 77.7519 153.656 76.7739 153.656 75.5674C153.656 74.3609 152.678 73.3828 151.471 73.3828H139.309C138.102 73.3828 137.124 74.3609 137.124 75.5674C137.124 76.7739 138.102 77.7519 139.309 77.7519H140.076L139.856 88.89C139.844 89.4881 139.711 90.0773 139.464 90.6215L126.329 119.554C125.191 122.061 127.024 124.905 129.776 124.905H152.68C153.859 124.504 154.708 123.391 154.708 122.076V98.0912L151.316 90.6215Z" fill="#454545"/>
<path opacity="0.2" d="M87.2373 118.068L65.4049 109.8C64.937 109.623 64.4136 109.859 64.2368 110.327L64.1473 110.563L59.1301 108.663L59.2197 108.426C59.397 107.959 59.1614 107.435 58.6936 107.258L58.0159 107.001C60.1477 96.4816 54.4167 85.6659 44.0524 81.7405C32.5337 77.3785 19.6591 83.1799 15.2971 94.6991C10.9352 106.218 16.7365 119.092 28.2557 123.454C38.62 127.379 50.0783 123.073 55.4491 113.78L56.1268 114.036C56.5947 114.214 57.1175 113.977 57.2948 113.51L57.3844 113.274L62.4015 115.174L62.312 115.41C62.1346 115.878 62.3702 116.401 62.8386 116.578L84.6711 124.846C85.139 125.023 85.6618 124.788 85.8392 124.32L87.7645 119.236C87.9408 118.768 87.7052 118.245 87.2373 118.068Z" fill="#454545"/>
<path d="M47.0389 124.01C59.2308 120.513 66.2794 107.795 62.7825 95.6031C59.2855 83.4112 46.5671 76.3626 34.3752 79.8595C22.1833 83.3565 15.1347 96.0749 18.6317 108.267C22.1287 120.459 34.847 127.507 47.0389 124.01Z" fill="#4E4E4E"/>
<path d="M56.7205 109.622C60.9702 100.779 57.2459 90.1645 48.4023 85.9149C39.5586 81.6652 28.9443 85.3895 24.6947 94.2332C20.445 103.077 24.1692 113.691 33.0129 117.941C41.8566 122.19 52.4709 118.466 56.7205 109.622Z" fill="#538294"/>
<path d="M55.6461 108.945C59.5184 100.704 55.977 90.8848 47.7362 87.0125C39.4953 83.1402 29.6757 86.6816 25.8034 94.9224C21.9311 103.163 25.4725 112.983 33.7133 116.855C41.9541 120.727 51.7738 117.186 55.6461 108.945Z" fill="white"/>
<path d="M63.0994 107.704L61.3008 112.453L69.4173 115.527L71.216 110.778L63.0994 107.704Z" fill="#538294"/>
<path d="M69.6339 109.896L67.6515 115.131C67.4691 115.613 67.7119 116.151 68.1935 116.334L90.6756 124.848C91.1578 125.03 91.6959 124.787 91.8788 124.306L93.8613 119.071C94.0436 118.589 93.8009 118.05 93.3193 117.868L70.8371 109.354C70.355 109.171 69.8162 109.414 69.6339 109.896Z" fill="#E1A051"/>
<path d="M59.7236 113.125L61.2827 113.715C61.7649 113.898 62.3031 113.655 62.4859 113.173L64.4684 107.938C64.6507 107.456 64.408 106.918 63.9264 106.735L62.3673 106.145L59.7236 113.125Z" fill="#454545"/>
<path d="M156.763 75.6679H144.062C142.803 75.6679 141.781 74.6465 141.781 73.3867C141.781 72.1269 142.803 71.1055 144.062 71.1055H156.763C158.023 71.1055 159.044 72.1269 159.044 73.3867C159.044 74.6465 158.023 75.6679 156.763 75.6679Z" fill="white"/>
<path d="M170.317 119.321L156.602 89.1076C156.343 88.5392 156.204 87.9236 156.191 87.2992L155.961 75.668H150.413H144.864L144.634 87.2992C144.622 87.9236 144.482 88.5387 144.223 89.1076L130.508 119.321C129.319 121.939 131.233 124.909 134.107 124.909H150.413H166.718C169.592 124.909 171.506 121.939 170.317 119.321Z" fill="white"/>
<path d="M153.962 90.4501C153.499 89.4298 153.252 88.3435 153.23 87.2205L153.06 78.625H147.765L147.595 87.2216C147.572 88.3435 147.326 89.4298 146.862 90.4506L133.629 119.631C133.137 120.716 133.93 121.946 135.121 121.946L165.713 121.935C166.904 121.934 167.696 120.704 167.204 119.62L153.962 90.4501Z" fill="#3C6177"/>
<path d="M158.11 99.5859H142.719L133.629 119.631C133.137 120.715 133.929 121.946 135.12 121.946H165.706C166.896 121.946 167.689 120.716 167.197 119.632L158.11 99.5859Z" fill="#538294"/>
<path d="M158.643 109.723C158.643 111.309 157.358 112.594 155.772 112.594C154.186 112.594 152.901 111.308 152.901 109.723C152.901 108.137 154.187 106.852 155.772 106.852C157.358 106.852 158.643 108.137 158.643 109.723Z" fill="#3C6177"/>
<path d="M151.597 118.606C152.317 118.606 152.902 118.022 152.902 117.301C152.902 116.58 152.317 115.996 151.597 115.996C150.876 115.996 150.292 116.58 150.292 117.301C150.292 118.022 150.876 118.606 151.597 118.606Z" fill="#3C6177"/>
</svg>
