<svg width="336" height="159" viewBox="0 0 336 159" fill="none" xmlns="http://www.w3.org/2000/svg">
<path d="M314.815 90.4453H249.916V129.295H314.815V90.4453Z" fill="white" stroke="#34508B" stroke-width="0.5" stroke-miterlimit="10" stroke-linecap="round" stroke-linejoin="round"/>
<path d="M293.649 102.532L295.344 100.989L294.88 98.7438L297.159 98.4923L298.102 96.4023L300.093 97.5398L302.085 96.4023L303.027 98.4927L305.306 98.7438L304.842 100.989L306.537 102.532L304.842 104.075L305.306 106.32L303.027 106.571L302.085 108.662L300.093 107.524L298.101 108.662L297.159 106.571L294.88 106.32L295.344 104.075L293.649 102.532Z" fill="#F7AB6F"/>
<path d="M293.649 102.532L295.344 100.989L294.88 98.7438L297.159 98.4923L298.102 96.4023L300.093 97.5398L302.085 96.4023L303.027 98.4927L305.306 98.7438L304.842 100.989L306.537 102.532L304.842 104.075L305.306 106.32L303.027 106.571L302.085 108.662L300.093 107.524L298.101 108.662L297.159 106.571L294.88 106.32L295.344 104.075L293.649 102.532Z" stroke="#34508B" stroke-width="0.5" stroke-miterlimit="10" stroke-linecap="round" stroke-linejoin="round"/>
<path d="M300.093 105.314C301.629 105.314 302.875 104.069 302.875 102.532C302.875 100.996 301.629 99.75 300.093 99.75C298.556 99.75 297.311 100.996 297.311 102.532C297.311 104.069 298.556 105.314 300.093 105.314Z" fill="#FF6AA9" stroke="#34508B" stroke-width="0.5" stroke-miterlimit="10" stroke-linecap="round" stroke-linejoin="round"/>
<path d="M279.172 96.4023H257.456V98.718H279.172V96.4023Z" fill="#34508B" stroke="#34508B" stroke-width="0.5" stroke-miterlimit="10" stroke-linecap="round" stroke-linejoin="round"/>
<path d="M279.172 102.535H257.456V104.851H279.172V102.535Z" fill="#34508B" stroke="#34508B" stroke-width="0.5" stroke-miterlimit="10" stroke-linecap="round" stroke-linejoin="round"/>
<path d="M257.456 114.055H307.276" stroke="#34508B" stroke-width="0.5" stroke-miterlimit="10" stroke-linecap="round" stroke-linejoin="round"/>
<path d="M286.357 117.227H307.275" stroke="#34508B" stroke-width="0.5" stroke-miterlimit="10" stroke-linecap="round" stroke-linejoin="round"/>
<path d="M286.357 120.281H307.275" stroke="#34508B" stroke-width="0.5" stroke-miterlimit="10" stroke-linecap="round" stroke-linejoin="round"/>
<path d="M286.357 123.34H307.275" stroke="#34508B" stroke-width="0.5" stroke-miterlimit="10" stroke-linecap="round" stroke-linejoin="round"/>
<path d="M323.307 146.344H11.9336V158.571H323.307V146.344Z" fill="white"/>
<path d="M225.824 72.7358C240.463 72.7358 252.33 60.8684 252.33 46.2292C252.33 31.59 240.463 19.7227 225.824 19.7227C211.185 19.7227 199.317 31.59 199.317 46.2292C199.317 60.8684 211.185 72.7358 225.824 72.7358Z" fill="#62C3EF" stroke="#34508B" stroke-width="0.5" stroke-miterlimit="10" stroke-linecap="round" stroke-linejoin="round"/>
<path d="M252.331 46.2292C252.331 31.5901 240.463 19.7227 225.824 19.7227C225.349 19.7227 224.877 19.7365 224.408 19.7615C222.155 23.7656 221.377 28.0205 219.948 32.3307C221.213 31.7743 222.828 32.1684 223.695 33.2447C224.562 34.321 224.602 35.9834 223.788 37.1004C222.762 38.5101 220.832 38.8254 219.289 39.638C216.538 41.0869 214.978 44.4931 215.677 47.5228C215.814 48.1127 216.026 48.6887 216.077 49.292C216.122 49.818 216.043 50.3533 216.137 50.8732C216.372 52.1798 217.694 53.0866 219.016 53.2081C220.338 53.3292 221.639 52.8205 222.802 52.1798C224.351 51.3273 226.01 50.1795 227.723 50.619C229.215 51.002 230.409 52.5517 231.931 52.3171C233.029 52.1479 233.738 51.1158 234.532 50.3391C235.326 49.562 236.714 49.024 237.468 49.8403C238.701 51.5657 239.316 53.7234 239.178 55.8398C239.127 56.6147 238.981 57.4037 239.161 58.1589C239.341 58.9142 239.981 59.6386 240.757 59.5882C242.542 59.4717 242.426 56.0056 244.209 55.8717C245.177 55.7991 245.856 56.9323 245.765 57.8986C245.674 58.8649 245.093 59.702 244.667 60.5742C243.92 62.1019 244.287 63.0133 245.22 64.2422C249.948 59.8105 252.331 52.5794 252.331 46.2292Z" fill="#A5D996" stroke="#34508B" stroke-width="0.5" stroke-miterlimit="10" stroke-linecap="round" stroke-linejoin="round"/>
<path d="M243.053 26.0898C247.022 30.7238 249.425 36.7391 249.425 43.3192C249.425 57.9583 237.558 69.8257 222.919 69.8257C216.339 69.8257 210.323 67.4228 205.689 63.4536C210.551 69.1293 217.765 72.7309 225.824 72.7309C240.463 72.7309 252.33 60.8634 252.33 46.2243C252.331 38.1653 248.729 30.9515 243.053 26.0898Z" fill="#34508B" stroke="#34508B" stroke-width="0.5" stroke-miterlimit="10" stroke-linecap="round" stroke-linejoin="round"/>
<path d="M219.184 128.724H116.06C112.392 128.724 109.419 125.751 109.419 122.083V51.0549C109.419 47.3873 112.392 44.4141 116.06 44.4141H219.184C222.851 44.4141 225.824 47.3873 225.824 51.0549V122.084C225.824 125.751 222.851 128.724 219.184 128.724Z" fill="#62C3EF" stroke="#34508B" stroke-width="0.5" stroke-miterlimit="10" stroke-linecap="round" stroke-linejoin="round"/>
<path d="M109.419 117.465V120.449C109.419 125.018 113.123 128.722 117.692 128.722H217.552C222.121 128.722 225.824 125.018 225.824 120.449V117.465H109.419Z" fill="#FBF8F3" stroke="#34508B" stroke-width="0.5" stroke-miterlimit="10" stroke-linecap="round" stroke-linejoin="round"/>
<path d="M220.076 50.1602H115.167V111.716H220.076V50.1602Z" fill="#FBF8F3"/>
<path d="M220.076 50.1602H115.167V111.716H220.076V50.1602Z" stroke="#34508B" stroke-width="0.5" stroke-miterlimit="10" stroke-linecap="round" stroke-linejoin="round"/>
<path d="M167.621 125.49C168.944 125.49 170.016 124.417 170.016 123.094C170.016 121.772 168.944 120.699 167.621 120.699C166.298 120.699 165.226 121.772 165.226 123.094C165.226 124.417 166.298 125.49 167.621 125.49Z" fill="#34508B"/>
<path d="M167.621 35.4102H128.231V99.6008H167.621V35.4102Z" fill="#F7AB6F" stroke="#34508B" stroke-width="0.5" stroke-miterlimit="10" stroke-linecap="round" stroke-linejoin="round"/>
<path d="M207.01 35.4102H167.621V99.6008H207.01V35.4102Z" fill="#F7AB6F" stroke="#34508B" stroke-width="0.5" stroke-miterlimit="10" stroke-linecap="round" stroke-linejoin="round"/>
<path d="M167.622 32.4531H132.544V96.0851H167.622V32.4531Z" fill="white" stroke="#34508B" stroke-width="0.5" stroke-miterlimit="10" stroke-linecap="round" stroke-linejoin="round"/>
<path d="M202.699 32.4531H167.621V96.0851H202.699V32.4531Z" fill="white" stroke="#34508B" stroke-width="0.5" stroke-miterlimit="10" stroke-linecap="round" stroke-linejoin="round"/>
<path d="M151.573 38.7539H138.301V57.1253H151.573V38.7539Z" fill="#3BDDBA" stroke="#34508B" stroke-width="0.5" stroke-miterlimit="10" stroke-linecap="round" stroke-linejoin="round"/>
<path d="M138.301 64.2695H161.607" stroke="#34508B" stroke-width="0.5" stroke-miterlimit="10" stroke-linecap="round" stroke-linejoin="round"/>
<path d="M138.301 70.5391H161.607" stroke="#34508B" stroke-width="0.5" stroke-miterlimit="10" stroke-linecap="round" stroke-linejoin="round"/>
<path d="M138.301 76.8047H161.607" stroke="#34508B" stroke-width="0.5" stroke-miterlimit="10" stroke-linecap="round" stroke-linejoin="round"/>
<path d="M138.301 83.0742H161.607" stroke="#34508B" stroke-width="0.5" stroke-miterlimit="10" stroke-linecap="round" stroke-linejoin="round"/>
<path d="M197.457 95.3664L188.433 33.1719H188.328V73.6504L168.285 95.3664H197.457Z" fill="#34508B"/>
<path d="M188.328 73.6515L167.621 96.0862V32.4543L188.328 10.0195V73.6515Z" fill="white" stroke="#34508B" stroke-width="0.5" stroke-miterlimit="10" stroke-linecap="round" stroke-linejoin="round"/>
<path d="M123.55 99.6016H211.692" stroke="#34508B" stroke-width="0.5" stroke-miterlimit="10" stroke-linecap="round" stroke-linejoin="round"/>
<path d="M148.261 33.7738V29.5824H146.056C145.727 27.6832 144.971 25.9313 143.89 24.4277L145.506 22.8116L142.542 19.8476L140.91 21.4799C139.416 20.429 137.682 19.6972 135.806 19.3811V17.0078H131.615V19.3811C129.752 19.6949 128.028 20.4194 126.54 21.4591L124.844 19.7626L121.88 22.7266L123.552 24.3985C122.482 25.8767 121.728 27.5971 121.386 29.4624H119.04V33.6538H121.321C121.613 35.5572 122.335 37.318 123.382 38.8381L121.795 40.425L124.759 43.389L126.302 41.8466C127.811 42.9549 129.578 43.7312 131.495 44.0735V46.2288H135.687V44.1162C137.626 43.8089 139.416 43.0556 140.951 41.967L142.458 43.4736L145.422 40.5096L143.919 39.0073C145.007 37.4811 145.763 35.7022 146.078 33.7738H148.261ZM142.054 30.8998H136.376C136.103 30.0308 135.417 29.3451 134.548 29.0721V23.3941C138.511 23.7871 141.661 26.9376 142.054 30.8998ZM132.872 23.3937V29.0717C132.003 29.3448 131.317 30.0304 131.044 30.8994H125.366C125.759 26.9376 128.909 23.7871 132.872 23.3937ZM125.366 32.5764H131.044C131.317 33.4454 132.003 34.131 132.872 34.404V40.0824C128.909 39.689 125.759 36.5386 125.366 32.5764ZM134.549 40.082V34.4037C135.418 34.1306 136.103 33.445 136.376 32.576H142.055C141.661 36.5386 138.511 39.689 134.549 40.082Z" fill="#DCDEE0" stroke="#34508B" stroke-width="0.5" stroke-miterlimit="10" stroke-linecap="round" stroke-linejoin="round"/>
<path d="M168.645 18.7419V15.2742H166.309C166.144 14.5712 165.876 13.9094 165.52 13.3034L167.153 11.6711L164.7 9.21893L163.093 10.8263C162.482 10.4506 161.812 10.1656 161.097 9.98722V7.72656H157.63V9.98722C156.915 10.1656 156.245 10.4506 155.634 10.8263L154.027 9.21893L151.574 11.6711L153.207 13.3034C152.851 13.9094 152.583 14.5708 152.418 15.2742H150.082V18.7419H152.471C152.651 19.4183 152.926 20.0539 153.284 20.6353L151.575 22.3445L154.027 24.7967L155.761 23.0625C156.338 23.4005 156.965 23.6581 157.63 23.8246V26.2894H161.098V23.8246C161.763 23.6585 162.39 23.4008 162.967 23.0625L164.701 24.7967L167.153 22.3445L165.444 20.6353C165.801 20.0535 166.077 19.4179 166.257 18.7419H168.645ZM159.364 19.1495C158.125 19.1495 157.12 18.1447 157.12 16.9057C157.12 15.6664 158.125 14.662 159.364 14.662C160.603 14.662 161.608 15.6664 161.608 16.9057C161.608 18.1451 160.603 19.1495 159.364 19.1495Z" fill="#DCDEE0" stroke="#34508B" stroke-width="0.5" stroke-miterlimit="10" stroke-linecap="round" stroke-linejoin="round"/>
<path d="M189.927 146.586H145.316V145.63C145.316 143.556 146.998 141.875 149.072 141.875H186.172C188.246 141.875 189.927 143.556 189.927 145.63L189.927 146.586Z" fill="#FBF8F3" stroke="#34508B" stroke-width="0.5" stroke-miterlimit="10" stroke-linecap="round" stroke-linejoin="round"/>
<path d="M177.975 128.723H157.269V141.874H177.975V128.723Z" fill="#FBF8F3" stroke="#34508B" stroke-width="0.5" stroke-miterlimit="10" stroke-linecap="round" stroke-linejoin="round"/>
<path d="M177.975 128.723H157.269V133.731H177.975V128.723Z" fill="#34508B" stroke="#34508B" stroke-width="0.5" stroke-miterlimit="10" stroke-linecap="round" stroke-linejoin="round"/>
<path d="M128.231 106.188H142.053" stroke="#34508B" stroke-width="0.5" stroke-miterlimit="10" stroke-linecap="round" stroke-linejoin="round"/>
<path d="M200.099 106.188H207.01" stroke="#34508B" stroke-width="0.5" stroke-miterlimit="10" stroke-linecap="round" stroke-linejoin="round"/>
<path d="M161.734 106.188H187.316" stroke="#34508B" stroke-width="0.5" stroke-miterlimit="10" stroke-linecap="round" stroke-linejoin="round"/>
<path d="M0.25 146.582H334.993" stroke="#34508B" stroke-width="0.5" stroke-miterlimit="10" stroke-linecap="round" stroke-linejoin="round"/>
<path d="M102.153 86.5703H95.127" stroke="#F7AB6F" stroke-width="0.5" stroke-miterlimit="10" stroke-linecap="round" stroke-linejoin="round"/>
<path d="M101.123 77.8783L96.1553 72.9102" stroke="#F7AB6F" stroke-width="0.5" stroke-miterlimit="10" stroke-linecap="round" stroke-linejoin="round"/>
<path d="M96.1553 100.226L101.123 95.2578" stroke="#F7AB6F" stroke-width="0.5" stroke-miterlimit="10" stroke-linecap="round" stroke-linejoin="round"/>
<path d="M248.091 21.2494L253.059 16.2812" stroke="#F7AB6F" stroke-width="0.5" stroke-miterlimit="10" stroke-linecap="round" stroke-linejoin="round"/>
<path d="M254.962 26.6641H261.988" stroke="#F7AB6F" stroke-width="0.5" stroke-miterlimit="10" stroke-linecap="round" stroke-linejoin="round"/>
<path d="M242.674 7.35156V14.3773" stroke="#F7AB6F" stroke-width="0.5" stroke-miterlimit="10" stroke-linecap="round" stroke-linejoin="round"/>
<path d="M237.681 46.9062C237.681 46.9062 240.196 47.4284 240.675 50.1613" stroke="#34508B" stroke-width="0.5" stroke-miterlimit="10" stroke-linecap="round" stroke-linejoin="round"/>
<path d="M226.901 38.5208C226.901 38.5208 228.458 35.886 227.5 34.0898" stroke="#34508B" stroke-width="0.5" stroke-miterlimit="10" stroke-linecap="round" stroke-linejoin="round"/>
<path d="M247.95 139.879H235.658C234.03 139.879 232.71 141.199 232.71 142.827V146.586H250.674V142.603C250.674 141.098 249.454 139.879 247.95 139.879Z" fill="white" stroke="#34508B" stroke-width="0.5" stroke-miterlimit="10" stroke-linecap="round" stroke-linejoin="round"/>
<path d="M246.084 139.879H237.302V143.232H246.084V139.879Z" fill="#62C3EF" stroke="#34508B" stroke-width="0.5" stroke-miterlimit="10" stroke-linecap="round" stroke-linejoin="round"/>
<path d="M243.035 138.199H240.35V139.876H243.035V138.199Z" fill="#34508B" stroke="#34508B" stroke-width="0.5" stroke-miterlimit="10" stroke-linecap="round" stroke-linejoin="round"/>
<path d="M123.55 58.7617H122.012" stroke="#34508B" stroke-width="0.5" stroke-linecap="round" stroke-linejoin="round"/>
<path d="M118.972 58.7617H81.3944C66.9314 58.7617 55.207 70.4861 55.207 84.9491V89.8269" stroke="#34508B" stroke-width="0.5" stroke-linecap="round" stroke-linejoin="round" stroke-dasharray="7.9 7.9"/>
<path d="M55.208 91.3477V92.8858" stroke="#34508B" stroke-width="0.5" stroke-linecap="round" stroke-linejoin="round"/>
<path d="M28.7803 122.973H92.2526" stroke="#34508B" stroke-width="0.5" stroke-miterlimit="10" stroke-linecap="round" stroke-linejoin="round"/>
<path d="M78.2807 104.907V102.512H37.403C34.4929 102.512 32.1338 104.871 32.1338 107.781C32.1338 110.691 34.4929 113.05 37.403 113.05H78.2807V110.655H39.5587V104.907H78.2807V104.907Z" fill="#FFD3A2" stroke="#34508B" stroke-width="0.5" stroke-miterlimit="10" stroke-linecap="round" stroke-linejoin="round"/>
<path d="M75.2466 104.91H39.5586V110.659H75.2466V104.91Z" stroke="#34508B" stroke-width="0.5" stroke-miterlimit="10" stroke-linecap="round" stroke-linejoin="round"/>
<path d="M75.2466 107.781H39.5586" stroke="#34508B" stroke-width="0.5" stroke-miterlimit="10" stroke-linecap="round" stroke-linejoin="round"/>
<path d="M42.5526 104.91H39.5586V110.659H42.5526V104.91Z" fill="#34508B" stroke="#34508B" stroke-width="0.5" stroke-miterlimit="10" stroke-linecap="round" stroke-linejoin="round"/>
<path d="M78.281 120.089H37.4033L39.559 118.013L37.4033 115.938H78.281V120.089Z" fill="white" stroke="#34508B" stroke-width="0.5" stroke-miterlimit="10" stroke-linecap="round" stroke-linejoin="round"/>
<path d="M52.5723 118.012H63.5899" stroke="#34508B" stroke-width="0.5" stroke-miterlimit="10" stroke-linecap="round" stroke-linejoin="round"/>
<path d="M81.3042 113.055H37.4033V115.94H78.281V120.092H37.4033V122.977H81.3042C84.044 122.977 86.265 120.756 86.265 118.016C86.265 115.276 84.044 113.055 81.3042 113.055Z" fill="#FF9F9E" stroke="#34508B" stroke-width="0.5" stroke-miterlimit="10" stroke-linecap="round" stroke-linejoin="round"/>
<path d="M52.5726 124.549L49.6982 122.593L46.8242 124.549V115.938H52.5726V124.549Z" fill="#3BDDBA" stroke="#34508B" stroke-width="0.5" stroke-miterlimit="10" stroke-linecap="round" stroke-linejoin="round"/>
<path d="M202.698 128.723V146.585" stroke="#34508B" stroke-width="0.5" stroke-miterlimit="10" stroke-linecap="round" stroke-linejoin="round"/>
<path d="M208.579 128.723V146.585" stroke="#34508B" stroke-width="0.5" stroke-miterlimit="10" stroke-linecap="round" stroke-linejoin="round"/>
<path d="M212.002 75.3906H263.127C269.803 75.3906 275.215 80.8025 275.215 87.4788V92.8807" stroke="#34508B" stroke-width="0.5" stroke-miterlimit="10" stroke-linecap="round" stroke-linejoin="round" stroke-dasharray="8 8"/>
<path d="M89.0344 35.2799L80.4755 38.1978C74.7806 40.1393 68.7177 40.1393 63.0228 38.1978L54.4639 35.2799L58.6026 18.4844H84.8953L89.0344 35.2799Z" fill="#62C3EF" stroke="#34508B" stroke-width="0.5" stroke-miterlimit="10" stroke-linecap="round" stroke-linejoin="round"/>
<path d="M88.7769 20.729L71.7486 15.3359L54.7204 20.729H47.1582V23.1242L71.7486 30.9126L96.3391 23.1242V20.729H88.7769Z" fill="#34508B" stroke="#34508B" stroke-width="0.5" stroke-miterlimit="10" stroke-linecap="round" stroke-linejoin="round"/>
<path d="M71.7486 12.9375L47.1582 20.7258L71.7486 28.5145L96.3391 20.7258L71.7486 12.9375Z" fill="#62C3EF" stroke="#34508B" stroke-width="0.5" stroke-miterlimit="10" stroke-linecap="round" stroke-linejoin="round"/>
<path d="M55.0703 32.8231L63.0232 35.5344C68.7181 37.4759 74.781 37.4759 80.4759 35.5344L88.4292 32.8231L87.792 30.2383L80.4759 32.7327C74.781 34.6742 68.7181 34.6742 63.0232 32.7327L55.7071 30.2383L55.0703 32.8231Z" fill="#FFFAAD" stroke="#34508B" stroke-width="0.5" stroke-miterlimit="10" stroke-linecap="round" stroke-linejoin="round"/>
<path d="M71.749 20.7266L83.2857 24.8611V41.6593" stroke="#34508B" stroke-width="0.5" stroke-miterlimit="10" stroke-linecap="round" stroke-linejoin="round"/>
<path d="M83.2853 41.9495C84.1785 41.9495 84.9027 41.2254 84.9027 40.3322C84.9027 39.4389 84.1785 38.7148 83.2853 38.7148C82.3921 38.7148 81.668 39.4389 81.668 40.3322C81.668 41.2254 82.3921 41.9495 83.2853 41.9495Z" fill="#34508B" stroke="#34508B" stroke-width="0.5" stroke-miterlimit="10" stroke-linecap="round" stroke-linejoin="round"/>
<path d="M83.2859 40.332C83.2859 40.332 80.8906 42.4966 80.8906 46.4888H83.2859H85.6811C85.6811 42.4966 83.2859 40.332 83.2859 40.332Z" fill="#34508B" stroke="#34508B" stroke-width="0.5" stroke-miterlimit="10" stroke-linecap="round" stroke-linejoin="round"/>
<path d="M46.8245 27.0084C52.7499 27.0084 57.5534 22.205 57.5534 16.2796C57.5534 10.3542 52.7499 5.55078 46.8245 5.55078C40.8992 5.55078 36.0957 10.3542 36.0957 16.2796C36.0957 22.205 40.8992 27.0084 46.8245 27.0084Z" fill="white" stroke="#34508B" stroke-width="0.5" stroke-miterlimit="10" stroke-linecap="round" stroke-linejoin="round"/>
<path d="M55.5851 32.7188L54.1354 29.2116H46.5365L45.0869 32.7188H41.2056L48.5005 16.3518H52.2416L59.5599 32.7188H55.5851ZM47.7523 26.3357H52.943L50.3477 20.0695L47.7523 26.3357ZM53.9952 52.109V54.9616H49.9268V58.9364H46.9106V54.9616H42.8657V52.109H46.9106V48.1342H49.9268V52.109H53.9952Z" fill="#34508B"/>
<path d="M46.8243 29.9298C54.3643 29.9298 60.4767 23.8174 60.4767 16.2774C60.4767 8.7374 54.3643 2.625 46.8243 2.625C39.2843 2.625 33.1719 8.7374 33.1719 16.2774C33.1719 23.8174 39.2843 29.9298 46.8243 29.9298Z" stroke="#34508B" stroke-width="0.5" stroke-miterlimit="10" stroke-linecap="round" stroke-linejoin="round"/>
<path d="M304.305 22.3164H273.807V61.5975H304.305V22.3164Z" fill="white" stroke="#34508B" stroke-width="0.5" stroke-miterlimit="10" stroke-linecap="round" stroke-linejoin="round"/>
<path d="M300.893 25.4297H270.889V63.273H300.893V25.4297Z" fill="#FF6AA9" stroke="#34508B" stroke-width="0.5" stroke-miterlimit="10" stroke-linecap="round" stroke-linejoin="round"/>
<path d="M300.893 35.4102H283.748V41.1589H300.893V35.4102Z" fill="#3BDDBA" stroke="#34508B" stroke-width="0.5" stroke-miterlimit="10" stroke-linecap="round" stroke-linejoin="round"/>
<path d="M258.475 54.1719H260.013" stroke="#34508B" stroke-width="0.5" stroke-linecap="round" stroke-linejoin="round"/>
<path d="M263.184 54.1719H280.624" stroke="#34508B" stroke-width="0.5" stroke-linecap="round" stroke-linejoin="round" stroke-dasharray="8.25 8.25"/>
<path d="M282.21 54.1719H283.748" stroke="#34508B" stroke-width="0.5" stroke-linecap="round" stroke-linejoin="round"/>
<path d="M65.042 5.55078H66.5801" stroke="#34508B" stroke-width="0.5" stroke-linecap="round" stroke-linejoin="round"/>
<path d="M69.5381 5.55078H139.041" stroke="#34508B" stroke-width="0.5" stroke-linecap="round" stroke-linejoin="round" stroke-dasharray="7.69 7.69"/>
<path d="M140.521 5.55078H142.059V7.08891" stroke="#34508B" stroke-width="0.5" stroke-linecap="round" stroke-linejoin="round"/>
<path d="M142.059 9.10156V12.119" stroke="#34508B" stroke-width="0.5" stroke-linecap="round" stroke-linejoin="round" stroke-dasharray="5.23 5.23"/>
<path d="M142.059 13.1211V14.6592" stroke="#34508B" stroke-width="0.5" stroke-linecap="round" stroke-linejoin="round"/>
<path d="M208.383 5.55078H230.469L206.757 10.9358L208.383 5.55078Z" fill="white" stroke="#34508B" stroke-width="0.5" stroke-miterlimit="10" stroke-linecap="round" stroke-linejoin="round"/>
<path d="M208.383 10.9358L210.096 12.6489L230.469 5.55078L208.383 10.9358Z" fill="white" stroke="#34508B" stroke-width="0.5" stroke-miterlimit="10" stroke-linecap="round" stroke-linejoin="round"/>
<path d="M289.692 0.25H267.605L291.318 5.6346L289.692 0.25Z" fill="white" stroke="#34508B" stroke-width="0.5" stroke-miterlimit="10" stroke-linecap="round" stroke-linejoin="round"/>
<path d="M289.692 5.6346L287.978 7.34807L267.605 0.25L289.692 5.6346Z" fill="white" stroke="#34508B" stroke-width="0.5" stroke-miterlimit="10" stroke-linecap="round" stroke-linejoin="round"/>
</svg>
