<svg width="176" height="149" viewBox="0 0 176 149" fill="none" xmlns="http://www.w3.org/2000/svg">
<path d="M144.797 40.25H30.8389V147.664H144.797V40.25Z" fill="#F8E6D5"/>
<path d="M175.069 69.582H144.797V147.664H175.069V69.582Z" fill="#E2B691"/>
<path d="M30.8397 69.582H0.567383V147.664H30.8397V69.582Z" fill="#E2B691"/>
<path d="M87.8183 0.152344L30.8389 40.2489H144.797L87.8183 0.152344Z" fill="#E2B691"/>
<path d="M64.1689 29.6964L87.8188 13.0547L111.468 29.6964H64.1689Z" fill="#F8E6D5"/>
<path d="M13.9577 85.1523H0.567383V90.6541H13.9577V85.1523Z" fill="#F8E6D5"/>
<path d="M175.07 85.1523H161.68V90.6541H175.07V85.1523Z" fill="#F8E6D5"/>
<path d="M13.9577 94.9062H0.567383V100.408H13.9577V94.9062Z" fill="#F8E6D5"/>
<path d="M175.07 94.9062H161.68V100.408H175.07V94.9062Z" fill="#F8E6D5"/>
<path d="M64.3226 147.663H39.4961V70.251C39.4961 68.9326 40.5654 67.8633 41.8839 67.8633H61.9357C63.2541 67.8633 64.3235 68.9317 64.3235 70.251V147.663H64.3226Z" fill="#CA7A49"/>
<path d="M64.3222 147.664H82.0554V86.212C82.0554 84.8935 80.9861 83.8242 79.6676 83.8242H66.7091C65.3906 83.8242 64.3213 84.8926 64.3213 86.212V147.664H64.3222Z" fill="#725849"/>
<path d="M113.089 147.662H82.0557V62.2706C82.0557 60.9521 83.125 59.8828 84.4434 59.8828H110.702C112.02 59.8828 113.09 60.9512 113.09 62.2706L113.089 147.662Z" fill="#CA7A49"/>
<path d="M120.479 147.664L140.008 145.52L132.72 79.1469C132.576 77.8364 131.397 76.8903 130.085 77.0339L115.303 78.6574C113.993 78.8011 113.047 79.9803 113.19 81.2917L120.479 147.664Z" fill="#725849"/>
<path d="M39.338 79.3555C47.1521 80.9284 55.2402 81.127 63.1217 79.9389C63.4941 79.883 63.949 79.8547 64.1707 80.1597C64.2673 80.2918 64.2948 80.4611 64.3178 80.6234C64.512 82.0021 64.5573 83.4022 64.4509 84.7907C58.622 88.1405 51.4019 87.3797 44.7342 86.517C43.3528 86.3388 40.793 86.1553 39.8407 84.945C38.8938 83.7409 39.3141 80.8344 39.338 79.3555Z" fill="#E2B691"/>
<path d="M39.5969 129.598C47.3579 132.398 55.9451 132.862 63.9632 130.916C64.3941 133.025 64.4527 135.21 64.1361 137.34C64.0093 138.192 57.4498 138.917 56.5942 139.01C53.9147 139.299 51.2015 139.283 48.5256 138.963C46.2034 138.685 42.8793 138.38 40.8382 137.152C38.7998 135.926 39.4036 131.879 39.5969 129.598Z" fill="#E2B691"/>
<path d="M89.5254 74.773C89.4873 76.5791 90.0051 78.3666 90.8066 79.9857C91.4344 81.2536 92.2661 82.463 93.44 83.2521C94.8534 84.2009 96.6204 84.4509 98.3219 84.4917C99.1918 84.5121 100.074 84.4837 100.911 84.2479C102.732 83.7345 104.185 82.2555 104.958 80.5283C105.731 78.8011 105.884 76.8496 105.718 74.9645C105.52 72.7 104.839 70.4115 103.369 68.6772C98.4718 62.8989 89.6655 68.0965 89.5254 74.773Z" fill="#E2B691"/>
<path d="M93.5439 141.836C94.6363 142.592 95.883 143.109 97.1704 143.438C102.039 144.683 105.525 140.622 105.698 136.06C105.847 132.125 104.971 128.344 101.292 126.277C98.394 124.647 94.5858 124.709 92.3008 127.352C88.5512 131.691 88.5698 138.391 93.5439 141.836Z" fill="#E2B691"/>
<path d="M39.241 96.0703C46.7271 100.124 56.0769 100.547 63.8973 97.184C64.572 103.986 64.6261 110.848 64.0604 117.66C64.0223 118.118 63.9664 118.612 63.6579 118.951C63.3945 119.241 62.9982 119.363 62.6196 119.464C57.2278 120.907 51.4317 120.749 46.1064 119.098C44.1948 118.505 40.2714 117.534 39.4468 115.475C38.6035 113.37 39.3421 109.673 39.3253 107.42C39.2978 103.636 39.2694 99.8537 39.241 96.0703Z" fill="#E2B691"/>
<path d="M63.8405 29.5274C63.8006 29.5682 63.7616 29.6081 63.7217 29.6489C65.9268 29.7908 68.1275 29.945 70.337 29.945C72.246 30.0275 74.155 30.1011 76.064 30.1534C80.0956 30.2634 84.1281 30.3166 88.1616 30.3174C92.2694 30.3183 96.3782 30.2793 100.485 30.1818C102.539 30.133 104.592 30.0692 106.645 29.9885C107.671 29.9486 108.697 29.9034 109.722 29.8546C110.236 29.8298 110.75 29.8032 111.263 29.7775C111.392 29.7713 112.336 29.6232 112.344 29.6321C111.219 28.4572 109.896 27.559 108.581 26.6041C101.882 21.7399 95.0678 17.022 87.994 12.7164C87.9044 12.6623 87.8264 12.6915 87.767 12.7438C87.7528 12.7501 87.7395 12.7501 87.7262 12.7598C80.7358 17.2233 73.8207 21.8011 67.1211 26.6928C65.9525 27.5457 64.853 28.4936 63.8405 29.5274ZM88.0303 13.3273C88.0525 13.3131 88.0658 13.2945 88.0826 13.2776C91.4777 15.575 94.9339 17.7889 98.2429 20.2051C101.471 22.5636 104.607 25.048 107.904 27.3134C108.727 27.8791 109.56 28.4306 110.405 28.9626C110.505 29.0256 109.605 29.0939 109.559 29.093C109.108 29.0903 108.653 29.1258 108.202 29.1462C107.22 29.1905 106.238 29.2331 105.255 29.2738C103.334 29.3528 101.413 29.4219 99.4913 29.4795C95.6467 29.5948 91.8013 29.664 87.955 29.6684C84.0005 29.6728 80.0468 29.625 76.0932 29.5274C74.0477 29.4769 72.0022 29.4246 69.9575 29.3528C68.2605 29.2934 66.5679 29.2242 64.877 29.1816C65.0978 29.1869 65.6617 28.6372 65.8567 28.5211C67.3428 27.6344 68.6222 26.4294 70.0427 25.4257C76.0702 21.4092 81.9026 17.1869 88.0303 13.3273Z" fill="#574338"/>
<path d="M175.538 87.1403C175.503 81.4018 175.643 75.6332 175.382 69.9001C175.37 69.6376 175.043 69.6279 174.958 69.8318C172.622 69.4319 170.073 69.6004 167.705 69.5348C165.142 69.4638 162.578 69.4053 160.013 69.3601C154.978 69.2714 149.921 69.1367 144.891 69.4142C144.893 66.5317 144.896 63.65 144.899 60.7675C144.904 56.5576 144.908 56.7811 144.896 52.5712C144.883 48.4535 144.602 44.2526 144.884 40.1491C144.891 40.064 144.895 39.9762 144.866 39.8955C144.834 39.806 144.764 39.7359 144.695 39.6685C143.024 38.0167 140.924 36.7461 139.016 35.3753C132.118 30.4189 125.188 25.5077 118.227 20.6417C114.746 18.2087 111.257 15.7881 107.76 13.3782C103.304 10.3077 98.8472 7.24872 94.3474 4.23762C92.2691 2.84734 90.0586 1.6007 88.1089 0.0587987C88.0707 0.0286523 88.0282 -0.00327586 87.9794 0.000270782C87.9431 0.00293076 87.9112 0.0242196 87.881 0.0454994C87.0431 0.636901 86.2052 1.2283 85.3682 1.82059C78.5143 6.65998 71.5079 11.2857 64.5778 16.0267C57.6477 20.7685 50.7637 25.5786 43.9577 30.4969C41.5752 32.2179 39.1848 33.9274 36.813 35.6626C34.9067 37.0582 33.0048 38.4467 31.0727 39.8042C30.9912 39.8609 30.9061 39.9239 30.867 40.0152C30.8387 40.0817 30.8387 40.1562 30.8387 40.228C30.8413 41.9889 30.9566 43.7347 30.9256 45.501C30.8927 47.3904 30.875 49.2799 30.8635 51.1694C30.8413 54.9483 30.8475 54.2949 30.8236 58.0738C30.7988 62.0088 30.7739 65.9429 30.7491 69.8779C25.6322 69.8229 20.5171 69.7174 15.401 69.6039C10.4668 69.494 5.49793 69.5676 0.580519 69.1012C0.337575 69.0781 0.313633 69.4337 0.547711 69.4736C5.37114 70.2991 10.3542 70.1944 15.2335 70.3221C20.3849 70.456 25.5373 70.5846 30.6897 70.6635C30.7092 70.6635 30.7243 70.6555 30.7429 70.6537C30.7234 73.6808 30.7048 76.707 30.6853 79.734C30.5939 94.1786 30.4982 108.623 30.4033 123.068C30.351 131.041 30.3129 139.014 30.2756 146.988C20.5162 146.918 10.7532 146.836 0.995478 146.942C0.859819 126.888 0.951142 106.837 0.964442 86.783C0.967988 81.0924 0.965332 75.4053 0.909472 69.7157C0.906812 69.4789 0.54417 69.4399 0.537077 69.6828C-0.0968848 89.8198 -0.0153114 109.982 0.0307949 130.128C0.0405481 135.891 0.0760071 141.656 0.081327 147.419C0.081327 147.489 0.083995 147.565 0.128328 147.619C0.185961 147.688 0.288804 147.692 0.379243 147.691C3.01439 147.642 5.62827 147.651 8.26077 147.691C10.8924 147.731 13.524 147.764 16.1556 147.791C28.88 147.923 41.5921 147.922 54.3209 147.95C56.1218 147.954 57.9226 147.959 59.7234 147.964C60.6233 147.967 61.5242 147.97 62.4241 147.973C62.7921 147.974 64.7215 147.742 64.9316 147.983C64.9848 148.044 65.0336 148.032 65.0761 147.984C66.1401 147.988 67.2041 147.991 68.2681 147.997C90.9205 148.12 113.573 148.241 136.226 148.362C149.049 148.431 161.874 148.457 174.696 148.636C174.941 148.64 175.106 148.499 175.184 148.32C175.312 148.26 175.414 148.139 175.415 147.963C175.526 127.69 175.661 107.409 175.538 87.1403ZM32.0215 39.8406C32.0587 39.8157 32.0915 39.7829 32.1234 39.7519C32.1598 39.7155 32.1766 39.6659 32.1802 39.6144C46.6717 29.448 61.0028 19.0768 75.716 9.22597C79.9037 6.42236 84.1021 3.63292 88.3447 0.91265C102.944 11.0888 117.696 21.0354 132.186 31.3694C136.046 34.1216 139.892 36.8915 143.732 39.6721C129.178 39.9673 114.62 39.9629 100.064 39.9567C85.245 39.9505 70.4253 39.8716 55.6066 39.8237C47.7561 39.798 39.8648 39.5692 32.0161 39.8423C32.0188 39.8414 32.0197 39.8414 32.0215 39.8406ZM39.8391 147.045C39.8879 143.606 39.9251 140.334 39.9544 137.189C43.5489 138.896 47.7614 139.581 51.7026 139.705C55.9054 139.836 60.1011 139.203 64.0848 137.868C64.2489 143.371 64.475 145.989 64.6833 147.158C56.4019 147.12 48.1205 147.082 39.8391 147.045ZM44.7734 87.1022C46.9564 87.3894 49.1659 87.5153 51.3657 87.5579C55.7148 87.6421 60.0896 87.1855 64.1301 85.5133C64.0645 89.1885 63.9758 93.6475 63.9279 99.3717C63.8109 113.479 63.8339 123.547 63.9341 130.718C60.0035 131.839 55.6598 131.775 51.5971 131.759C47.6497 131.744 43.6003 131.295 40.0094 129.555C40.1175 108.295 39.8055 94.3479 39.6689 85.2083C41.0751 86.4389 42.9566 86.8628 44.7734 87.1022ZM39.6627 84.7569C39.6334 82.7655 39.6139 81.0028 39.6095 79.452C41.4449 80.2199 43.6323 80.5081 45.59 80.7271C47.6293 80.9549 49.6819 81.0427 51.7328 81.0436C55.9019 81.0454 60.0576 80.6703 64.2054 80.2802C64.1948 81.6217 64.1735 83.0767 64.1451 84.6816C60.2687 86.3556 56.0686 86.8495 51.8755 86.8175C49.705 86.8007 47.5212 86.6668 45.3586 86.4841C43.3326 86.313 41.4635 85.9264 39.7611 84.7764C39.7292 84.7543 39.6964 84.7569 39.6627 84.7569ZM51.0749 132.476C55.2652 132.568 59.9255 132.701 63.9448 131.362C63.9776 133.572 64.0192 135.481 64.0653 137.155C60.086 138.515 55.9036 139.161 51.6973 139.034C47.6089 138.911 43.8273 137.913 39.958 136.72C39.9792 134.409 39.9961 132.156 40.0076 129.996C43.4292 131.851 47.2215 132.391 51.0749 132.476ZM52.2808 80.2891C50.2246 80.3086 48.1675 80.2376 46.1211 80.0302C43.9258 79.8076 41.788 79.2685 39.6095 79.0025C39.6015 66.0945 40.787 68.0869 47.2401 67.8412C52.6656 67.6347 58.1832 67.9131 63.6406 68.5789C64.1061 72.1291 64.2258 75.2803 64.209 79.5079C60.2429 79.8856 56.2681 80.2518 52.2808 80.2891ZM81.584 147.235C76.1301 147.211 70.6763 147.186 65.2224 147.161C64.7755 133.69 64.5202 120.209 64.623 106.73C64.6727 100.279 64.7915 93.8248 65.1072 87.3806C65.1533 86.4451 64.8323 84.9946 65.4565 84.3101C65.8945 83.8295 66.6322 83.8118 67.2821 83.8286C70.3881 83.9111 73.4737 83.9377 76.5743 84.0618C84.1473 84.3642 81.4802 78.5166 81.584 147.235ZM106.375 147.348C98.3888 147.311 90.4018 147.275 82.4156 147.239C83.0868 57.0701 80.8108 60.2718 84.8859 60.0573C87.3632 59.9269 89.4619 59.6893 91.9641 59.9837C95.5559 60.4057 99.1646 59.9535 102.764 59.9048C104.58 59.8799 106.312 60.1069 108.11 60.2718C109.031 60.3561 111.003 60.2328 111.593 61.1886C113.422 64.1554 112.466 138.147 112.197 147.343C112.197 147.345 112.199 147.36 112.202 147.381C110.259 147.371 108.317 147.357 106.375 147.348ZM112.68 147.383C113.159 144.934 113.767 133.457 113.359 88.2584C113.224 73.2561 116.813 126.222 120.147 147.426C117.658 147.411 115.169 147.398 112.68 147.383ZM113.936 84.6018C113.794 83.2656 113.169 81.6403 113.828 80.3635C114.931 78.2293 118.963 78.4776 120.932 78.2391C123.098 77.9767 125.263 77.7195 127.444 77.4642C128.189 77.3773 129.026 77.1379 129.778 77.2567C130.662 77.3977 131.349 77.4296 131.873 78.2976C132.222 78.8766 132.348 79.5593 132.455 80.227C132.931 83.1982 133.06 86.2057 133.458 89.1876C133.952 92.8317 134.341 96.4883 134.754 100.141C136.09 111.945 137.295 123.765 138.516 135.58C138.836 138.678 139.157 141.776 139.477 144.874C139.051 144.843 120.529 147.392 120.439 147.414C120.117 141.912 114.838 93.0525 113.936 84.6018ZM144.218 79.7544C144.193 94.191 144.168 108.628 144.139 123.064C144.123 131.229 144.106 139.396 144.09 147.561C138.145 147.532 132.199 147.499 126.254 147.462C130.928 146.823 135.458 145.766 140.166 145.454C140.221 145.451 138.632 129.168 138.514 128.09C138.048 123.834 137.556 119.581 137.052 115.331C136.549 111.079 136.032 106.829 135.508 102.581C135.01 98.548 134.73 94.5536 134.166 90.5238C133.881 88.4933 133.831 86.4141 133.555 84.3668C133.307 82.5234 133.32 80.4203 132.705 78.6594C131.827 76.1413 128.456 76.4037 126.319 76.5908C123.12 76.871 119.949 77.5058 116.807 78.1513C115.516 78.4164 113.951 78.7135 113.275 79.8812C113.565 79.3802 113.256 77.7834 113.253 77.1796C113.248 76.3603 113.247 75.541 113.246 74.7217C113.245 73.2552 113.25 71.7887 113.247 70.3221C113.242 67.6107 113.491 64.761 113.165 62.078C113.031 60.9732 112.078 59.9748 111.046 59.5687C110.486 59.3488 109.878 59.2868 109.279 59.2274C107.818 59.0819 106.316 58.8301 104.861 58.9002C103.304 58.9747 101.742 59.1609 100.173 59.1449C82.9494 58.9747 82.35 59.2726 82.0237 61.6329C81.8296 63.0426 81.6309 84.6115 81.6301 84.7162C80.2761 83.1344 78.4682 83.505 69.8011 83.2239C69.1335 83.2026 65.9309 82.895 64.9671 83.8091C65.0921 78.576 65.1763 73.3279 64.4094 68.1365C64.217 66.8358 47.7357 67.1089 43.8185 67.3917C38.4524 67.7801 39.2229 68.2553 39.1502 80.6792C38.8514 131.972 39.4073 144.661 39.6875 147.045C39.2797 147.043 38.8718 147.041 38.4631 147.039C35.9689 147.028 33.4738 147.01 30.9796 146.992C31.1481 118.26 31.2403 89.5272 31.3618 60.795C31.3964 52.5331 31.5542 48.6947 31.3786 40.4337C31.3778 40.4036 31.3591 40.3867 31.3449 40.3663C31.3494 40.3548 31.3538 40.3433 31.3591 40.3317C31.3644 40.3184 31.3707 40.3052 31.3777 40.2927C31.3795 40.2892 31.3973 40.2573 31.3857 40.2768C31.4017 40.2493 31.4203 40.2236 31.4398 40.1979C31.4469 40.189 31.454 40.1801 31.4611 40.1722C38.5952 40.5313 45.7815 40.3894 52.9236 40.439C60.3112 40.4905 67.6989 40.5419 75.0856 40.5924C89.8707 40.6935 104.656 40.8504 119.441 40.8256C127.766 40.8114 136.09 40.7503 144.421 40.6332C144.174 55.1478 144.245 65.2362 144.218 79.7544ZM174.738 85.0823C174.693 90.1629 174.696 95.2435 174.692 100.325C174.684 110.32 174.676 120.316 174.669 130.312C174.665 136.073 174.658 141.835 174.673 147.596C164.721 147.637 154.768 147.61 144.816 147.563C144.838 121.654 144.865 95.7426 144.891 69.8327C149.903 70.0925 154.929 70.0632 159.947 70.167C162.444 70.2184 164.941 70.2822 167.437 70.3585C169.878 70.4321 172.474 70.7867 174.905 70.5624C174.709 75.3947 174.782 80.2474 174.738 85.0823Z" fill="#574338"/>
<path d="M105.765 72.1935C101.707 58.2268 82.0321 69.4253 91.3092 81.4936C97.6497 89.7431 109.222 84.0889 105.765 72.1935ZM103.135 82.7235C98.0398 87.2853 89.0066 81.5433 90.1841 73.6219C90.7515 69.8022 93.8459 66.9108 97.7446 66.823C106.318 66.6306 107.086 79.1848 103.135 82.7235Z" fill="#574338"/>
<path d="M105.765 131.162C101.707 117.196 82.0321 128.394 91.3092 140.462C97.6497 148.712 109.222 143.058 105.765 131.162ZM103.135 141.691C98.0398 146.253 89.0066 140.511 90.1841 132.59C90.7515 128.77 93.8459 125.879 97.7446 125.791C106.318 125.599 107.086 138.154 103.135 141.691Z" fill="#574338"/>
<path d="M99.852 101.827C98.991 100.495 98.1159 99.2819 96.0269 97.928C97.2062 96.2353 99.1799 93.6082 100.544 92.5752C102.928 90.7691 104.04 94.1774 103.763 92.7596C103.515 91.4882 102.175 91.0555 101.029 91.4146C98.8332 92.1026 96.5492 95.5792 95.275 97.4767C93.992 96.778 92.5867 96.3471 91.2336 96.4765C84.6378 97.1043 90.1076 106.414 95.2502 99.0452C95.8123 98.2392 98.3083 101.28 98.9635 102.207C86.3038 107.744 92.0538 120.533 99.7527 117.603C105.997 115.226 102.502 107.081 98.0024 109.259C96.4738 110 95.4905 111.723 96.2495 113.339C96.3967 113.653 96.9579 113.472 96.9003 113.132C96.2477 109.291 102.095 108.357 102.214 113.038C102.307 116.69 97.3817 117.967 94.8033 116.211C91.1627 113.732 91.1405 106.58 99.515 103.009C108.455 116.37 114.984 95.6138 99.852 101.827ZM93.3989 99.8352C88.6446 104.371 87.0974 94.3068 94.6828 98.3083C94.2882 98.8528 93.8759 99.3794 93.3989 99.8352ZM105.635 106.62C103.204 106.858 101.71 104.722 100.39 102.664C109.853 99.0762 108.958 106.294 105.635 106.62Z" fill="#574338"/>
<path d="M124.337 84.4884C120.832 77.8615 115.216 81.4463 116.646 85.0621C117.973 88.4146 121.544 83.2852 120.031 84.3058C119.471 84.6826 119.008 85.4593 118.249 85.4203C117.394 85.376 117.201 84.3687 117.288 83.6789C117.691 80.502 123.222 80.0339 124.514 89.0095C124.58 89.4697 125.831 90.2473 125.303 87.3045C124.68 77.4528 130.935 79.9115 129.136 82.677C128.836 83.1372 127.954 83.9334 127.429 83.3056C127.204 83.037 126.807 83.3278 126.872 83.6248C127.159 84.9442 129.38 84.6463 130.214 82.591C131.629 79.1038 124.932 76.8312 124.337 84.4884Z" fill="#E2B691"/>
<path d="M129.608 138.118C133.113 144.745 138.729 141.16 137.299 137.545C135.973 134.192 132.4 139.321 133.914 138.301C134.473 137.924 134.937 137.147 135.696 137.186C136.551 137.231 136.743 138.238 136.655 138.928C136.253 142.105 130.722 142.573 129.43 133.597C129.363 133.137 128.112 132.359 128.641 135.302C129.263 145.154 123.009 142.695 124.808 139.93C125.107 139.47 125.99 138.673 126.515 139.301C126.74 139.57 127.136 139.279 127.071 138.982C126.784 137.663 124.564 137.96 123.73 140.016C122.316 143.503 129.014 145.775 129.608 138.118Z" fill="#E2B691"/>
<path d="M132.836 109.349C126.871 108.63 126.176 102.232 125.819 104.033C125.731 104.109 125.625 104.258 125.706 104.485C124.148 110.962 118.008 112.494 120.327 112.476C127.609 112.42 127.037 123.749 127.846 119.923C128.627 116.237 129.682 112.227 133.046 110.059C133.353 109.86 133.154 109.388 132.836 109.349ZM127.466 117.982C126.609 114.993 124.528 112.312 121.377 111.857C123.687 110.261 125.319 107.895 126.003 105.175C127.093 107.573 129.264 109.349 131.819 109.96C129.346 111.927 128.216 114.95 127.466 117.982Z" fill="#E2B691"/>
<path d="M125.247 94.7578C122.933 94.7578 123.162 98.3461 125.472 98.3461C127.785 98.3461 127.557 94.7578 125.247 94.7578Z" fill="#E2B691"/>
<path d="M129.635 126.995C129.301 125.27 126.515 125.241 126.642 127.555C126.976 129.28 129.762 129.309 129.635 126.995Z" fill="#E2B691"/>
<path d="M79.7361 127.148C79.3335 126.06 76.0289 129.205 75.1875 130.33C75.8906 126.441 75.0616 123.592 73.7396 120.453C77.8235 116.224 77.0504 111.608 76.1965 112.507C74.5855 114.202 72.8848 116.468 73.0702 118.863C71.4236 114.914 71.116 112.848 72.2961 108.106C76.5538 108.077 81.0279 100.914 77.4281 101.67C76.4492 101.876 75.0315 103.014 74.339 103.749C72.1764 106.045 72.9132 107.246 73.6562 102.355C74.4711 96.9878 74.597 92.7708 71.9086 89.4503C70.6824 87.9368 69.176 86.7451 68.9951 88.7019C68.0339 99.1078 74.2299 98.3506 72.9398 97.8753C69.7079 96.6863 69.262 92.8932 69.4889 89.9344C69.5891 88.6266 69.3941 87.0918 71.6728 90.1676C72.8813 91.7991 73.5498 93.9208 73.4638 96.0169C73.4133 97.2387 73.4621 95.4281 71.8439 93.5067C71.6684 93.2984 71.3882 93.5839 71.5425 93.7932C74.2104 97.4214 73.2023 101.596 72.0177 105.942C71.0308 103.753 69.4295 102.115 67.4496 101.059C66.649 100.633 67.1225 107.106 71.6125 107.442C68.4906 119.218 75.4012 119.133 67.7156 114.802C66.8804 114.331 66.9637 117.524 68.9259 119.252C70.7515 120.859 72.4566 120.164 72.5568 120.594C72.5772 120.683 75.7301 124.967 73.8185 131.751C72.2491 125.831 64.5095 123.113 71.1284 130.956C73.6713 133.969 73.4665 133.032 72.8423 134.494C68.98 143.543 72.9611 144.603 72.5967 143.314C71.4884 139.404 72.4681 137.768 74.0517 133.997C76.1779 133.099 80.4897 129.186 79.7361 127.148ZM76.8119 102.537C80.1049 100.755 76.8074 106.538 72.6135 107.351C73.3973 105.328 74.8985 103.572 76.8119 102.537ZM68.6333 105.019C68.0659 104.065 67.8486 102.951 67.6988 101.856C68.6706 102.456 69.5359 103.22 70.2417 104.117C73.8903 108.752 69.7603 106.915 68.6333 105.019ZM67.8265 115.563C69.6583 116.649 71.6231 117.986 72.3679 120.03C69.9438 120.018 67.8495 118.183 67.8265 115.563ZM73.5676 119.663C73.1766 117.29 74.605 115.125 76.1912 113.422C76.412 115.912 74.9969 117.806 73.5676 119.663ZM72.9531 132.249C64.9891 122.47 72.6109 128.28 73.3317 132.658C73.1597 132.506 73.0037 132.311 72.9531 132.249ZM78.3857 129.391C76.8908 131.467 74.3682 133.241 74.5562 132.706C76.115 129.283 80.9526 125.823 78.3857 129.391Z" fill="#E2B691"/>
<path d="M64.0273 118.232C62.0244 119.204 60.1872 119.782 57.9502 119.93C55.7042 120.078 53.4131 120.061 51.1699 119.887C47.0194 119.563 42.814 118.398 39.7249 115.473C39.5209 115.28 39.2248 115.575 39.4163 115.782C42.6021 119.222 47.1932 120.466 51.7373 120.751C53.9939 120.893 56.2983 120.91 58.5531 120.722C60.5108 120.559 62.8321 120.189 64.4006 118.9C64.7189 118.635 64.4387 118.034 64.0273 118.232Z" fill="#574338"/>
<path d="M64.3346 97.0035C62.1845 97.4939 60.1531 98.2661 57.9533 98.6013C55.8263 98.9258 53.6628 99.0473 51.5127 98.9551C49.3395 98.862 47.1911 98.5357 45.0711 98.056C43.4432 97.6872 40.5828 97.305 39.783 95.6062C39.6616 95.3482 39.298 95.5592 39.3521 95.8039C39.7609 97.6428 42.1637 98.1323 43.7047 98.6004C46.0367 99.3097 48.4377 99.7079 50.8689 99.8577C53.1273 99.9969 55.398 99.9153 57.6395 99.6032C59.9333 99.284 62.5463 98.8549 64.6237 97.7971C65.0546 97.5781 64.809 96.8954 64.3346 97.0035Z" fill="#574338"/>
<path d="M14.4288 84.404C14.4155 84.2249 14.2754 84.0626 14.0839 84.0706C9.75344 84.2462 5.42298 84.4217 1.09254 84.5964C0.66517 84.6132 0.663396 85.2782 1.09254 85.2614C5.31659 85.0947 9.54063 84.9289 13.7656 84.7622C13.8595 86.2145 13.8826 87.6696 13.8028 89.1237C13.7851 89.4526 13.8445 90.0272 13.6689 90.3171C13.5306 90.5468 13.34 90.4608 13.0811 90.4563C12.9055 90.4528 12.7291 90.4492 12.5535 90.4457C11.7183 90.4297 10.883 90.4138 10.0478 90.3978C6.91346 90.3375 3.77734 90.2302 0.643 90.2879C0.407148 90.2923 0.365487 90.6434 0.610205 90.6603C4.23044 90.9067 7.86396 90.9626 11.4895 91.0788C11.9337 91.0929 12.3771 91.1071 12.8213 91.1213C13.1476 91.132 13.5599 91.2144 13.8799 91.1275C14.4385 90.975 14.3995 90.3597 14.435 89.8915C14.5733 88.0641 14.5644 86.2314 14.4288 84.404Z" fill="#574338"/>
<path d="M14.0365 94.1434C14.0312 94.0068 13.8947 93.9226 13.7776 93.8996C12.7916 93.7018 11.7507 93.8526 10.7559 93.9093C9.65643 93.9714 8.55608 94.0334 7.45662 94.0955C5.21337 94.2223 2.96924 94.3491 0.725987 94.4759C0.339404 94.498 0.452903 95.0903 0.83594 95.0691C2.98875 94.944 5.14068 94.819 7.29349 94.6949L10.4562 94.5114C11.4439 94.4546 12.4831 94.3092 13.4708 94.4502C13.5302 95.9105 13.5897 97.3699 13.6491 98.8303C13.6668 99.2674 13.7838 99.7533 13.4859 100.093C13.1933 100.427 12.7775 100.323 12.343 100.331C11.561 100.347 10.778 100.364 9.99601 100.38C6.87497 100.445 3.75659 100.53 0.636436 100.637C0.400585 100.645 0.360683 101.011 0.603628 101.01C4.27794 100.998 7.94961 100.95 11.623 100.889C12.2446 100.878 13.1924 101.054 13.7617 100.747C14.1793 100.522 14.236 100.037 14.2351 99.6096C14.2316 97.7902 14.1039 95.9619 14.0365 94.1434Z" fill="#574338"/>
<path d="M175.264 90.7878C172.553 90.7541 169.844 90.7089 167.133 90.6495C165.823 90.6203 164.514 90.5892 163.205 90.5493C162.924 90.5405 162.643 90.5316 162.362 90.5227C161.8 90.505 161.428 90.4775 161.428 89.8036C161.428 89.1768 161.438 88.549 161.445 87.9222C161.45 87.415 161.343 86.7057 161.483 86.2136C161.701 85.4466 162.865 85.6594 163.47 85.6452C164.762 85.6142 166.054 85.584 167.345 85.5539C169.945 85.4927 172.527 85.3748 175.122 85.2001C175.297 85.1886 175.281 84.9332 175.109 84.9306C172.671 84.8915 170.247 84.888 167.81 84.9518C166.613 84.9829 165.415 85.0148 164.217 85.0458C163.618 85.0618 163.019 85.0689 162.42 85.0928C162.072 85.107 161.707 85.1194 161.403 85.3118C160.744 85.7294 160.887 86.6604 160.88 87.3254C160.875 87.9071 160.871 88.4887 160.867 89.0704C160.864 89.5164 160.785 90.0466 160.906 90.4819C161.142 91.3207 162.341 91.0875 162.999 91.1061C164.264 91.1425 165.529 91.1806 166.793 91.2161C169.607 91.2959 172.421 91.3606 175.234 91.412C175.634 91.4174 175.665 90.7923 175.264 90.7878Z" fill="#574338"/>
<path d="M174.938 100.277C159.474 99.6329 161.555 101.276 161.506 98.0636C161.473 95.8531 161.338 95.0533 162.603 95.2245C168.602 96.0367 177.195 94.7173 174.935 94.7182C159.996 94.7235 161.193 94.3538 161.013 95.3114C160.794 96.4835 160.958 99.3944 161.068 100.583C161.125 101.186 166.849 100.114 174.938 100.942C175.359 100.984 175.371 100.294 174.938 100.277Z" fill="#574338"/>
<path d="M59.872 111.883C56.3165 117.043 51.5765 111.323 50.2518 110.712C50.0337 110.612 49.6001 110.99 52.4099 107.824C55.2561 108.081 59.294 108.285 59.6477 105.471C59.8916 103.532 57.0073 101.119 52.0535 107.023C40.0907 105.775 44.9717 102.363 48.795 102.398C49.6693 102.407 48.2595 101.441 45.9027 102.431C45.1207 102.759 44.1329 103.31 43.7322 104.09C42.2692 106.938 51.7857 107.354 51.3335 107.869C50.6171 108.686 49.922 109.522 49.2321 110.363C47.8631 110.02 46.3186 110.126 45.118 110.827C41.9757 112.658 45.0764 116.639 48.2213 112.851C49.7092 111.058 49.4476 111.227 49.7225 111.338C51.8833 112.207 53.0953 114.531 55.5859 114.721C57.5676 114.872 59.4332 113.914 60.3606 112.153C60.5069 111.872 60.0511 111.623 59.872 111.883ZM57.3158 104.039C59.3259 103.969 60.7454 107.651 53.0155 107.119C54.1566 105.772 55.5664 104.101 57.3158 104.039ZM46.2166 113.537C43.5389 114.512 44.0744 110.233 48.6691 111.044C47.9961 111.911 47.262 113.156 46.2166 113.537Z" fill="#574338"/>
</svg>
