<svg width="303" height="182" viewBox="0 0 303 182" fill="none" xmlns="http://www.w3.org/2000/svg">
<path d="M51.1632 167.252C37.9673 163.712 27.8797 153.019 20.379 141.6C11.5808 128.205 5.19154 112.361 6.98749 96.4364C8.78343 80.5114 20.6237 65.037 36.5256 63.0478C43.7965 62.1383 51.0931 63.9923 58.2168 65.7084C71.6399 68.9422 86.341 71.6174 98.796 65.6581C110.172 60.2149 117.169 48.7706 124.509 38.5151C131.759 28.3842 140.076 18.7622 150.563 12.0379C161.051 5.31362 173.984 1.71561 186.165 4.32808C198.347 6.94056 209.306 16.5513 211.491 28.8166C212.764 35.9662 211.121 43.2712 210.769 50.5247C210.417 57.7782 211.775 65.851 217.424 70.4156C221.182 73.4527 226.199 74.392 231.017 74.757C243.373 75.6933 255.81 73.5268 268.164 74.4843C280.518 75.4417 293.687 80.4643 299.472 91.4221C302.785 97.6978 303.233 105.121 302.511 112.181C300.453 132.311 288.977 151.278 272.102 162.444" fill="#EDEEFF"/>
<path d="M26.6701 92.7383H1V100.658H26.6701V92.7383Z" stroke="#B7BCFF" stroke-width="2" stroke-miterlimit="10"/>
<path d="M39.6032 102.344H13.9331V110.263H39.6032V102.344Z" stroke="#B7BCFF" stroke-width="2" stroke-miterlimit="10"/>
<path d="M288.859 108.219H263.189V116.138H288.859V108.219Z" stroke="#B7BCFF" stroke-width="2" stroke-miterlimit="10"/>
<path d="M301.792 117.82H276.122V125.74H301.792V117.82Z" stroke="#B7BCFF" stroke-width="2" stroke-miterlimit="10"/>
<path d="M131.16 73.5352H112.499V79.2923H131.16V73.5352Z" stroke="#B7BCFF" stroke-width="2" stroke-miterlimit="10"/>
<path d="M140.561 80.5156H121.901V86.2727H140.561V80.5156Z" stroke="#B7BCFF" stroke-width="2" stroke-miterlimit="10"/>
<path d="M294.243 81.3068H232.084V31.5795C232.084 14.4148 245.999 0.5 263.164 0.5C280.329 0.5 294.243 14.4148 294.243 31.5795L294.243 81.3068Z" fill="white" stroke="#2E3192" stroke-miterlimit="10"/>
<path d="M260.268 22.0156H237.44V44.8441H260.268V22.0156Z" fill="#DBDDFF"/>
<path d="M288.315 22.0156H265.486V44.8441H288.315V22.0156Z" fill="#DBDDFF"/>
<path d="M260.268 51.0391H237.44V73.8675H260.268V51.0391Z" fill="#DBDDFF"/>
<path d="M288.315 51.0391H265.486V73.8675H288.315V51.0391Z" fill="#DBDDFF"/>
<path d="M79.1063 16.9492H60.3887V38.7298H79.1063V16.9492Z" fill="#A5ABFF"/>
<path d="M77.0081 18.9336H62.4875V36.517H77.0081V18.9336Z" fill="white"/>
<path d="M54.9435 8.03125H36.2258V29.8118H54.9435V8.03125Z" fill="#A5ABFF"/>
<path d="M52.8452 10.0156H38.3247V27.599H52.8452V10.0156Z" fill="white"/>
<path d="M140.12 52.837L107.879 53.0472L107.301 29.0501L139.541 28.8398L140.12 52.837Z" fill="white" stroke="#2B3990" stroke-width="0.8715" stroke-miterlimit="10"/>
<path d="M107.879 53.0498L119.624 40.9727L123.823 45.6336L134.677 33.4414L139.865 42.2895L140.12 52.8396L107.879 53.0498Z" fill="#BFCA33"/>
<path d="M124.236 38.8116C125.359 37.7678 125.408 35.9952 124.345 34.8522C123.283 33.7093 121.511 33.6288 120.388 34.6726C119.265 35.7164 119.216 37.489 120.279 38.632C121.341 39.775 123.113 39.8554 124.236 38.8116Z" fill="#FDC93A"/>
<path d="M190.797 88.9009C186.602 96.7132 182.407 104.526 178.212 112.338C176.941 114.704 175.631 117.122 173.632 118.916C172.965 119.514 172.199 120.076 171.874 120.911C171.519 121.824 171.777 122.854 172.121 123.771C173.377 127.113 175.778 130.013 178.829 131.867C180.309 132.767 182.076 133.439 183.756 133.016C185.326 132.622 186.509 131.36 187.564 130.133C194.577 121.975 200.221 112.643 204.192 102.644C205 100.608 205.752 98.4107 205.308 96.2649C204.662 93.1399 201.72 91.0814 198.9 89.5867C196.462 88.2938 193.081 86.7349 191.251 88.8008" fill="#A4C4FF"/>
<path d="M153.339 106.021C153.283 107.68 150.532 109.403 148.885 109.197C147.379 109.01 145.223 107.834 143.068 105.875C140.945 103.944 139.675 104.425 137.124 103.111C136.475 102.777 135.786 101.912 136.365 101.446C136.572 101.279 136.856 101.243 137.111 101.316L141.264 102.505C139.785 101.956 138.343 101.306 136.953 100.561C136.442 100.287 135.9 99.9628 135.781 99.3471C135.715 99.0062 135.871 98.6432 136.19 98.5048C136.517 98.3626 136.842 98.5388 137.135 98.6962C138.593 99.4775 140.212 99.9541 141.861 100.087C140.38 99.398 138.977 98.5443 137.684 97.5465C137.348 97.2869 137 96.9903 136.952 96.5439C136.928 96.3206 137.011 96.0897 137.194 95.9593C137.456 95.7724 137.727 95.8898 137.971 96.0037C139.805 96.8597 141.64 97.716 143.474 98.572C141.958 97.4052 140.442 96.2386 138.926 95.0718C138.418 94.6805 137.914 93.8395 138.518 93.5342C138.685 93.4497 138.884 93.451 139.06 93.5152C142.064 94.611 144.874 96.2386 147.32 98.2991C147.608 97.2768 147.024 96.2401 146.564 95.2824C146.559 95.2729 146.555 95.2632 146.55 95.2537C145.989 94.0696 147.585 93.0654 148.428 94.0687L151.102 98.6242L152.474 101.563L153.339 106.021Z" fill="#FF9A63"/>
<path d="M150.841 100.629C152.636 102.491 154.43 104.353 156.225 106.215C156.406 106.403 156.592 106.599 156.677 106.846C156.779 107.144 156.718 107.474 156.62 107.773C156.008 109.655 154.157 110.803 152.442 111.789C152.218 111.918 151.974 112.051 151.718 112.021C151.514 111.997 151.338 111.873 151.175 111.747C149.467 110.429 148.251 108.59 147.068 106.786C146.778 106.344 146.485 105.895 146.334 105.39C145.926 104.02 146.749 102.445 148.052 101.859C149.355 101.273 150.978 101.629 152.033 102.593" fill="#FF9A63"/>
<path d="M155.909 50.5049C156.317 50.5049 156.318 49.8711 155.909 49.8711C155.502 49.8711 155.501 50.5049 155.909 50.5049Z" fill="#FF9A63"/>
<path d="M182.395 116.606C173.753 115.403 167.087 108.577 159.136 104.983C158.192 104.557 157.085 104.177 156.154 104.632C155.611 104.897 155.233 105.404 154.877 105.892C153.452 107.841 152.028 109.79 150.604 111.739C150.25 112.224 149.882 112.746 149.85 113.345C149.806 114.167 150.396 114.872 150.961 115.471C157.56 122.468 165.647 128.055 174.527 131.752C176.776 132.689 179.145 133.517 181.58 133.437C184.016 133.357 186.548 132.192 187.647 130.017C189.061 127.222 187.764 123.871 186.396 121.054C185.323 118.845 183.782 116.364 181.331 116.205" fill="#A4C4FF"/>
<path d="M175.428 114.873C177.486 116.267 179.403 117.869 181.141 119.648C181.634 120.154 182.113 120.673 182.576 121.206C182.666 121.308 182.815 121.158 182.726 121.056C181.08 119.167 179.245 117.448 177.254 115.927C176.693 115.499 176.119 115.086 175.534 114.69C175.421 114.614 175.316 114.797 175.428 114.873Z" fill="#617EB2"/>
<path d="M190.308 105.315C190.812 109.224 191.316 113.133 191.821 117.042C192.325 120.95 192.829 124.859 193.333 128.768C193.617 130.971 193.902 133.173 194.186 135.376C194.203 135.509 194.414 135.511 194.397 135.376C193.893 131.467 193.388 127.558 192.884 123.649C192.38 119.74 191.876 115.831 191.371 111.923C191.087 109.72 190.803 107.518 190.519 105.315C190.502 105.182 190.29 105.181 190.308 105.315Z" fill="#617EB2"/>
<path d="M197.267 86.2238C192.449 87.8376 190.645 87.7174 189.901 91.5609C189.158 95.4042 190.855 103.757 191.212 107.656C192.054 116.856 193.096 126.037 194.338 135.191C194.947 139.684 195.605 144.255 194.872 148.729C194.705 149.748 194.503 150.917 195.163 151.711C195.493 152.11 195.986 152.332 196.47 152.515C202.322 154.725 208.812 152.954 214.965 151.822C223.647 150.226 232.573 149.959 241.335 151.034C242.609 151.191 243.962 151.364 245.125 150.821C246.288 150.278 247.06 148.703 246.302 147.668C245.898 147.115 245.198 146.874 244.681 146.425C243.612 145.494 243.521 143.895 243.484 142.477C243.056 126.029 239.77 109.678 232.772 94.7867C231.883 92.894 230.333 90.9918 228.878 89.4901C227.173 87.7313 224.91 85.8574 222.682 84.8394C220.049 83.636 217.352 83.2538 214.485 82.8548C208.605 82.0363 203.408 83.5281 197.984 85.9436" fill="#A4C4FF"/>
<path d="M239.98 134.495C240.53 137.449 240.423 140.502 239.674 143.411C239.623 143.609 239.928 143.693 239.979 143.496C240.744 140.53 240.846 137.422 240.285 134.411C240.248 134.211 239.943 134.296 239.98 134.495Z" fill="#617EB2"/>
<path d="M238.298 146.606C239.894 146.914 241.521 147.018 243.143 146.912C243.345 146.898 243.347 146.581 243.143 146.595C241.549 146.699 239.951 146.603 238.382 146.3C238.183 146.262 238.097 146.567 238.298 146.606Z" fill="#617EB2"/>
<path d="M195.78 86.8593C194.748 87.919 195.36 90.4793 196.368 91.5622C197.182 92.4371 199.34 93.3415 200.522 93.167C205.813 92.3864 207.929 90.1905 210.402 82.866C210.402 82.866 201.41 81.0798 195.78 86.8593Z" fill="#FF9A63"/>
<path d="M202.54 95.0142C204.527 94.3238 206.34 93.1808 207.852 91.7216C209.36 90.2665 210.567 88.5018 211.367 86.5643C211.819 85.4687 212.135 84.3186 212.298 83.1444C212.317 83.0115 212.113 82.954 212.095 83.0882C211.809 85.1387 211.055 87.1064 209.938 88.8474C208.821 90.5901 207.342 92.1063 205.616 93.2518C204.642 93.8987 203.59 94.4262 202.484 94.8103C202.357 94.8549 202.412 95.059 202.54 95.0142Z" fill="#617EB2"/>
<path d="M196.15 85.4906L197.569 89.5674C197.776 91.1567 198.939 89.1736 200.483 89.6033C202.324 90.1158 202.743 90.3668 204.331 89.7393C206.718 88.7963 208.685 86.5704 208.353 84.0257L209.693 83.2179L207.291 74.5195L196.904 82.2689L196.15 85.4906Z" fill="#FF9A63"/>
<path d="M195.78 88.624C198.524 88.2321 205.97 84.9009 207.733 78.2383C205.251 81.5591 195.367 85.4909 195.367 85.4909L195.78 88.624Z" fill="#B26033"/>
<path d="M199.686 75.515C201.156 74.6213 201.623 72.7047 200.73 71.2344C199.836 69.764 197.919 69.2965 196.449 70.1903C194.979 71.0841 194.511 73.0006 195.405 74.471C196.299 75.9414 198.215 76.4088 199.686 75.515Z" stroke="white" stroke-width="1.2498" stroke-miterlimit="10"/>
<path d="M191.928 77.7377C193.399 76.8439 193.866 74.9274 192.973 73.457C192.079 71.9866 190.162 71.5192 188.692 72.413C187.222 73.3067 186.754 75.2232 187.648 76.6936C188.542 78.164 190.458 78.6315 191.928 77.7377Z" stroke="white" stroke-width="1.2498" stroke-miterlimit="10"/>
<path d="M200.884 71.4362L201.881 71.0688L205.871 68.2117C205.871 68.2117 206.92 67.5234 207.61 68.071" stroke="white" stroke-width="1.2498" stroke-miterlimit="10"/>
<path d="M195.061 73.6641L193.328 74.2395" stroke="white" stroke-width="1.2498" stroke-miterlimit="10"/>
<path d="M203.642 83.0812C201.877 83.9237 200.277 84.41 198.848 84.7026C188.573 86.8051 187.736 77.5197 186.631 72.3794C186.031 69.591 183.51 63.6372 183.51 63.6372L187.17 56.2428L204.465 54.2148L208.265 71.4323C209.25 75.8953 207.419 80.508 203.642 83.0812Z" fill="#FF9A63"/>
<path d="M194.106 58.4114L199.641 59.8718C201.734 60.4239 203.466 61.9164 204.27 63.9258C204.29 63.975 204.308 64.023 204.325 64.0688L206.637 70.2108L208.358 69.8346L207.636 58.1141C207.498 55.8754 206.753 53.7036 205.417 51.9022C203.363 49.1323 199.563 46.5773 193.013 49.7342C184.173 53.9951 191.677 57.117 193.406 58.0778C193.632 58.2037 193.866 58.3134 194.106 58.4114Z" fill="#091014"/>
<path d="M208.044 70.9721C209.468 70.9721 210.622 69.8179 210.622 68.3942C210.622 66.9705 209.468 65.8164 208.044 65.8164C206.62 65.8164 205.466 66.9705 205.466 68.3942C205.466 69.8179 206.62 70.9721 208.044 70.9721Z" fill="#FF9A63"/>
<path d="M208.01 70.1872L208.858 66.8906" stroke="#B26033" stroke-width="0.9598" stroke-miterlimit="10"/>
<path d="M206.991 67.6758L208.292 68.5496" stroke="#B26033" stroke-width="0.9598" stroke-miterlimit="10"/>
<path d="M198.696 66.6518L196.43 66.8791C196.178 66.9043 195.953 66.7207 195.928 66.4691L195.921 66.3985C195.896 66.1471 196.08 65.9227 196.331 65.8976L198.598 65.6703C198.85 65.6451 199.074 65.8287 199.099 66.0803L199.106 66.1509C199.131 66.4025 198.948 66.6267 198.696 66.6518Z" fill="black"/>
<path d="M204.396 50.624C199.658 46.7384 193.597 46.0391 187.518 46.8077C188.791 47.9295 190.421 48.6394 192.11 48.8063C187.585 48.3434 182.929 49.2653 178.922 51.4173C178.594 51.593 178.241 51.8161 178.155 52.1776C178.01 52.7924 178.708 53.251 179.304 53.461C181.374 54.1911 183.615 54.4313 185.793 54.1567C183.842 54.0464 181.869 54.3464 180.04 55.0318C178.897 55.4598 177.783 56.0585 176.996 56.9912C176.21 57.9239 175.801 59.2393 176.181 60.3987C176.887 62.5521 179.878 64.2673 182.143 64.1807C187.195 63.9876 191.984 61.3177 196.314 58.7088C197.992 57.6979 199.608 56.4842 200.662 54.8327C201.715 53.1813 201.924 50.2625 201.119 48.4765" fill="#091014"/>
<path d="M189.241 68.9331L186.992 69.2861C186.742 69.3254 186.508 69.1547 186.468 68.905L186.457 68.8349C186.418 68.5851 186.589 68.3511 186.839 68.3118L189.088 67.9588C189.337 67.9195 189.572 68.0902 189.611 68.3399L189.622 68.41C189.661 68.6597 189.49 68.8938 189.241 68.9331Z" fill="black"/>
<path d="M200.38 57.3359C200.38 57.3359 208.293 75.1883 204.537 75.7435C200.782 76.2987 193.476 72.1949 191.625 78.2936C191.625 78.2936 189.18 81.1837 187.666 76.7829C187.666 76.7829 189.324 90.5589 202.204 84.2117C205.345 82.6638 207.615 79.7444 208.224 76.2962C208.521 74.6181 208.577 72.7757 208.015 71.1346C206.475 66.6381 203.868 57.7004 203.868 57.7004L200.38 57.3359Z" fill="#091014"/>
<path d="M205.526 68.9492C205.526 68.9492 203.939 74.2063 202.781 75.9906L203.776 78.9916L207.505 72.8162L205.526 68.9492Z" fill="black"/>
<path d="M199.652 73.4431C201.267 72.4889 201.802 70.4066 200.848 68.7921C199.894 67.1776 197.811 66.6423 196.197 67.5965C194.582 68.5507 194.047 70.633 195.001 72.2475C195.956 73.862 198.038 74.3973 199.652 73.4431Z" stroke="white" stroke-width="1.2498" stroke-miterlimit="10"/>
<path d="M191.169 75.7595C192.783 74.8053 193.319 72.723 192.365 71.1085C191.41 69.494 189.328 68.9587 187.714 69.9129C186.099 70.8671 185.564 72.9494 186.518 74.5639C187.472 76.1784 189.554 76.7137 191.169 75.7595Z" stroke="white" stroke-width="1.2498" stroke-miterlimit="10"/>
<path d="M193.103 71.1797C193.103 71.1797 193.621 73.0096 192.319 73.369C191.016 73.7284 192.003 75.2376 192.995 75.2203" stroke="#35281F" stroke-width="0.5827" stroke-miterlimit="10"/>
<path d="M201.004 69.0267L202.096 68.6399L206.482 65.5802C206.482 65.5802 207.635 64.8443 208.379 65.4502" stroke="white" stroke-width="1.2498" stroke-miterlimit="10"/>
<path d="M194.628 71.3789L192.731 71.9827" stroke="white" stroke-width="1.2498" stroke-miterlimit="10"/>
<path d="M197.746 77.5586L193.267 78.2562C193.267 78.2562 193.719 81.2737 196.179 80.388C198.096 79.6978 197.746 77.5586 197.746 77.5586Z" fill="#B26033"/>
<path d="M197.656 77.4297L193.177 78.1273L193.326 78.7089L197.675 78.0191L197.656 77.4297Z" fill="white"/>
<path d="M197.405 79.4057C197.405 79.4057 195.474 78.2509 193.976 79.8954C193.976 79.8954 195.392 82.0695 197.405 79.4057Z" fill="#FF8977"/>
<path d="M197.189 79.6719L194.435 80.2721C194.435 80.2721 196.07 81.4389 197.189 79.6719Z" fill="white"/>
<path d="M197.627 70.3774C198.035 70.3774 198.365 70.0472 198.365 69.6399C198.365 69.2325 198.035 68.9023 197.627 68.9023C197.22 68.9023 196.89 69.2325 196.89 69.6399C196.89 70.0472 197.22 70.3774 197.627 70.3774Z" fill="#000100"/>
<path d="M189.001 72.2289C189.409 72.2289 189.739 71.8987 189.739 71.4914C189.739 71.0841 189.409 70.7539 189.001 70.7539C188.594 70.7539 188.264 71.0841 188.264 71.4914C188.264 71.8987 188.594 72.2289 189.001 72.2289Z" fill="#000100"/>
<path d="M211.268 92.1206C210.236 100.928 209.204 109.735 208.172 118.542C207.86 121.21 207.53 123.94 206.329 126.342C205.929 127.144 205.423 127.948 205.427 128.844C205.433 129.823 206.051 130.687 206.708 131.413C209.103 134.061 212.402 135.875 215.921 136.479C217.628 136.772 219.518 136.748 220.926 135.738C222.241 134.794 222.878 133.187 223.408 131.657C226.934 121.493 228.756 110.74 228.775 99.9821C228.779 97.7911 228.671 95.4715 227.47 93.6388C225.721 90.9697 222.229 90.1356 219.057 89.7813C216.314 89.4748 212.813 89.8134 211.87 92.4075" fill="#A4C4FF"/>
<path d="M213.976 91.116C212.363 92.2112 211.48 93.9851 210.985 95.8227C210.405 97.9736 210.263 100.228 210.001 102.432C209.676 105.155 209.319 107.875 208.929 110.59C208.541 113.289 208.121 115.984 207.669 118.673C207.217 121.362 206.732 124.046 206.215 126.723C206.15 127.061 206.084 127.399 206.018 127.737C206.006 127.8 206.047 127.874 206.12 127.87C207.935 127.773 209.733 128.575 210.876 129.988C210.919 129.933 210.961 129.877 211.004 129.822C209.44 128.977 207.877 128.132 206.313 127.288C206.326 127.336 206.338 127.384 206.351 127.432C207.513 125.484 209.978 124.46 212.179 125.013C212.311 125.046 212.367 124.842 212.235 124.809C210.454 124.362 208.504 124.9 207.15 126.126C206.765 126.475 206.435 126.88 206.169 127.326C206.14 127.373 206.156 127.443 206.206 127.47C207.77 128.315 209.334 129.16 210.897 130.005C211.008 130.064 211.099 129.93 211.025 129.839C209.85 128.387 207.985 127.56 206.12 127.66C206.154 127.704 206.188 127.749 206.222 127.793C206.741 125.142 207.23 122.485 207.687 119.823C208.144 117.16 208.569 114.492 208.962 111.82C209.353 109.163 209.713 106.502 210.041 103.837C210.205 102.51 210.359 101.182 210.509 99.8542C210.622 98.8541 210.751 97.8542 210.955 96.868C211.344 94.9891 212.023 93.049 213.502 91.7462C213.686 91.5845 213.88 91.4364 214.082 91.2989C214.194 91.2224 214.088 91.0395 213.976 91.116Z" fill="#617EB2"/>
<path d="M228.93 102.645C228.8 104.735 228.613 106.822 228.37 108.902C228.123 111.002 227.819 113.096 227.458 115.18C227.1 117.243 226.686 119.297 226.217 121.338C225.748 123.379 225.223 125.408 224.644 127.42C224.062 129.442 223.425 131.449 222.733 133.436C222.648 133.681 222.562 133.926 222.475 134.17C222.429 134.298 222.633 134.353 222.679 134.226C223.383 132.243 224.034 130.242 224.63 128.223C225.226 126.205 225.766 124.17 226.251 122.123C226.735 120.075 227.164 118.014 227.537 115.943C227.909 113.872 228.225 111.792 228.484 109.704C228.743 107.616 228.946 105.52 229.091 103.421C229.109 103.162 229.125 102.904 229.142 102.645C229.15 102.509 228.939 102.509 228.93 102.645Z" fill="#617EB2"/>
<path d="M227.925 112.559C228.66 110.57 229.394 108.581 230.128 106.593C230.176 106.465 229.971 106.41 229.925 106.537C229.19 108.525 228.456 110.514 227.721 112.503C227.674 112.63 227.878 112.686 227.925 112.559Z" fill="#617EB2"/>
<path d="M154.691 106.332C155.862 108.204 156.852 110.189 157.643 112.251C157.783 112.615 157.919 113.002 157.859 113.388C157.793 113.82 157.494 114.175 157.208 114.505C156.12 115.756 154.93 117.068 153.326 117.485C152.027 117.823 150.617 117.504 149.454 116.835C148.29 116.165 147.347 115.17 146.527 114.107C145.146 112.318 144.051 109.858 145.109 107.861C146.205 105.793 148.949 105.378 151.288 105.326C152.597 105.297 154.245 105.541 154.619 106.795" fill="#FF9A63"/>
<path d="M76.2331 53.2109C70.7158 56.3311 71.7586 64.7567 68.0851 69.922C65.6993 73.2769 61.5772 74.8842 58.5122 77.6325C54.7221 81.0309 52.683 86.2869 53.1894 91.3521C53.83 88.5561 55.7708 86.0866 58.3366 84.8038C53.5676 89.298 51.2876 96.2822 52.4865 102.725C53.3508 99.6603 54.7644 96.7518 56.64 94.179C55.211 99.1289 55.9616 104.826 59.2265 108.812C62.4913 112.797 68.3957 114.641 73.1212 112.588C75.3241 111.631 77.1692 109.942 79.4325 109.138C81.9332 108.25 84.7141 108.523 87.257 107.765C91.9363 106.368 95.1105 101.132 94.1845 96.3375" fill="#1E2D51"/>
<path d="M96.043 54.2268C97.9646 59.0974 96.9512 64.5977 95.5655 69.6469C94.219 74.5539 93.3251 85.5378 91.3361 90.2215C79.566 97.2331 87.0667 70.3406 86.2495 63.3197C85.9353 60.6198 85.7179 57.8465 86.398 55.2148C86.4838 54.8825 86.5955 54.535 86.8558 54.3113C87.0876 54.1118 87.4009 54.0426 87.7 53.9798C88.8193 53.7455 89.9384 53.511 91.0576 53.2767C92.8411 52.9032 95.162 52.7636 96.0054 54.3787" fill="#1E2D51"/>
<path d="M96.4135 54.996C97.4996 55.9902 97.8011 57.509 97.8693 58.9192C97.9099 59.7562 97.882 60.5981 97.8385 61.4342C97.7903 62.3615 97.7064 63.287 97.5871 64.2079C97.4508 65.2596 97.2664 66.3047 97.0384 67.3403C97.0205 67.4216 97.1455 67.4563 97.1635 67.3747C97.5717 65.5217 97.8364 63.6373 97.9511 61.7433C98.0047 60.8581 98.0385 59.9666 98.006 59.0797C97.9792 58.3504 97.8995 57.615 97.6948 56.9126C97.4734 56.1531 97.0936 55.4424 96.5054 54.9043C96.4437 54.8481 96.3518 54.9396 96.4135 54.996Z" fill="#1E2D51"/>
<path d="M92.6367 73.9141C90.9357 76.7179 91.6147 80.3681 92.9585 83.3596C94.3023 86.3511 96.2563 89.0931 97.1014 92.2618C98.5844 97.8225 95.2556 103.575 93.0692 108.898C94.5147 105.457 94.4365 101.53 92.5653 98.3012C90.6942 95.072 88.2038 92.1644 86.9166 88.6613C85.6294 85.1581 85.9129 80.665 88.875 78.3947" fill="#1E2D51"/>
<path d="M80.2464 72.8089C82.61 76.8869 86.4812 79.4901 91.1824 79.8306C91.8263 79.8773 93.035 79.8577 93.68 79.833C94.8499 79.7882 96.1699 79.0308 96.595 76.8664C97.0242 74.6803 96.2962 73.0113 97.3268 71.9085C97.5401 71.6801 99.5619 69.4528 99.5174 69.1433C99.488 68.9396 98.993 68.677 98.8312 68.5498C97.8915 67.8111 96.9047 66.9901 96.6338 65.8258C96.554 65.4823 96.6131 65.124 96.6488 64.7731C96.9268 62.0402 95.7003 58.2256 94.0909 55.9996C93.44 55.0994 92.725 55.3478 91.7298 54.8543C90.2704 54.1309 88.511 54.3348 86.9728 54.8708C83.5953 56.0477 80.805 58.8022 79.5847 62.1642C78.3644 65.5262 78.738 69.4291 80.5743 72.4986" fill="#FF9A63"/>
<path d="M75.439 78.6526C73.1157 84.1137 79.6469 85.3748 79.7447 83.0933L82.15 67.2883C85.3569 64.6302 86.293 63.5454 89.1611 60.5247C90.2124 59.4175 91.2647 58.2463 91.7797 56.8091L92.7353 53.8226C92.7353 53.8226 87.0819 51.1941 82.1254 50.4103C79.975 50.0702 76.756 51.4804 75.462 53.2313C72.4441 57.3148 68.9183 65.4104 75.1922 74.4495" fill="#1E2D51"/>
<path d="M86.5029 52.4766C89.0186 52.6832 91.5344 52.8896 94.0501 53.0962C94.1682 53.1059 94.2968 53.1201 94.3813 53.2033C94.491 53.3113 94.4821 53.4881 94.4599 53.6404C94.0858 56.2034 91.5897 58.0748 89.8236 59.9694C89.7773 60.0191 89.566 60.0229 89.5005 60.0404" fill="#1E2D51"/>
<path d="M82.5062 70.14C83.6761 69.8327 84.2987 68.3433 83.8968 66.8134C83.4949 65.2834 82.2206 64.2924 81.0507 64.5997C79.8808 64.9071 79.2582 66.3965 79.6601 67.9264C80.0621 69.4563 81.3363 70.4474 82.5062 70.14Z" fill="#FF9A63"/>
<path d="M73.1851 58.5273C70.5399 66.5389 69.9367 75.2154 71.4479 83.5157C71.5314 83.9746 71.6484 84.4766 72.0257 84.7508C72.3445 84.9825 72.7683 84.9901 73.1623 84.9887C74.7704 84.9827 76.3788 84.9766 77.9869 84.9707C75.9626 77.1571 75.5529 68.9291 76.7912 60.9531C74.6688 62.767 73.1798 65.308 72.6348 68.0462" fill="#1E2D51"/>
<path d="M94.7313 62.1624C94.7313 62.1624 95.0063 62.6665 94.2223 62.8997C93.627 63.0769 92.7107 63.4834 92.3862 63.659C92.202 63.7587 91.9713 63.7365 91.8397 63.6079C91.7334 63.5039 91.7125 63.3514 91.7911 63.2185C91.9506 62.9493 92.8453 62.2127 93.5672 61.9887C94.4946 61.7016 94.7313 62.1624 94.7313 62.1624Z" fill="black"/>
<path d="M82.2081 71.9099C82.906 71.9099 83.4717 71.3442 83.4717 70.6464C83.4717 69.9485 82.906 69.3828 82.2081 69.3828C81.5103 69.3828 80.9446 69.9485 80.9446 70.6464C80.9446 71.3442 81.5103 71.9099 82.2081 71.9099Z" fill="white"/>
<path d="M77.093 65.342C76.4326 67.3999 76.2524 69.5983 76.5414 71.7389C76.684 72.7943 76.9403 73.8344 77.3098 74.8334C77.6924 75.8678 78.2091 76.8351 78.7795 77.7769C79.3761 78.7621 80.012 79.7267 80.5197 80.7627C80.9435 81.6277 81.2572 82.5426 81.4585 83.4844C81.8534 85.3315 81.8162 87.2673 81.3833 89.104C80.9507 90.9397 80.1198 92.6892 78.9179 94.1467C78.7696 94.3267 78.6156 94.5018 78.4567 94.6725C78.3999 94.7336 78.4913 94.8254 78.5484 94.7642C79.8212 93.3941 80.7495 91.7273 81.2923 89.9402C81.8352 88.1525 81.9964 86.2469 81.7473 84.3948C81.6223 83.4654 81.3943 82.55 81.0582 81.6741C80.6709 80.6645 80.1297 79.7278 79.5658 78.8081C78.9637 77.8264 78.3384 76.855 77.8538 75.8076C77.3936 74.8134 77.0537 73.7638 76.834 72.691C76.3927 70.537 76.44 68.2805 76.9929 66.1512C77.0605 65.8907 77.1361 65.6325 77.2183 65.3762C77.2436 65.2968 77.1184 65.2626 77.093 65.342Z" fill="#1E2D51"/>
<path d="M82.3415 68.3719C82.4249 68.3719 82.4251 68.2422 82.3415 68.2422C82.258 68.2422 82.2578 68.3719 82.3415 68.3719Z" fill="#1E2D51"/>
<path d="M80.982 65.9291C81.504 66.8403 82.0261 67.7514 82.5481 68.6626C82.5895 68.7351 82.7017 68.6698 82.6601 68.5971C82.138 67.6859 81.616 66.7748 81.094 65.8636C81.0526 65.7911 80.9404 65.8564 80.982 65.9291Z" fill="#1E2D51"/>
<path d="M79.2275 68.661C79.3109 68.661 79.3111 68.5312 79.2275 68.5312C79.144 68.5312 79.1438 68.661 79.2275 68.661Z" fill="#1E2D51"/>
<path d="M79.1519 68.2352C79.2354 68.2352 79.2356 68.1055 79.1519 68.1055C79.0685 68.1055 79.0685 68.2352 79.1519 68.2352Z" fill="#1E2D51"/>
<path d="M80.7469 68.3008C81.2968 68.2621 81.8468 68.2233 82.3967 68.1846C82.4795 68.1787 82.4801 68.049 82.3967 68.0549C81.8468 68.0935 81.2968 68.1324 80.7469 68.1711C80.6641 68.1768 80.6635 68.3067 80.7469 68.3008Z" fill="#1E2D51"/>
<path d="M75.2847 53.3951C74.2184 54.8452 73.3203 56.4139 72.5851 58.0562C71.8554 59.6863 71.2827 61.3845 70.8505 63.1168C70.3998 64.9221 70.1032 66.763 69.9317 68.6151C69.743 70.6528 69.7052 72.7027 69.7737 74.7473C69.8419 76.7874 70.0158 78.8229 70.2522 80.8502C70.2822 81.1069 70.313 81.3634 70.3449 81.6199C70.3551 81.7016 70.485 81.7027 70.4746 81.6199C70.2247 79.6036 70.0306 77.5797 69.9357 75.5496C69.8411 73.5238 69.8451 71.4921 69.9913 69.4689C70.128 67.5759 70.3908 65.6917 70.8114 63.8404C71.2079 62.0962 71.7418 60.3814 72.4332 58.7312C73.1291 57.0703 73.9867 55.4748 75.0145 53.9953C75.1395 53.8153 75.2671 53.6372 75.3971 53.4606C75.4461 53.3932 75.3337 53.3286 75.2847 53.3951Z" fill="#1E2D51"/>
<path d="M96.7476 73.5079C96.7476 73.5079 94.8988 73.341 93.3232 72.6406C93.3232 72.6406 95.6205 74.9237 96.7476 74.8325V73.5079Z" fill="white"/>
<path d="M94.8493 66.0441C95.0664 65.7097 94.9712 65.2626 94.6367 65.0454C94.3022 64.8283 93.855 64.9233 93.6379 65.2578C93.4209 65.5922 93.5161 66.0393 93.8506 66.2565C94.1851 66.4736 94.6322 66.3785 94.8493 66.0441Z" fill="#000100"/>
<path d="M90.1903 77.4535C88.24 79.7495 87.3677 81.1483 87.1374 84.152C87.0981 84.6645 87.1746 84.5329 87.0656 84.6778C86.9242 84.8657 86.7673 85.5837 86.5431 85.6549C84.1379 86.4176 81.6944 86.4092 79.3245 84.7556C79.2207 84.6833 78.5857 84.3865 78.5403 84.2686C78.4648 84.0732 76.04 84.7083 76.1551 84.5329C77.8591 81.9388 81.3021 75.3607 81.5808 72.2695" fill="#FF9A63"/>
<path d="M82.6038 75.9023C82.6038 75.9023 86.1458 79.2927 88.8468 79.5601L87.7434 81.1788C87.7434 81.1788 84.3135 78.4637 82.6038 75.9023Z" fill="#AF4E2F"/>
<path d="M117.174 137.921L119.16 143.662C119.799 145.511 118.835 147.559 117.007 148.237C115.309 148.867 113.438 148.096 112.674 146.453L110.104 140.929C109.221 139.03 110.159 136.745 112.121 136.018L112.705 135.801C114.534 135.123 116.534 136.072 117.174 137.921Z" fill="#FF9A63"/>
<path d="M113.25 117.9L118.786 139.523L109.697 143.592L101.658 123.638C101.658 123.638 95.7552 114.438 106.214 111.648C106.214 111.648 113.394 113.639 113.25 117.9Z" fill="#A4C4FF"/>
<path d="M112.946 118.795C113.704 121.75 114.462 124.705 115.22 127.659C115.598 129.133 115.976 130.605 116.353 132.079C116.674 133.328 116.97 134.584 117.312 135.827C117.667 137.116 118.13 138.363 118.694 139.575C118.752 139.698 118.934 139.591 118.877 139.468C118.369 138.377 117.941 137.257 117.609 136.1C117.265 134.903 116.984 133.688 116.675 132.482C115.923 129.553 115.172 126.624 114.421 123.695C113.997 122.043 113.573 120.391 113.149 118.739C113.116 118.608 112.912 118.663 112.946 118.795Z" fill="#617EB2"/>
<path d="M90.7801 99.9707L99.3436 120.743C100.307 123.08 102.932 124.313 105.354 123.566L108.878 122.479C111.888 121.551 113.57 118.427 112.677 115.422L106.351 94.8296C105.281 91.3455 100.939 86.9047 97.4983 85.5594C95.2293 84.6723 94.0868 86.3334 91.7536 88.0375C89.0099 90.0413 89.4791 96.8153 90.7801 99.9707Z" fill="#A4C4FF"/>
<path d="M60.0627 100.913C60.7385 102.711 61.4773 104.497 62.083 106.32C62.3913 107.247 62.4905 108.142 62.3336 109.109C62.1941 109.967 61.9643 110.812 61.9751 111.688C61.9772 111.858 62.2413 111.858 62.2391 111.688C62.2275 110.74 62.5053 109.83 62.63 108.897C62.7474 108.017 62.6399 107.185 62.3684 106.343C62.0763 105.438 61.7121 104.553 61.3774 103.663C61.024 102.723 60.6707 101.783 60.3173 100.843C60.2581 100.686 60.0029 100.754 60.0627 100.913Z" fill="#617EB2"/>
<path d="M52.4088 96.8323C50.303 94.009 54.0744 89.2564 57.3469 87.9536C59.457 87.1134 61.6414 86.3154 63.1245 85.9607C69.7009 84.3881 95.3153 81.4017 100.676 87.8691L102.642 106.428C103.294 108.376 103.803 110.257 104.176 112.078C105.451 118.285 100.964 124.196 94.6447 124.665L63.2075 127.001L62.8252 106.577L52.4088 96.8323Z" fill="#A4C4FF"/>
<path d="M103.98 146.174L61.2996 152.927L64.523 133.605L63.0129 124.249L63.1752 123.566L69.7008 108.926V106.874L64.5137 85.6558L68.9627 84.9821L73.8957 106.647L74.8085 108.47L97.9784 107.349L92.5565 84.3086L97.4338 84.7734L101.63 98.6795C101.63 98.6795 104.269 107.923 105.386 113.621C106.502 119.318 102.716 123.044 102.716 123.044L102.912 142.331L103.98 146.174Z" fill="#444AB4"/>
<path d="M73.0464 84.369C73.0464 84.369 75.6631 92.0613 82.5141 91.8333C89.365 91.6054 90.5303 84.3096 90.5303 84.3096C91.3559 84.0707 81.9027 82.88 73.0464 84.369Z" fill="#FF9A63"/>
<path d="M64.0335 136.12C64.8264 138.242 66.5108 139.99 68.5801 140.904C69.1672 141.163 69.7812 141.355 70.4126 141.47C70.5455 141.494 70.6026 141.291 70.4688 141.266C68.2939 140.87 66.3249 139.55 65.092 137.72C64.744 137.203 64.4552 136.647 64.2372 136.064C64.1901 135.938 63.9858 135.992 64.0335 136.12Z" fill="#1D2167"/>
<path d="M65.2918 139.596C66.2809 140.161 67.2702 140.726 68.2594 141.291C68.3777 141.359 68.4841 141.176 68.3661 141.109C67.3769 140.544 66.3876 139.979 65.3984 139.413C65.2801 139.346 65.1734 139.528 65.2918 139.596Z" fill="#1D2167"/>
<path d="M93.3665 125.659C95.8468 124.937 98.2357 123.904 100.458 122.587C101.088 122.214 101.704 121.817 102.306 121.4C102.417 121.323 102.311 121.14 102.199 121.218C100.084 122.684 97.7872 123.885 95.3733 124.776C94.6939 125.027 94.0058 125.253 93.3103 125.456C93.18 125.493 93.2356 125.697 93.3665 125.659Z" fill="#1D2167"/>
<path d="M98.2516 125.388C99.4328 124.776 100.517 123.988 101.465 123.055C101.562 122.96 101.413 122.81 101.316 122.906C100.38 123.827 99.3109 124.601 98.1449 125.205C98.0241 125.268 98.131 125.45 98.2516 125.388Z" fill="#1D2167"/>
<path d="M70.0131 106.156C71.2835 106.001 72.5538 105.847 73.8241 105.693C73.9574 105.676 73.9589 105.465 73.8241 105.481C72.5538 105.636 71.2835 105.79 70.0131 105.944C69.8798 105.961 69.8783 106.172 70.0131 106.156Z" fill="#1D2167"/>
<path d="M70.0338 108.849C71.5859 108.621 73.1383 108.394 74.6904 108.166C74.8244 108.146 74.7676 107.943 74.6343 107.962C73.0821 108.19 71.5297 108.418 69.9776 108.645C69.8437 108.665 69.9005 108.868 70.0338 108.849Z" fill="#1D2167"/>
<path d="M97.8111 102.326C99.0094 102.098 100.208 101.871 101.406 101.643C101.54 101.618 101.483 101.414 101.35 101.44C100.152 101.667 98.9532 101.895 97.7549 102.122C97.6214 102.147 97.678 102.351 97.8111 102.326Z" fill="#1D2167"/>
<path d="M99.078 105.056C100.149 104.605 101.283 104.314 102.44 104.2C102.574 104.187 102.576 103.976 102.44 103.989C101.264 104.104 100.111 104.393 99.0218 104.853C98.8984 104.905 98.9527 105.109 99.078 105.056Z" fill="#1D2167"/>
<path d="M281.413 157.213C281.413 160.424 281.813 165.329 277.294 167.635C252.02 180.532 200.876 181.708 155.805 181.708C110.735 181.708 51.3605 178.768 34.1198 167.773C28.137 163.958 29.7709 160.384 30.1973 157.213C31.7072 145.982 90.809 145.848 155.805 145.848C225.176 145.848 281.413 148.339 281.413 157.213Z" fill="#6267B2"/>
<path d="M155.805 173.281C225.176 173.281 281.413 166.087 281.413 157.213C281.413 148.339 225.176 141.145 155.805 141.145C86.4338 141.145 30.1973 148.339 30.1973 157.213C30.1973 166.087 86.4338 173.281 155.805 173.281Z" fill="#A5ABFF"/>
<path d="M117.199 157.119C121.569 157.552 125.429 160.141 129.707 161.133C133.04 161.905 136.513 161.684 139.927 161.458C144.369 161.165 148.81 160.871 153.252 160.577C153.8 160.541 154.389 160.489 154.812 160.139C155.125 159.88 155.299 159.495 155.464 159.124C157.117 155.392 158.771 151.66 160.424 147.928C154.668 147.349 148.865 146.771 143.11 147.364C141.034 147.579 138.952 147.946 136.873 147.758C132.849 147.395 128.789 144.989 125 146.393C122.436 147.343 120.8 149.79 118.802 151.658C116.842 153.491 114.42 154.827 111.824 155.507C113.54 155.969 115.257 156.43 116.973 156.892" fill="white"/>
<path d="M136.939 152.906C136.247 153.356 135.059 153.274 134.698 154.15C134.516 154.59 134.706 155.081 135.032 155.399C135.392 155.75 135.876 155.87 136.364 155.767C136.975 155.638 137.478 155.202 137.846 154.716C137.911 154.63 137.786 154.519 137.701 154.572C137.008 155.006 136.965 156.104 137.621 156.591C137.958 156.841 138.415 156.903 138.814 156.791C139.232 156.674 139.552 156.367 139.703 155.963C139.877 155.5 139.811 154.952 139.528 154.546C139.473 154.589 139.418 154.631 139.362 154.674C140.08 155.346 141.001 156.127 142.054 155.752C142.461 155.607 142.807 155.291 142.884 154.852C142.971 154.359 142.723 153.857 142.361 153.534C141.883 153.106 141.23 152.962 140.62 152.831C140.488 152.802 140.431 153.006 140.564 153.035C141.051 153.139 141.554 153.245 141.982 153.513C142.363 153.752 142.685 154.167 142.691 154.633C142.697 155.049 142.422 155.377 142.048 155.529C141.664 155.685 141.244 155.662 140.862 155.511C140.339 155.303 139.916 154.904 139.512 154.525C139.428 154.446 139.274 154.55 139.346 154.653C139.762 155.252 139.634 156.202 138.93 156.525C138.273 156.826 137.422 156.473 137.366 155.707C137.339 155.338 137.487 154.955 137.808 154.754C137.76 154.706 137.712 154.658 137.663 154.61C137.13 155.314 136.042 156.012 135.234 155.298C134.931 155.031 134.723 154.593 134.905 154.2C135.069 153.847 135.44 153.684 135.789 153.569C136.214 153.429 136.665 153.336 137.046 153.089C137.159 153.015 137.054 152.832 136.939 152.906Z" fill="#1E2D51"/>
<path d="M129.22 154.534C128.709 155.054 127.932 155.049 127.265 154.904C126.47 154.73 125.747 154.324 124.945 154.175C124.491 154.091 124.027 154.093 123.593 154.263C123.628 154.322 123.662 154.381 123.696 154.44C124.283 153.773 124.975 153.106 125.846 152.842C126.662 152.595 127.526 152.809 128.145 153.394C128.48 153.71 128.719 154.112 128.82 154.562C128.85 154.695 129.054 154.639 129.024 154.506C128.832 153.655 128.172 152.962 127.36 152.667C126.464 152.341 125.521 152.62 124.768 153.153C124.312 153.476 123.915 153.872 123.547 154.29C123.484 154.362 123.543 154.509 123.649 154.467C124.505 154.131 125.415 154.49 126.224 154.795C126.904 155.051 127.63 155.28 128.366 155.174C128.746 155.119 129.098 154.958 129.369 154.683C129.465 154.586 129.315 154.437 129.22 154.534Z" fill="#1E2D51"/>
<path d="M55.9023 89.7107C52.7198 90.5431 50.4984 93.4239 50.3604 96.7107L49.2507 123.159C49.2234 125.851 52.269 127.517 54.9831 127.68L58.9324 127.917C62.3065 128.119 65.2859 125.635 65.6647 122.302L65.6189 101.179C67.67 95.5716 62.2507 88.0502 55.9023 89.7107Z" fill="#A4C4FF"/>
<path d="M65.6649 99.4219C65.6649 99.4219 66.1026 103.886 65.3608 119.46" stroke="#1D2167" stroke-miterlimit="10"/>
<path d="M83.5469 123.097L90.2121 123.384C92.3587 123.477 94.0258 125.253 93.9353 127.353C93.8515 129.301 92.2569 131.27 90.2661 131.384L83.5894 131.367C81.2877 131.499 79.3707 129.654 79.4676 127.402L79.4966 126.731C79.5868 124.632 81.4003 123.005 83.5469 123.097Z" fill="#FF9A63"/>
<path d="M59.8181 117.361L85.8161 121.717L85.323 133.175L59.1228 133.519C59.1228 133.519 47.2329 133.302 49.797 121.05C49.7968 121.05 55.4001 115.11 59.8181 117.361Z" fill="#A4C4FF"/>
<path d="M55.3837 118.673C56.8993 117.729 58.6876 117.486 60.4436 117.548C62.2911 117.613 64.1243 117.96 65.9439 118.263C68.0481 118.613 70.1463 118.997 72.2425 119.391C74.3418 119.786 76.439 120.192 78.5383 120.587C80.6345 120.981 82.7329 121.364 84.8371 121.712C85.0936 121.754 85.3498 121.796 85.6065 121.838C85.7396 121.859 85.7969 121.656 85.6627 121.634C83.538 121.291 81.4197 120.911 79.3039 120.516C77.1843 120.121 75.0675 119.711 72.9489 119.31C70.8329 118.91 68.715 118.518 66.5916 118.159C64.7314 117.844 62.8579 117.487 60.9728 117.364C59.2377 117.25 57.4384 117.38 55.8586 118.165C55.6594 118.264 55.4656 118.374 55.2768 118.491C55.1618 118.562 55.2679 118.745 55.3837 118.673Z" fill="#617EB2"/>
<path d="M94.5777 132.047L94.4818 131.979C94.0548 131.673 93.9566 131.079 94.2623 130.652L106.9 113L108.542 114.175L95.9042 131.828C95.5985 132.255 95.0047 132.353 94.5777 132.047Z" fill="#BFCA33"/>
<path d="M106.9 113.005L110.294 110.191L108.542 114.18L106.9 113.005Z" fill="#F6AB78"/>
<path d="M110.293 110.191L108.624 111.575L109.432 112.153L110.293 110.191Z" fill="#1F2E48"/>
<path d="M94.5777 132.044L94.4818 131.975C94.0548 131.67 93.9566 131.076 94.2623 130.649L95.015 129.598L96.6569 130.773L95.9042 131.824C95.5985 132.251 95.0047 132.35 94.5777 132.044Z" fill="#767D13"/>
<path d="M86.589 131.764C86.7208 131.822 86.8545 131.876 86.9895 131.925C89.1497 132.707 91.7009 132.343 93.5414 130.962C93.9303 130.67 94.3201 130.323 94.8035 130.269C95.1024 130.235 95.4003 130.321 95.691 130.398C96.6875 130.663 97.7056 130.846 98.7317 130.946C99.0226 130.974 99.4416 130.865 99.3843 130.578C99.357 130.442 99.2233 130.359 99.1021 130.293C97.5805 129.459 96.7319 128.849 95.2104 128.015C95.972 126.9 96.8122 127.259 97.8761 127.705C98.94 128.152 99.9484 129.006 101.087 129.191C101.198 129.209 101.316 129.222 101.418 129.177C101.785 129.015 101.543 128.459 101.262 128.173C100.698 127.599 100.135 127.024 99.5715 126.45C100.564 127.048 101.693 128.808 102.372 128.163C102.815 126.788 102.501 126.267 102.026 125.458C102.271 125.678 102.391 126.006 102.619 126.242C102.847 126.479 103.294 126.577 103.474 126.302C103.558 126.173 103.551 126.007 103.541 125.853C103.502 125.288 103.454 124.723 103.395 124.16C103.338 123.613 103.264 123.045 102.961 122.586C102.421 121.764 102.013 121.534 101.043 121.372C102.927 118.824 103.488 118.936 102.253 118.215L98.1034 120.506C98.1034 120.506 95.8598 120.506 94.0649 121.404C92.27 122.301 90.0264 123.647 90.0264 123.647C90.0264 123.647 85.7636 125.442 85.5392 127.91C85.3148 130.378 86.589 131.764 86.589 131.764Z" fill="#FF9A63"/>
<path d="M99.7979 121.34C100.684 121.325 101.693 121.327 102.351 122.018C102.984 122.683 103.104 123.662 103.225 124.53C103.304 125.094 103.396 125.653 103.618 126.18C103.671 126.305 103.853 126.197 103.8 126.073C103.395 125.113 103.464 124.039 103.154 123.054C103.024 122.639 102.832 122.237 102.54 121.912C102.237 121.575 101.832 121.358 101.396 121.248C100.875 121.117 100.331 121.12 99.7975 121.129C99.6621 121.131 99.6616 121.342 99.7979 121.34Z" fill="#AF4E2F"/>
<path d="M98.8951 123.797C99.5496 123.8 100.237 123.819 100.851 124.072C101.147 124.193 101.418 124.379 101.616 124.632C101.815 124.886 101.935 125.193 102.083 125.478C102.237 125.777 102.43 126.06 102.734 126.222C102.854 126.286 102.961 126.104 102.841 126.04C102.261 125.731 102.152 124.966 101.765 124.483C101.349 123.962 100.693 123.741 100.054 123.653C99.67 123.6 99.2825 123.588 98.8951 123.586C98.759 123.585 98.7588 123.797 98.8951 123.797Z" fill="#AF4E2F"/>
<path d="M97.5149 125.843C98.8171 125.716 100.135 126.257 101.008 127.225C101.258 127.503 101.466 127.815 101.629 128.152C101.688 128.275 101.87 128.168 101.811 128.046C101.218 126.817 100.002 125.929 98.6654 125.683C98.2856 125.613 97.8992 125.595 97.5149 125.632C97.3808 125.645 97.3795 125.857 97.5149 125.843Z" fill="#AF4E2F"/>
<path d="M95.9038 121.079C96.8968 120.965 97.8897 120.85 98.8826 120.736C99.0162 120.72 99.0176 120.509 98.8826 120.524C97.8897 120.639 96.8968 120.753 95.9038 120.868C95.7705 120.884 95.7688 121.095 95.9038 121.079Z" fill="#AF4E2F"/>
<path d="M86.0811 130.92C87.0278 131.931 88.4604 132.442 89.8344 132.304C90.2291 132.264 90.6157 132.174 90.9848 132.028C91.1098 131.979 91.0553 131.774 90.9286 131.824C89.6878 132.314 88.2453 132.168 87.1064 131.481C86.7823 131.286 86.4889 131.047 86.2303 130.771C86.1373 130.672 85.9882 130.821 86.0811 130.92Z" fill="#AF4E2F"/>
<path d="M94.7078 128.287C96.1231 128.931 97.5381 129.576 98.9534 130.22C99.0761 130.276 99.1836 130.094 99.06 130.038C97.6448 129.393 96.2298 128.749 94.8145 128.104C94.6918 128.048 94.5842 128.23 94.7078 128.287Z" fill="#AF4E2F"/>
<path d="M235.939 80.8245C236.075 80.8245 236.075 80.6133 235.939 80.6133C235.803 80.6133 235.803 80.8245 235.939 80.8245Z" fill="#617EB2"/>
<path d="M228.434 100.934C228.57 100.934 228.57 100.723 228.434 100.723C228.298 100.723 228.298 100.934 228.434 100.934Z" fill="#617EB2"/>
<path d="M228.434 100.032C228.57 100.032 228.57 99.8203 228.434 99.8203C228.298 99.8203 228.298 100.032 228.434 100.032Z" fill="#617EB2"/>
<path d="M131.507 141.703L170.815 145.84L172.648 118.037C172.791 115.872 171.5 113.867 169.468 113.107C166.99 112.181 163.649 111.053 161.16 110.67L139.437 109.98L132.886 112.049L131.507 141.703Z" fill="#FFA8DC"/>
<path d="M158.719 110.495C158.731 110.948 158.695 111.395 158.617 111.833C157.957 115.539 154.246 118.542 150.407 118.483C146.114 118.417 146.284 114.052 145.293 109.875L158.719 110.495Z" fill="#FF9A63"/>
<path d="M128.748 115.843L123.669 135.654L120.337 142.316C124.324 141.152 130.539 141.477 132.879 141.924L134.054 137.221C134.054 137.221 139.737 129.187 140.129 118.018C140.129 118.018 139.17 114.797 136.765 112.975C133.865 110.779 129.652 112.319 128.748 115.843Z" fill="#FFA8DC"/>
<path d="M133.884 139.647C133.024 138.26 131.522 137.426 129.952 137.101C127.976 136.693 125.941 137.071 124.001 137.492C123.901 137.514 123.943 137.666 124.043 137.645C125.928 137.235 127.907 136.862 129.831 137.238C131.389 137.543 132.894 138.351 133.747 139.727C133.801 139.813 133.939 139.734 133.884 139.647Z" fill="#B26493"/>
<path d="M133.756 138.878C133.245 137.369 132.392 135.995 131.264 134.871C131.191 134.799 131.079 134.911 131.152 134.983C132.26 136.088 133.101 137.437 133.603 138.92C133.636 139.016 133.789 138.975 133.756 138.878Z" fill="#B26493"/>
<path d="M135.577 124.941C135.749 127.017 135.791 129.102 135.7 131.183C135.609 133.271 135.384 135.353 135.028 137.412C134.828 138.564 134.587 139.707 134.306 140.841C134.274 140.973 134.477 141.029 134.51 140.897C135.013 138.866 135.386 136.805 135.628 134.726C135.869 132.658 135.978 130.574 135.956 128.492C135.943 127.307 135.886 126.122 135.788 124.941C135.777 124.807 135.565 124.805 135.577 124.941Z" fill="#B26493"/>
<path d="M121.898 139.162C121.583 139.941 120.986 140.566 120.66 141.34C120.372 142.024 120.392 142.855 120.554 143.569C120.71 144.257 121.061 144.994 121.715 145.33C122.335 145.649 123.071 145.602 123.721 145.411C123.819 145.383 123.777 145.23 123.679 145.259C123.031 145.449 122.268 145.499 121.672 145.124C121.027 144.718 120.735 143.88 120.642 143.158C120.543 142.391 120.631 141.664 121.013 140.986C121.35 140.387 121.791 139.846 122.051 139.204C122.089 139.11 121.936 139.069 121.898 139.162Z" fill="#B26493"/>
<path d="M122.886 139.339C122.012 139.853 121.226 140.577 120.838 141.513C120.45 142.449 120.527 143.615 121.197 144.375C121.318 144.513 121.487 144.646 121.667 144.611C121.785 144.588 121.877 144.499 121.962 144.413C122.414 143.958 122.866 143.503 123.317 143.048C122.921 143.429 122.585 143.873 122.324 144.356C122.153 144.672 122.148 145.229 122.507 145.221C122.712 145.216 122.835 144.999 122.93 144.816C123.872 142.989 125.982 141.978 128.036 141.891C130.09 141.804 132.098 142.507 133.957 143.386C134.155 143.479 134.399 143.573 134.58 143.449C134.684 143.377 134.735 143.251 134.769 143.129C134.991 142.341 134.742 141.473 134.255 140.815C133.768 140.157 133.068 139.687 132.335 139.323C129.093 137.714 124.946 138.134 122.092 140.359" fill="#FFA8DC"/>
<path d="M173.848 117.019L179.315 135.487C179.578 136.378 179.724 137.3 179.747 138.229L179.908 144.668C171.286 149.763 172.058 142.652 169.718 143.1L168.542 138.397C168.542 138.397 162.86 130.363 162.468 119.194C162.468 119.194 163.427 115.973 165.832 114.151C168.732 111.954 172.945 113.495 173.848 117.019Z" fill="#FFA8DC"/>
<path d="M162.983 122.238C163.211 124.967 163.662 127.678 164.334 130.333C164.668 131.656 165.057 132.965 165.499 134.256C165.809 135.162 166.167 136.046 166.499 136.942C166.677 137.423 166.846 137.91 166.969 138.408C167.054 138.752 167.169 139.179 167.057 139.529C167.022 139.636 167.159 139.696 167.233 139.632C167.947 139.014 168.673 138.38 169.579 138.064C170.078 137.89 170.604 137.797 171.128 137.732C171.482 137.689 171.837 137.659 172.192 137.634C172.572 137.607 172.951 137.574 173.332 137.6C173.491 137.611 173.652 137.624 173.812 137.628C173.841 137.628 173.876 137.632 173.904 137.623C173.992 137.595 174.011 137.477 173.93 137.427C173.866 137.388 173.76 137.392 173.69 137.382C173.529 137.361 173.368 137.342 173.207 137.323C172.248 137.209 171.284 137.111 170.331 136.953C170.048 136.905 169.77 136.859 169.48 136.872C169.146 136.887 168.816 136.959 168.508 137.089C167.911 137.339 167.419 137.803 167.182 138.41C167.121 138.566 167.081 138.729 167.057 138.895C167.037 139.028 167.241 139.085 167.26 138.951C167.357 138.286 167.757 137.73 168.341 137.404C168.913 137.084 169.552 137.031 170.188 137.141C171.122 137.304 172.068 137.4 173.009 137.511C173.209 137.535 173.41 137.558 173.609 137.583C173.673 137.591 173.709 137.595 173.771 137.605C173.787 137.607 173.805 137.614 173.821 137.613C173.859 137.612 173.832 137.625 173.803 137.594C173.793 137.569 173.783 137.544 173.772 137.519V137.519C173.783 137.494 173.793 137.469 173.803 137.445C173.83 137.42 173.887 137.426 173.853 137.416C173.839 137.412 173.819 137.416 173.804 137.415C173.746 137.414 173.689 137.41 173.631 137.407C173.388 137.393 173.146 137.365 172.902 137.378C172.214 137.415 171.524 137.461 170.841 137.558C169.947 137.686 169.106 137.942 168.357 138.457C167.908 138.766 167.495 139.125 167.084 139.482C167.143 139.516 167.202 139.55 167.261 139.584C167.36 139.274 167.293 138.913 167.23 138.603C167.141 138.168 167.006 137.743 166.861 137.325C166.568 136.479 166.218 135.655 165.917 134.812C164.994 132.226 164.286 129.564 163.801 126.861C163.526 125.33 163.325 123.787 163.195 122.237C163.182 122.104 162.971 122.102 162.983 122.238Z" fill="#B26493"/>
<path d="M174.759 147.026L157.582 153.143C154.246 154.004 151.039 149.58 154.533 147.285C154.533 147.285 170.237 137.08 175.102 137.703C179.967 138.327 180.105 143.147 180.105 143.147C180.105 143.147 179.728 145.365 174.759 147.026Z" fill="#FF9A63"/>
<path d="M174.764 146.949L172.862 147.656L170.954 148.346C169.68 148.8 168.4 149.235 167.121 149.673C165.838 150.103 164.56 150.543 163.275 150.965C161.992 151.392 160.705 151.808 159.416 152.219C160.687 151.757 161.96 151.3 163.237 150.854C164.512 150.403 165.793 149.969 167.07 149.526L170.912 148.222L172.835 147.577L174.764 146.949Z" fill="#B14D13"/>
<path d="M176.73 138.25C176.885 138.379 177.07 138.471 177.248 138.565C177.496 138.696 177.747 138.823 177.991 138.962C178.552 139.283 179.066 139.662 179.364 140.252C179.672 140.86 179.731 141.563 179.819 142.229C179.885 142.726 179.729 143.244 179.563 143.707C179.456 144.005 179.327 144.296 179.172 144.572C179.045 144.795 178.901 145.019 178.703 145.186C178.599 145.274 178.749 145.423 178.852 145.336C179.245 145.005 179.482 144.478 179.671 144.014C179.872 143.52 180.055 142.963 180.047 142.423C180.042 142.112 179.976 141.79 179.929 141.483C179.876 141.137 179.808 140.79 179.685 140.462C179.447 139.83 179.014 139.362 178.455 138.997C178.157 138.803 177.842 138.637 177.526 138.473C177.311 138.36 177.067 138.258 176.879 138.1C176.775 138.014 176.625 138.162 176.73 138.25Z" fill="#B26493"/>
<path d="M162.223 150.919C161.061 152.437 158.956 153.106 157.091 152.688C156.46 152.547 155.818 152.293 155.187 152.434C154.633 152.557 154.194 152.766 153.711 153.063C153.228 153.361 151.373 154.588 150.906 154.267C150.439 153.946 151.812 152.145 152.376 152.205C149.338 153.679 149.942 154.473 148.326 154.708C147.965 154.761 147.498 154.72 147.372 154.377C147.277 154.119 147.44 153.843 147.605 153.624C148.332 152.655 149.24 151.823 150.27 151.186C149.334 152.148 148.245 152.962 147.056 153.587C146.793 153.725 146.494 153.857 146.209 153.772C145.559 153.577 145.725 152.549 146.244 152.111C146.764 151.674 147.493 151.459 147.842 150.876C147.105 151.761 146.161 152.472 145.107 152.937C144.793 153.076 144.312 153.124 144.211 152.796C144.147 152.584 144.308 152.376 144.458 152.214C145.863 150.693 147.267 149.172 148.671 147.651C149.143 147.139 149.635 146.614 150.271 146.33C150.789 146.1 151.367 146.047 151.932 145.997C154.202 145.798 156.473 145.598 158.743 145.398C158.743 145.398 163.643 146.821 162.272 150.348" fill="#FF9A63"/>
<path d="M146.497 152.253C147.32 151.167 148.291 150.191 149.374 149.363C149.48 149.282 149.375 149.098 149.267 149.181C148.153 150.033 147.162 151.029 146.315 152.147C146.233 152.255 146.416 152.36 146.497 152.253Z" fill="#AF4E2F"/>
<path d="M148.192 153.015C149.211 152.079 150.256 151.172 151.328 150.296C151.433 150.21 151.283 150.061 151.179 150.147C150.107 151.023 149.061 151.93 148.042 152.866C147.942 152.958 148.092 153.107 148.192 153.015Z" fill="#AF4E2F"/>
<path d="M149.622 154.221C150.705 153.287 151.875 152.46 153.115 151.748C153.233 151.68 153.126 151.498 153.008 151.566C151.753 152.286 150.569 153.126 149.473 154.071C149.37 154.16 149.52 154.309 149.622 154.221Z" fill="#AF4E2F"/>
<path d="M151.067 153.342C150.917 153.535 150.757 153.741 150.728 153.993C150.706 154.188 150.769 154.404 150.929 154.526C151.129 154.68 151.379 154.616 151.588 154.519C151.833 154.406 152.068 154.267 152.301 154.132C153.238 153.588 154.126 152.963 155.076 152.44C155.618 152.142 156.179 151.881 156.769 151.694C156.898 151.653 156.843 151.448 156.713 151.49C154.863 152.077 153.359 153.35 151.662 154.245C151.452 154.356 151.091 154.549 150.964 154.229C150.857 153.958 151.059 153.694 151.216 153.491C151.299 153.385 151.15 153.235 151.067 153.342Z" fill="#AF4E2F"/>
<path d="M163.435 165.844L163.354 165.494C163.236 164.983 163.554 164.472 164.066 164.353L187.851 158.84L188.361 161.042L164.576 166.555C164.065 166.673 163.554 166.355 163.435 165.844Z" fill="#BFCA33"/>
<path d="M187.851 158.84L192.783 158.986L188.361 161.042L187.851 158.84Z" fill="#F6AB78"/>
<path d="M192.783 158.982L190.357 158.91L190.608 159.994L192.783 158.982Z" fill="#1F2E48"/>
<path d="M163.435 165.835L163.354 165.485C163.236 164.974 163.554 164.463 164.066 164.345L165.586 163.992L166.097 166.194L164.576 166.547C164.065 166.665 163.554 166.347 163.435 165.835Z" fill="#767D13"/>
<path d="M182.295 146.922L174.63 148.556L167.593 154.462C167.593 154.462 166.462 156.598 171.111 155.09L177.269 151.697C177.269 151.697 175.132 154.336 178.777 153.834C178.777 153.834 177.645 156.096 181.039 155.97C181.039 155.97 179.908 158.483 182.923 157.604C182.923 157.604 191.594 158.734 192.348 155.593L193.982 154.713C193.982 154.713 197.124 150.315 192.348 147.299L182.295 146.922Z" fill="#FF9A63"/>
<path d="M208.391 125.528C204.732 133.449 196.264 137.847 190.518 144.413C189.836 145.192 189.151 146.141 189.316 147.163C189.412 147.76 189.787 148.269 190.151 148.752C191.603 150.681 193.055 152.609 194.507 154.538C194.868 155.018 195.26 155.521 195.824 155.726C196.598 156.007 197.444 155.646 198.181 155.279C206.792 150.995 214.486 144.878 220.601 137.454C222.15 135.574 223.63 133.547 224.26 131.193C224.89 128.839 224.511 126.078 222.749 124.395C220.484 122.231 216.902 122.499 213.808 122.991C211.383 123.377 208.561 124.131 207.698 126.43" fill="#A4C4FF"/>
<path d="M191.599 145.948C192.916 148.385 194.514 150.668 196.353 152.739C196.878 153.33 197.423 153.903 197.986 154.459C198.083 154.554 198.233 154.405 198.136 154.309C196.165 152.366 194.422 150.196 192.952 147.851C192.54 147.194 192.15 146.524 191.781 145.841C191.717 145.722 191.534 145.828 191.599 145.948Z" fill="#617EB2"/>
<path d="M189.538 147.615C190.629 150.033 192.179 152.242 194.081 154.092C194.615 154.612 195.177 155.102 195.763 155.562C195.869 155.645 196.019 155.497 195.912 155.413C193.838 153.785 192.078 151.768 190.745 149.493C190.368 148.85 190.027 148.187 189.721 147.508C189.665 147.384 189.483 147.492 189.538 147.615Z" fill="#617EB2"/>
<path d="M189.926 144.987C192.206 143.058 194.398 141.03 196.564 138.975C198.69 136.957 200.795 134.917 202.954 132.936C204.198 131.794 205.46 130.673 206.749 129.582C206.853 129.494 206.703 129.345 206.6 129.433C204.32 131.361 202.128 133.39 199.962 135.445C197.836 137.462 195.731 139.502 193.572 141.484C192.328 142.626 191.066 143.747 189.777 144.837C189.673 144.925 189.823 145.074 189.926 144.987Z" fill="#617EB2"/>
<path d="M196.485 155.728C201.209 153.748 205.626 151.104 209.652 147.94C211.683 146.344 213.602 144.616 215.437 142.798C217.236 141.017 219.02 139.213 220.62 137.249C222.383 135.084 223.919 132.717 224.878 130.083C224.948 129.891 224.642 129.808 224.573 129.998C222.845 134.742 219.288 138.516 215.775 142.017C212.195 145.584 208.341 148.827 204.034 151.488C201.597 152.995 199.044 154.314 196.401 155.422C196.215 155.5 196.297 155.807 196.485 155.728Z" fill="#617EB2"/>
<path d="M147.804 135.246C147.94 135.246 147.94 135.035 147.804 135.035C147.668 135.035 147.668 135.246 147.804 135.246Z" fill="#B26493"/>
<path d="M133.27 143.014L134.941 144.629C136.447 146.083 136.4 148.577 134.747 149.862C133.852 150.559 132.584 150.817 130.821 149.862L124.085 145.32C122.811 144.46 122.064 142.995 122.16 141.461C122.195 140.898 122.568 140.347 123.112 139.863C124.579 138.558 126.691 138.287 128.49 139.071C129.624 139.565 132.65 142.055 133.27 143.014Z" fill="#FF9A63"/>
<path d="M122.787 143.718C122.274 142.972 122.18 142.01 122.447 141.155C122.578 140.735 122.798 140.34 123.101 140.019C123.476 139.62 123.971 139.363 124.491 139.205C126.673 138.542 128.84 139.538 130.611 140.77C131.641 141.486 132.59 142.31 133.525 143.144C133.626 143.234 133.776 143.085 133.674 142.994C132.803 142.217 131.919 141.451 130.971 140.767C130.033 140.09 129.021 139.485 127.919 139.115C126.857 138.758 125.727 138.665 124.636 138.945C124.082 139.087 123.54 139.327 123.111 139.713C122.769 140.022 122.51 140.413 122.337 140.839C121.945 141.8 122.01 142.959 122.605 143.824C122.681 143.936 122.864 143.83 122.787 143.718Z" fill="#AF4E2F"/>
<path d="M135.653 143.129C136.127 143.278 136.615 143.434 136.995 143.754C137.433 144.124 137.686 144.701 137.662 145.273C137.658 145.368 137.645 145.465 137.597 145.548C137.521 145.679 137.37 145.745 137.229 145.803C136.926 145.927 136.569 146.049 136.286 145.884C136.132 145.795 136.033 145.637 135.945 145.483C135.733 145.109 135.55 144.719 135.4 144.316C135.256 143.932 135.155 143.462 135.413 143.145" fill="#FF9A63"/>
<path d="M131.484 136.378C131.834 136.215 132.249 136.367 132.412 136.717L138.733 150.3L137.466 150.889L131.145 137.306C130.983 136.956 131.134 136.541 131.484 136.378Z" fill="#444AB4"/>
<path d="M138.733 150.301L139.274 153.303L137.466 150.89L138.733 150.301Z" fill="#F6AB78"/>
<path d="M139.274 153.301L139.008 151.824L138.385 152.114L139.274 153.301Z" fill="#1F2E48"/>
<path d="M131.484 136.378C131.834 136.215 132.249 136.367 132.412 136.717L132.772 137.491L131.505 138.08L131.145 137.306C130.983 136.956 131.134 136.541 131.484 136.378Z" fill="#FDC93A"/>
<path d="M133.109 142.146C134.21 143.268 135.136 144.56 135.844 145.963C136.063 146.398 136.262 146.921 136.042 147.356C135.772 147.889 135.054 147.966 134.456 147.972C134.876 148.393 135.226 148.956 135.157 149.546C135.087 150.137 134.422 150.654 133.889 150.392C134.184 150.714 133.986 151.295 133.59 151.479C133.193 151.663 132.709 151.526 132.36 151.261C132.514 151.284 132.586 151.486 132.528 151.63C132.469 151.774 132.326 151.864 132.183 151.926C131.505 152.221 130.7 152.076 130.051 151.722C129.402 151.368 128.877 150.828 128.364 150.297C128.02 149.941 127.66 149.555 127.577 149.067C127.495 148.58 127.84 147.993 128.333 148.023C128.116 147.549 127.955 147.011 128.105 146.512C128.255 146.013 128.829 145.619 129.306 145.828C129.078 145.394 129.186 144.81 129.556 144.487C129.925 144.164 130.481 143.895 130.881 144.18C130.465 143.547 130.609 142.863 131.157 142.341C131.704 141.82 132.632 141.759 133.243 142.204" fill="#FF9A63"/>
<path d="M134.336 147.552C134.697 147.75 135.137 147.969 135.556 147.824C135.898 147.705 136.109 147.372 136.163 147.025C136.23 146.591 136.063 146.169 135.89 145.78C135.703 145.36 135.489 144.951 135.252 144.558C135.017 144.17 134.758 143.798 134.479 143.441C134.205 143.092 133.915 142.747 133.58 142.455C133.013 141.961 132.246 141.629 131.5 141.914C131.088 142.071 130.835 142.392 130.664 142.79C130.477 143.225 130.47 143.681 130.607 144.132C130.659 144.092 130.711 144.052 130.762 144.012C130.501 143.86 130.218 143.833 129.94 143.958C129.666 144.081 129.402 144.313 129.223 144.552C128.885 145.001 128.855 145.643 129.144 146.123C129.193 146.075 129.241 146.026 129.289 145.978C128.894 145.688 128.364 145.95 128.127 146.319C127.777 146.866 128.08 147.568 128.318 148.093C128.358 148.041 128.398 147.99 128.438 147.938C127.908 147.841 127.466 148.318 127.42 148.82C127.362 149.443 127.808 149.997 128.199 150.429C128.62 150.896 129.107 151.306 129.637 151.644C130.148 151.969 130.783 152.347 131.412 152.291C131.955 152.243 132.539 151.702 132.297 151.12C132.232 151.147 132.168 151.174 132.104 151.201C132.318 151.683 132.934 151.933 133.421 151.724C133.908 151.514 134.152 150.894 133.948 150.408C133.896 150.447 133.844 150.487 133.793 150.527C134.445 150.861 135.158 150.209 135.188 149.555C135.216 148.92 135.191 148.055 134.621 147.649C134.51 147.57 134.404 147.753 134.514 147.831C134.985 148.167 134.978 148.904 134.977 149.42C134.977 149.719 134.893 149.976 134.668 150.184C134.461 150.376 134.164 150.48 133.899 150.344C133.827 150.307 133.706 150.371 133.744 150.464C133.908 150.854 133.739 151.357 133.34 151.53C132.941 151.702 132.458 151.48 132.287 151.094C132.239 150.986 132.047 151.065 132.093 151.176C132.284 151.634 131.818 152.049 131.39 152.081C130.845 152.121 130.306 151.805 129.857 151.532C129.404 151.255 128.985 150.926 128.608 150.552C128.244 150.191 127.843 149.768 127.685 149.268C127.6 148.999 127.603 148.718 127.755 148.473C127.887 148.26 128.122 148.094 128.382 148.141C128.476 148.159 128.54 148.072 128.501 147.986C128.304 147.551 128.026 146.953 128.276 146.483C128.441 146.174 128.862 145.924 129.182 146.16C129.27 146.225 129.378 146.101 129.327 146.016C129.088 145.62 129.103 145.101 129.362 144.718C129.499 144.515 129.715 144.329 129.924 144.204C130.166 144.06 130.411 144.051 130.656 144.194C130.734 144.24 130.838 144.164 130.811 144.075C130.701 143.714 130.685 143.348 130.811 142.989C130.925 142.665 131.113 142.349 131.421 142.18C132.046 141.84 132.776 142.082 133.299 142.495C133.9 142.968 134.385 143.618 134.806 144.25C135.031 144.587 135.237 144.936 135.424 145.296C135.608 145.652 135.798 146.023 135.905 146.411C136.008 146.784 136 147.246 135.679 147.516C135.309 147.827 134.799 147.564 134.443 147.369C134.323 147.304 134.216 147.487 134.336 147.552Z" fill="#AF4E2F"/>
<path d="M128.88 148.393C129.683 149.623 130.761 150.66 132.022 151.414C132.139 151.484 132.245 151.302 132.128 151.232C130.899 150.497 129.846 149.487 129.063 148.287C128.989 148.173 128.806 148.279 128.88 148.393Z" fill="#AF4E2F"/>
<path d="M130.952 144.208C131.844 145.671 133.129 146.88 134.646 147.678C134.766 147.742 134.873 147.56 134.753 147.496C133.267 146.714 132.009 145.535 131.135 144.101C131.064 143.985 130.881 144.091 130.952 144.208Z" fill="#AF4E2F"/>
<path d="M129.345 145.901C130.439 147.294 131.632 148.608 132.916 149.83C133.277 150.174 133.646 150.51 134.021 150.839C134.123 150.929 134.273 150.78 134.17 150.69C132.839 149.522 131.592 148.258 130.443 146.911C130.119 146.531 129.803 146.144 129.495 145.752C129.411 145.645 129.262 145.795 129.345 145.901Z" fill="#AF4E2F"/>
<path d="M109.064 157.358H67.1195C65.2095 157.358 63.6611 155.81 63.6611 153.9C63.6611 151.99 65.2095 150.441 67.1195 150.441H109.064V157.358Z" fill="#767D13"/>
<path d="M109.242 155.411H68.2728C67.3912 155.411 66.6765 154.697 66.6765 153.815C66.6765 152.933 67.3912 152.219 68.2728 152.219H109.242L109.242 155.411Z" fill="white"/>
<path d="M99.6588 151.093H57.714C55.804 151.093 54.2556 149.544 54.2556 147.634C54.2556 145.724 55.804 144.176 57.714 144.176H99.659L99.6588 151.093Z" fill="#FDC93A"/>
<path d="M99.8359 149.138H58.8663C57.9847 149.138 57.27 148.423 57.27 147.542C57.27 146.66 57.9847 145.945 58.8663 145.945H99.8359V149.138Z" fill="white"/>
<path d="M135.382 100.099C136.449 102.811 137.516 105.522 138.584 108.233C139.329 110.127 140.116 112.084 141.587 113.49C144.068 115.861 148.251 116.043 151.084 114.107C153.917 112.171 155.278 108.415 154.613 105.049C154.535 104.656 154.438 104.227 154.627 103.874C154.796 103.558 155.147 103.395 155.45 103.204C157.808 101.721 157.627 98.2462 156.871 95.5657C156.036 92.605 154.493 95.1501 151.809 93.6461C150.558 92.9445 147.876 95.5219 146.443 95.4349C142.907 95.2201 140.606 87.8425 138.164 90.4085C135.722 92.9745 134.822 97.0743 136.451 100.22" fill="#FF9A63"/>
<path d="M135.095 99.2627C134.468 102.384 136.817 105.557 138.617 108.183C138.391 106.556 136.651 101.018 137.532 99.6316C137.87 100.236 138.208 100.84 138.546 101.444C139.077 100.661 139.607 99.8781 140.138 99.0954C140.287 98.8746 140.461 98.6368 140.72 98.5749C141.119 98.4796 141.466 98.837 141.745 99.1381C143.856 101.416 147.46 102.154 150.296 100.888C150.486 100.803 150.681 100.708 150.89 100.705C151.542 100.696 151.841 101.481 152.136 102.062C153.149 104.059 155.402 105.012 155.609 107.242C158.553 102.851 158.744 95.0926 155.251 92.5241C154.98 92.3253 154.793 92.02 154.67 91.7078C154.571 91.4561 154.553 91.1817 154.503 90.9159C154.216 89.3794 152.745 88.1522 151.182 88.1452C150.637 88.1429 150.101 88.2711 149.56 88.3311C147.628 88.5451 145.701 87.8856 143.756 87.8907C139.27 87.9023 135.208 92.0263 135.264 96.5127" fill="#091014"/>
<path d="M154.716 107.833C155.58 107.833 156.281 106.36 156.281 104.543C156.281 102.727 155.58 101.254 154.716 101.254C153.851 101.254 153.151 102.727 153.151 104.543C153.151 106.36 153.851 107.833 154.716 107.833Z" fill="#FF9A63"/>
<path d="M153.547 110.475C152.881 112.085 151.644 113.488 150.109 114.318C148.615 115.125 146.872 115.241 145.223 114.94C144.386 114.787 143.561 114.527 142.806 114.132C142.403 113.921 142.005 113.673 141.667 113.367C141.154 112.901 140.734 112.322 140.366 111.739C139.536 110.422 138.97 108.949 138.589 107.443C138.528 107.198 138.471 106.952 138.419 106.705C138.39 106.572 138.187 106.628 138.215 106.761C138.567 108.42 139.125 110.052 139.985 111.519C140.394 112.217 140.871 112.903 141.46 113.462C142.327 114.285 143.533 114.77 144.679 115.042C146.331 115.433 148.143 115.435 149.716 114.744C151.339 114.032 152.683 112.684 153.485 111.112C153.582 110.922 153.67 110.728 153.751 110.531C153.803 110.405 153.599 110.351 153.547 110.475Z" fill="#AF4E2F"/>
<path d="M154.071 104.897C154.119 104.02 154.376 103.167 154.816 102.408C154.884 102.29 154.702 102.183 154.634 102.301C154.175 103.093 153.91 103.983 153.86 104.897C153.852 105.033 154.063 105.032 154.071 104.897Z" fill="#AF4E2F"/>
<path d="M154.499 104.274C154.758 103.782 155.131 103.355 155.588 103.037C155.699 102.96 155.593 102.777 155.482 102.855C154.995 103.193 154.593 103.643 154.317 104.167C154.254 104.287 154.436 104.394 154.499 104.274Z" fill="#AF4E2F"/>
<path d="M148.894 104.972L147.472 104.574C147.297 104.524 147.194 104.342 147.244 104.167C147.293 103.991 147.475 103.889 147.65 103.938L149.072 104.337C149.248 104.386 149.35 104.568 149.301 104.744C149.252 104.919 149.07 105.021 148.894 104.972Z" fill="black"/>
<path d="M141.39 104.774L140.017 105.315C139.848 105.382 139.656 105.299 139.589 105.13C139.522 104.96 139.605 104.769 139.775 104.702L141.148 104.16C141.317 104.093 141.509 104.176 141.576 104.346C141.642 104.515 141.559 104.707 141.39 104.774Z" fill="black"/>
<path d="M144.661 105.824C144.661 105.824 145.076 107.224 144.08 107.512C143.084 107.801 143.856 108.949 144.617 108.927" stroke="#35281F" stroke-width="0.5827" stroke-miterlimit="10"/>
<path d="M143.264 110.962L147.575 110.766C147.575 110.766 146.981 112.362 145.319 112.152C143.656 111.942 143.264 110.962 143.264 110.962Z" fill="white"/>
<path d="M147.579 107.255C147.883 107.255 148.13 107.008 148.13 106.704C148.13 106.399 147.883 106.152 147.579 106.152C147.274 106.152 147.027 106.399 147.027 106.704C147.027 107.008 147.274 107.255 147.579 107.255Z" fill="#000100"/>
<path d="M141.308 107.255C141.613 107.255 141.859 107.008 141.859 106.704C141.859 106.399 141.613 106.152 141.308 106.152C141.003 106.152 140.757 106.399 140.757 106.704C140.757 107.008 141.003 107.255 141.308 107.255Z" fill="#000100"/>
</svg>
