<svg width="64" height="64" viewBox="0 0 64 64" fill="none" xmlns="http://www.w3.org/2000/svg">
<path d="M62 9V3C62 2.73478 61.8946 2.48043 61.7071 2.29289C61.5196 2.10536 61.2652 2 61 2H49C48.848 2.00008 48.6981 2.03479 48.5615 2.10151C48.425 2.16822 48.3055 2.26517 48.212 2.385L42.265 10C41.6403 9.74602 40.9498 9.70268 40.2982 9.87657C39.6466 10.0504 39.0695 10.4321 38.6544 10.9635C38.2393 11.495 38.0088 12.1474 37.9979 12.8216C37.987 13.4959 38.1963 14.1554 38.594 14.7L36.887 16.886C36.5321 17.334 36.1237 17.737 35.671 18.086C35.613 18.073 35.557 18.054 35.497 18.044C34.7629 17.9203 34.0091 18.0734 33.3815 18.4738C32.7539 18.8741 32.2972 19.4932 32.1 20.211C31.7183 20.0706 31.3122 20.0087 30.906 20.029C30.8385 19.978 30.7645 19.9363 30.686 19.905L29.457 19.505C29.0159 19.3618 28.5488 19.3171 28.0885 19.3739C27.6282 19.4308 27.186 19.5878 26.793 19.834L23.213 18.22C22.4887 17.8913 21.8253 17.4423 21.251 16.892C21.7271 16.3435 21.9955 15.6451 22.0093 14.9189C22.0231 14.1927 21.7815 13.4846 21.3266 12.9184C20.8716 12.3521 20.2323 11.9636 19.5202 11.8206C18.808 11.6776 18.0683 11.7892 17.43 12.136L9.787 2.383C9.69344 2.26367 9.57398 2.16718 9.43763 2.10083C9.30129 2.03447 9.15164 1.99999 9 2H3C2.73479 2 2.48043 2.10536 2.2929 2.29289C2.10536 2.48043 2 2.73478 2 3V18C1.9995 18.2213 2.07307 18.4364 2.209 18.611L5.356 22.685C5.07523 23.21 4.9522 23.8049 5.00171 24.3982C5.05123 24.9915 5.27119 25.5578 5.6351 26.029C5.99902 26.5001 6.49137 26.856 7.05288 27.0539C7.61439 27.2517 8.22112 27.283 8.8 27.144L9.2 27.658C9.70223 28.3084 10.0864 29.0418 10.335 29.825L11.423 33.264C11.7144 34.1866 12.1534 35.0559 12.723 35.838L13.377 36.738L12.359 37.053C12.0319 36.4146 11.4901 35.9119 10.8289 35.6336C10.1677 35.3553 9.42958 35.3191 8.74434 35.5313C8.0591 35.7436 7.47069 36.1908 7.08267 36.7942C6.69465 37.3975 6.53188 38.1184 6.623 38.83L2.7 40.045C2.49683 40.1089 2.31937 40.236 2.19346 40.4078C2.06755 40.5795 1.99978 40.787 2 41V57C1.99994 57.1618 2.03913 57.3212 2.11422 57.4645C2.1893 57.6078 2.29803 57.7307 2.43108 57.8228C2.56413 57.9148 2.71752 57.9732 2.8781 57.9929C3.03867 58.0126 3.20163 57.9931 3.353 57.936L12.131 54.636C12.417 54.9393 12.7615 55.1814 13.1438 55.3476C13.5261 55.5138 13.9382 55.6007 14.355 55.603C14.6025 55.6028 14.849 55.5723 15.089 55.512C15.733 55.3557 16.3075 54.9913 16.7233 54.4753C17.1392 53.9593 17.3731 53.3205 17.389 52.658L22.639 50.683C23.4468 50.3918 24.2983 50.2399 25.157 50.234L26.582 50.245C26.3059 50.62 26.1217 51.0546 26.0444 51.5138C25.967 51.9729 25.9985 52.4439 26.1365 52.8886C26.2745 53.3334 26.515 53.7395 26.8387 54.0743C27.1624 54.4091 27.5601 54.6631 28 54.816V61C28 61.2652 28.1054 61.5196 28.2929 61.7071C28.4804 61.8946 28.7348 62 29 62H43C43.2652 62 43.5196 61.8946 43.7071 61.7071C43.8946 61.5196 44 61.2652 44 61V54.816C44.5845 54.6124 45.0912 54.2318 45.4498 53.7273C45.8083 53.2227 46.0009 52.619 46.0009 52C46.0009 51.381 45.8083 50.7773 45.4498 50.2727C45.0912 49.7682 44.5845 49.3876 44 49.184V45.3C44.0034 44.6018 44.1116 43.9081 44.321 43.242L52 45.451C52.0022 46.1179 52.2266 46.7651 52.6376 47.2903C53.0487 47.8155 53.6231 48.1887 54.27 48.351C54.5101 48.4109 54.7566 48.4412 55.004 48.441C55.5081 48.446 56.0049 48.3196 56.4452 48.0741C56.8855 47.8286 57.2543 47.4725 57.515 47.041L60.722 47.964C60.8712 48.0072 61.0285 48.015 61.1813 47.9869C61.3341 47.9587 61.4782 47.8953 61.6022 47.8018C61.7262 47.7082 61.8268 47.587 61.8958 47.4479C61.9649 47.3087 62.0005 47.1554 62 47V33C61.9999 32.7898 61.9336 32.585 61.8104 32.4146C61.6873 32.2442 61.5136 32.117 61.314 32.051L57.925 30.928C57.8185 30.4318 57.5876 29.9709 57.2539 29.5885C56.9203 29.2061 56.4949 28.9148 56.0177 28.742C55.5406 28.5692 55.0273 28.5206 54.5262 28.6007C54.025 28.6808 53.5525 28.8871 53.153 29.2C53.111 29.234 53.08 29.277 53.039 29.312L50.108 28.341L50.229 27.23C50.3128 26.4753 50.5199 25.7396 50.842 25.052C51.4881 25.2882 52.1945 25.3028 52.8499 25.0935C53.5052 24.8841 54.0723 24.4627 54.4618 23.8956C54.8513 23.3286 55.0411 22.648 55.0013 21.9612C54.9615 21.2744 54.6944 20.6203 54.242 20.102L61.812 9.587C61.9353 9.4162 62.0011 9.21064 62 9ZM32 23V35C32 35.2652 32.1054 35.5196 32.2929 35.7071C32.4804 35.8946 32.7348 36 33 36C33.2652 36 33.5196 35.8946 33.7071 35.7071C33.8946 35.5196 34 35.2652 34 35V21C33.9999 20.8538 34.0319 20.7094 34.0937 20.5769C34.1555 20.4445 34.2456 20.3271 34.3576 20.2332C34.4696 20.1393 34.6008 20.0711 34.7421 20.0334C34.8833 19.9957 35.0311 19.9894 35.175 20.015C35.4172 20.0742 35.6316 20.2152 35.7819 20.4142C35.9322 20.6131 36.0092 20.8578 36 21.107V35C36 35.2652 36.1054 35.5196 36.2929 35.7071C36.4804 35.8946 36.7348 36 37 36C37.2652 36 37.5196 35.8946 37.7071 35.7071C37.8946 35.5196 38 35.2652 38 35V23C37.9999 22.8548 38.0315 22.7114 38.0924 22.5796C38.1534 22.4478 38.2423 22.3309 38.353 22.237C38.4649 22.1412 38.5968 22.0716 38.7389 22.0332C38.8811 21.9948 39.0301 21.9886 39.175 22.015C39.4172 22.0742 39.6316 22.2152 39.7819 22.4142C39.9322 22.6131 40.0092 22.8578 40 23.107V35C40 35.2652 40.1054 35.5196 40.2929 35.7071C40.4804 35.8946 40.7348 36 41 36C41.2652 36 41.5196 35.8946 41.7071 35.7071C41.8946 35.5196 42 35.2652 42 35V25C41.9999 24.8548 42.0315 24.7114 42.0924 24.5796C42.1534 24.4478 42.2423 24.3309 42.353 24.237C42.4649 24.1413 42.5968 24.0717 42.739 24.0333C42.8812 23.9949 43.0301 23.9887 43.175 24.015C43.4172 24.0742 43.6316 24.2152 43.7819 24.4142C43.9322 24.6131 44.0092 24.8578 44 25.107V36.7C44 37.4524 43.8791 38.1999 43.642 38.914L42.463 42.45C42.1553 43.3686 41.9989 44.3312 42 45.3V49H30V46C30.0006 45.8246 29.9551 45.6522 29.868 45.5L22.733 33.018C22.594 32.7734 22.539 32.49 22.5764 32.2111C22.6137 31.9323 22.7415 31.6734 22.94 31.474C23.0661 31.3481 23.217 31.2498 23.3831 31.1854C23.5492 31.121 23.727 31.092 23.905 31.1001C24.0829 31.1082 24.2573 31.1532 24.4169 31.2324C24.5765 31.3116 24.7179 31.4232 24.832 31.56L28.232 35.64C28.3636 35.7978 28.5406 35.9112 28.7389 35.9649C28.9372 36.0185 29.1472 36.0098 29.3404 35.9398C29.5336 35.8699 29.7005 35.7422 29.8185 35.574C29.9365 35.4059 29.9999 35.2054 30 35V23.107C29.9908 22.8578 30.0678 22.6131 30.2181 22.4142C30.3685 22.2152 30.5828 22.0742 30.825 22.015C30.9689 21.9894 31.1167 21.9957 31.2579 22.0334C31.3992 22.0711 31.5304 22.1393 31.6424 22.2332C31.7545 22.3271 31.8445 22.4445 31.9063 22.5769C31.9681 22.7094 32.0001 22.8538 32 23ZM45.539 39.547C45.8448 38.629 46.0005 37.6676 46 36.7V28.94C46.4486 29.182 46.9169 29.3854 47.4 29.548L52.056 31.09C52.0253 31.2456 52.0072 31.4035 52.002 31.562V43.37L44.944 41.338L45.539 39.547ZM28 25.34V27.44L24.986 26.46C24.8469 26.4149 24.7194 26.3399 24.6125 26.2402C24.5055 26.1405 24.4217 26.0186 24.367 25.883C24.3123 25.7474 24.2879 25.6015 24.2957 25.4555C24.3035 25.3095 24.3432 25.167 24.412 25.038C24.5434 24.826 24.7439 24.6659 24.9796 24.5847C25.2154 24.5034 25.4719 24.506 25.706 24.592L28 25.34ZM24.361 28.363L28 29.546V32.237L26.369 30.279C25.845 29.6475 25.1024 29.2365 24.2891 29.128C23.4757 29.0194 22.6513 29.2211 21.98 29.693L21.847 29.649C21.708 29.604 21.5805 29.5291 21.4735 29.4295C21.3666 29.3299 21.2827 29.2081 21.2279 29.0727C21.1731 28.9372 21.1486 28.7914 21.1563 28.6454C21.1639 28.4995 21.2034 28.357 21.272 28.228C21.404 28.0151 21.6054 27.8542 21.8423 27.7726C22.0791 27.691 22.3369 27.6936 22.572 27.78L24.361 28.363ZM28.533 21.363C28.1888 21.8798 28.0035 22.4861 28 23.107V23.207C27.78 23.1062 27.6046 22.9284 27.507 22.707C27.4511 22.5707 27.4259 22.4238 27.4333 22.2767C27.4408 22.1296 27.4806 21.9859 27.55 21.856C27.6498 21.6886 27.7953 21.553 27.9694 21.4654C28.1435 21.3777 28.339 21.3415 28.533 21.361V21.363ZM4 4H8.513L15.859 13.375L6.733 21.2L4 17.659V4ZM7.322 24.908C7.21322 24.7993 7.12809 24.6694 7.07195 24.5262C7.01581 24.3831 6.98989 24.2299 6.99581 24.0762C7.00172 23.9226 7.03935 23.7718 7.10633 23.6334C7.17331 23.495 7.26819 23.372 7.385 23.272L18.163 14.034C18.2735 13.9338 18.403 13.8568 18.5438 13.8074C18.6846 13.7581 18.8338 13.7376 18.9827 13.7469C19.1316 13.7563 19.2771 13.7954 19.4106 13.862C19.5441 13.9285 19.6629 14.0212 19.76 14.1344C19.8571 14.2477 19.9305 14.3793 19.9758 14.5214C20.0212 14.6635 20.0376 14.8133 20.0241 14.9618C20.0106 15.1104 19.9674 15.2548 19.8971 15.3863C19.8269 15.5179 19.7309 15.6341 19.615 15.728L8.837 24.967C8.62276 25.1482 8.34844 25.2427 8.06804 25.2318C7.78765 25.2208 7.5215 25.1053 7.322 24.908ZM12.238 29.221C11.9199 28.214 11.4263 27.2712 10.78 26.436L10.547 26.136L19.768 18.236C20.5285 18.9912 21.4169 19.6053 22.392 20.05L25.58 21.487C25.4711 21.8279 25.4237 22.1855 25.44 22.543C25.0176 22.518 24.5947 22.5835 24.1996 22.735C23.8046 22.8866 23.4464 23.1208 23.1492 23.422C22.8519 23.7231 22.6224 24.0843 22.4759 24.4813C22.3295 24.8783 22.2695 25.302 22.3 25.724C21.7316 25.7013 21.1682 25.8379 20.6734 26.1185C20.1787 26.3992 19.7722 26.8125 19.5 27.312C19.1332 28.0113 19.0588 28.8275 19.2931 29.5815C19.5275 30.3356 20.0514 30.9659 20.75 31.334C20.6003 31.7724 20.5451 32.2375 20.5882 32.6988C20.6313 33.16 20.7717 33.6069 21 34.01L26.577 43.769C26.3832 43.7757 26.1906 43.737 26.0144 43.6561C25.8382 43.5752 25.6833 43.4543 25.562 43.303L18.576 33.688C18.5009 33.5768 18.4041 33.4819 18.2915 33.4088C18.1789 33.3358 18.0528 33.2862 17.9206 33.2629C17.7885 33.2397 17.653 33.2433 17.5222 33.2735C17.3914 33.3037 17.2681 33.3599 17.1595 33.4388C17.051 33.5177 16.9594 33.6177 16.8903 33.7327C16.8211 33.8477 16.7759 33.9755 16.7572 34.1084C16.7384 34.2413 16.7467 34.3766 16.7813 34.5062C16.816 34.6359 16.8764 34.7572 16.959 34.863L22.837 42.955C22.9191 43.0685 22.9764 43.1981 23.0053 43.3352C23.0341 43.4723 23.0338 43.6139 23.0044 43.7509C22.975 43.8879 22.9171 44.0172 22.8345 44.1304C22.7519 44.2436 22.6465 44.3382 22.525 44.408C22.287 44.5072 22.0228 44.5245 21.7739 44.4571C21.525 44.3898 21.3055 44.2417 21.15 44.036L14.34 34.662C13.8978 34.054 13.5564 33.3786 13.329 32.662L12.238 29.221ZM4 41.737L7.2 40.747L11.23 52.836L4 55.556V41.737ZM15.273 53.052C15.2036 53.1799 15.1082 53.2918 14.993 53.3807C14.8778 53.4696 14.7453 53.5334 14.604 53.568C14.3462 53.6304 14.0743 53.5942 13.8418 53.4666C13.6093 53.3389 13.4328 53.129 13.347 52.878L8.65 38.789C8.59778 38.6305 8.58381 38.4618 8.60923 38.2969C8.63465 38.1319 8.69874 37.9753 8.79626 37.8398C8.89378 37.7044 9.02197 37.5939 9.17035 37.5175C9.31873 37.441 9.48309 37.4008 9.65 37.4C9.87114 37.4011 10.0864 37.4713 10.2657 37.6008C10.445 37.7302 10.5793 37.9125 10.65 38.122L15.35 52.211C15.3963 52.3488 15.4133 52.4948 15.4001 52.6396C15.3868 52.7844 15.3435 52.9248 15.273 53.052ZM21.934 48.807L16.948 50.683L13.033 38.937L14.615 38.447L19.529 45.212C19.8272 45.6144 20.2153 45.9415 20.6624 46.1672C21.1095 46.3929 21.6032 46.511 22.104 46.512C22.6043 46.5158 23.0966 46.386 23.53 46.136C23.9552 45.8882 24.3133 45.5401 24.573 45.122C24.9977 45.4483 25.4988 45.6604 26.0287 45.7382C26.5586 45.8159 27.0995 45.7566 27.6 45.566L28 46.266V48.252L25.172 48.23C24.066 48.2168 22.9674 48.4126 21.934 48.807ZM30 60V55H42V60H30ZM43 53H29C28.7348 53 28.4804 52.8946 28.2929 52.7071C28.1054 52.5196 28 52.2652 28 52C28 51.7348 28.1054 51.4804 28.2929 51.2929C28.4804 51.1054 28.7348 51 29 51H43C43.2652 51 43.5196 51.1054 43.7071 51.2929C43.8946 51.4804 44 51.7348 44 52C44 52.2652 43.8946 52.5196 43.7071 52.7071C43.5196 52.8946 43.2652 53 43 53ZM60 45.672L58 45.1V33.059L60 33.722V45.672ZM54 31.562C54 31.2968 54.1054 31.0424 54.2929 30.8549C54.4804 30.6674 54.7348 30.562 55 30.562C55.2652 30.562 55.5196 30.6674 55.7071 30.8549C55.8946 31.0424 56 31.2968 56 31.562V45.438C56 45.7032 55.8946 45.9576 55.7071 46.1451C55.5196 46.3326 55.2652 46.438 55 46.438C54.7348 46.438 54.4804 46.3326 54.2929 46.1451C54.1054 45.9576 54 45.7032 54 45.438V31.562ZM48.027 27.649C47.3255 27.4169 46.6653 27.075 46.071 26.636C46.049 26.62 46.023 26.617 46 26.602V25.102C46.0091 24.3788 45.7637 23.6754 45.3067 23.1147C44.8497 22.5541 44.2102 22.1719 43.5 22.035C42.9527 21.9458 42.3914 22.0081 41.877 22.215C41.7704 21.805 41.5773 21.4226 41.3107 21.0934C41.0441 20.7642 40.7102 20.4959 40.3313 20.3064C39.9524 20.117 39.5374 20.0108 39.114 19.995C38.6907 19.9793 38.2689 20.0543 37.877 20.215C37.7733 19.8653 37.6107 19.5359 37.396 19.241C37.7846 18.8966 38.1426 18.5192 38.466 18.113L40.059 16.073L49.181 23.9C48.6806 24.8703 48.3621 25.924 48.241 27.009L48.166 27.694L48.027 27.649ZM52.678 22.908C52.4784 23.1051 52.2123 23.2205 51.9319 23.2314C51.6516 23.2423 51.3773 23.148 51.163 22.967L40.385 13.728C40.1697 13.5328 40.0391 13.2613 40.0209 12.9713C40.0026 12.6813 40.0982 12.3956 40.2873 12.175C40.4764 11.9544 40.7442 11.8162 41.0335 11.7899C41.3229 11.7635 41.6112 11.8511 41.837 12.034L52.615 21.274C52.7318 21.3739 52.8267 21.4968 52.8936 21.6352C52.9606 21.7735 52.9982 21.9242 53.0041 22.0777C53.01 22.2313 52.9841 22.3844 52.928 22.5275C52.8719 22.6705 52.7868 22.7994 52.678 22.908ZM60 8.678L52.747 18.753L43.894 11.163L49.488 4H60V8.678Z" fill="#178F57"/>
</svg>
