<svg width="64" height="64" viewBox="0 0 64 64" fill="none" xmlns="http://www.w3.org/2000/svg">
<path d="M62.6359 14.1911C57.054 0.858414 38.7786 0.245935 32.0001 12.579C26.7719 3.06659 14.119 0.922661 6.14066 7.65255C5.7448 7.98629 5.69468 8.57777 6.02854 8.9735C6.36228 9.36924 6.95376 9.41936 7.34949 9.08562C14.8959 2.72047 26.8093 5.38638 30.9228 14.6231L22.8842 25.0554C21.4487 26.9042 22.4016 30.0894 26.6434 30.0891C28.1424 30.089 29.877 29.6859 32.2625 27.8865L39.2529 22.4993L44.7033 27.9268C45.07 28.2922 45.6638 28.2909 46.029 27.9241C46.3944 27.5572 46.3931 26.9636 46.0263 26.5984L41.9119 22.5013C43.4861 22.5494 45.5799 22.4013 47.8261 21.6556C48.3174 21.4924 48.5835 20.9618 48.4204 20.4705C48.2573 19.9791 47.7268 19.713 47.2353 19.8761C44.5884 20.7548 41.557 20.8091 39.5437 20.3427C39.2594 20.277 38.9748 20.3471 38.7596 20.5125C32.6719 25.0964 30.1142 27.5867 27.9145 28.0742C26.3751 28.4153 24.992 28.0913 24.4723 27.6131C24.0798 27.2519 24.0327 26.6335 24.3673 26.2026C33.3125 14.5891 32.794 15.2979 32.8692 15.1122C37.9163 2.62923 55.6435 2.34486 60.9065 14.915C63.3227 20.6861 62.1159 27.0204 57.7627 31.4401L54.3301 34.8671L48.9215 29.4813C48.5547 29.116 47.9611 29.117 47.5958 29.484C47.2305 29.8509 47.2317 30.4445 47.5986 30.8097L54.7387 37.9197C55.7157 38.8967 55.7155 40.4863 54.7387 41.4634C53.7619 42.4401 52.1728 42.4402 51.1957 41.4639L38.7288 28.9772C38.3629 28.6108 37.7694 28.6104 37.4029 28.9762C37.0366 29.342 37.0361 29.9355 37.4019 30.302L49.8695 42.7892C50.8465 43.7662 50.8465 45.3557 49.8695 46.3327C48.8907 47.3115 47.3062 47.3123 46.3265 46.3333C46.3265 46.3333 46.3265 46.3333 46.3264 46.3332L33.8594 33.8466C33.4937 33.4801 32.9001 33.4799 32.5336 33.8456C32.1672 34.2115 32.1667 34.805 32.5326 35.1715L45.0002 47.6585C45.977 48.6355 45.9771 50.2252 45.0002 51.2021C44.0231 52.179 42.4335 52.179 41.4608 51.2063L39.9985 49.7256C39.8401 47.0797 37.3597 45.1656 34.759 45.6968C34.8905 42.9311 32.4915 40.8101 29.8618 41.1297C30.1946 38.2481 27.7094 35.8786 24.9061 36.2734C25.3012 32.2806 20.5217 29.8394 17.5446 32.6483L12.3539 37.5459L6.24341 31.446C0.750476 25.8692 0.646729 17.7141 4.76108 11.9074C5.06045 11.4849 4.96058 10.8998 4.53809 10.6004C4.11573 10.3012 3.5305 10.4008 3.23114 10.8234C-1.39682 17.3552 -1.23908 26.5213 4.9127 32.767L11.005 38.8489C8.38108 41.8811 10.9036 46.6043 14.9229 46.0491C14.6392 48.8607 17.0232 51.1758 19.8058 50.8428C19.4549 53.8181 22.0984 56.2438 25.0242 55.6556C24.8271 59.6333 29.6468 61.8014 32.4844 58.9822C38.5586 53.1383 38.9544 53.1472 39.5531 51.9432L40.1305 52.5278C43.0632 55.4609 48.0637 53.0315 47.5746 48.9096C50.4291 49.2471 52.777 46.8334 52.4437 44.0378C56.5536 44.5281 59.0057 39.5354 56.0628 36.5927L55.6585 36.19C57.419 34.0675 62.5828 30.861 63.7726 23.6845C64.2995 20.5083 63.9064 17.2256 62.6359 14.1911ZM12.5466 43.4843C11.5726 42.5103 11.5696 40.9272 12.5378 39.9495L18.831 34.0119C19.8232 33.0758 21.3558 33.098 22.3203 34.0626C23.3196 35.0618 23.2957 36.6853 22.2682 37.6549L16.1098 43.4653C14.9661 44.5454 13.4472 44.3849 12.5466 43.4843ZM17.509 48.2685C16.5933 47.3527 16.4625 45.8153 17.5219 44.7106C22.5765 39.9394 23.6097 38.9694 23.7933 38.7961C24.7855 37.86 26.3181 37.8822 27.2827 38.8467C28.2798 39.8439 28.26 41.4675 27.2305 42.4389C19.8521 49.401 21.2319 48.0891 21.0526 48.2685C20.0755 49.2453 18.4861 49.2455 17.509 48.2685ZM31.1885 57.6272C31.1819 57.6334 31.1754 57.6398 31.169 57.6462C30.1899 58.6253 28.6047 58.6255 27.6254 57.6462C26.6514 56.6722 26.6484 55.0891 27.6167 54.1114L28.9407 52.8621C29.3173 52.5067 29.3346 51.9135 28.9792 51.5369C28.624 51.1603 28.0306 51.1431 27.654 51.4984L25.9263 53.136C24.9471 54.1152 23.3622 54.1152 22.3828 53.136C21.4607 52.2139 21.3425 50.671 22.3946 49.5794C26.1553 46.0296 25.8755 46.2982 28.6672 43.6635C29.6595 42.7273 31.1922 42.7497 32.1566 43.7142C33.1261 44.6837 33.1386 46.2482 32.1754 47.2325L30.6388 48.6822C30.2622 49.0376 30.2449 49.6308 30.6003 50.0074C30.9557 50.3842 31.549 50.4013 31.9255 50.0459C31.9383 50.0341 33.8961 48.187 33.9098 48.1736C34.902 47.2375 36.4346 47.2598 37.3992 48.2244C38.4003 49.2255 38.3725 50.849 37.3471 51.8165L31.1885 57.6272Z" fill="#178F57"/>
</svg>
