<svg width="90" height="89" viewBox="0 0 90 89" fill="none" xmlns="http://www.w3.org/2000/svg">
<path d="M13.0595 29.3823C13.5776 30.1102 12.8806 31.0108 12.0663 31.0478C11.0917 31.091 10.3021 30.2953 9.72228 29.6044C9.62975 29.4872 9.48787 29.481 9.3645 29.5304C9.06224 29.592 8.83401 29.9622 9.12393 30.2459C10.043 31.1589 10.1417 32.9231 8.92036 33.6633C8.00741 34.2185 6.84155 33.9286 6.13833 33.2007C6.09515 32.9724 6.03964 32.7442 5.94094 32.5283C5.75588 32.0903 4.99098 32.4049 5.1637 32.8552C5.55849 33.8731 5.33025 35.1191 4.32477 35.7051C3.32546 36.285 2.08558 35.9025 1.38853 35.0574C1.37619 35.0451 1.36385 35.0389 1.35768 35.0327C1.4132 32.701 1.3947 30.3631 1.36385 28.0314C1.36385 27.8649 1.35151 27.6675 1.33301 27.4701C1.86351 27.6551 2.30764 27.7538 2.98619 27.649C3.71408 27.5318 4.41113 27.2418 5.01565 26.8224C5.94711 26.1747 6.96492 24.9903 6.95259 23.7812C7.08213 23.8923 7.21783 23.991 7.34737 24.102C9.18561 25.6257 10.9745 27.2171 12.7449 28.8271C12.8497 28.9135 12.9546 28.9505 13.0595 28.9567C12.9793 29.0801 12.9546 29.2404 13.0595 29.3823Z" fill="#CA9E67"/>
<path d="M38.2207 74.207C38.3441 74.4168 38.4613 74.6265 38.5909 74.8301C35.5312 78.1117 31.7376 80.2337 27.3579 81.1899C27.2715 81.2084 27.216 81.2516 27.1852 81.3132C27.0124 80.9801 26.8335 80.647 26.667 80.3201C30.948 79.1604 34.8033 77.1309 38.1961 74.244C38.2084 74.2317 38.2084 74.2194 38.2207 74.207Z" fill="#FFD600"/>
<path d="M39.609 76.0031C40.5652 81.1847 30.862 84.7193 27.167 81.8633C27.2225 81.8016 27.2533 81.7214 27.2657 81.6289C27.3212 81.6906 27.4014 81.7276 27.5001 81.7152C31.9785 81.0614 35.9881 78.89 39.0477 75.5898C39.0909 75.6577 39.134 75.7317 39.1772 75.7996C39.2883 75.9785 39.4548 76.0278 39.609 76.0031Z" fill="#FFD600"/>
<path d="M6.35422 23.2975C6.32337 23.3283 6.2802 23.3468 6.26169 23.39C5.66951 24.4942 5.45977 25.4626 4.31242 26.1967C3.5105 26.7148 2.28912 27.0418 1.28364 26.9061C1.09858 25.0678 0.672955 22.477 1.17261 21.2803C0.925867 20.2872 1.51188 20.0651 2.93066 20.6265C3.46732 21.0274 4.01016 21.4345 4.55299 21.8417C5.16368 22.3166 5.75586 22.8101 6.35422 23.2975Z" fill="#FFD600"/>
<path d="M17.9142 56.7938C16.6928 56.5779 15.4036 56.8802 14.4105 57.8054C10.2775 50.582 6.02737 43.4265 1.78955 36.3449C2.67783 36.8754 3.80667 36.9803 4.75047 36.4313C5.29947 36.1105 5.68192 35.6232 5.9225 35.0742C9.16717 42.7294 13.1582 49.9775 17.9142 56.7938Z" fill="#FFD600"/>
<path d="M37.8571 73.6038C37.7892 73.6161 37.7152 73.6346 37.6473 73.6902C36.9935 74.233 36.3211 74.7512 35.6302 75.2323L35.513 75.0719C35.6734 74.9794 35.7659 74.782 35.6425 74.5784C26.914 60.4462 18.901 45.95 10.6475 31.5464C10.6475 31.5094 10.6536 31.4724 10.6475 31.4354C11.3198 31.8672 12.0847 32.0769 12.8682 31.7191C13.4295 31.4662 13.8675 30.9542 14.0402 30.3867C21.3931 45.0556 29.3259 59.5826 37.8571 73.6038Z" fill="#FFD600"/>
<path d="M35.5128 75.0692L35.63 75.2295C34.2606 76.198 32.8357 77.0554 31.349 77.7957C31.3552 77.734 31.3429 77.66 31.2997 77.5859C28.1784 72.0219 24.9461 66.4948 21.7569 60.9678C21.6705 60.2707 21.467 59.6045 21.1462 59.0617C20.6404 58.2104 19.9125 57.5874 19.1044 57.1926C14.114 49.9322 9.79602 42.3202 6.15039 34.301C6.15656 34.2393 6.18123 34.1776 6.1874 34.1159C7.10652 34.7822 8.37725 34.9425 9.4074 34.301C10.0366 33.9062 10.4129 33.2524 10.5733 32.543C17.9262 47.0761 26.3895 61.1282 34.9885 74.952C35.118 75.1617 35.3525 75.1679 35.5128 75.0692Z" fill="#FFD600"/>
<path d="M30.683 77.9496C30.72 77.999 30.7694 78.036 30.8187 78.0607C29.3999 78.7454 27.9257 79.3252 26.3959 79.8064C23.9408 75.0319 21.3993 70.2821 18.7715 65.557C20.6529 65.6742 21.6214 64.0395 21.7818 62.2383C24.1998 67.7036 27.2224 73.1443 30.683 77.9496Z" fill="#FFD600"/>
<path d="M80.2106 24.5627C80.482 27.462 77.7308 29.1768 75.1338 28.7204C74.3196 32.1069 72.7343 35.3084 70.4025 37.9116C66.2264 42.5812 60.2491 44.7587 54.2717 46.2576C54.4691 46.8622 54.648 47.4729 54.8392 48.0774C62.1798 48.1329 66.6705 54.6099 67.7686 61.3275C68.8912 61.6544 69.8227 62.845 69.8227 63.9861C69.8227 65.5591 68.3731 66.9717 66.7816 66.7682C65.2518 66.577 64.0304 64.9546 64.5239 63.4371C64.82 62.5242 65.5972 61.9012 66.4732 61.7408C66.4053 61.5742 66.467 61.3522 66.6705 61.2966C66.7878 61.2658 66.8988 61.2658 67.016 61.2596C65.4492 54.7148 62.0441 49.638 55.0304 48.6881C56.696 54.0301 58.2073 59.4152 59.515 64.8559C59.5829 65.1397 59.3731 65.5345 59.0339 65.4913C58.3615 65.4111 57.6953 65.3432 57.0229 65.2692C57.4115 66.6942 57.7878 68.1191 58.1702 69.544C58.343 70.2041 58.966 71.4748 58.7563 72.141C58.5774 72.7209 58.3676 72.7825 57.7631 72.9183C56.8193 73.1342 55.7707 73.1403 54.7529 73.165C54.8886 77.7668 55.0674 82.4796 54.8454 87.0751C54.8577 87.0813 54.8762 87.0813 54.8886 87.0937C55.0983 87.143 56.7145 85.6934 57.0414 85.5022C57.7508 85.0827 58.5835 84.7928 59.4163 84.9223C60.4896 85.0889 61.4334 86.1067 61.2175 87.2479C60.9399 88.716 58.892 88.9072 57.7076 88.8825C56.9304 88.8702 55.3944 88.753 54.7652 88.0436C54.5925 88.0066 54.4383 87.8894 54.3211 87.6673C54.173 87.6241 54.0435 87.5008 54.0311 87.2972C53.6549 82.6646 53.8152 77.8346 54.0435 73.1897C53.8893 73.1958 53.7289 73.1958 53.5808 73.2082C52.3779 73.2945 50.1264 74.0656 49.6144 72.5543C49.2443 71.4625 49.4479 69.9573 49.3924 68.8161C49.3307 67.4714 49.2381 66.1081 49.2381 64.7572C48.7755 64.7449 48.319 64.7264 47.8564 64.7202C47.548 67.4961 47.0298 70.2534 46.4376 72.9861C46.3944 73.1835 46.1785 73.3377 45.9811 73.3316C45.0435 73.313 44.112 73.2575 43.1806 73.202C43.3163 77.9518 43.0881 82.7448 42.7858 87.4761C42.7735 87.692 42.6439 87.8277 42.4835 87.8832C42.5206 88.1978 42.1689 88.3952 41.8914 88.2533C40.9784 88.9319 39.8002 89.154 38.6775 88.8949C37.598 88.642 36.1916 87.7784 36.0744 86.557C35.9325 85.1074 37.8633 85.1506 38.8256 85.3109C39.9791 85.496 41.1141 86.0882 41.8914 86.9764C42.1258 82.3809 42.2862 77.7668 42.6193 73.1773C41.2992 73.091 39.9791 72.9799 38.6652 72.8196C38.5973 72.8134 38.5357 72.7887 38.4678 72.764L38.1902 72.2644C38.4493 69.8216 38.7577 67.3604 39.3437 64.967C38.7269 65.0101 38.1039 65.0533 37.487 65.1088C37.1477 65.1335 36.9071 64.7572 36.9935 64.4611C38.4986 59.187 39.5781 53.845 40.7502 48.503C40.7317 48.503 40.7132 48.5154 40.6947 48.5154C35.6734 47.3742 30.572 48.4043 25.8345 50.2055L25.6063 49.7306C29.9305 47.5901 36.2471 45.9245 40.8797 47.9108C40.9476 47.5901 41.0154 47.2693 41.0833 46.9547C31.0902 45.8567 21.9915 41.403 20.1163 31.0583C18.2904 31.1508 15.9216 30.8115 15.0889 29.0967C14.984 28.8746 14.8977 28.634 14.8483 28.3626C14.6139 27.1227 15.2616 25.8581 16.2732 25.1549C17.3342 24.4147 18.6358 24.3283 19.8695 24.5442C21.0724 11.2571 32.108 1.88704 45.062 0.252367C58.4232 -1.42549 73.0242 5.28593 75.4608 19.7019C75.578 20.3681 75.652 21.0343 75.7014 21.7067C77.6506 20.8986 80.0132 22.3667 80.2106 24.5627ZM79.2545 25.0316C79.31 23.0391 77.4101 22.0645 75.7569 22.8232C75.8001 24.5442 75.6458 26.2776 75.3004 27.974C77.1942 28.2084 79.1989 27.1289 79.2545 25.0316ZM50.0092 46.0047C62.8152 43.1117 75.8556 36.795 74.3813 21.3674C74.1777 19.2084 73.6657 17.2036 72.9132 15.3654C72.8823 15.3839 72.8638 15.4024 72.8268 15.4147C70.5753 16.2598 68.3546 16.8335 65.9488 16.9445C64.6411 17.0062 59.5582 15.8527 61.5568 18.0117C61.8591 18.3448 61.6678 18.9802 61.1682 18.9493C54.1052 18.5545 46.8756 17.7465 40.3431 14.8534C38.6652 14.107 36.8085 12.3613 35.1183 11.8863C33.3232 11.3743 34.4706 10.85 32.9901 12.6635C31.6762 14.2674 30.8804 15.7232 29.036 16.9137C28.7276 17.1111 28.3945 16.8458 28.3698 16.5313C28.1169 13.9404 28.4624 15.9637 27.8023 17.0926C27.204 18.1104 26.7228 19.1467 26.0258 20.1029C24.644 21.9966 22.9723 23.4277 21.0292 24.6738C20.9799 25.1673 20.949 25.6731 20.9367 26.1851C20.4432 43.1363 36.3458 46.6154 49.9475 46.0356C49.966 46.0232 49.9845 46.0109 50.0092 46.0047ZM67.0468 65.8799C68.2004 65.9354 69.138 64.677 68.8912 63.5852C68.7309 62.9005 68.3114 62.5304 67.7932 62.2898C67.7686 62.296 67.7439 62.3145 67.713 62.3145C66.7878 62.2281 65.7514 62.7093 65.4245 63.6222C65.042 64.677 65.955 65.8244 67.0468 65.8799ZM59.2374 15.0631C63.8638 16.1982 67.9906 15.9637 72.543 14.5326C68.2127 5.21191 57.3128 0.400413 46.8571 1.26401C34.0264 2.32501 22.5344 10.9857 21.0847 24.1309C24.4651 21.2626 26.8277 17.987 28.1231 13.6752C28.2711 13.1817 28.925 13.3236 28.9744 13.7924C29.3815 17.6909 32.5151 11.51 32.8606 9.75815C32.9346 9.38803 33.3849 9.35719 33.6316 9.55459C38.147 13.2249 43.3595 15.3469 49.0222 16.5066C51.391 16.9939 55.2093 18.1968 57.6583 17.6354C59.7802 17.1481 60.1257 18.4744 58.6205 15.865C58.38 15.4456 58.7809 14.9459 59.2374 15.0631ZM59.3114 87.8215C60.576 87.4391 60.4711 85.934 59.0524 85.8538C58.4478 85.8229 57.868 86.1314 57.3745 86.4521C57.0414 86.668 56.2456 87.5008 55.5178 87.8709C56.5417 88.315 58.7994 87.9758 59.3114 87.8215ZM57.7261 71.8449C57.8248 71.703 57.4177 70.6791 57.3683 70.494C56.8933 68.7174 56.4184 66.9409 55.9557 65.1582C53.9509 64.9731 51.9462 64.8436 49.9414 64.7757C50.1326 66.2315 50.2189 67.6996 50.3362 69.1616C50.3978 69.9697 50.256 71.2527 50.6569 71.9745C50.9777 72.5481 51.1504 72.3631 51.8351 72.3137L53.2292 72.2212C54.2779 72.1472 55.3265 72.0855 56.369 71.9991C56.5788 71.9806 57.6027 72.0238 57.7261 71.8449ZM54.9071 64.0293C58.6452 64.3686 58.1456 63.4618 57.3313 60.3529C56.1038 55.7017 54.7467 51.0815 53.3156 46.4859C52.3163 46.7265 51.317 46.9547 50.33 47.1706C50.1758 47.2014 50.0524 47.1706 49.9414 47.1212C47.2395 47.294 44.4637 47.2755 41.7495 47.0164C41.2992 51.1987 40.4294 55.3193 39.4116 59.4029C39.1957 60.2603 38.5603 61.5866 38.6158 62.4563C38.7207 64.1589 38.7762 63.7394 40.7995 63.8196C42.9894 63.9121 45.2347 63.6284 47.4431 63.653C49.9352 63.6777 52.4211 63.8073 54.9071 64.0293ZM46.9311 64.714C44.6364 64.7079 42.3417 64.7696 40.047 64.9114C39.8187 67.2493 39.4609 69.5811 39.1957 71.9128C40.3431 72.0485 41.4966 72.1657 42.6501 72.2459C43.6494 72.3076 45.2656 72.7825 45.7282 71.7832C46.1724 70.8209 46.2155 69.3466 46.3944 68.2918C46.5918 67.1013 46.7584 65.9107 46.9311 64.714ZM37.413 87.1122C38.4555 88.2225 40.0963 88.3397 41.4287 87.7722C40.8427 87.0875 40.1642 86.557 39.2635 86.2917C38.6405 86.1067 36.2718 85.8846 37.413 87.1122ZM19.7647 26.1851C19.7708 25.9754 19.7893 25.7718 19.7955 25.5682C18.7222 25.3708 17.5316 25.4263 16.6804 26.1974C15.897 26.9068 15.6132 28.0603 16.2547 28.9486C17.0381 30.0343 18.6605 30.2317 19.9929 30.2872C19.8078 29.0041 19.7215 27.6409 19.7647 26.1851Z" fill="#1D1D1B"/>
<path d="M75.7568 22.8236C77.41 22.0648 79.3099 23.0395 79.2544 25.0319C79.1988 27.1292 77.194 28.2087 75.3003 27.9743C75.6457 26.278 75.8 24.5446 75.7568 22.8236Z" fill="#F9E8D8"/>
<path d="M74.3811 21.3656C75.8554 36.7933 62.815 43.1099 50.009 46.003C49.9843 46.0091 49.9658 46.0215 49.9473 46.0338C36.3456 46.6136 20.443 43.1346 20.9365 26.1833C20.9488 25.6713 20.9797 25.1655 21.029 24.672C22.9721 23.4259 24.6438 21.9948 26.0256 20.1011C26.7226 19.1449 27.2038 18.1086 27.8021 17.0908C28.4622 15.962 28.1167 13.9387 28.3696 16.5295C28.3943 16.8441 28.7274 17.1093 29.0358 16.9119C30.8803 15.7214 31.676 14.2656 32.9899 12.6618C34.4704 10.8482 33.323 11.3725 35.1181 11.8845C36.8083 12.3595 38.665 14.1052 40.3429 14.8516C46.8754 17.7447 54.105 18.5528 61.168 18.9476C61.6676 18.9784 61.8589 18.343 61.5566 18.0099C59.558 15.8509 64.6409 17.0044 65.9486 16.9428C68.3544 16.8317 70.5751 16.2581 72.8266 15.413C72.8636 15.4006 72.8821 15.3821 72.913 15.3636C73.6655 17.2018 74.1775 19.2066 74.3811 21.3656ZM61.7725 34.4615C62.2475 33.9989 61.5319 33.2895 61.0446 33.7336C54.1605 40.0379 40.0714 41.5492 33.0146 34.7761C32.6568 34.4307 32.1386 34.955 32.4717 35.319C39.325 42.9187 54.9254 41.2038 61.7725 34.4615ZM55.3695 30.7234C56.0851 28.9962 54.5368 27.0901 52.7417 27.2073C51.0392 27.3245 50.0275 29.2553 50.8479 30.7234C51.0515 31.0812 51.6129 30.8406 51.508 30.4458C51.2427 29.428 51.8658 28.1141 53.0686 28.2559C53.5621 28.3176 54.0309 28.6014 54.2715 29.0455C54.5429 29.5637 54.3949 30.1805 54.5738 30.7234C54.7095 31.1305 55.2215 31.0935 55.3695 30.7234ZM47.739 34.844C47.9796 34.5787 47.6711 34.1099 47.338 34.3258C46.7582 34.7021 46.166 34.1038 46.641 33.5486C46.8507 33.3018 46.5855 32.9009 46.277 33.0798C45.6787 33.4252 45.5121 34.2641 45.9439 34.8131C46.3942 35.3868 47.2702 35.3683 47.739 34.844ZM43.0694 31.1737C43.643 30.6432 43.5567 29.613 43.2421 28.9715C42.8658 28.1943 42.0577 27.7316 41.2003 27.7748C39.2325 27.8673 38.4368 30.088 39.5965 31.5623C39.8864 31.9262 40.5094 31.4513 40.2442 31.0688C39.5965 30.1435 40.0283 28.7309 41.2743 28.7124C41.7555 28.7001 42.1996 28.9407 42.4093 29.3848C42.6561 29.8906 42.471 30.2607 42.36 30.7604C42.2674 31.1737 42.7548 31.4698 43.0694 31.1737Z" fill="#F9E8D8"/>
<path d="M68.8913 63.5845C69.1381 64.6763 68.2005 65.9347 67.0469 65.8792C65.9551 65.8237 65.0422 64.6763 65.4246 63.6215C65.7515 62.7085 66.7879 62.2274 67.7131 62.3137C67.744 62.3137 67.7687 62.2952 67.7933 62.2891C68.3115 62.5296 68.731 62.8998 68.8913 63.5845Z" fill="#F9E8D8"/>
<path d="M72.5428 14.5318C67.9904 15.9629 63.8636 16.1973 59.2371 15.0623C58.7807 14.9451 58.3797 15.4447 58.6203 15.8642C60.1254 18.4735 59.78 17.1472 57.658 17.6346C55.2091 18.1959 51.3907 16.993 49.022 16.5057C43.3592 15.346 38.1468 13.224 33.6314 9.55372C33.3846 9.35633 32.9343 9.38717 32.8603 9.75728C32.5149 11.5092 29.3812 17.6901 28.9741 13.7915C28.9247 13.3227 28.2709 13.1808 28.1228 13.6743C26.8274 17.9862 24.4649 21.2617 21.0845 24.1301C22.5341 10.9848 34.0262 2.32414 46.8568 1.26315C57.3125 0.399544 68.2124 5.21104 72.5428 14.5318Z" fill="#F39200"/>
<path d="M61.0447 33.7343C61.532 33.2902 62.2476 33.9996 61.7726 34.4622C54.9255 41.2045 39.3251 42.9193 32.4718 35.3196C32.1387 34.9557 32.6569 34.4314 33.0147 34.7768C40.0715 41.5499 54.1606 40.0386 61.0447 33.7343Z" fill="#1D1D1B"/>
<path d="M59.0522 85.8537C60.471 85.9339 60.5758 87.439 59.3113 87.8215C58.7993 87.9757 56.5416 88.315 55.5176 87.8708C56.2455 87.5007 57.0412 86.668 57.3743 86.4521C57.8678 86.1313 58.4477 85.8229 59.0522 85.8537Z" fill="#5EBAE7"/>
<path d="M57.3679 70.4917C57.4172 70.6768 57.8244 71.7007 57.7257 71.8426C57.6023 72.0215 56.5783 71.9783 56.3686 71.9968C55.3261 72.0832 54.2774 72.1449 53.2288 72.2189L51.8347 72.3114C51.15 72.3608 50.9772 72.5458 50.6565 71.9722C50.2555 71.2504 50.3974 69.9674 50.3357 69.1593C50.2185 67.6973 50.1321 66.2292 49.9409 64.7734C51.9457 64.8413 53.9505 64.9708 55.9553 65.1559C56.4179 66.9386 56.8929 68.7152 57.3679 70.4917Z" fill="#F9B233"/>
<path d="M57.3312 60.3513C58.1455 63.4603 58.6451 64.3671 54.907 64.0278C52.421 63.8058 49.9351 63.6762 47.443 63.6515C45.2346 63.6269 42.9892 63.9106 40.7994 63.8181C38.7761 63.7379 38.7206 64.1574 38.6157 62.4548C38.5602 61.5851 39.1956 60.2588 39.4115 59.4014C40.4293 55.3178 41.2991 51.1972 41.7494 47.0149C44.4635 47.274 47.2394 47.2925 49.9412 47.1197C50.0523 47.1691 50.1757 47.1999 50.3299 47.1691C51.3168 46.9532 52.3161 46.7249 53.3155 46.4844C54.7466 51.08 56.1037 55.7002 57.3312 60.3513Z" fill="#5EBAE7"/>
<path d="M52.7418 27.2083C54.5368 27.0911 56.0852 28.9972 55.3696 30.7244C55.2216 31.0945 54.7096 31.1315 54.5738 30.7244C54.395 30.1815 54.543 29.5647 54.2716 29.0465C54.031 28.6024 53.5622 28.3186 53.0687 28.2569C51.8658 28.1151 51.2428 29.429 51.5081 30.4468C51.6129 30.8416 51.0516 31.0821 50.848 30.7244C50.0276 29.2562 51.0392 27.3255 52.7418 27.2083Z" fill="#1D1D1B"/>
<path d="M47.3379 34.3297C47.671 34.1138 47.9795 34.5826 47.7389 34.8479C47.2701 35.3722 46.3942 35.3907 45.9438 34.817C45.512 34.268 45.6786 33.4291 46.2769 33.0836C46.5854 32.9048 46.8506 33.3057 46.6409 33.5525C46.1659 34.1076 46.7581 34.706 47.3379 34.3297Z" fill="#1D1D1B"/>
<path d="M40.0466 64.9127C42.3413 64.7708 44.636 64.7091 46.9307 64.7153C46.758 65.912 46.5914 67.1025 46.394 68.293C46.2152 69.3479 46.172 70.8222 45.7278 71.7845C45.2652 72.7838 43.649 72.3088 42.6497 72.2471C41.4962 72.1669 40.3427 72.0497 39.1953 71.914C39.4606 69.5823 39.8183 67.2505 40.0466 64.9127Z" fill="#F9B233"/>
<path d="M43.2421 28.9729C43.5567 29.6145 43.643 30.6446 43.0693 31.1751C42.7547 31.4712 42.2674 31.1751 42.36 30.7618C42.471 30.2622 42.656 29.892 42.4093 29.3862C42.1996 28.9421 41.7554 28.7015 41.2743 28.7138C40.0282 28.7323 39.5964 30.145 40.2441 31.0702C40.5094 31.4527 39.8864 31.9277 39.5964 31.5637C38.4367 30.0894 39.2325 27.8687 41.2003 27.7762C42.0577 27.733 42.8658 28.1957 43.2421 28.9729Z" fill="#1D1D1B"/>
<path d="M40.3861 75.724C41.5334 78.981 38.591 81.3683 35.8707 82.5218C33.3971 83.5643 28.6103 84.6068 26.6178 82.164C26.5623 82.0962 26.5438 82.0221 26.5438 81.9481C26.5006 81.9173 26.4636 81.8803 26.4266 81.8248C22.5219 75.5636 18.7652 69.1545 15.1011 62.6775C13.892 63.0291 12.4671 62.5294 11.8317 61.3882C11.2642 60.3766 11.4184 58.6185 12.3499 57.7858C8.27863 50.4575 4.31223 43.0737 0.407521 35.7393C0.265643 35.474 0.407522 35.2335 0.611085 35.1348C0.401353 29.9038 0.271814 24.6728 0.00039658 19.4419C-0.0119406 19.1396 0.265644 18.9114 0.54323 18.8991C2.72074 18.8065 4.17036 20.1513 5.79886 21.4343C8.39584 23.4885 10.9126 25.6475 13.3492 27.8928C13.4911 27.862 13.6391 27.9052 13.7317 28.0717C13.9722 28.522 14.219 28.9785 14.4657 29.4288C18.1237 36.2328 21.8372 42.9997 25.5815 49.742C25.5877 49.7358 25.6 49.7358 25.6062 49.7296L25.8344 50.2046C29.9242 57.5699 34.051 64.9167 38.1901 72.2635L38.4677 72.7631C38.955 73.6267 39.4423 74.4965 39.9296 75.3601C39.9481 75.3909 39.9481 75.4156 39.9605 75.4464C40.127 75.4279 40.3059 75.5081 40.3861 75.724ZM27.1668 81.8618C30.8618 84.7178 40.565 81.1832 39.6089 76.0016C39.4546 76.0263 39.2881 75.9769 39.1771 75.798C39.1339 75.7302 39.0907 75.6562 39.0475 75.5883C35.9879 78.8885 31.9783 81.0598 27.4999 81.7137C27.4012 81.7261 27.321 81.689 27.2655 81.6274C27.2532 81.7199 27.2223 81.8001 27.1668 81.8618ZM38.591 74.8296C38.4615 74.626 38.3443 74.4163 38.2209 74.2066C38.2086 74.2189 38.2086 74.2312 38.1962 74.2436C34.8035 77.1305 30.9482 79.1599 26.6672 80.3196C26.8337 80.6466 27.0126 80.9797 27.1853 81.3128C27.2162 81.2511 27.2717 81.2079 27.3581 81.1894C31.7377 80.2332 35.5314 78.1113 38.591 74.8296ZM37.6472 73.6884C37.7151 73.6329 37.7891 73.6144 37.857 73.602C29.3258 59.5808 21.393 45.0538 14.0401 30.385C13.8674 30.9525 13.4294 31.4644 12.8681 31.7174C12.0846 32.0751 11.3197 31.8654 10.6474 31.4336C10.6535 31.4706 10.6474 31.5076 10.6474 31.5446C18.9009 45.9483 26.9139 60.4445 35.6425 74.5767C35.7658 74.7802 35.6733 74.9776 35.5129 75.0701C35.3525 75.1688 35.1181 75.1627 34.9886 74.953C26.3896 61.1292 17.9263 47.0771 10.5733 32.544C10.413 33.2533 10.0367 33.9072 9.40748 34.302C8.37733 34.9435 7.1066 34.7831 6.18748 34.1169C6.18131 34.1786 6.15664 34.2403 6.15047 34.302C9.7961 42.3212 14.1141 49.9332 19.1045 57.1936C19.9126 57.5884 20.6405 58.2114 21.1463 59.0627C21.4671 59.6055 21.6706 60.2717 21.757 60.9688C24.9461 66.4958 28.1785 72.0229 31.2998 77.5869C31.343 77.661 31.3553 77.735 31.3491 77.7967C32.8358 77.0564 34.2607 76.199 35.6301 75.2305C36.321 74.7494 36.9934 74.2312 37.6472 73.6884ZM30.8186 78.0619C30.7693 78.0372 30.7199 78.0002 30.6829 77.9509C27.2223 73.1455 24.1997 67.7049 21.7817 62.2395C21.6213 64.0407 20.6528 65.6754 18.7714 65.5582C21.3992 70.2833 23.9407 75.0331 26.3958 79.8076C27.9256 79.3265 29.3999 78.7466 30.8186 78.0619ZM18.1854 64.3183C21.4609 65.2436 21.1463 60.5493 19.8262 58.964C18.5246 57.4095 16.2854 57.1936 14.8235 58.5322C15.9215 60.4568 17.0072 62.3814 18.0867 64.3121C18.1175 64.3121 18.1484 64.306 18.1854 64.3183ZM14.4102 57.8043C15.4033 56.879 16.6926 56.5767 17.914 56.7926C13.158 49.9764 9.16691 42.7283 5.92223 35.0731C5.68166 35.6221 5.29921 36.1094 4.7502 36.4302C3.80641 36.9792 2.67756 36.8743 1.78929 36.3438C6.0271 43.4253 10.2773 50.5809 14.4102 57.8043ZM14.7495 62.0606C14.1141 60.9379 13.4787 59.8091 12.8495 58.6802C12.7015 58.8653 12.5781 59.0565 12.4918 59.3218C12.3252 59.8399 12.3376 60.3951 12.572 60.8886C12.9729 61.7213 13.8735 62.0976 14.7495 62.0606ZM12.0661 31.045C12.8804 31.008 13.5774 30.1074 13.0593 29.3795C12.9544 29.2376 12.9791 29.0772 13.0593 28.9538C12.9544 28.9477 12.8495 28.9107 12.7447 28.8243C10.9743 27.2143 9.18541 25.6228 7.34717 24.0992C7.21763 23.9881 7.08193 23.8894 6.95239 23.7784C6.96472 24.9874 5.94691 26.1718 5.01545 26.8195C4.41093 27.239 3.71388 27.5289 2.98599 27.6461C2.30744 27.751 1.86331 27.6523 1.33281 27.4672C1.35131 27.6646 1.36365 27.862 1.36365 28.0286C1.3945 30.3603 1.413 32.6982 1.35748 35.0299C1.36365 35.0361 1.37599 35.0422 1.38833 35.0546C2.08538 35.8997 3.32526 36.2821 4.32457 35.7023C5.33005 35.1163 5.55829 33.8702 5.1635 32.8524C4.99078 32.4021 5.75568 32.0875 5.94074 32.5254C6.03944 32.7413 6.09495 32.9696 6.13813 33.1978C6.84135 33.9257 8.00721 34.2156 8.92016 33.6605C10.1415 32.9202 10.0428 31.156 9.12373 30.2431C8.83381 29.9593 9.06204 29.5892 9.3643 29.5275C9.48767 29.4782 9.62955 29.4843 9.72208 29.6015C10.3019 30.2924 11.0915 31.0882 12.0661 31.045ZM6.26151 23.3898C6.28001 23.3466 6.32319 23.3281 6.35403 23.2973C5.75568 22.8099 5.1635 22.3164 4.55281 21.8415C4.00997 21.4343 3.46714 21.0272 2.93047 20.6263C1.5117 20.0649 0.925685 20.287 1.17243 21.2801C0.672773 22.4768 1.0984 25.0676 1.28346 26.9059C2.28894 27.0416 3.51032 26.7146 4.31223 26.1965C5.45959 25.4624 5.66932 24.494 6.26151 23.3898Z" fill="#1D1D1B"/>
<path d="M41.4286 87.7704C40.0962 88.3379 38.4553 88.2207 37.4128 87.1104C36.2717 85.8828 38.6404 86.1049 39.2634 86.29C40.164 86.5552 40.8426 87.0857 41.4286 87.7704Z" fill="#5EBAE7"/>
<path d="M19.8265 58.9628C21.1465 60.5481 21.4611 65.2424 18.1856 64.3171C18.1486 64.3048 18.1178 64.311 18.0869 64.311C17.0074 62.3802 15.9217 60.4556 14.8237 58.531C16.2857 57.1924 18.5249 57.4083 19.8265 58.9628Z" fill="#F9E8D8"/>
<path d="M19.7955 25.5696C19.7893 25.7731 19.7708 25.9767 19.7647 26.1864C19.7215 27.6422 19.8078 29.0055 19.9929 30.2885C18.6605 30.233 17.0382 30.0356 16.2547 28.9499C15.6132 28.0617 15.897 26.9081 16.6804 26.1988C17.5316 25.4277 18.7222 25.3722 19.7955 25.5696Z" fill="#F9E8D8"/>
</svg>
