<svg width="90" height="169" viewBox="0 0 90 169" fill="none" xmlns="http://www.w3.org/2000/svg">
<path d="M23.9427 138.995C43.0246 139.77 41.3171 169.642 22.1032 167.116C21.6895 167.064 21.4695 167.31 21.4167 167.618C14.7627 165.867 10.0362 160.55 10.2211 153.051C10.4059 145.878 14.4106 140.052 21.3287 139.119C21.3551 139.127 21.3815 139.119 21.4079 139.11C22.2176 139.013 23.0538 138.96 23.9427 138.995Z" fill="#FFD600"/>
<path d="M44.2214 112.52C43.9749 113.241 43.9661 114.104 43.8693 114.799C43.6933 115.979 43.5172 117.158 43.3412 118.337C43.174 119.42 43.2796 121.532 42.7251 122.465C42.153 123.442 42.1354 123.249 40.7447 123.117C39.3365 122.976 37.937 122.765 36.5552 122.483C34.4428 122.043 32.4096 121.409 30.3853 120.67C31.4502 117.968 32.5064 115.266 33.4746 112.537C36.9248 112.96 40.7799 112.652 44.2214 112.52Z" fill="#FFD600"/>
<path d="M65.7413 119.253C66.0053 121.066 65.9085 121.761 64.2626 122.65C60.9444 124.446 55.7867 123.935 51.9668 123.838C52.178 120.115 52.5301 116.392 52.5037 112.669C52.4949 112.502 52.3541 112.405 52.2132 112.405V112.361C55.9099 112.273 59.6066 112.123 63.2944 111.93C63.8225 113.444 64.3594 114.966 64.8611 116.489C65.1516 117.369 65.6181 118.328 65.7413 119.253Z" fill="#FFD600"/>
<path d="M88.9952 39.5042C90.1306 42.2415 86.83 46.3518 83.9079 44.6971C83.7055 44.5827 83.6263 44.3979 83.6263 44.2219C83.6263 43.9226 83.8463 43.6233 84.1983 43.6057C85.2897 43.5617 86.1787 43.6321 87.0677 42.84C87.807 42.1799 88.2383 41.1941 87.9742 40.1995C87.3933 38.0079 83.9695 37.0573 82.7901 39.2577C83.151 40.9212 83.3798 42.5848 83.4678 44.2307C84.3128 58.9645 74.7014 72.607 59.8707 77.8352C60.7069 78.9442 61.3054 80.3612 61.7895 81.8927C62.3792 81.8487 62.9865 82.0335 63.6114 82.1303C65.1605 82.368 66.7008 82.6232 68.2499 82.8696C69.5613 83.0809 73.8301 82.8785 74.1029 84.7708C74.3318 86.3815 71.7089 87.957 70.7055 88.7932C69.3765 89.9022 68.1882 91.02 67.0264 92.217C67.977 92.1906 68.9364 92.4722 69.5613 93.0707C71.0312 94.4702 70.5383 96.741 68.8748 97.7444C67.7218 98.4485 66.4191 98.2461 65.4069 97.5508C66.3047 101.899 67.0616 106.282 67.6777 110.692C67.757 111.255 67.4577 111.721 66.8592 111.757C66.1639 111.801 65.4774 111.818 64.782 111.862C65.7854 114.529 66.7272 117.231 67.5105 119.968C67.8714 121.209 68.2235 122.028 67.2905 122.987C65.8558 124.448 62.1592 124.748 60.258 124.985C59.8091 125.038 59.3602 125.065 58.9026 125.1V125.109L58.3833 125.144C56.0156 125.302 53.6216 125.258 51.254 125.153C50.9283 125.144 50.541 124.862 50.585 124.484C51.0339 120.532 51.298 116.527 51.9845 112.601C52.0109 112.469 52.1077 112.408 52.2133 112.408C52.3542 112.408 52.495 112.505 52.5038 112.672C52.5302 116.395 52.1781 120.118 51.9669 123.841C55.7868 123.938 60.9445 124.448 64.2627 122.653C65.9086 121.764 66.0054 121.069 65.7414 119.255C65.6182 118.331 65.1517 117.372 64.8612 116.492C64.3596 114.969 63.8227 113.446 63.2946 111.933C59.6067 112.126 55.91 112.276 52.2133 112.364C50.277 112.417 48.3406 112.452 46.4043 112.461C46.1931 112.461 45.9642 112.478 45.753 112.478C46.017 114.01 45.2425 116.281 45.0488 117.583C44.8112 119.203 45.0312 123.366 43.6582 124.475C42.4172 125.478 39.7151 124.563 38.3332 124.343C36.8634 124.114 35.4199 123.78 33.994 123.383C33.9852 123.392 33.9764 123.401 33.9676 123.401C31.82 123.885 29.6725 124.281 27.4985 124.616C26.5039 124.765 25.5181 124.915 24.5235 125.056C23.1769 125.258 22.5256 125.038 21.927 126.103C21.0733 127.635 21.6718 130.926 21.707 132.651C21.751 134.324 21.8302 135.987 21.9094 137.651C22.5696 137.607 23.2385 137.589 23.9426 137.633C33.4395 138.135 40.1728 145.942 39.2486 155.615C38.5181 163.36 31.7408 168.632 24.3475 168.729C24.2947 168.782 24.2331 168.826 24.1362 168.835C7.96771 170.525 4.65831 147.289 15.4315 139.86C13.5567 139.605 11.6732 138.17 13.6447 136.656C15.5723 135.178 18.4944 135.565 20.51 136.823C20.2899 134.271 20.1755 131.71 20.1755 129.148C20.1755 128.101 19.7355 125.399 20.598 124.475C21.3902 123.621 23.3177 123.753 24.3299 123.63C26.9968 123.313 29.6637 123.049 32.3393 122.882C31.3007 122.547 30.2798 122.195 29.2676 121.799C28.8011 121.614 28.6427 121.201 28.8451 120.752C30.0421 117.953 31.2391 115.145 32.5242 112.39C31.6616 112.241 30.8079 112.056 30.0245 111.783C29.7077 111.669 29.4788 111.413 29.4788 111.061C29.4348 107.778 30.711 104.161 32.0313 100.746C31.9345 100.763 31.8464 100.799 31.7496 100.816C30.1301 101.036 28.6691 100.042 28.2906 98.4485C27.6305 95.72 29.7165 93.9949 32.0401 93.8101C28.9243 91.2312 25.8262 88.6347 22.7192 86.0471C22.2175 85.6158 22.6928 84.938 23.2033 84.8764C28.1498 84.2691 33.3779 83.345 38.3948 83.4946C38.8877 82.28 39.3894 81.0653 39.9087 79.8595C26.4687 78.4689 12.8174 72.0613 9.48158 59.9503C8.39899 60.9713 6.15458 60.8217 4.93116 60.2936C3.55811 59.6951 2.54593 58.3484 2.47551 56.8257C2.4051 55.4439 3.29406 54.2293 4.49988 53.49C4.20943 51.6152 4.13902 49.8901 4.19183 47.9185C4.28865 44.2219 3.63733 45.9118 0.944036 47.5489C0.565567 47.7777 -0.0417427 47.4872 0.00226529 47.0119C0.363131 43.148 1.06726 39.425 2.3963 35.7635C2.9508 34.2497 4.35905 32.3837 4.51748 30.8874L5.52086 29.0743C4.0862 28.6782 2.68675 28.7574 1.3137 29.3119C0.706391 29.4528 0.248711 28.7134 0.697592 28.2557C3.55811 25.3512 6.58586 23.6349 10.5466 22.6756C10.6082 22.658 10.661 22.6667 10.7138 22.6667C9.97447 18.3276 10.749 13.8651 12.4213 9.82519C12.6678 9.25309 13.4071 9.21788 13.6359 9.82519C14.7009 12.6857 16.3028 14.9917 18.512 17.0865C18.6352 17.2009 18.6793 17.3242 18.6969 17.4474L18.4856 17.9755C18.2568 18.1779 17.9047 18.2483 17.6055 17.9931C15.5899 16.2328 14.0936 14.0676 13.0374 11.6471C11.682 15.2558 11.3299 18.9173 11.4531 22.8164C11.4531 22.9396 11.3827 23.0276 11.2859 23.0892C11.4003 23.4061 11.3123 23.7934 10.8898 23.8902C9.5608 24.2158 2.67795 26.2842 2.9244 27.7277C2.9244 27.446 7.01714 27.0235 7.14916 27.0059C7.62445 26.9531 7.9149 27.578 7.68606 27.9477C5.52967 31.4331 3.76055 35.0858 2.64274 39.0465C2.32589 40.1643 1.25209 43.0248 1.8594 44.2659C1.67457 45.9206 2.27307 45.9822 3.66373 44.4595C4.22703 44.1251 4.78153 43.7906 5.34484 43.4561C5.78491 43.1833 6.38343 43.6322 6.2338 44.1339C5.30963 47.1616 5.02798 50.0485 5.23921 53.1203C6.39222 52.645 7.70366 52.5922 8.73345 53.1819C8.78626 51.8352 8.93589 50.4446 9.21754 48.9923C9.29675 48.5434 9.93046 48.5962 10.0713 48.9483C10.1857 48.7987 10.3794 48.7195 10.5994 48.8515C11.4355 49.3356 12.2629 49.8461 13.0902 50.339C12.7646 48.5346 12.3421 46.0702 14.4897 46.2726C15.4315 46.3607 16.294 47.3376 17.1918 47.6104C19.621 48.3322 19.0313 46.1494 19.1545 44.3275C19.3746 41.0533 19.1017 37.8231 18.6528 34.5841C18.5736 34.0648 19.1017 33.7479 19.4714 33.8535C19.313 33.5367 19.7354 33.1758 20.0611 33.4399C22.6928 35.4819 25.4565 37.0134 28.6075 38.0255C28.5546 36.7053 28.5106 35.033 29.9717 34.8657C31.424 34.6897 32.1017 36.6701 33.3515 36.7933C35.5431 37.0045 35.2175 33.8272 35.4463 32.3925C35.4991 32.0668 35.7808 31.9436 36.0536 31.9612C36.1592 31.8644 36.3089 31.8028 36.4849 31.8908C39.407 33.3607 42.2851 34.9098 45.1721 36.4588C44.7232 34.3377 44.2831 32.2077 43.9046 30.0777C43.8166 29.5672 44.2479 29.2327 44.6352 29.2327C44.7232 29.1623 44.8288 29.1271 44.9608 29.2063C48.191 31.2043 51.298 33.3871 54.3345 35.6667C53.9913 33.5631 53.7184 31.4596 53.5248 29.3296C53.472 28.7046 54.2817 28.511 54.6778 28.8542L61.8687 35.077C61.543 33.6951 61.235 32.3221 61.0061 30.9315C60.9093 30.377 61.455 30.0513 61.8423 30.2097C61.9215 30.1921 62.0007 30.1833 62.0799 30.2185C64.0163 31.0899 65.8822 32.0756 67.7394 33.0966C67.7834 31.7852 67.8978 30.5002 68.1354 29.1975C68.2146 28.731 68.9012 28.5638 69.2004 28.9159C69.931 29.7696 70.6615 30.6234 71.392 31.4772C72.3778 32.6214 72.3866 33.211 73.8565 32.9382C75.4584 32.6389 76.4001 30.4649 77.4475 29.2327C77.7028 28.9335 78.0812 29.0127 78.3101 29.2415C78.6005 29.1975 78.9086 29.3031 79.0934 29.6376C80.6689 32.4365 81.7955 35.2794 82.5172 38.1312C83.0101 37.3654 83.7935 37.0045 84.6472 36.9517C86.3459 36.8373 88.3439 37.9287 88.9952 39.5042ZM56.2709 77.2718C77.0603 71.9733 88.1327 50.1894 77.8964 30.9315C76.9898 32.551 75.5904 34.9802 74.1117 35.253C72.2634 35.5875 70.4151 32.8326 69.1476 30.9843C69.0068 31.9965 68.91 32.991 68.8836 34.056C68.8748 34.4873 68.3819 34.8218 67.9946 34.5665C66.1463 33.3695 64.2451 32.2693 62.3264 31.1779C62.8369 33.035 63.2506 34.9097 63.673 36.7845C63.8315 37.4798 63.0393 37.9111 62.52 37.4534C60.0292 35.2882 57.5383 33.123 55.0475 30.9578C55.2587 32.9558 55.5051 34.9449 55.8396 36.9341C55.9452 37.5942 55.2675 37.9903 54.7482 37.5678C51.6853 35.0418 48.5255 32.6302 45.3305 30.2713C45.8498 32.683 46.3251 35.1122 46.7388 37.5414C46.8356 38.0959 46.2987 38.6153 45.7618 38.2984C42.7076 36.5029 39.6447 34.7337 36.6345 32.8678C36.5553 34.7249 36.7577 37.6735 35.2879 38.8881C35.1118 39.0289 34.8654 39.1521 34.6454 39.0553C33.4835 38.5976 32.7266 37.7527 31.644 37.163C29.5052 35.9923 29.9893 36.7317 29.8925 38.9145C29.8749 39.3017 29.4964 39.6626 29.0915 39.5218C25.6413 38.3248 22.5256 36.6084 19.7883 34.188C19.7971 34.2144 19.8147 34.232 19.8235 34.2672C20.3604 37.1718 20.5892 40.1203 20.4836 43.0865C20.4484 44.2483 20.6156 47.8305 19.7883 48.8691C19.2866 49.5116 19.0489 49.5468 18.3008 49.538C17.271 49.5292 16.3644 48.209 15.3699 48.1033C14.164 47.144 13.8032 47.3992 14.2873 48.8779C14.3401 49.7492 14.3929 50.6118 14.4369 51.4832C14.4633 51.9057 13.9088 52.2577 13.5567 51.9937C12.4389 51.1751 11.2859 50.4094 10.1681 49.5821C10.1417 49.5644 10.1241 49.5468 10.1065 49.5204C8.09973 74.0417 36.7929 82.2447 56.2709 77.2718ZM71.9377 85.915C72.8619 85.0525 72.7475 84.6652 71.5945 84.7532C70.7319 84.2427 68.91 84.2603 67.9154 84.0755C66.9912 83.9083 66.0759 83.7322 65.1517 83.5562L63.3122 83.2129C62.8457 83.2129 62.4408 83.0809 62.0799 82.8521C62.7841 85.4045 63.2153 88.1506 63.7434 90.2454C63.9899 91.196 64.2011 92.1642 64.43 93.1235C65.9526 90.4566 68.8924 88.6347 71.128 86.6456C71.4096 86.4079 71.6737 86.1703 71.9377 85.915ZM68.954 95.9929C69.5613 94.9719 68.9716 93.8717 67.8802 93.546C66.692 93.1851 65.9702 93.9949 64.9933 94.435C64.9757 94.4438 64.9669 94.435 64.9493 94.4438C64.8876 94.479 64.826 94.5142 64.7644 94.523C64.8348 94.8487 64.8965 95.1743 64.9669 95.5C65.2925 96.0985 65.6798 96.6266 66.4279 96.9082C67.3873 97.2691 68.4347 96.8642 68.954 95.9929ZM63.7522 109.688C66.4015 108.333 65.2749 105.692 64.4916 101.547C64.0075 98.9854 60.3108 78.4865 58.3305 78.5569C58.1808 78.5657 58.0664 78.5129 57.9608 78.4513C57.1598 78.6889 56.3413 78.909 55.5051 79.1026C51.0868 80.0972 46.0082 80.3788 40.8681 79.9476C40.472 81.1534 40.0583 82.3504 39.6535 83.5474C39.9879 83.5914 40.0935 84.0931 39.7239 84.1811C39.6271 84.1987 39.5214 84.2163 39.4246 84.2427C37.9284 88.6347 36.4057 93.0179 34.927 97.4187C34.8654 97.9732 34.6894 98.5101 34.4077 98.9854C34.0204 100.138 33.6244 101.283 33.2547 102.436C32.8762 103.633 31.4856 106.256 31.688 107.479C32.3569 111.677 35.4551 110.841 38.21 110.876C41.8539 110.929 45.4889 110.92 49.1328 110.85C53.0583 110.78 57.5119 111.088 61.411 110.401C61.9303 110.313 62.3792 110.199 62.7841 110.067C62.8897 109.697 63.3738 109.521 63.7522 109.688ZM43.8694 114.802C43.9663 114.107 43.9751 113.244 44.2215 112.522C40.7801 112.654 36.925 112.962 33.4747 112.54C32.5066 115.268 31.4504 117.97 30.3854 120.673C32.4097 121.412 34.4429 122.046 36.5553 122.486C37.9371 122.767 39.3366 122.979 40.7449 123.119C42.1355 123.251 42.1531 123.445 42.7252 122.468C43.2797 121.535 43.1741 119.423 43.3413 118.34C43.5174 117.161 43.6934 115.981 43.8694 114.802ZM34.4605 94.2061C35.5783 90.9671 36.7313 87.737 37.9812 84.5508C33.7036 85.3869 29.206 85.6158 24.858 86.0646C28.0089 88.7227 31.1775 91.372 34.3021 94.0653C34.3461 94.1005 34.3637 94.1357 34.3901 94.1709C34.4165 94.1885 34.4341 94.1885 34.4605 94.2061ZM34.1789 95.0071C34.1701 95.0071 34.1613 95.0071 34.1525 95.0071C33.9324 95.1303 33.6596 95.1567 33.4131 94.9543C33.3867 94.9279 33.3515 94.9014 33.3251 94.875C31.5032 94.7254 29.4172 95.3856 29.4612 97.5508C29.4788 98.7918 30.4118 99.7599 31.7056 99.4871C32.1281 99.3991 32.4538 99.2143 32.7178 98.9766C33.1491 97.8764 33.5628 96.7938 33.9148 95.7728C34.0028 95.5176 34.0909 95.2711 34.1789 95.0071ZM22.1031 167.119C41.317 169.645 43.0245 139.772 23.9426 138.997C23.0536 138.962 22.2175 139.015 21.4078 139.112C21.3813 139.121 21.3549 139.13 21.3285 139.121C14.4105 140.054 10.4058 145.88 10.2209 153.054C10.0361 160.553 14.7625 165.869 21.4166 167.62C21.4694 167.312 21.6894 167.066 22.1031 167.119ZM20.5804 137.809C20.5804 137.8 20.5804 137.792 20.5804 137.783C19.3658 137.158 18.0719 136.841 16.6813 137.008C16.2676 137.052 15.8539 137.132 15.4579 137.272C15.1498 137.378 14.2609 137.8 14.4545 138.293C14.6745 138.848 16.4877 138.716 16.9981 138.777C17.0686 138.786 17.1302 138.821 17.1918 138.865C18.2304 138.381 19.3482 138.012 20.5804 137.809ZM6.39223 59.167C7.37801 59.299 8.25816 58.8325 9.19993 58.8589C8.88308 57.4067 8.71585 55.8751 8.70705 54.2645C8.68944 54.2557 8.67184 54.2733 8.65424 54.2557C6.89392 53.1379 3.41729 54.995 4.0334 57.213C4.34145 58.3308 5.27442 59.0085 6.39223 59.167Z" fill="#1D1D1B"/>
<path d="M87.9742 40.196C88.2382 41.1906 87.807 42.1764 87.0676 42.8365C86.1787 43.6286 85.2897 43.5582 84.1983 43.6022C83.8462 43.6198 83.6262 43.9191 83.6262 44.2183L83.4678 44.2271C83.3797 42.5812 83.1509 40.9177 82.79 39.2542C83.9695 37.0538 87.3933 38.0044 87.9742 40.196Z" fill="#F9E8D8"/>
<path d="M60.4603 2.56204C54.0967 3.58303 48.1204 5.51059 42.0825 7.7462C42.0209 7.7638 41.9769 7.73739 41.9329 7.73739C41.5192 8.04544 40.7975 7.88703 40.8679 7.26212C41.0527 5.66903 41.396 4.22554 41.9329 2.78208C33.1841 3.86468 22.7894 10.7652 18.8815 18.493C18.7319 18.7746 18.2654 18.5722 18.3622 18.2729C18.3974 18.1673 18.4502 18.0793 18.4854 17.9736L18.6967 17.4456C20.4218 13.1768 23.9776 10.3515 27.7095 7.71982C32.3656 4.42802 37.1624 1.81392 42.9275 1.36504C43.4732 1.32103 43.658 1.93713 43.4908 2.342C42.8043 3.75906 42.4082 5.25534 42.2498 6.80442C51.5442 2.56205 61.5165 0.467286 71.6999 0.000800887C72.4656 -0.0344055 72.7825 1.10098 72.096 1.46184C70.8286 2.11316 66.6654 4.15512 67.4927 5.46656C68.1441 6.47874 70.8285 6.63719 71.9287 6.97165C75.0621 7.93103 77.9666 9.20729 80.8888 10.686C81.5137 10.994 81.2673 11.8389 80.7127 12.0414C80.4223 12.1558 75.4582 13.5201 75.1853 14.2066C74.8421 15.0868 76.2327 14.9811 76.8048 15.7116C78.1515 17.4279 80.2111 18.6074 81.5753 20.4117C84.3742 24.126 85.6768 28.3683 86.0817 32.9452C86.1257 33.3677 85.6504 33.6405 85.2808 33.5525C82.5347 32.8836 84.4006 33.6581 85.2456 36.0521C85.4128 36.5186 85.0255 36.8267 84.6383 36.8267C84.383 36.8267 84.119 36.6946 84.0134 36.3866C83.3092 34.9783 82.6051 33.5701 81.901 32.1706C81.5401 31.6073 82.2354 31.044 82.7635 31.3081C84.6735 29.3189 84.6383 27.1977 82.6403 24.9445C82.033 23.6507 81.2584 22.4625 80.3255 21.3799C78.1163 18.4577 75.5198 16.4158 72.2456 14.7259C71.6647 14.4266 71.8583 13.5816 72.4216 13.4056C76.0743 12.2086 79.8414 12.3935 75.2646 9.79698C72.228 8.08067 68.2849 7.49974 64.9051 6.85723C64.289 6.74281 64.245 5.99467 64.5706 5.58979C64.5794 5.58979 67.3343 2.50046 68.6898 1.43547C66.5246 1.97236 60.161 2.66766 60.4603 2.56204Z" fill="#1D1D1B"/>
<path d="M84.6386 36.8287L84.6474 36.9519C83.7937 37.0047 83.0103 37.3656 82.5174 38.1314C81.7957 35.2796 80.6691 32.4367 79.0936 29.6378C78.9088 29.3033 78.6007 29.1977 78.3103 29.2417C78.0814 29.0129 77.703 28.9337 77.4477 29.2329C76.4003 30.4651 75.4585 32.6391 73.8567 32.9384C72.3868 33.2113 72.378 32.6216 71.3922 31.4774C70.6617 30.6236 69.9311 29.7698 69.2006 28.9161C68.9014 28.564 68.2148 28.7312 68.1356 29.1977C67.898 30.5004 67.7836 31.7854 67.7395 33.0968C65.8824 32.0758 64.0165 31.0901 62.0801 30.2187C62.0009 30.1835 61.9217 30.1923 61.8425 30.2099C61.4552 30.0515 60.9095 30.3772 61.0063 30.9317C61.2352 32.3223 61.5432 33.6953 61.8689 35.0772L54.678 28.8544C54.2819 28.5112 53.4722 28.7049 53.525 29.3298C53.7186 31.4598 53.9915 33.5633 54.3347 35.6669C51.2982 33.3873 48.1912 31.2045 44.961 29.2065C44.829 29.1273 44.7234 29.1625 44.6353 29.2329C44.2481 29.2329 43.8168 29.5674 43.9048 30.0779C44.2833 32.2079 44.7234 34.3379 45.1722 36.459C42.2853 34.91 39.4072 33.3609 36.4851 31.891C36.309 31.803 36.1594 31.8646 36.0538 31.9614C35.7809 31.9438 35.4993 32.067 35.4465 32.3927C35.2176 33.8274 35.5433 37.0047 33.3517 36.7935C32.1019 36.6703 31.4241 34.6899 29.9719 34.866C28.5108 35.0332 28.5548 36.7055 28.6076 38.0258C25.4567 37.0136 22.693 35.4821 20.0613 33.4401C19.7356 33.1761 19.3131 33.5369 19.4716 33.8537C19.1019 33.7481 18.5738 34.065 18.653 34.5843C19.1019 37.8233 19.3748 41.0535 19.1547 44.3277C19.0315 46.1496 19.6212 48.3324 17.192 47.6107C16.2942 47.3378 15.4316 46.3609 14.4899 46.2728C12.3423 46.0704 12.7648 48.5349 13.0904 50.3392C12.2631 49.8463 11.4357 49.3358 10.5996 48.8517C10.3795 48.7197 10.1859 48.7989 10.0715 48.9485C9.93064 48.5964 9.29693 48.5436 9.21772 48.9925C8.93607 50.4448 8.78644 51.8354 8.73363 53.1821C7.70384 52.5924 6.3924 52.6452 5.23939 53.1205C5.02815 50.0487 5.30981 47.1618 6.23398 44.1341C6.3836 43.6324 5.78509 43.1835 5.34501 43.4563C4.78171 43.7908 4.22721 44.1253 3.66391 44.4597C2.27325 45.9824 1.67475 45.9208 1.85958 44.2661C1.25227 43.025 2.32607 40.1645 2.64292 39.0467C3.76073 35.086 5.52984 31.4333 7.68623 27.9479C7.91508 27.5782 7.62462 26.9533 7.14934 27.0061C7.01731 27.0237 2.92457 27.4462 2.92457 27.7279C2.67813 26.2844 9.56098 24.216 10.89 23.8904C11.3125 23.7936 11.4005 23.4063 11.2861 23.0894C11.3829 23.0278 11.4533 22.9398 11.4533 22.8166C11.3301 18.9175 11.6822 15.256 13.0376 11.6473C14.0938 14.0678 15.5901 16.233 17.6056 17.9933C17.9049 18.2486 18.257 18.1781 18.4858 17.9757C18.4506 18.0813 18.3978 18.1693 18.3626 18.275C18.2658 18.5742 18.7322 18.7767 18.8819 18.495C22.7898 10.7672 33.1845 3.86671 41.9333 2.78412C41.3964 4.22758 41.0531 5.67106 40.8683 7.26415C40.7979 7.88907 41.5196 8.04748 41.9333 7.73942C41.9773 7.73942 42.0213 7.76583 42.0829 7.74823C48.1208 5.51263 54.0971 3.58506 60.4606 2.56408C60.1614 2.6697 66.5249 1.9744 68.6901 1.4375C67.3347 2.50249 64.5798 5.59183 64.571 5.59183C64.2453 5.9967 64.2893 6.74484 64.9054 6.85926C68.2852 7.50178 72.2284 8.08271 75.2649 9.79902C79.8417 12.3955 76.0747 12.2106 72.422 13.4077C71.8587 13.5837 71.6651 14.4286 72.246 14.7279C75.5202 16.4178 78.1166 18.4598 80.3258 21.3819C81.2588 22.4645 82.0333 23.6527 82.6406 24.9465C84.6386 27.1997 84.6738 29.321 82.7639 31.3101C82.2358 31.0461 81.5405 31.6094 81.9013 32.1727C82.6054 33.5721 83.3096 34.9804 84.0137 36.3886C84.1193 36.6967 84.3834 36.8287 84.6386 36.8287Z" fill="#F39200"/>
<path d="M77.8966 30.9297C88.1328 50.1875 77.0604 71.9715 56.271 77.27C36.7931 82.2429 8.09989 74.0399 10.1067 49.5186C10.1243 49.545 10.1419 49.5626 10.1683 49.5802C11.2861 50.4076 12.4391 51.1733 13.5569 51.9919C13.909 52.2559 14.4635 51.9038 14.437 51.4814C14.393 50.61 14.3402 49.7474 14.2874 48.8761C13.8033 47.3974 14.1642 47.1422 15.37 48.1015C16.3646 48.2071 17.2712 49.5274 18.301 49.5362C19.0491 49.545 19.2867 49.5098 19.7884 48.8673C20.6158 47.8287 20.4485 44.2465 20.4837 43.0847C20.5894 40.1185 20.3605 37.17 19.8236 34.2654C19.8148 34.2302 19.7972 34.2126 19.7884 34.1862C22.5257 36.6066 25.6415 38.3229 29.0917 39.52C29.4966 39.6608 29.875 39.2999 29.8927 38.9127C29.9895 36.7299 29.5054 35.9905 31.6442 37.1611C32.7268 37.7509 33.4837 38.5958 34.6455 39.0535C34.8655 39.1503 35.112 39.0271 35.288 38.8863C36.7579 37.6717 36.5555 34.7231 36.6347 32.866C39.6448 34.7319 42.7078 36.5011 45.7619 38.2966C46.2988 38.6134 46.8357 38.0941 46.7389 37.5396C46.3252 35.1104 45.8499 32.6812 45.3307 30.2695C48.5256 32.6284 51.6854 35.04 54.7484 37.566C55.2677 37.9885 55.9454 37.5924 55.8398 36.9323C55.5053 34.9431 55.2589 32.954 55.0476 30.956C57.5385 33.1212 60.0293 35.2864 62.5202 37.4516C63.0395 37.9093 63.8316 37.478 63.6732 36.7827C63.2507 34.9079 62.837 33.0332 62.3265 31.1761C64.2453 32.2675 66.1464 33.3677 67.9948 34.5647C68.382 34.82 68.8749 34.4855 68.8837 34.0542C68.9101 32.9892 69.007 31.9946 69.1478 30.9825C70.4152 32.8308 72.2635 35.5857 74.1119 35.2512C75.5906 34.9784 76.99 32.5491 77.8966 30.9297ZM65.3279 59.6756C65.3367 58.7691 63.9724 58.7779 63.9196 59.6756C63.1099 75.1137 37.8933 75.5009 30.456 65.828C30.5528 65.7311 30.6584 65.6431 30.7552 65.5463C30.8256 65.4671 30.7112 65.3527 30.6408 65.4319C30.544 65.5199 30.4559 65.6167 30.3679 65.7135C30.2183 65.5111 30.0599 65.3087 29.9191 65.0887C29.7694 64.851 29.3734 65.0006 29.4526 65.2911C33.4749 80.201 65.143 75.1225 65.3279 59.6756ZM62.5818 53.4441C63.1099 52.4847 62.5114 51.1293 61.8777 50.346C61.1559 49.4482 60.0381 48.9377 58.8851 49.0521C56.9312 49.2457 55.2941 51.8598 57.0896 53.3649C57.4945 53.7082 58.0578 53.2945 57.8201 52.8016C57.2128 51.543 58.1986 50.1875 59.6245 50.5572C60.223 50.7156 60.6982 51.1557 60.9799 51.7014C61.2703 52.2647 61.2087 52.916 61.5344 53.4441C61.7632 53.8226 62.3529 53.849 62.5818 53.4441ZM50.9637 59.7989C50.9549 58.4874 49.9251 57.3256 48.6841 57.0088C47.3638 56.6743 45.5595 57.2112 44.7409 58.3466C44.2305 59.0419 44.5561 60.2301 45.5595 59.8781C45.6827 59.8341 45.7003 59.6404 45.5595 59.6052C44.873 59.438 46.3252 58.6019 46.3869 58.5754C46.9326 58.3202 47.5487 58.1618 48.156 58.2938C48.6401 58.3906 49.0889 58.6811 49.3354 59.1123C49.6258 59.6404 49.6346 60.4326 48.8513 60.503C48.2616 60.5558 48.0856 61.2423 48.5608 61.5856C49.7491 62.4569 50.9637 60.9695 50.9637 59.7989ZM34.892 56.8416C36.0362 54.8084 33.8094 52.2647 31.6618 52.7488C29.7254 53.1801 28.9157 56.0494 30.896 57.0175C31.3097 57.22 31.7938 56.6919 31.4153 56.3487C30.5616 55.5565 30.9312 54.1747 32.1723 54.1483C32.7268 54.1307 33.2021 54.4035 33.4661 54.8964C33.7566 55.4333 33.6245 55.935 33.6333 56.5071C33.6421 57.1584 34.5575 57.4401 34.892 56.8416Z" fill="#F9E8D8"/>
<path d="M66.2167 158.912C67.8186 159.009 69.8254 159.872 69.6318 161.799C69.4293 163.824 66.9561 164.616 65.2926 164.853C62.5465 165.232 59.8356 164.581 57.4944 163.137C57.0895 162.891 57.0983 162.442 57.3095 162.134C57.1951 162.037 57.1247 161.896 57.1247 161.694C56.9927 149.697 56.8518 137.049 58.3833 125.141L58.9026 125.105C59.8444 137.04 59.0698 149.627 58.3393 161.57C60.6893 160.083 63.3826 158.736 66.2167 158.912ZM67.3786 161.738C67.9419 160.629 67.5546 160.145 66.2167 160.268C65.7503 160.233 65.2838 160.25 64.8261 160.321C64.1044 160.391 63.4178 160.523 62.7313 160.734C61.4463 161.139 60.2493 161.729 59.0787 162.389C60.3197 163.023 61.6223 163.445 63.0394 163.542C63.8755 163.595 64.7733 163.56 65.6006 163.384C66.8152 163.128 67.1585 163.093 67.3786 161.738Z" fill="#1D1D1B"/>
<path d="M67.8802 93.5472C68.9716 93.8729 69.5613 94.9731 68.954 95.9941C68.4347 96.8654 67.3873 97.2703 66.4279 96.9094C65.6798 96.6278 65.2925 96.0997 64.9669 95.5012C64.8964 95.1755 64.8348 94.8499 64.7644 94.5242C64.826 94.5154 64.8876 94.4802 64.9492 94.445C64.9668 94.4362 64.9757 94.445 64.9933 94.4362C65.9702 93.9961 66.692 93.1863 67.8802 93.5472Z" fill="#F9E8D8"/>
<path d="M66.2167 160.269C67.5546 160.146 67.9418 160.63 67.3785 161.739C67.1585 163.094 66.8152 163.129 65.6006 163.385C64.7732 163.561 63.8755 163.596 63.0393 163.543C61.6223 163.446 60.3196 163.024 59.0786 162.39C60.2492 161.73 61.4462 161.14 62.7313 160.735C63.4178 160.524 64.1043 160.392 64.8261 160.322C65.2837 160.251 65.7502 160.234 66.2167 160.269Z" fill="#5EBAE7"/>
<path d="M63.9193 59.6766C63.9721 58.7789 65.3364 58.7701 65.3276 59.6766C65.1427 75.1234 33.4746 80.202 29.4523 65.2921C29.373 65.0016 29.7691 64.852 29.9187 65.0896C30.0596 65.3097 30.218 65.5121 30.3676 65.7145C30.4556 65.6177 30.5437 65.5209 30.6405 65.4329C30.7109 65.3536 30.8253 65.4681 30.7549 65.5473C30.6581 65.6441 30.5525 65.7321 30.4556 65.8289C37.893 75.5019 63.1096 75.1146 63.9193 59.6766Z" fill="#1D1D1B"/>
<path d="M64.4916 101.545C65.2749 105.69 66.4015 108.331 63.7522 109.686C63.3738 109.519 62.8897 109.695 62.784 110.065C62.3792 110.197 61.9303 110.311 61.411 110.399C57.5119 111.086 53.0583 110.777 49.1328 110.848C45.4889 110.918 41.8538 110.927 38.21 110.874C35.4551 110.839 32.3569 111.675 31.688 107.477C31.4856 106.253 32.8762 103.631 33.2547 102.434C33.6243 101.281 34.0204 100.136 34.4077 98.9833C34.6893 98.508 34.8654 97.9712 34.927 97.4167C36.4057 93.0159 37.9283 88.6326 39.4246 84.2406C39.5214 84.2142 39.627 84.1967 39.7239 84.1791C40.0935 84.0911 39.9879 83.5893 39.6534 83.5453C40.0583 82.3483 40.472 81.1513 40.8681 79.9455C46.0082 80.3768 51.0867 80.0951 55.5051 79.1005C56.3413 78.9069 57.1598 78.6869 57.9608 78.4492C58.0664 78.5108 58.1808 78.5636 58.3304 78.5548C60.3108 78.4844 64.0075 98.9833 64.4916 101.545Z" fill="#5EBAE7"/>
<path d="M61.8776 50.3449C62.5113 51.1283 63.1098 52.4837 62.5817 53.443C62.3529 53.8479 61.7632 53.8215 61.5343 53.443C61.2087 52.9149 61.2703 52.2636 60.9798 51.7003C60.6982 51.1546 60.2229 50.7146 59.6244 50.5561C58.1985 50.1865 57.2128 51.5419 57.8201 52.8005C58.0577 53.2934 57.4944 53.7071 57.0895 53.3639C55.294 51.8588 56.9311 49.2447 58.8851 49.0511C60.0381 48.9366 61.1559 49.4472 61.8776 50.3449Z" fill="#1D1D1B"/>
<path d="M48.6835 57.0085C49.9246 57.3253 50.9544 58.4871 50.9632 59.7986C50.9632 60.9692 49.7485 62.4566 48.5603 61.5853C48.085 61.242 48.2611 60.5555 48.8508 60.5027C49.6341 60.4323 49.6253 59.6401 49.3349 59.112C49.0884 58.6807 48.6395 58.3903 48.1554 58.2935C47.5481 58.1614 46.932 58.3199 46.3863 58.5751C46.3247 58.6015 44.8724 59.4377 45.559 59.6049C45.6998 59.6401 45.6822 59.8337 45.559 59.8777C44.5556 60.2298 44.2299 59.0416 44.7404 58.3463C45.559 57.2109 47.3633 56.674 48.6835 57.0085Z" fill="#1D1D1B"/>
<path d="M31.6614 52.7475C33.809 52.2634 36.0358 54.8071 34.8916 56.8403C34.5571 57.4388 33.6418 57.1571 33.633 56.5058C33.6242 55.9337 33.7562 55.432 33.4657 54.8951C33.2017 54.4022 32.7264 54.1294 32.1719 54.147C30.9309 54.1734 30.5612 55.5552 31.415 56.3474C31.7934 56.6906 31.3093 57.2187 30.8957 57.0162C28.9153 56.0481 29.7251 53.1788 31.6614 52.7475Z" fill="#1D1D1B"/>
<path d="M34.1524 95.0077C34.1612 95.0077 34.17 95.0077 34.1788 95.0077C34.0908 95.2718 34.0028 95.5182 33.9147 95.7735C33.5627 96.7945 33.149 97.8771 32.7177 98.9773C32.4537 99.2149 32.128 99.3997 31.7055 99.4877C30.4117 99.7606 29.4787 98.7924 29.4611 97.5514C29.4171 95.3862 31.5031 94.7261 33.325 94.8757C33.3514 94.9021 33.3867 94.9285 33.4131 94.9549C33.6595 95.1574 33.9323 95.131 34.1524 95.0077Z" fill="#F9E8D8"/>
<path d="M20.5805 137.78C20.5805 137.789 20.5805 137.797 20.5805 137.806C19.3482 138.009 18.2304 138.378 17.1919 138.862C17.1302 138.818 17.0686 138.783 16.9982 138.774C16.4877 138.713 14.6746 138.845 14.4546 138.29C14.2609 137.797 15.1499 137.375 15.4579 137.269C15.854 137.128 16.2677 137.049 16.6814 137.005C18.072 136.838 19.3658 137.155 20.5805 137.78Z" fill="#5EBAE7"/>
<path d="M9.19973 58.86C8.25796 58.8336 7.37781 59.3001 6.39203 59.1681C5.27422 59.0096 4.34125 58.3319 4.0332 57.2141C3.41709 54.9961 6.89372 53.139 8.65404 54.2568C8.67164 54.2744 8.68924 54.2568 8.70685 54.2656C8.71565 55.8762 8.88288 57.4078 9.19973 58.86Z" fill="#F9E8D8"/>
</svg>
