<svg width="91" height="91" viewBox="0 0 91 91" fill="none" xmlns="http://www.w3.org/2000/svg">
<path fill-rule="evenodd" clip-rule="evenodd" d="M49.5699 49.8125C55.0015 51.6521 57.696 53.52 54.9802 57.5671L47.9419 55.6066L49.5699 49.8125Z" fill="#EDF8FE"/>
<path fill-rule="evenodd" clip-rule="evenodd" d="M31.7505 54.1142L49.1276 55.9378L51.1271 48.7733L29.6746 41.0703C31.5301 44.8401 32.225 49.1874 31.7505 54.1142Z" fill="#97D9F0"/>
<path fill-rule="evenodd" clip-rule="evenodd" d="M50.21 52.0632L51.1271 48.7733L29.6746 41.0703C30.9649 43.6954 31.6954 46.6014 31.8607 49.7917L50.21 52.0632Z" fill="#C8EAF6"/>
<path fill-rule="evenodd" clip-rule="evenodd" d="M28.3041 38.697L18.3189 34.8828C12.8732 35.2809 9.14429 41.1906 7.13411 52.6065L6.3272 69.2922C6.2561 70.7692 6.73599 72.0684 7.7473 73.1419C8.76038 74.2208 10.0294 74.77 11.5064 74.7895L30.9327 74.9868L31.6383 55.1268C32.4453 48.6928 31.338 43.2168 28.3041 38.697Z" fill="#C8EAF6"/>
<path fill-rule="evenodd" clip-rule="evenodd" d="M17.6791 34.9609C12.5799 35.7625 9.06431 41.6473 7.13411 52.61L6.3272 69.2957C6.2561 70.7726 6.73599 72.0719 7.7473 73.1454C8.76038 74.2242 10.0294 74.7734 11.5064 74.793H17.3005C18.781 74.793 14.5599 74.2242 13.5414 73.1454C12.5284 72.0719 12.0502 70.7726 12.1213 69.2957L12.9283 52.61C14.4692 43.8637 17.0197 38.3468 20.5762 36.07L17.6791 34.9609Z" fill="#97D9F0"/>
<path fill-rule="evenodd" clip-rule="evenodd" d="M29.6193 33.1356L28.3041 38.6969C23.9816 39.0701 21.12 38.4747 18.3189 34.8827L18.031 34.5041L18.2585 33.6581C20.274 33.4875 22.1225 32.4548 23.331 30.8268C24.561 29.165 24.9982 27.0428 24.5308 25.0273C23.85 19.7771 21.5324 16.4125 24.0722 17.9588L30.2947 13.6719L40.2105 16.297C38.9006 30.9743 41.1578 36.1642 29.6193 33.1356Z" fill="#C8EAF6"/>
<path fill-rule="evenodd" clip-rule="evenodd" d="M18.1538 34.0495L18.2604 33.662C20.276 33.4914 22.1244 32.4588 23.333 30.8307C24.5629 29.1689 25.0001 27.0467 24.5327 25.0312C23.852 19.781 21.5343 16.4164 24.0741 17.9627L30.2966 13.6758L36.9421 15.4336C36.0748 28.0794 37.3758 32.457 26.5642 29.6203L25.249 35.1816C22.375 35.4305 20.148 35.2492 18.1538 34.0495Z" fill="#EDF8FE"/>
<path fill-rule="evenodd" clip-rule="evenodd" d="M29.6408 22.2994L30.5935 18.8229C35.9895 20.5505 39.7574 18.6522 41.9045 13.1247C43.1682 9.86506 41.8938 6.80625 37.0985 7.9402C30.549 9.49182 24.9771 4.73031 19.9792 11.6282C14.0286 19.8448 22.3324 24.0625 18.1396 33.6708C20.2049 33.5304 22.1049 32.4924 23.3348 30.8288C24.5647 29.1652 25.0019 27.0449 24.5345 25.0294C23.8538 19.7791 24.7869 17.9306 27.3249 19.4769C28.5069 20.1985 29.0045 20.8419 29.6408 22.2994Z" fill="#97D9F0"/>
<path fill-rule="evenodd" clip-rule="evenodd" d="M47.6807 74.9838H78.5602C81.7239 74.9838 84.2993 72.2627 84.2993 68.9284V64.6006C84.2993 58.8917 79.8701 54.2227 74.4546 54.2227H57.5272C52.1116 54.2227 47.6824 58.8935 47.6824 64.6006V74.9838H47.6807Z" fill="#C8EAF6"/>
<path fill-rule="evenodd" clip-rule="evenodd" d="M48.6636 74.9838H55.8938V64.6006C55.8938 58.8917 60.323 54.2227 65.7385 54.2227H58.5083C53.098 54.2227 48.6636 58.8935 48.6636 64.6006V74.9838Z" fill="#97D9F0"/>
<path fill-rule="evenodd" clip-rule="evenodd" d="M62.7952 50.5991L60.7192 54.1964C61.5404 56.3879 63.6359 57.8435 65.9784 57.8435C68.3209 57.8435 70.4164 56.3879 71.234 54.1964L69.1581 50.5938C67.0928 51.9588 64.9529 52.0245 62.7952 50.5991Z" fill="#C8EAF6"/>
<path fill-rule="evenodd" clip-rule="evenodd" d="M63.6431 57.3352C64.3629 57.6676 65.1538 57.8435 65.9803 57.8435C68.3228 57.8435 70.4183 56.3879 71.2359 54.1964L69.1599 50.5938C68.0864 51.3047 66.988 51.6619 65.8843 51.6424L63.6431 57.3352Z" fill="#EDF8FE"/>
<path fill-rule="evenodd" clip-rule="evenodd" d="M73.7188 38.5975V44.189C73.7188 44.9657 73.518 45.6358 73.0843 46.3059C68.7156 53.0473 63.723 53.7867 58.8762 46.3059C58.4425 45.6358 58.2417 44.9711 58.2417 44.189V39.2622C59.8893 39.001 61.8195 37.9986 62.7455 36.6016H62.8966C65.9696 39.0205 69.9846 39.6906 73.7188 38.5975Z" fill="#C8EAF6"/>
<path fill-rule="evenodd" clip-rule="evenodd" d="M73.7189 38.599V44.1905C73.7189 44.9672 73.5181 45.6372 73.0844 46.3073C71.0582 49.4354 68.897 51.2696 66.6806 51.5931C65.3547 50.7311 64.0253 49.3057 62.7012 47.2653C62.2675 46.5952 62.0667 45.9252 62.0667 45.1485V38L65.2552 38.0409C67.8803 39.2441 70.8823 39.429 73.7189 38.599Z" fill="#EDF8FE"/>
<path fill-rule="evenodd" clip-rule="evenodd" d="M60.9771 30.5895C63.8031 29.2849 67.0876 29.4466 69.7678 31.0285C72.4481 32.6103 74.1454 35.2799 74.3783 38.3849C70.4237 39.7748 66.0603 39.1509 62.7953 36.5205C61.8889 37.9619 59.9178 38.9945 58.2418 39.2611C56.8714 34.329 57.6926 32.3632 60.9771 30.5895Z" fill="#97D9F0"/>
<path fill-rule="evenodd" clip-rule="evenodd" d="M31.1265 68.2656H36.3821C38.2305 68.2656 39.7377 69.7764 39.7377 71.6213V74.9822H31.1282V68.2656H31.1265Z" fill="#EDF8FE"/>
<path fill-rule="evenodd" clip-rule="evenodd" d="M68.9823 68.0508H65.712C63.9133 68.0508 62.4417 69.5224 62.4417 71.3211V74.9842H68.9805V68.0508H68.9823Z" fill="#EDF8FE"/>
<path fill-rule="evenodd" clip-rule="evenodd" d="M5.32129 74.9844H85.3018V86.562H5.32129V74.9844Z" fill="#C8EAF6"/>
<path fill-rule="evenodd" clip-rule="evenodd" d="M5.32129 80.7734H85.3018V86.5622H5.32129V80.7734Z" fill="#97D9F0"/>
<path d="M5.32129 73.7368H6.61697C5.52391 72.4571 5.01025 70.9303 5.09023 69.2383L5.91137 52.3962C7.24082 44.7945 10.0472 35.3817 16.9096 33.8354C16.8794 33.6186 16.9096 33.3928 17.0055 33.176C18.8291 28.9939 18.0435 25.8498 17.313 22.903C16.3817 19.1492 15.5144 15.6727 18.9748 10.897C22.6131 5.87422 26.4059 6.30256 30.5827 6.77C32.5822 6.9975 34.683 7.23389 36.814 6.72912C39.1015 6.19059 41.3125 6.39676 42.6224 7.95904C43.8861 9.46979 43.8008 11.6524 43.0561 13.5719C42.5869 14.7805 42.0377 15.8398 41.4138 16.7462C41.2076 19.1492 41.0921 21.3567 40.9908 23.2904C40.8237 26.5038 40.6993 28.9939 40.2052 30.8672C39.137 34.9285 36.8194 36.0962 30.5418 34.6405L29.6354 38.4689C29.9677 38.9879 30.2752 39.5211 30.5578 40.0668L51.4913 47.5885C52.1312 47.7804 52.5044 48.4558 52.3231 49.0992L52.2218 49.4671C54.0809 50.2385 56.0769 51.296 56.898 52.9881C57.7547 52.9383 59.1055 52.9738 59.9959 52.9738L61.1796 50.9281C60.051 49.9755 58.9331 48.6709 57.84 46.9789C57.2766 46.1115 56.9993 45.2157 56.9993 44.1884V39.418C56.2884 36.7929 56.1729 34.8982 56.6865 33.3466C57.2499 31.6688 58.4656 30.5349 60.3887 29.4969C60.4083 29.4809 60.4349 29.472 60.4545 29.4613C67.1551 26.3528 75.0856 30.8921 75.6188 38.293C75.6543 38.796 75.3824 39.2545 74.9629 39.4767V44.1866C74.9629 45.2139 74.6857 46.1115 74.1223 46.9771C73.0541 48.6247 71.9415 49.9488 70.7826 50.9228L71.9663 52.9738H74.4546C80.6824 52.9738 85.5435 58.345 85.5435 64.5977V68.9255C85.5435 70.765 84.8876 72.4464 83.8052 73.7368H85.3018C85.9878 73.7368 86.5459 74.2913 86.5459 74.9809V86.5585C86.5459 87.2428 85.986 87.8027 85.3018 87.8027H5.32129C4.63701 87.8027 4.07715 87.2428 4.07715 86.5585V74.9809C4.07715 74.2913 4.63523 73.7368 5.32129 73.7368ZM11.3412 73.7368H29.7402L29.9322 68.3301L16.9842 66.9793C16.3142 66.9082 15.8254 66.3199 15.8752 65.6534L16.5505 49.572C16.5754 48.8859 17.1495 48.3527 17.8356 48.3776C18.5198 48.4078 19.0548 48.9819 19.0246 49.668L18.399 64.6314L30.0228 65.84L30.4014 55.0782C30.4067 55.0427 30.4067 55.0071 30.4121 54.9716H30.4067C31.0874 49.5649 30.4263 44.4568 27.6661 39.9886C23.5497 40.2463 20.562 39.4554 17.7911 36.1957C15.7507 36.5476 13.9823 37.9091 12.4911 40.2712C10.7226 43.0776 9.34697 47.2383 8.36943 52.7659L7.56785 69.3521C7.51275 70.486 7.87533 71.4635 8.65559 72.29C9.38074 73.0631 10.2836 73.6763 11.3412 73.7368ZM32.2196 73.7368H38.4972V71.6199C38.4972 70.4611 37.5392 69.5085 36.3804 69.5085H32.3707L32.2196 73.7368ZM40.9801 73.7368H46.4366V64.5977C46.4366 61.7912 47.4035 59.2016 49.0013 57.1861L32.8683 55.4781L32.4596 67.0202H36.3786C38.9131 67.0202 40.9784 69.0855 40.9784 71.6199V73.7368H40.9801ZM48.9266 73.7368H54.0294V67.772C54.0294 67.0824 54.5893 66.5279 55.2735 66.5279C55.9578 66.5279 56.5177 67.0824 56.5177 67.772V73.7368H61.1974V71.3178C61.1974 68.8899 63.1329 66.894 65.5448 66.8033L68.7636 61.5886C69.1208 61.0092 69.8869 60.8279 70.4716 61.1852C71.051 61.5477 71.2323 62.3084 70.8751 62.8932L68.4561 66.8033H75.9369V63.5437C75.9369 62.8541 76.4968 62.2996 77.1811 62.2996C77.8653 62.2996 78.4252 62.8541 78.4252 63.5437V68.0475C78.4252 68.7335 77.8653 69.2916 77.1811 69.2916H70.2228V73.735H78.5567C81.1054 73.735 83.0552 71.5026 83.0552 68.9237V64.5959C83.0552 59.6993 79.3014 55.4621 74.4493 55.4621H72.0161C69.4461 60.284 62.5038 60.284 59.9355 55.4621H57.5219C52.6697 55.4621 48.9213 59.6993 48.9213 64.5959V73.7368H48.9266ZM63.6875 73.7368H67.738V69.2934H65.7119C64.5993 69.2934 63.6857 70.2052 63.6857 71.3196V73.7368H63.6875ZM84.0576 76.2268H6.56543V85.3162H84.0576V76.2268ZM63.1134 31.1658C64.0198 32.5859 64.322 34.2797 64.1158 35.9629C66.7161 37.7918 69.9508 38.2947 73.0079 37.5038C72.137 32.984 67.5674 30.1474 63.1134 31.1658ZM61.5867 36.0926C61.8533 34.6867 61.6471 33.256 60.7762 32.1469C59.8751 32.737 59.2992 33.3555 59.038 34.1322C58.7465 35.0084 58.7856 36.1584 59.1393 37.7438C60.035 37.4167 61.0126 36.8284 61.5867 36.0926ZM72.4747 40.1539C69.1901 40.7084 65.8096 40.0579 63.0139 38.2148C62.0523 39.1621 60.7726 39.8624 59.4876 40.2445V44.1902C59.4876 44.7394 59.6245 45.1731 59.9213 45.6316C61.4427 47.9848 63.5951 50.4233 66.0016 50.4073C68.5165 50.3878 70.7115 47.6862 72.0428 45.6316C72.3396 45.1731 72.4764 44.7394 72.4764 44.1902V40.1539H72.4747ZM68.696 52.27C66.9134 53.0805 65.0578 53.0911 63.2591 52.2753L62.111 54.266C63.7426 57.3692 68.2126 57.3692 69.8495 54.2713L68.696 52.27ZM51.047 55.1813C52.0086 54.4508 53.0821 53.8767 54.2356 53.4981C53.6064 52.853 52.5435 52.3091 51.5447 51.8808L50.6578 55.0693L51.047 55.1813ZM29.1768 19.3163L29.399 18.5005C29.5856 17.8251 30.2699 17.4376 30.9701 17.6438H30.9755C35.8632 19.2114 38.89 17.4518 40.7438 12.6761C41.2219 11.4409 41.4582 9.65285 40.0932 9.12498C39.4836 8.8886 38.5914 8.86727 37.3775 9.14987C30.6271 10.7477 25.4319 6.21725 20.9832 12.3544C15.9196 19.3465 22.4744 23.3988 20.0821 31.9176C22.5971 30.7695 23.9461 28.0021 23.3222 25.313C23.3027 25.2419 23.292 25.1673 23.292 25.0962C22.9348 22.2702 23.0396 20.2849 23.6137 19.1456C24.4811 17.4234 25.9314 17.1799 27.9718 18.4205C28.4463 18.7066 28.8338 18.9928 29.1768 19.3163ZM31.4589 20.3489L30.8546 22.5653C30.5525 23.7792 28.9653 23.8503 28.5067 22.7928C28.0037 21.6446 27.6856 21.1505 26.6779 20.5355C26.1749 20.228 25.8923 20.1374 25.8318 20.2636C25.4835 20.9532 25.4533 22.4604 25.7519 24.7834C26.0185 25.9529 26.0238 27.1561 25.7874 28.3096C25.1422 31.4075 22.7997 33.8674 19.7409 34.6619C21.9075 37.1661 24.0883 37.694 27.3035 37.518L28.4125 32.8525H28.4179C28.5849 32.1682 29.2692 31.7648 29.9339 31.9354C35.2997 33.3466 37.134 32.8063 37.804 30.2434C38.3994 27.9862 38.515 22.7217 38.7318 19.4016C36.6683 20.7168 34.2191 20.9923 31.4589 20.3489ZM31.8819 43.1753C32.9305 46.2786 33.2825 49.5933 33.0852 53.004L48.2139 54.5912L49.6198 49.5489L31.8819 43.1753Z" fill="#128CB5"/>
</svg>
