<svg width="91" height="91" viewBox="0 0 91 91" fill="none" xmlns="http://www.w3.org/2000/svg">
<path fill-rule="evenodd" clip-rule="evenodd" d="M26.8983 81.7434C25.8537 81.7434 25.0103 80.8947 25.0103 79.8511L25.005 79.7918L22.9586 57.9285L23.2339 57.8741C24.6961 57.5856 25.7648 56.2898 25.7648 54.7963V44.8056C25.7648 44.332 25.3775 43.9511 24.9054 43.9511C24.4321 43.9511 24.0544 44.3331 24.0544 44.8056V54.7961C24.0544 55.7443 23.1382 56.4272 22.2415 56.1691C21.6296 55.9931 21.1941 55.4355 21.1941 54.7961V42.6778C21.1941 39.535 23.7561 36.9754 26.8983 36.9754C30.0449 36.9754 32.6026 39.531 32.6026 42.6778V56.1677L28.8004 79.7081C28.794 79.7543 28.795 79.8044 28.795 79.851C28.795 80.8956 27.9419 81.7434 26.8983 81.7434ZM62.0682 52.1391L66.1192 65.4457L62.337 81.0576L62.3283 81.0791C61.7401 82.5231 59.4132 81.9924 59.5177 80.6356L62.0682 52.1391ZM62.7898 43.1931V35.3934C62.7898 34.6442 61.8809 34.257 61.3407 34.7797L57.2672 38.722L47.2949 42.5642C46.7129 42.7885 44.9728 43.4355 44.5562 42.6141C44.208 41.9169 43.7033 40.4259 44.5778 39.9245L55.3442 33.7513C55.4871 33.6668 55.5999 33.5423 55.6769 33.4058L60.0358 25.1334C61.5701 22.2216 64.1548 19.2535 67.7224 19.2535H68.3075C72.228 19.2535 75.4194 22.4438 75.4194 26.3646V43.1932H62.7898V43.1931ZM62.7898 48.6392L72.6007 80.8436C72.7873 81.3947 73.2976 81.7434 73.8875 81.7434H74.0485C74.8069 81.7434 75.4194 81.1257 75.4194 80.3684V44.902H62.7898V48.6392ZM26.8983 35.2666C25.0871 35.2666 23.6111 33.7877 23.6111 31.9768C23.6111 30.1655 25.0873 28.6886 26.8983 28.6886C28.7129 28.6886 30.1942 30.1604 30.1942 31.9768C30.1942 33.7928 28.7131 35.2666 26.8983 35.2666ZM62.5185 13.3016C62.5185 10.9652 64.418 9.05859 66.7556 9.05859C69.0965 9.05859 71.0011 10.9603 71.0011 13.3016C71.0011 15.643 69.0963 17.5438 66.7556 17.5438C64.4182 17.5438 62.5185 15.6379 62.5185 13.3016Z" fill="#97D9F0"/>
<path fill-rule="evenodd" clip-rule="evenodd" d="M75.1086 80.3694C75.1086 80.9571 74.6337 81.4337 74.0486 81.4337H73.8875C73.4211 81.4337 73.0565 81.1777 72.8953 80.7452L63.1006 48.5942V45.2139H75.1086V80.3694ZM62.0406 80.9631L65.7973 65.4562L62.2355 53.7568L59.8271 80.6646C59.7512 81.652 61.5809 82.0919 62.0406 80.9631ZM57.0966 38.4559L47.1832 42.2754C46.8491 42.4037 45.1286 43.0505 44.8341 42.4763C44.5204 41.8478 44.0963 40.5631 44.7324 40.1951L55.5023 34.0198C55.6888 33.9095 55.8415 33.7476 55.9518 33.5517L60.3107 25.2793C61.4385 23.1457 63.8979 19.5652 67.7225 19.5652H68.3076C72.0559 19.5652 75.1087 22.6155 75.1087 26.3655V42.8832H63.1008V35.3943C63.1008 34.3735 61.865 33.8449 61.1248 34.5573L57.0966 38.4559ZM32.292 56.1439L28.4929 79.6664C28.4844 79.7273 28.4844 79.7894 28.4844 79.852C28.4844 80.7238 27.772 81.4336 26.8986 81.4336C26.0252 81.4336 25.3214 80.7238 25.3214 79.852C25.3214 79.8163 25.3214 79.779 25.3128 79.7426L23.2944 58.18C24.8718 57.8688 26.0759 56.4705 26.0759 54.7971V44.8068C26.0759 44.1623 25.5502 43.6416 24.9057 43.6416C24.2612 43.6416 23.7438 44.1623 23.7438 44.8068V54.7973C23.7438 55.5428 23.0216 56.0739 22.3277 55.8717C21.8443 55.7352 21.505 55.2942 21.505 54.7973V42.679C21.505 39.705 23.9304 37.2873 26.8984 37.2873C29.875 37.2873 32.2918 39.705 32.2918 42.679V56.1439H32.292ZM18.4607 80.4519L21.5815 64.9407L20.9115 57.7869C19.8599 57.1804 19.1816 56.0449 19.1816 54.7975V45.2139H15.8912V80.2093C15.8912 81.7024 18.1651 81.8918 18.4607 80.4519ZM23.922 31.978C23.922 30.3354 25.2619 29.0006 26.8986 29.0006C28.5437 29.0006 29.8836 30.3354 29.8836 31.978C29.8836 33.6205 28.5437 34.9571 26.8986 34.9571C25.2619 34.957 23.922 33.6205 23.922 31.978ZM22.6922 19.5654C18.9439 19.5654 15.891 22.6157 15.891 26.3656V42.8834H19.1814V42.679C19.1814 39.727 20.8435 37.1584 23.2859 35.8593C22.2428 34.8883 21.5898 33.5086 21.5898 31.978C21.5898 29.0507 23.9728 26.6701 26.8984 26.6701C29.8241 26.6701 32.207 29.0505 32.207 31.978C32.207 33.3332 31.6981 34.5713 30.8585 35.5101L33.9114 38.4561L42.1203 41.6227C41.9252 40.2912 42.29 39.1508 43.1972 38.435L36.5319 34.6137C36.3539 34.5094 36.2012 34.3567 36.0994 34.1753L31.0877 25.3084C29.0524 21.7128 26.1353 19.5656 23.2773 19.5656L22.6922 19.5654ZM24.2441 9.37048C26.415 9.37048 28.179 11.1344 28.179 13.3028C28.179 15.4711 26.415 17.2342 24.2441 17.2342C22.0732 17.2342 20.3093 15.4711 20.3093 13.3028C20.3093 11.1344 22.0732 9.37048 24.2441 9.37048ZM66.7557 9.37048C68.9266 9.37048 70.6905 11.1344 70.6905 13.3028C70.6905 15.4711 68.9266 17.2342 66.7557 17.2342C64.5932 17.2342 62.8292 15.4711 62.8292 13.3028C62.8292 11.1344 64.5932 9.37048 66.7557 9.37048ZM71.2078 17.7083C72.3271 16.5753 73.0225 15.0183 73.0225 13.3028C73.0225 9.84878 70.2071 7.03924 66.7557 7.03924C63.3042 7.03924 60.4972 9.84878 60.4972 13.3028C60.4972 15.4644 61.5996 17.3741 63.2704 18.4994C60.8026 19.9876 59.1574 22.4741 58.2501 24.1913L54.0439 32.1662L45.5043 37.0685L37.9738 32.7495L33.1146 24.1616C31.673 21.6056 29.7989 19.6586 27.7467 18.4883C29.4173 17.3621 30.5113 15.4566 30.5113 13.3026C30.5113 9.8486 27.6959 7.03906 24.2445 7.03906C20.793 7.03906 17.9773 9.84878 17.9773 13.3028C17.9773 15.0183 18.6727 16.5753 19.8006 17.7083C16.1795 18.9218 13.5591 22.3418 13.5591 26.3658V80.2094C13.5591 82.1701 15.1534 83.7652 17.1208 83.7652H17.2564C18.9694 83.7652 20.4026 82.5915 20.7417 80.9116L22.336 72.9935L22.989 79.9126C23.0229 82.0411 24.7614 83.7652 26.8984 83.7652C29.0269 83.7652 30.757 82.0649 30.8078 79.955L34.6068 56.4224C34.6534 56.1132 34.6238 44.0817 34.6238 42.6794C34.6238 42.1638 34.5728 41.6609 34.4711 41.1724L42.9768 44.4517C43.6406 44.7065 44.6674 45.0556 45.436 45.0461C45.9969 45.0392 46.1242 45.041 46.7166 44.8681C47.1151 44.7715 47.5476 44.635 48.0226 44.4517L58.1565 40.5465C58.3007 40.4907 58.4279 40.4049 58.5466 40.2965L60.7684 38.1425V43.9973L57.5121 80.458C57.3405 82.3907 59.0019 83.9579 60.9042 83.9579H61.0569C62.5154 83.9579 63.7705 83.0692 64.2539 81.6953L67.1371 69.8433L70.6903 81.5027C71.1737 82.8774 72.4288 83.7652 73.8873 83.7652H74.0484C75.9141 83.7652 77.4405 82.2422 77.4405 80.3696V26.3656C77.4407 22.3418 74.8203 18.9218 71.2078 17.7083Z" fill="#128CB5"/>
</svg>
