<svg width="30" height="30" viewBox="0 0 30 30" fill="none" xmlns="http://www.w3.org/2000/svg">
<path fill-rule="evenodd" clip-rule="evenodd" d="M2.72055 24.0316C7.16488 24.0336 11.6075 24.0336 16.0539 24.0316C16.1529 24.8739 16.5765 25.6136 17.1945 26.1292H5.03988C3.81055 26.1292 2.92355 25.1982 2.72055 24.0316ZM24.9672 3.88391C26.1965 3.88391 27.0852 4.81457 27.2882 5.98124H22.5225C22.7029 4.78724 23.7185 3.88391 24.9672 3.88391ZM8.47088 3.88391H22.8925C22.1945 4.46924 21.7382 5.34391 21.7382 6.32157L21.7362 23.6532C21.7362 25.0269 20.6445 26.1219 19.2725 26.1292C19.2705 26.1292 19.2692 26.1292 19.2672 26.1292C19.2652 26.1292 19.2639 26.1292 19.2602 26.1292C17.8922 26.1292 16.8019 25.0439 16.7862 23.6812C16.8005 23.4812 16.6755 23.2712 16.4059 23.2769H5.99655V6.36024C5.99655 4.98324 7.09188 3.88391 8.47088 3.88391ZM8.47088 3.12891C6.68755 3.12891 5.23988 4.57691 5.23988 6.35991V23.2766H2.18555C1.92521 23.2766 1.81055 23.4759 1.81055 23.6529C1.81055 25.4362 3.25688 26.8839 5.03988 26.8839H19.2605C21.2469 26.8839 22.4449 25.1826 22.4915 23.6529V6.73624H27.8215C28.0299 6.73624 28.1999 6.56791 28.1999 6.35991C28.1999 4.57657 26.7519 3.12891 24.9675 3.12891H8.47088Z" fill="#178F57"/>
<path d="M25.08 11.2523H26.1653L26.1823 24.8969L25.6496 25.6119L25.0976 24.8809L25.08 11.2523ZM24.6653 10.4976C24.4706 10.5166 24.325 10.6796 24.325 10.8726L24.3426 25.0086C24.3426 25.0893 24.3686 25.1693 24.419 25.2353L25.346 26.4683C25.499 26.6713 25.801 26.6696 25.952 26.4663L26.8646 25.2463C26.9133 25.1799 26.9396 25.1023 26.9376 25.0203L26.9206 10.8726C26.9206 10.6643 26.75 10.4956 26.5416 10.4976H24.7016C24.6893 10.4956 24.677 10.4956 24.6653 10.4976Z" fill="#178F57"/>
<path d="M24.7727 9.12891C24.2693 9.12891 24.3073 9.88391 24.8123 9.88391H26.4517C26.9737 9.88391 26.9737 9.12891 26.4517 9.12891H24.7727Z" fill="#178F57"/>
<path d="M9.51904 8.59766C8.6787 8.59766 7.98804 9.28366 7.98804 10.1237V12.407C7.98804 13.2457 8.6787 13.9293 9.51904 13.9293H11.7487C12.5887 13.9293 13.2814 13.2453 13.2814 12.407V11.7887C13.2814 11.284 12.5247 11.284 12.5247 11.7887V12.407C12.5247 12.8377 12.1854 13.1747 11.7487 13.1747H9.51904C9.0817 13.1747 8.74504 12.8377 8.74504 12.407V10.1237C8.74504 9.69166 9.08204 9.35466 9.51904 9.35466H11.6064C12.1117 9.35466 12.1117 8.59766 11.6064 8.59766H9.51904Z" fill="#178F57"/>
<path d="M13.5086 8.91024C13.4096 8.91191 13.3159 8.95324 13.2469 9.02291L10.8336 11.4276L10.0782 10.6772C9.93222 10.5176 9.68389 10.5106 9.53122 10.6636C9.37822 10.8162 9.38356 11.0646 9.54356 11.2109L10.5676 12.2299C10.7146 12.3756 10.9516 12.3756 11.0989 12.2299L13.7812 9.55791C14.0249 9.31658 13.8489 8.90324 13.5086 8.91024Z" fill="#178F57"/>
<path d="M14.8197 13.1761C14.606 13.1674 14.427 13.3391 14.427 13.5544C14.427 13.7684 14.606 13.9394 14.8197 13.9311H19.3593C19.573 13.9394 19.752 13.7684 19.752 13.5544C19.752 13.3391 19.573 13.1674 19.3593 13.1761H14.8197Z" fill="#178F57"/>
<path d="M16.1511 8.59766C15.9414 8.59766 15.7708 8.76766 15.7708 8.97599C15.7708 9.18632 15.9414 9.35466 16.1511 9.35466H19.3594C19.8648 9.35466 19.8648 8.59766 19.3594 8.59766H16.1511Z" fill="#178F57"/>
<path d="M14.8197 11.6486C14.606 11.6416 14.427 11.812 14.427 12.027C14.427 12.241 14.606 12.4126 14.8197 12.404H19.3593C19.573 12.4126 19.752 12.241 19.752 12.027C19.752 11.812 19.573 11.6416 19.3593 11.6486H14.8197Z" fill="#178F57"/>
<path d="M14.8197 10.1253C14.606 10.117 14.427 10.2883 14.427 10.5023C14.427 10.7173 14.606 10.8893 14.8197 10.8806H19.3593C19.573 10.8893 19.752 10.7173 19.752 10.5023C19.752 10.2883 19.573 10.117 19.3593 10.1253H14.8197Z" fill="#178F57"/>
<path d="M14.8197 20.1953C14.3147 20.1953 14.3147 20.9523 14.8197 20.9523H19.3593C19.8647 20.9523 19.8647 20.1953 19.3593 20.1953H14.8197Z" fill="#178F57"/>
<path d="M16.151 15.6172C15.6456 15.6172 15.6456 16.3755 16.151 16.3755H19.3593C19.8646 16.3755 19.8646 15.6172 19.3593 15.6172H16.151Z" fill="#178F57"/>
<path d="M14.8197 18.6719C14.6093 18.6719 14.4407 18.8425 14.4407 19.0502C14.4407 19.2605 14.6093 19.4305 14.8197 19.4305H19.3593C19.8647 19.4305 19.8647 18.6722 19.3593 18.6722H14.8197V18.6719Z" fill="#178F57"/>
<path d="M14.8197 17.1445C14.6093 17.1445 14.4407 17.3145 14.4407 17.5249C14.4407 17.7332 14.6093 17.9032 14.8197 17.9032H19.3593C19.8647 17.9032 19.8647 17.1449 19.3593 17.1449L14.8197 17.1445Z" fill="#178F57"/>
<path d="M9.51904 15.6211C8.6787 15.6211 7.98804 16.3068 7.98804 17.1471V19.4304C7.98804 20.2691 8.6787 20.9531 9.51904 20.9531H11.7487C12.5887 20.9531 13.2814 20.2688 13.2814 19.4304V18.8124C13.2814 18.3064 12.5247 18.3064 12.5247 18.8124V19.4304C12.5247 19.8608 12.1854 20.1974 11.7487 20.1974H9.51904C9.0817 20.1974 8.74504 19.8608 8.74504 19.4304V17.1471C8.74504 16.7148 9.08204 16.3781 9.51904 16.3781H11.6064C12.1117 16.3781 12.1117 15.6211 11.6064 15.6211H9.51904Z" fill="#178F57"/>
<path d="M13.5086 15.9337C13.4096 15.935 13.3159 15.9767 13.2469 16.0457L10.8336 18.4507L10.0782 17.7007C9.93222 17.541 9.68389 17.534 9.53122 17.687C9.37822 17.84 9.38356 18.0874 9.54356 18.2334L10.5676 19.253C10.7146 19.399 10.9516 19.399 11.0989 19.253L13.7812 16.581C14.0249 16.3397 13.8489 15.9264 13.5086 15.9337Z" fill="#178F57"/>
</svg>
