<svg width="30" height="30" viewBox="0 0 30 30" fill="none" xmlns="http://www.w3.org/2000/svg">
<g clip-path="url(#clip0_3038_2344)">
<path d="M24.6628 1.03603C24.5212 0.92634 24.3305 0.906652 24.1692 0.984934C24.0084 1.06415 23.9062 1.22728 23.9062 1.40634V2.81259H1.40625C1.1475 2.81259 0.9375 3.02259 0.9375 3.28134V6.09384C0.9375 6.35259 1.1475 6.56259 1.40625 6.56259H23.9062V7.96884C23.9062 8.1479 24.0084 8.31103 24.1692 8.38978C24.2344 8.42165 24.3047 8.43759 24.375 8.43759C24.4772 8.43759 24.5789 8.40431 24.6628 8.33915L28.8816 5.0579C28.9955 4.96884 29.0625 4.83243 29.0625 4.68759C29.0625 4.54275 28.9955 4.40634 28.8816 4.31728L24.6628 1.03603ZM24.8438 7.01072V6.09384C24.8438 5.83509 24.6338 5.62509 24.375 5.62509H1.875V3.75009H24.375C24.6338 3.75009 24.8438 3.54009 24.8438 3.28134V2.36446L27.8302 4.68759L24.8438 7.01072Z" fill="#178F57"/>
<path d="M28.5938 14.5312H26.25V13.5938C26.25 13.0767 25.8295 12.6562 25.3125 12.6562H24.375C23.858 12.6562 23.4375 13.0767 23.4375 13.5938V14.5312H16.875V13.5938C16.875 13.0767 16.4545 12.6562 15.9375 12.6562H15C14.483 12.6562 14.0625 13.0767 14.0625 13.5938V14.5312H11.7188C11.46 14.5312 11.25 14.7413 11.25 15V28.5938C11.25 28.8525 11.46 29.0625 11.7188 29.0625H28.5938C28.8525 29.0625 29.0625 28.8525 29.0625 28.5938V15C29.0625 14.7413 28.8525 14.5312 28.5938 14.5312ZM24.375 13.5938H25.3125L25.313 15H24.375V13.5938ZM15 13.5938H15.9375L15.938 15H15V13.5938ZM14.1928 15.4688C14.3555 15.7477 14.6545 15.9375 15 15.9375H15.9375C16.283 15.9375 16.582 15.7477 16.7447 15.4688H23.5678C23.7305 15.7477 24.0295 15.9375 24.375 15.9375H25.3125C25.658 15.9375 25.957 15.7477 26.1197 15.4688H28.125V16.875H12.1875V15.4688H14.1928ZM12.1875 28.125V17.8125H28.125V28.125H12.1875Z" fill="#178F57"/>
<path d="M16.4062 18.75H13.5938C13.335 18.75 13.125 18.96 13.125 19.2188V22.0312C13.125 22.29 13.335 22.5 13.5938 22.5H16.4062C16.665 22.5 16.875 22.29 16.875 22.0312V19.2188C16.875 18.96 16.665 18.75 16.4062 18.75ZM15.9375 21.5625H14.0625V19.6875H15.9375V21.5625Z" fill="#178F57"/>
<path d="M16.4062 23.4375H13.5938C13.335 23.4375 13.125 23.6475 13.125 23.9062V26.7188C13.125 26.9775 13.335 27.1875 13.5938 27.1875H16.4062C16.665 27.1875 16.875 26.9775 16.875 26.7188V23.9062C16.875 23.6475 16.665 23.4375 16.4062 23.4375ZM15.9375 26.25H14.0625V24.375H15.9375V26.25Z" fill="#178F57"/>
<path d="M21.5625 18.75H18.75C18.4913 18.75 18.2812 18.96 18.2812 19.2188V22.0312C18.2812 22.29 18.4913 22.5 18.75 22.5H21.5625C21.8212 22.5 22.0312 22.29 22.0312 22.0312V19.2188C22.0312 18.96 21.8212 18.75 21.5625 18.75ZM21.0938 21.5625H19.2188V19.6875H21.0938V21.5625Z" fill="#178F57"/>
<path d="M21.5625 23.4375H18.75C18.4913 23.4375 18.2812 23.6475 18.2812 23.9062V26.7188C18.2812 26.9775 18.4913 27.1875 18.75 27.1875H21.5625C21.8212 27.1875 22.0312 26.9775 22.0312 26.7188V23.9062C22.0312 23.6475 21.8212 23.4375 21.5625 23.4375ZM21.0938 26.25H19.2188V24.375H21.0938V26.25Z" fill="#178F57"/>
<path d="M26.7188 18.75H23.9062C23.6475 18.75 23.4375 18.96 23.4375 19.2188V22.0312C23.4375 22.29 23.6475 22.5 23.9062 22.5H26.7188C26.9775 22.5 27.1875 22.29 27.1875 22.0312V19.2188C27.1875 18.96 26.9775 18.75 26.7188 18.75ZM26.25 21.5625H24.375V19.6875H26.25V21.5625Z" fill="#178F57"/>
<path d="M26.7188 23.4375H23.9062C23.6475 23.4375 23.4375 23.6475 23.4375 23.9062V26.7188C23.4375 26.9775 23.6475 27.1875 23.9062 27.1875H26.7188C26.9775 27.1875 27.1875 26.9775 27.1875 26.7188V23.9062C27.1875 23.6475 26.9775 23.4375 26.7188 23.4375ZM26.25 26.25H24.375V24.375H26.25V26.25Z" fill="#178F57"/>
<path d="M13.2473 11.9531L14.0588 11.4839C12.8048 9.31594 10.4709 7.96875 7.96875 7.96875C4.09172 7.96875 0.9375 11.123 0.9375 15C0.9375 18.877 4.09172 22.0312 7.96875 22.0312C8.83406 22.0312 9.67922 21.8756 10.4798 21.5695L10.1447 20.6939C9.45141 20.9592 8.71922 21.0938 7.96875 21.0938C4.60875 21.0938 1.875 18.36 1.875 15C1.875 11.64 4.60875 8.90625 7.96875 8.90625C10.1377 8.90625 12.1603 10.0739 13.2473 11.9531Z" fill="#178F57"/>
<path d="M7.50006 14.7103L4.94678 15.9872L5.36631 16.8258L8.17881 15.4195C8.33725 15.3398 8.43756 15.1777 8.43756 15V10.3125H7.50006V14.7103Z" fill="#178F57"/>
</g>
<defs>
<clipPath id="clip0_3038_2344">
<rect width="30" height="30" fill="white"/>
</clipPath>
</defs>
</svg>
