<svg width="30" height="30" viewBox="0 0 30 30" fill="none" xmlns="http://www.w3.org/2000/svg">
<path d="M19.2902 23.9369H11.8594H8.07949C6.8127 23.9369 6.23262 22.8764 6.23086 21.8908C6.22852 20.9088 6.80508 19.8494 8.07656 19.8441L14.5061 19.8148H18.9105C20.898 19.8148 22.4977 18.7016 23.2992 16.7598C24.2695 14.4113 23.8412 11.4857 22.3037 9.9541C21.3697 9.02363 20.2295 8.55254 18.9129 8.55254C18.9059 8.55254 18.8982 8.55254 18.8912 8.55254L11.857 8.58008H4.11621C3.88594 8.43594 3.62578 8.33457 3.34746 8.2877V5.66328H8.08359C8.22598 5.66328 8.35488 5.57715 8.40879 5.44531C8.4627 5.31348 8.43164 5.16172 8.33027 5.06152L6.99961 3.74961L8.33027 2.4377C8.43164 2.3375 8.4627 2.18574 8.40879 2.05391C8.35488 1.92207 8.22598 1.83594 8.08359 1.83594H2.9959C2.80195 1.83594 2.64434 1.99355 2.64434 2.1875V5.3123V8.28828C1.64414 8.45586 0.878906 9.32773 0.878906 10.3754C0.878906 11.5426 1.82871 12.4924 2.9959 12.4924C3.40723 12.4924 3.7916 12.374 4.1168 12.1701H11.8594H11.8605L18.2771 12.1449H18.2859C19.5539 12.1449 20.1398 13.1961 20.1475 14.1758C20.1551 15.1643 19.5814 16.2354 18.3053 16.2494L14.502 16.2928L7.47187 16.2652C7.46484 16.2652 7.45723 16.2652 7.4502 16.2652C6.13418 16.2652 4.99336 16.7369 4.05937 17.6668C2.52187 19.1984 2.09414 22.124 3.06387 24.4725C3.86602 26.4137 5.46563 27.5275 7.45254 27.5275H11.8588H19.2896C19.8316 27.5275 20.2898 27.3301 20.6156 26.9562C20.8992 26.6305 21.0557 26.1963 21.0557 25.7334C21.0562 24.8404 20.4492 23.9369 19.2902 23.9369ZM11.7598 11.467H4.80938C5.00215 11.1482 5.11348 10.7744 5.11348 10.3754C5.11348 9.97637 5.00215 9.60254 4.80938 9.2832H11.7469L13.391 10.4609L11.7598 11.467ZM3.34746 2.53848H7.22637L6.25254 3.49883C6.18574 3.56504 6.14766 3.65527 6.14766 3.74902C6.14766 3.84336 6.18516 3.93301 6.25254 3.99922L7.22637 4.95957H3.34746V2.53848ZM1.58203 10.3754C1.58203 9.7168 2.03438 9.1625 2.64434 9.00547V10.3754C2.64434 10.5693 2.80195 10.727 2.9959 10.727C3.18984 10.727 3.34746 10.5693 3.34746 10.3754V9.00547C3.95742 9.16191 4.40977 9.7168 4.40977 10.3754C4.40977 11.1553 3.7752 11.7893 2.9959 11.7893C2.2166 11.7893 1.58203 11.1547 1.58203 10.3754ZM18.3135 16.9525C19.9934 16.9332 20.8611 15.5387 20.8506 14.1699C20.84 12.8123 19.9559 11.4418 18.2859 11.4418C18.2818 11.4418 18.2777 11.4418 18.2742 11.4418L13.1068 11.4623L14.2096 10.7814C14.3098 10.7199 14.3725 10.6121 14.3766 10.4943C14.3807 10.3766 14.3256 10.2646 14.2301 10.1967L12.9486 9.27852L18.8953 9.25508C20.0285 9.25215 21.007 9.65293 21.8086 10.4516C23.134 11.7717 23.5037 14.4242 22.6506 16.4908C22.2463 17.4693 21.2232 19.1111 18.9117 19.1111H14.6115L12.9844 18.0301L14.6098 16.9936L18.3135 16.9525ZM3.71426 24.2035C2.86055 22.1375 3.23027 19.4844 4.55566 18.1643C5.35313 17.3697 6.32695 16.9672 7.45078 16.9672H7.46953L13.3066 16.99L12.15 17.7271C12.0498 17.791 11.9889 17.9012 11.9877 18.0201C11.9865 18.1391 12.0457 18.2504 12.1447 18.316L13.3482 19.1152L8.07363 19.1393C6.39844 19.1469 5.5248 20.5291 5.52773 21.8908C5.53066 23.2561 6.4084 24.6383 8.07949 24.6383H11.7521L13.3904 25.734L11.7527 26.8221H7.45312C5.1416 26.8238 4.11855 25.1826 3.71426 24.2035ZM19.2902 26.8238H13.0242L14.2195 26.0299C14.3174 25.9648 14.3766 25.8553 14.3766 25.7375C14.3766 25.6197 14.318 25.5102 14.2207 25.4445L13.0178 24.64H19.2908C20.025 24.64 20.3537 25.1891 20.3537 25.7328C20.3531 26.276 20.0244 26.8238 19.2902 26.8238ZM27.2203 24.4039C27.327 24.2557 27.4389 24.1057 27.5543 23.951C28.2668 22.9965 29.0033 22.0092 29.0033 20.8432C29.0033 18.9734 27.4822 17.4523 25.6125 17.4523C23.7428 17.4523 22.2217 18.9734 22.2217 20.8432C22.2217 22.0092 22.9582 22.9965 23.6707 23.951C23.7861 24.1057 23.898 24.2557 24.0047 24.4039C22.834 24.7326 22.1039 25.4 22.1039 26.1787C22.1039 27.2926 23.6449 28.1656 25.6125 28.1656C27.5801 28.1656 29.1211 27.292 29.1211 26.1781C29.1211 25.3994 28.391 24.7326 27.2203 24.4039ZM22.9248 20.8426C22.9248 19.3607 24.1307 18.1549 25.6125 18.1549C27.0943 18.1549 28.3008 19.3607 28.3008 20.8426C28.3008 21.7754 27.6352 22.6672 26.9912 23.5303C26.785 23.8068 26.5711 24.0934 26.3848 24.3752L26.3449 24.435C26.3432 24.4379 26.3414 24.4402 26.3396 24.4432L25.6131 25.5412L24.8848 24.4408C24.8842 24.4402 24.8836 24.4391 24.883 24.4385L24.8408 24.3752C24.6545 24.0934 24.4406 23.8074 24.2344 23.5309C23.5904 22.6672 22.9248 21.7754 22.9248 20.8426ZM25.6125 27.4619C23.9596 27.4619 22.807 26.7857 22.807 26.1781C22.807 25.7076 23.4756 25.2389 24.426 25.0227L25.3189 26.3721C25.384 26.4705 25.4941 26.5297 25.6119 26.5297C25.7297 26.5297 25.8398 26.4705 25.9049 26.3721L26.7979 25.0227C27.7482 25.2389 28.4168 25.7082 28.4168 26.1781C28.418 26.7852 27.266 27.4619 25.6125 27.4619ZM25.6125 22.7674C26.6736 22.7674 27.5373 21.9037 27.5373 20.8426C27.5373 19.7814 26.6736 18.9178 25.6125 18.9178C24.5514 18.9178 23.6877 19.7814 23.6877 20.8426C23.6877 21.9037 24.5514 22.7674 25.6125 22.7674ZM25.6125 19.6209C26.2863 19.6209 26.8342 20.1688 26.8342 20.8426C26.8342 21.5164 26.2863 22.0643 25.6125 22.0643C24.9387 22.0643 24.3908 21.5164 24.3908 20.8426C24.3908 20.1688 24.9393 19.6209 25.6125 19.6209Z" fill="#178F57"/>
</svg>
