<svg width="298" height="6" viewBox="0 0 298 6" fill="none" xmlns="http://www.w3.org/2000/svg">
<path d="M-3.26633e-05 2.88672L2.88672 5.77347L5.77347 2.88672L2.88672 -3.26633e-05L-3.26633e-05 2.88672ZM297.273 2.88672L294.387 -3.26633e-05L291.5 2.88672L294.387 5.77347L297.273 2.88672ZM2.88672 2.88672V3.38672H3.88501V2.88672V2.38672H2.88672V2.88672ZM5.88158 2.88672V3.38672H7.87816V2.88672V2.38672H5.88158V2.88672ZM9.87473 2.88672V3.38672H11.8713V2.88672V2.38672H9.87473V2.88672ZM13.8679 2.88672V3.38672H15.8645V2.88672V2.38672H13.8679V2.88672ZM17.861 2.88672V3.38672H19.8576V2.88672V2.38672H17.861V2.88672ZM21.8542 2.88672V3.38672H23.8508V2.88672V2.38672H21.8542V2.88672ZM25.8473 2.88672V3.38672H27.8439V2.88672V2.38672H25.8473V2.88672ZM29.8405 2.88672V3.38672H31.8371V2.88672V2.38672H29.8405V2.88672ZM33.8336 2.88672V3.38672H35.8302V2.88672V2.38672H33.8336V2.88672ZM37.8268 2.88672V3.38672H39.8234V2.88672V2.38672H37.8268V2.88672ZM41.8199 2.88672V3.38672H43.8165V2.88672V2.38672H41.8199V2.88672ZM45.8131 2.88672V3.38672H47.8097V2.88672V2.38672H45.8131V2.88672ZM49.8062 2.88672V3.38672H51.8028V2.88672V2.38672H49.8062V2.88672ZM53.7994 2.88672V3.38672H55.7959V2.88672V2.38672H53.7994V2.88672ZM57.7925 2.88672V3.38672H59.7891V2.88672V2.38672H57.7925V2.88672ZM61.7857 2.88672V3.38672H63.7822V2.88672V2.38672H61.7857V2.88672ZM65.7788 2.88672V3.38672H67.7754V2.88672V2.38672H65.7788V2.88672ZM69.772 2.88672V3.38672H71.7685V2.88672V2.38672H69.772V2.88672ZM73.7651 2.88672V3.38672H75.7617V2.88672V2.38672H73.7651V2.88672ZM77.7583 2.88672V3.38672H79.7548V2.88672V2.38672H77.7583V2.88672ZM81.7514 2.88672V3.38672H83.748V2.88672V2.38672H81.7514V2.88672ZM85.7446 2.88672V3.38672H87.7411V2.88672V2.38672H85.7446V2.88672ZM89.7377 2.88672V3.38672H91.7343V2.88672V2.38672H89.7377V2.88672ZM93.7309 2.88672V3.38672H95.7274V2.88672V2.38672H93.7309V2.88672ZM97.724 2.88672V3.38672H99.7206V2.88672V2.38672H97.724V2.88672ZM101.717 2.88672V3.38672H103.714V2.88672V2.38672H101.717V2.88672ZM105.71 2.88672V3.38672H107.707V2.88672V2.38672H105.71V2.88672ZM109.703 2.88672V3.38672H111.7V2.88672V2.38672H109.703V2.88672ZM113.697 2.88672V3.38672H115.693V2.88672V2.38672H113.697V2.88672ZM117.69 2.88672V3.38672H119.686V2.88672V2.38672H117.69V2.88672ZM121.683 2.88672V3.38672H123.679V2.88672V2.38672H121.683V2.88672ZM125.676 2.88672V3.38672H127.673V2.88672V2.38672H125.676V2.88672ZM129.669 2.88672V3.38672H131.666V2.88672V2.38672H129.669V2.88672ZM133.662 2.88672V3.38672H135.659V2.88672V2.38672H133.662V2.88672ZM137.656 2.88672V3.38672H139.652V2.88672V2.38672H137.656V2.88672ZM141.649 2.88672V3.38672H143.645V2.88672V2.38672H141.649V2.88672ZM145.642 2.88672V3.38672H147.638V2.88672V2.38672H145.642V2.88672ZM149.635 2.88672V3.38672H151.632V2.88672V2.38672H149.635V2.88672ZM153.628 2.88672V3.38672H155.625V2.88672V2.38672H153.628V2.88672ZM157.621 2.88672V3.38672H159.618V2.88672V2.38672H157.621V2.88672ZM161.615 2.88672V3.38672H163.611V2.88672V2.38672H161.615V2.88672ZM165.608 2.88672V3.38672H167.604V2.88672V2.38672H165.608V2.88672ZM169.601 2.88672V3.38672H171.597V2.88672V2.38672H169.601V2.88672ZM173.594 2.88672V3.38672H175.591V2.88672V2.38672H173.594V2.88672ZM177.587 2.88672V3.38672H179.584V2.88672V2.38672H177.587V2.88672ZM181.58 2.88672V3.38672H183.577V2.88672V2.38672H181.58V2.88672ZM185.574 2.88672V3.38672H187.57V2.88672V2.38672H185.574V2.88672ZM189.567 2.88672V3.38672H191.563V2.88672V2.38672H189.567V2.88672ZM193.56 2.88672V3.38672H195.556V2.88672V2.38672H193.56V2.88672ZM197.553 2.88672V3.38672H199.55V2.88672V2.38672H197.553V2.88672ZM201.546 2.88672V3.38672H203.543V2.88672V2.38672H201.546V2.88672ZM205.539 2.88672V3.38672H207.536V2.88672V2.38672H205.539V2.88672ZM209.532 2.88672V3.38672H211.529V2.88672V2.38672H209.532V2.88672ZM213.526 2.88672V3.38672H215.522V2.88672V2.38672H213.526V2.88672ZM217.519 2.88672V3.38672H219.515V2.88672V2.38672H217.519V2.88672ZM221.512 2.88672V3.38672H223.509V2.88672V2.38672H221.512V2.88672ZM225.505 2.88672V3.38672H227.502V2.88672V2.38672H225.505V2.88672ZM229.498 2.88672V3.38672H231.495V2.88672V2.38672H229.498V2.88672ZM233.491 2.88672V3.38672H235.488V2.88672V2.38672H233.491V2.88672ZM237.485 2.88672V3.38672H239.481V2.88672V2.38672H237.485V2.88672ZM241.478 2.88672V3.38672H243.474V2.88672V2.38672H241.478V2.88672ZM245.471 2.88672V3.38672H247.468V2.88672V2.38672H245.471V2.88672ZM249.464 2.88672V3.38672H251.461V2.88672V2.38672H249.464V2.88672ZM253.457 2.88672V3.38672H255.454V2.88672V2.38672H253.457V2.88672ZM257.45 2.88672V3.38672H259.447V2.88672V2.38672H257.45V2.88672ZM261.444 2.88672V3.38672H263.44V2.88672V2.38672H261.444V2.88672ZM265.437 2.88672V3.38672H267.433V2.88672V2.38672H265.437V2.88672ZM269.43 2.88672V3.38672H271.427V2.88672V2.38672H269.43V2.88672ZM273.423 2.88672V3.38672H275.42V2.88672V2.38672H273.423V2.88672ZM277.416 2.88672V3.38672H279.413V2.88672V2.38672H277.416V2.88672ZM281.409 2.88672V3.38672H283.406V2.88672V2.38672H281.409V2.88672ZM285.403 2.88672V3.38672H287.399V2.88672V2.38672H285.403V2.88672ZM289.396 2.88672V3.38672H291.392V2.88672V2.38672H289.396V2.88672ZM293.389 2.88672V3.38672H294.387V2.88672V2.38672H293.389V2.88672Z" fill="black"/>
</svg>
