<svg width="510" height="136" viewBox="0 0 510 136" fill="none" xmlns="http://www.w3.org/2000/svg">
<path d="M392.056 127.112C391.235 127.112 390.499 126.979 389.848 126.712C389.197 126.445 388.675 126.051 388.28 125.528C387.896 125.005 387.693 124.376 387.672 123.64H390.584C390.627 124.056 390.771 124.376 391.016 124.6C391.261 124.813 391.581 124.92 391.976 124.92C392.381 124.92 392.701 124.829 392.936 124.648C393.171 124.456 393.288 124.195 393.288 123.864C393.288 123.587 393.192 123.357 393 123.176C392.819 122.995 392.589 122.845 392.312 122.728C392.045 122.611 391.661 122.477 391.16 122.328C390.435 122.104 389.843 121.88 389.384 121.656C388.925 121.432 388.531 121.101 388.2 120.664C387.869 120.227 387.704 119.656 387.704 118.952C387.704 117.907 388.083 117.091 388.84 116.504C389.597 115.907 390.584 115.608 391.8 115.608C393.037 115.608 394.035 115.907 394.792 116.504C395.549 117.091 395.955 117.912 396.008 118.968H393.048C393.027 118.605 392.893 118.323 392.648 118.12C392.403 117.907 392.088 117.8 391.704 117.8C391.373 117.8 391.107 117.891 390.904 118.072C390.701 118.243 390.6 118.493 390.6 118.824C390.6 119.187 390.771 119.469 391.112 119.672C391.453 119.875 391.987 120.093 392.712 120.328C393.437 120.573 394.024 120.808 394.472 121.032C394.931 121.256 395.325 121.581 395.656 122.008C395.987 122.435 396.152 122.984 396.152 123.656C396.152 124.296 395.987 124.877 395.656 125.4C395.336 125.923 394.867 126.339 394.248 126.648C393.629 126.957 392.899 127.112 392.056 127.112ZM400.572 119.336C400.838 118.92 401.206 118.584 401.676 118.328C402.145 118.072 402.694 117.944 403.324 117.944C404.06 117.944 404.726 118.131 405.324 118.504C405.921 118.877 406.39 119.411 406.732 120.104C407.084 120.797 407.26 121.603 407.26 122.52C407.26 123.437 407.084 124.248 406.732 124.952C406.39 125.645 405.921 126.184 405.324 126.568C404.726 126.941 404.06 127.128 403.324 127.128C402.705 127.128 402.156 127 401.676 126.744C401.206 126.488 400.838 126.157 400.572 125.752V131.256H397.836V118.072H400.572V119.336ZM404.476 122.52C404.476 121.837 404.284 121.304 403.9 120.92C403.526 120.525 403.062 120.328 402.508 120.328C401.964 120.328 401.5 120.525 401.116 120.92C400.742 121.315 400.556 121.853 400.556 122.536C400.556 123.219 400.742 123.757 401.116 124.152C401.5 124.547 401.964 124.744 402.508 124.744C403.052 124.744 403.516 124.547 403.9 124.152C404.284 123.747 404.476 123.203 404.476 122.52ZM412.759 127.128C411.884 127.128 411.095 126.941 410.391 126.568C409.698 126.195 409.148 125.661 408.743 124.968C408.348 124.275 408.151 123.464 408.151 122.536C408.151 121.619 408.354 120.813 408.759 120.12C409.164 119.416 409.719 118.877 410.423 118.504C411.127 118.131 411.916 117.944 412.791 117.944C413.666 117.944 414.455 118.131 415.159 118.504C415.863 118.877 416.418 119.416 416.823 120.12C417.228 120.813 417.431 121.619 417.431 122.536C417.431 123.453 417.223 124.264 416.807 124.968C416.402 125.661 415.842 126.195 415.127 126.568C414.423 126.941 413.634 127.128 412.759 127.128ZM412.759 124.76C413.282 124.76 413.724 124.568 414.087 124.184C414.46 123.8 414.647 123.251 414.647 122.536C414.647 121.821 414.466 121.272 414.103 120.888C413.751 120.504 413.314 120.312 412.791 120.312C412.258 120.312 411.815 120.504 411.463 120.888C411.111 121.261 410.935 121.811 410.935 122.536C410.935 123.251 411.106 123.8 411.447 124.184C411.799 124.568 412.236 124.76 412.759 124.76ZM421.619 119.56C421.939 119.069 422.339 118.685 422.819 118.408C423.299 118.12 423.832 117.976 424.419 117.976V120.872H423.667C422.984 120.872 422.472 121.021 422.131 121.32C421.789 121.608 421.619 122.12 421.619 122.856V127H418.883V118.072H421.619V119.56ZM430.702 124.68V127H429.31C428.318 127 427.545 126.76 426.99 126.28C426.436 125.789 426.158 124.995 426.158 123.896V120.344H425.07V118.072H426.158V115.896H428.894V118.072H430.686V120.344H428.894V123.928C428.894 124.195 428.958 124.387 429.086 124.504C429.214 124.621 429.428 124.68 429.726 124.68H430.702ZM435.858 127.128C435.08 127.128 434.386 126.995 433.778 126.728C433.17 126.461 432.69 126.099 432.338 125.64C431.986 125.171 431.789 124.648 431.746 124.072H434.45C434.482 124.381 434.626 124.632 434.882 124.824C435.138 125.016 435.453 125.112 435.826 125.112C436.168 125.112 436.429 125.048 436.61 124.92C436.802 124.781 436.898 124.605 436.898 124.392C436.898 124.136 436.765 123.949 436.498 123.832C436.232 123.704 435.8 123.565 435.202 123.416C434.562 123.267 434.029 123.112 433.602 122.952C433.176 122.781 432.808 122.52 432.498 122.168C432.189 121.805 432.034 121.32 432.034 120.712C432.034 120.2 432.173 119.736 432.45 119.32C432.738 118.893 433.154 118.557 433.698 118.312C434.253 118.067 434.909 117.944 435.666 117.944C436.786 117.944 437.666 118.221 438.306 118.776C438.957 119.331 439.33 120.067 439.426 120.984H436.898C436.856 120.675 436.717 120.429 436.482 120.248C436.258 120.067 435.96 119.976 435.586 119.976C435.266 119.976 435.021 120.04 434.85 120.168C434.68 120.285 434.594 120.451 434.594 120.664C434.594 120.92 434.728 121.112 434.994 121.24C435.272 121.368 435.698 121.496 436.274 121.624C436.936 121.795 437.474 121.965 437.89 122.136C438.306 122.296 438.669 122.563 438.978 122.936C439.298 123.299 439.464 123.789 439.474 124.408C439.474 124.931 439.325 125.4 439.026 125.816C438.738 126.221 438.317 126.541 437.762 126.776C437.218 127.011 436.584 127.128 435.858 127.128ZM453.355 118.072V127H450.619V125.784C450.342 126.179 449.963 126.499 449.483 126.744C449.014 126.979 448.491 127.096 447.915 127.096C447.232 127.096 446.63 126.947 446.107 126.648C445.584 126.339 445.179 125.896 444.891 125.32C444.603 124.744 444.459 124.067 444.459 123.288V118.072H447.179V122.92C447.179 123.517 447.334 123.981 447.643 124.312C447.952 124.643 448.368 124.808 448.891 124.808C449.424 124.808 449.846 124.643 450.155 124.312C450.464 123.981 450.619 123.517 450.619 122.92V118.072H453.355ZM460.76 117.976C461.805 117.976 462.637 118.317 463.256 119C463.885 119.672 464.2 120.6 464.2 121.784V127H461.48V122.152C461.48 121.555 461.325 121.091 461.016 120.76C460.707 120.429 460.291 120.264 459.768 120.264C459.245 120.264 458.829 120.429 458.52 120.76C458.211 121.091 458.056 121.555 458.056 122.152V127H455.32V118.072H458.056V119.256C458.333 118.861 458.707 118.552 459.176 118.328C459.645 118.093 460.173 117.976 460.76 117.976ZM467.477 117.144C466.997 117.144 466.603 117.005 466.293 116.728C465.995 116.44 465.845 116.088 465.845 115.672C465.845 115.245 465.995 114.893 466.293 114.616C466.603 114.328 466.997 114.184 467.477 114.184C467.947 114.184 468.331 114.328 468.629 114.616C468.939 114.893 469.093 115.245 469.093 115.672C469.093 116.088 468.939 116.44 468.629 116.728C468.331 117.005 467.947 117.144 467.477 117.144ZM468.837 118.072V127H466.101V118.072H468.837ZM475.3 120.344H473.828V127H471.092V120.344H470.1V118.072H471.092V117.816C471.092 116.717 471.407 115.885 472.036 115.32C472.665 114.744 473.588 114.456 474.804 114.456C475.007 114.456 475.156 114.461 475.252 114.472V116.792C474.729 116.76 474.361 116.835 474.148 117.016C473.935 117.197 473.828 117.523 473.828 117.992V118.072H475.3V120.344ZM480.65 127.128C479.775 127.128 478.986 126.941 478.282 126.568C477.588 126.195 477.039 125.661 476.634 124.968C476.239 124.275 476.042 123.464 476.042 122.536C476.042 121.619 476.244 120.813 476.65 120.12C477.055 119.416 477.61 118.877 478.314 118.504C479.018 118.131 479.807 117.944 480.682 117.944C481.556 117.944 482.346 118.131 483.05 118.504C483.754 118.877 484.308 119.416 484.714 120.12C485.119 120.813 485.322 121.619 485.322 122.536C485.322 123.453 485.114 124.264 484.698 124.968C484.292 125.661 483.732 126.195 483.018 126.568C482.314 126.941 481.524 127.128 480.65 127.128ZM480.65 124.76C481.172 124.76 481.615 124.568 481.978 124.184C482.351 123.8 482.538 123.251 482.538 122.536C482.538 121.821 482.356 121.272 481.994 120.888C481.642 120.504 481.204 120.312 480.682 120.312C480.148 120.312 479.706 120.504 479.354 120.888C479.002 121.261 478.826 121.811 478.826 122.536C478.826 123.251 478.996 123.8 479.338 124.184C479.69 124.568 480.127 124.76 480.65 124.76ZM489.509 119.56C489.829 119.069 490.229 118.685 490.709 118.408C491.189 118.12 491.723 117.976 492.309 117.976V120.872H491.557C490.875 120.872 490.363 121.021 490.021 121.32C489.68 121.608 489.509 122.12 489.509 122.856V127H486.773V118.072H489.509V119.56ZM505.009 117.976C506.118 117.976 506.998 118.312 507.649 118.984C508.31 119.656 508.641 120.589 508.641 121.784V127H505.921V122.152C505.921 121.576 505.766 121.133 505.457 120.824C505.158 120.504 504.742 120.344 504.209 120.344C503.676 120.344 503.254 120.504 502.945 120.824C502.646 121.133 502.497 121.576 502.497 122.152V127H499.777V122.152C499.777 121.576 499.622 121.133 499.313 120.824C499.014 120.504 498.598 120.344 498.065 120.344C497.532 120.344 497.11 120.504 496.801 120.824C496.502 121.133 496.353 121.576 496.353 122.152V127H493.617V118.072H496.353V119.192C496.63 118.819 496.993 118.525 497.441 118.312C497.889 118.088 498.396 117.976 498.961 117.976C499.633 117.976 500.23 118.12 500.753 118.408C501.286 118.696 501.702 119.107 502.001 119.64C502.31 119.149 502.732 118.749 503.265 118.44C503.798 118.131 504.38 117.976 505.009 117.976Z" fill="black"/>
<path d="M285.72 115.768V127H282.984V122.376H278.728V127H275.992V115.768H278.728V120.168H282.984V115.768H285.72ZM289.071 117.144C288.591 117.144 288.196 117.005 287.887 116.728C287.588 116.44 287.439 116.088 287.439 115.672C287.439 115.245 287.588 114.893 287.887 114.616C288.196 114.328 288.591 114.184 289.071 114.184C289.54 114.184 289.924 114.328 290.223 114.616C290.532 114.893 290.687 115.245 290.687 115.672C290.687 116.088 290.532 116.44 290.223 116.728C289.924 117.005 289.54 117.144 289.071 117.144ZM290.431 118.072V127H287.695V118.072H290.431ZM295.806 117.944C296.435 117.944 296.985 118.072 297.454 118.328C297.934 118.584 298.302 118.92 298.558 119.336V118.072H301.294V126.984C301.294 127.805 301.129 128.547 300.798 129.208C300.478 129.88 299.982 130.413 299.31 130.808C298.649 131.203 297.822 131.4 296.83 131.4C295.507 131.4 294.435 131.085 293.614 130.456C292.793 129.837 292.323 128.995 292.206 127.928H294.91C294.995 128.269 295.198 128.536 295.518 128.728C295.838 128.931 296.233 129.032 296.702 129.032C297.267 129.032 297.715 128.867 298.046 128.536C298.387 128.216 298.558 127.699 298.558 126.984V125.72C298.291 126.136 297.923 126.477 297.454 126.744C296.985 127 296.435 127.128 295.806 127.128C295.07 127.128 294.403 126.941 293.806 126.568C293.209 126.184 292.734 125.645 292.382 124.952C292.041 124.248 291.87 123.437 291.87 122.52C291.87 121.603 292.041 120.797 292.382 120.104C292.734 119.411 293.209 118.877 293.806 118.504C294.403 118.131 295.07 117.944 295.806 117.944ZM298.558 122.536C298.558 121.853 298.366 121.315 297.982 120.92C297.609 120.525 297.15 120.328 296.606 120.328C296.062 120.328 295.598 120.525 295.214 120.92C294.841 121.304 294.654 121.837 294.654 122.52C294.654 123.203 294.841 123.747 295.214 124.152C295.598 124.547 296.062 124.744 296.606 124.744C297.15 124.744 297.609 124.547 297.982 124.152C298.366 123.757 298.558 123.219 298.558 122.536ZM308.761 117.976C309.785 117.976 310.607 118.317 311.225 119C311.844 119.672 312.153 120.6 312.153 121.784V127H309.433V122.152C309.433 121.555 309.279 121.091 308.969 120.76C308.66 120.429 308.244 120.264 307.721 120.264C307.199 120.264 306.783 120.429 306.473 120.76C306.164 121.091 306.009 121.555 306.009 122.152V127H303.273V115.16H306.009V119.272C306.287 118.877 306.665 118.563 307.145 118.328C307.625 118.093 308.164 117.976 308.761 117.976ZM321.509 127.112C320.688 127.112 319.952 126.979 319.301 126.712C318.65 126.445 318.128 126.051 317.733 125.528C317.349 125.005 317.146 124.376 317.125 123.64H320.037C320.08 124.056 320.224 124.376 320.469 124.6C320.714 124.813 321.034 124.92 321.429 124.92C321.834 124.92 322.154 124.829 322.389 124.648C322.624 124.456 322.741 124.195 322.741 123.864C322.741 123.587 322.645 123.357 322.453 123.176C322.272 122.995 322.042 122.845 321.765 122.728C321.498 122.611 321.114 122.477 320.613 122.328C319.888 122.104 319.296 121.88 318.837 121.656C318.378 121.432 317.984 121.101 317.653 120.664C317.322 120.227 317.157 119.656 317.157 118.952C317.157 117.907 317.536 117.091 318.293 116.504C319.05 115.907 320.037 115.608 321.253 115.608C322.49 115.608 323.488 115.907 324.245 116.504C325.002 117.091 325.408 117.912 325.461 118.968H322.501C322.48 118.605 322.346 118.323 322.101 118.12C321.856 117.907 321.541 117.8 321.157 117.8C320.826 117.8 320.56 117.891 320.357 118.072C320.154 118.243 320.053 118.493 320.053 118.824C320.053 119.187 320.224 119.469 320.565 119.672C320.906 119.875 321.44 120.093 322.165 120.328C322.89 120.573 323.477 120.808 323.925 121.032C324.384 121.256 324.778 121.581 325.109 122.008C325.44 122.435 325.605 122.984 325.605 123.656C325.605 124.296 325.44 124.877 325.109 125.4C324.789 125.923 324.32 126.339 323.701 126.648C323.082 126.957 322.352 127.112 321.509 127.112ZM326.745 122.536C326.745 121.608 326.932 120.797 327.305 120.104C327.689 119.411 328.217 118.877 328.889 118.504C329.572 118.131 330.35 117.944 331.225 117.944C332.345 117.944 333.278 118.237 334.025 118.824C334.782 119.411 335.278 120.237 335.513 121.304H332.601C332.356 120.621 331.881 120.28 331.177 120.28C330.676 120.28 330.276 120.477 329.977 120.872C329.678 121.256 329.529 121.811 329.529 122.536C329.529 123.261 329.678 123.821 329.977 124.216C330.276 124.6 330.676 124.792 331.177 124.792C331.881 124.792 332.356 124.451 332.601 123.768H335.513C335.278 124.813 334.782 125.635 334.025 126.232C333.268 126.829 332.334 127.128 331.225 127.128C330.35 127.128 329.572 126.941 328.889 126.568C328.217 126.195 327.689 125.661 327.305 124.968C326.932 124.275 326.745 123.464 326.745 122.536ZM342.464 117.976C343.488 117.976 344.31 118.317 344.928 119C345.547 119.672 345.856 120.6 345.856 121.784V127H343.136V122.152C343.136 121.555 342.982 121.091 342.672 120.76C342.363 120.429 341.947 120.264 341.424 120.264C340.902 120.264 340.486 120.429 340.176 120.76C339.867 121.091 339.712 121.555 339.712 122.152V127H336.976V115.16H339.712V119.272C339.99 118.877 340.368 118.563 340.848 118.328C341.328 118.093 341.867 117.976 342.464 117.976ZM351.822 127.128C350.947 127.128 350.158 126.941 349.454 126.568C348.76 126.195 348.211 125.661 347.806 124.968C347.411 124.275 347.214 123.464 347.214 122.536C347.214 121.619 347.416 120.813 347.822 120.12C348.227 119.416 348.782 118.877 349.486 118.504C350.19 118.131 350.979 117.944 351.854 117.944C352.728 117.944 353.518 118.131 354.222 118.504C354.926 118.877 355.48 119.416 355.886 120.12C356.291 120.813 356.494 121.619 356.494 122.536C356.494 123.453 356.286 124.264 355.87 124.968C355.464 125.661 354.904 126.195 354.19 126.568C353.486 126.941 352.696 127.128 351.822 127.128ZM351.822 124.76C352.344 124.76 352.787 124.568 353.15 124.184C353.523 123.8 353.71 123.251 353.71 122.536C353.71 121.821 353.528 121.272 353.166 120.888C352.814 120.504 352.376 120.312 351.854 120.312C351.32 120.312 350.878 120.504 350.526 120.888C350.174 121.261 349.998 121.811 349.998 122.536C349.998 123.251 350.168 123.8 350.51 124.184C350.862 124.568 351.299 124.76 351.822 124.76ZM362.009 127.128C361.134 127.128 360.345 126.941 359.641 126.568C358.948 126.195 358.398 125.661 357.993 124.968C357.598 124.275 357.401 123.464 357.401 122.536C357.401 121.619 357.604 120.813 358.009 120.12C358.414 119.416 358.969 118.877 359.673 118.504C360.377 118.131 361.166 117.944 362.041 117.944C362.916 117.944 363.705 118.131 364.409 118.504C365.113 118.877 365.668 119.416 366.073 120.12C366.478 120.813 366.681 121.619 366.681 122.536C366.681 123.453 366.473 124.264 366.057 124.968C365.652 125.661 365.092 126.195 364.377 126.568C363.673 126.941 362.884 127.128 362.009 127.128ZM362.009 124.76C362.532 124.76 362.974 124.568 363.337 124.184C363.71 123.8 363.897 123.251 363.897 122.536C363.897 121.821 363.716 121.272 363.353 120.888C363.001 120.504 362.564 120.312 362.041 120.312C361.508 120.312 361.065 120.504 360.713 120.888C360.361 121.261 360.185 121.811 360.185 122.536C360.185 123.251 360.356 123.8 360.697 124.184C361.049 124.568 361.486 124.76 362.009 124.76ZM370.869 115.16V127H368.133V115.16H370.869Z" fill="black"/>
<path d="M134.552 119.384C134.552 120.035 134.403 120.632 134.104 121.176C133.805 121.709 133.347 122.141 132.728 122.472C132.109 122.803 131.341 122.968 130.424 122.968H128.728V127H125.992V115.768H130.424C131.32 115.768 132.077 115.923 132.696 116.232C133.315 116.541 133.779 116.968 134.088 117.512C134.397 118.056 134.552 118.68 134.552 119.384ZM130.216 120.792C130.739 120.792 131.128 120.669 131.384 120.424C131.64 120.179 131.768 119.832 131.768 119.384C131.768 118.936 131.64 118.589 131.384 118.344C131.128 118.099 130.739 117.976 130.216 117.976H128.728V120.792H130.216ZM138.712 119.56C139.032 119.069 139.432 118.685 139.912 118.408C140.392 118.12 140.926 117.976 141.512 117.976V120.872H140.76C140.078 120.872 139.566 121.021 139.224 121.32C138.883 121.608 138.712 122.12 138.712 122.856V127H135.976V118.072H138.712V119.56ZM144.196 117.144C143.716 117.144 143.321 117.005 143.012 116.728C142.713 116.44 142.564 116.088 142.564 115.672C142.564 115.245 142.713 114.893 143.012 114.616C143.321 114.328 143.716 114.184 144.196 114.184C144.665 114.184 145.049 114.328 145.348 114.616C145.657 114.893 145.812 115.245 145.812 115.672C145.812 116.088 145.657 116.44 145.348 116.728C145.049 117.005 144.665 117.144 144.196 117.144ZM145.556 118.072V127H142.82V118.072H145.556ZM158.931 117.976C160.04 117.976 160.92 118.312 161.571 118.984C162.232 119.656 162.563 120.589 162.563 121.784V127H159.843V122.152C159.843 121.576 159.688 121.133 159.379 120.824C159.08 120.504 158.664 120.344 158.131 120.344C157.598 120.344 157.176 120.504 156.867 120.824C156.568 121.133 156.419 121.576 156.419 122.152V127H153.699V122.152C153.699 121.576 153.544 121.133 153.235 120.824C152.936 120.504 152.52 120.344 151.987 120.344C151.454 120.344 151.032 120.504 150.723 120.824C150.424 121.133 150.275 121.576 150.275 122.152V127H147.539V118.072H150.275V119.192C150.552 118.819 150.915 118.525 151.363 118.312C151.811 118.088 152.318 117.976 152.883 117.976C153.555 117.976 154.152 118.12 154.675 118.408C155.208 118.696 155.624 119.107 155.923 119.64C156.232 119.149 156.654 118.749 157.187 118.44C157.72 118.131 158.302 117.976 158.931 117.976ZM163.932 122.52C163.932 121.603 164.103 120.797 164.444 120.104C164.796 119.411 165.271 118.877 165.868 118.504C166.466 118.131 167.132 117.944 167.868 117.944C168.498 117.944 169.047 118.072 169.516 118.328C169.996 118.584 170.364 118.92 170.62 119.336V118.072H173.356V127H170.62V125.736C170.354 126.152 169.98 126.488 169.5 126.744C169.031 127 168.482 127.128 167.852 127.128C167.127 127.128 166.466 126.941 165.868 126.568C165.271 126.184 164.796 125.645 164.444 124.952C164.103 124.248 163.932 123.437 163.932 122.52ZM170.62 122.536C170.62 121.853 170.428 121.315 170.044 120.92C169.671 120.525 169.212 120.328 168.668 120.328C168.124 120.328 167.66 120.525 167.276 120.92C166.903 121.304 166.716 121.837 166.716 122.52C166.716 123.203 166.903 123.747 167.276 124.152C167.66 124.547 168.124 124.744 168.668 124.744C169.212 124.744 169.671 124.547 170.044 124.152C170.428 123.757 170.62 123.219 170.62 122.536ZM178.072 119.56C178.392 119.069 178.792 118.685 179.272 118.408C179.752 118.12 180.285 117.976 180.872 117.976V120.872H180.12C179.437 120.872 178.925 121.021 178.584 121.32C178.242 121.608 178.072 122.12 178.072 122.856V127H175.336V118.072H178.072V119.56ZM191.3 118.072L185.7 131.24H182.756L184.804 126.696L181.171 118.072H184.228L186.292 123.656L188.34 118.072H191.3ZM195.233 124.472L193.457 129.064H191.713L192.641 124.472H195.233ZM212.993 115.768V127H210.257V120.264L207.745 127H205.537L203.009 120.248V127H200.273V115.768H203.505L206.657 123.544L209.777 115.768H212.993ZM216.337 117.144C215.857 117.144 215.462 117.005 215.153 116.728C214.854 116.44 214.705 116.088 214.705 115.672C214.705 115.245 214.854 114.893 215.153 114.616C215.462 114.328 215.857 114.184 216.337 114.184C216.806 114.184 217.19 114.328 217.489 114.616C217.798 114.893 217.953 115.245 217.953 115.672C217.953 116.088 217.798 116.44 217.489 116.728C217.19 117.005 216.806 117.144 216.337 117.144ZM217.697 118.072V127H214.961V118.072H217.697ZM219.136 122.52C219.136 121.603 219.306 120.797 219.648 120.104C220 119.411 220.474 118.877 221.072 118.504C221.669 118.131 222.336 117.944 223.072 117.944C223.658 117.944 224.192 118.067 224.672 118.312C225.162 118.557 225.546 118.888 225.824 119.304V115.16H228.56V127H225.824V125.72C225.568 126.147 225.2 126.488 224.72 126.744C224.25 127 223.701 127.128 223.072 127.128C222.336 127.128 221.669 126.941 221.072 126.568C220.474 126.184 220 125.645 219.648 124.952C219.306 124.248 219.136 123.437 219.136 122.52ZM225.824 122.536C225.824 121.853 225.632 121.315 225.248 120.92C224.874 120.525 224.416 120.328 223.872 120.328C223.328 120.328 222.864 120.525 222.48 120.92C222.106 121.304 221.92 121.837 221.92 122.52C221.92 123.203 222.106 123.747 222.48 124.152C222.864 124.547 223.328 124.744 223.872 124.744C224.416 124.744 224.874 124.547 225.248 124.152C225.632 123.757 225.824 123.219 225.824 122.536ZM229.995 122.52C229.995 121.603 230.166 120.797 230.507 120.104C230.859 119.411 231.334 118.877 231.931 118.504C232.528 118.131 233.195 117.944 233.931 117.944C234.518 117.944 235.051 118.067 235.531 118.312C236.022 118.557 236.406 118.888 236.683 119.304V115.16H239.419V127H236.683V125.72C236.427 126.147 236.059 126.488 235.579 126.744C235.11 127 234.56 127.128 233.931 127.128C233.195 127.128 232.528 126.941 231.931 126.568C231.334 126.184 230.859 125.645 230.507 124.952C230.166 124.248 229.995 123.437 229.995 122.52ZM236.683 122.536C236.683 121.853 236.491 121.315 236.107 120.92C235.734 120.525 235.275 120.328 234.731 120.328C234.187 120.328 233.723 120.525 233.339 120.92C232.966 121.304 232.779 121.837 232.779 122.52C232.779 123.203 232.966 123.747 233.339 124.152C233.723 124.547 234.187 124.744 234.731 124.744C235.275 124.744 235.734 124.547 236.107 124.152C236.491 123.757 236.683 123.219 236.683 122.536ZM244.134 115.16V127H241.398V115.16H244.134ZM254.533 122.392C254.533 122.648 254.517 122.915 254.485 123.192H248.293C248.336 123.747 248.512 124.173 248.821 124.472C249.141 124.76 249.53 124.904 249.989 124.904C250.672 124.904 251.146 124.616 251.413 124.04H254.325C254.176 124.627 253.904 125.155 253.509 125.624C253.125 126.093 252.64 126.461 252.053 126.728C251.466 126.995 250.81 127.128 250.085 127.128C249.21 127.128 248.432 126.941 247.749 126.568C247.066 126.195 246.533 125.661 246.149 124.968C245.765 124.275 245.573 123.464 245.573 122.536C245.573 121.608 245.76 120.797 246.133 120.104C246.517 119.411 247.05 118.877 247.733 118.504C248.416 118.131 249.2 117.944 250.085 117.944C250.949 117.944 251.717 118.125 252.389 118.488C253.061 118.851 253.584 119.368 253.957 120.04C254.341 120.712 254.533 121.496 254.533 122.392ZM251.733 121.672C251.733 121.203 251.573 120.829 251.253 120.552C250.933 120.275 250.533 120.136 250.053 120.136C249.594 120.136 249.205 120.269 248.885 120.536C248.576 120.803 248.384 121.181 248.309 121.672H251.733ZM258.92 124.472L257.144 129.064H255.4L256.328 124.472H258.92Z" fill="black"/>
<path d="M7.504 127L3.728 122.04V127H0.992V115.768H3.728V120.696L7.472 115.768H10.688L6.336 121.272L10.848 127H7.504ZM13.5243 117.144C13.0443 117.144 12.6496 117.005 12.3403 116.728C12.0416 116.44 11.8923 116.088 11.8923 115.672C11.8923 115.245 12.0416 114.893 12.3403 114.616C12.6496 114.328 13.0443 114.184 13.5243 114.184C13.9936 114.184 14.3776 114.328 14.6763 114.616C14.9856 114.893 15.1403 115.245 15.1403 115.672C15.1403 116.088 14.9856 116.44 14.6763 116.728C14.3776 117.005 13.9936 117.144 13.5243 117.144ZM14.8843 118.072V127H12.1483V118.072H14.8843ZM22.307 117.976C23.3523 117.976 24.1843 118.317 24.803 119C25.4323 119.672 25.747 120.6 25.747 121.784V127H23.027V122.152C23.027 121.555 22.8723 121.091 22.563 120.76C22.2537 120.429 21.8377 120.264 21.315 120.264C20.7923 120.264 20.3763 120.429 20.067 120.76C19.7577 121.091 19.603 121.555 19.603 122.152V127H16.867V118.072H19.603V119.256C19.8803 118.861 20.2537 118.552 20.723 118.328C21.1923 118.093 21.7203 117.976 22.307 117.976ZM27.1043 122.52C27.1043 121.603 27.2749 120.797 27.6163 120.104C27.9683 119.411 28.4429 118.877 29.0403 118.504C29.6376 118.131 30.3043 117.944 31.0403 117.944C31.6269 117.944 32.1603 118.067 32.6403 118.312C33.1309 118.557 33.5149 118.888 33.7923 119.304V115.16H36.5283V127H33.7923V125.72C33.5363 126.147 33.1683 126.488 32.6883 126.744C32.2189 127 31.6696 127.128 31.0403 127.128C30.3043 127.128 29.6376 126.941 29.0403 126.568C28.4429 126.184 27.9683 125.645 27.6163 124.952C27.2749 124.248 27.1043 123.437 27.1043 122.52ZM33.7923 122.536C33.7923 121.853 33.6003 121.315 33.2163 120.92C32.8429 120.525 32.3843 120.328 31.8403 120.328C31.2963 120.328 30.8323 120.525 30.4483 120.92C30.0749 121.304 29.8883 121.837 29.8883 122.52C29.8883 123.203 30.0749 123.747 30.4483 124.152C30.8323 124.547 31.2963 124.744 31.8403 124.744C32.3843 124.744 32.8429 124.547 33.2163 124.152C33.6003 123.757 33.7923 123.219 33.7923 122.536ZM46.9236 122.392C46.9236 122.648 46.9076 122.915 46.8756 123.192H40.6836C40.7263 123.747 40.9023 124.173 41.2116 124.472C41.5316 124.76 41.921 124.904 42.3796 124.904C43.0623 124.904 43.537 124.616 43.8036 124.04H46.7156C46.5663 124.627 46.2943 125.155 45.8996 125.624C45.5156 126.093 45.0303 126.461 44.4436 126.728C43.857 126.995 43.201 127.128 42.4756 127.128C41.601 127.128 40.8223 126.941 40.1396 126.568C39.457 126.195 38.9236 125.661 38.5396 124.968C38.1556 124.275 37.9636 123.464 37.9636 122.536C37.9636 121.608 38.1503 120.797 38.5236 120.104C38.9076 119.411 39.441 118.877 40.1236 118.504C40.8063 118.131 41.5903 117.944 42.4756 117.944C43.3396 117.944 44.1076 118.125 44.7796 118.488C45.4516 118.851 45.9743 119.368 46.3476 120.04C46.7316 120.712 46.9236 121.496 46.9236 122.392ZM44.1236 121.672C44.1236 121.203 43.9636 120.829 43.6436 120.552C43.3236 120.275 42.9236 120.136 42.4436 120.136C41.985 120.136 41.5956 120.269 41.2756 120.536C40.9663 120.803 40.7743 121.181 40.6996 121.672H44.1236ZM51.103 119.56C51.423 119.069 51.823 118.685 52.303 118.408C52.783 118.12 53.3163 117.976 53.903 117.976V120.872H53.151C52.4683 120.872 51.9563 121.021 51.615 121.32C51.2737 121.608 51.103 122.12 51.103 122.856V127H48.367V118.072H51.103V119.56ZM58.6028 117.944C59.2321 117.944 59.7814 118.072 60.2508 118.328C60.7308 118.584 61.0988 118.92 61.3548 119.336V118.072H64.0908V126.984C64.0908 127.805 63.9254 128.547 63.5948 129.208C63.2748 129.88 62.7788 130.413 62.1068 130.808C61.4454 131.203 60.6188 131.4 59.6268 131.4C58.3041 131.4 57.2321 131.085 56.4108 130.456C55.5894 129.837 55.1201 128.995 55.0028 127.928H57.7068C57.7921 128.269 57.9948 128.536 58.3148 128.728C58.6348 128.931 59.0294 129.032 59.4988 129.032C60.0641 129.032 60.5121 128.867 60.8428 128.536C61.1841 128.216 61.3548 127.699 61.3548 126.984V125.72C61.0881 126.136 60.7201 126.477 60.2508 126.744C59.7814 127 59.2321 127.128 58.6028 127.128C57.8668 127.128 57.2001 126.941 56.6028 126.568C56.0054 126.184 55.5308 125.645 55.1788 124.952C54.8374 124.248 54.6668 123.437 54.6668 122.52C54.6668 121.603 54.8374 120.797 55.1788 120.104C55.5308 119.411 56.0054 118.877 56.6028 118.504C57.2001 118.131 57.8668 117.944 58.6028 117.944ZM61.3548 122.536C61.3548 121.853 61.1628 121.315 60.7788 120.92C60.4054 120.525 59.9468 120.328 59.4028 120.328C58.8588 120.328 58.3948 120.525 58.0108 120.92C57.6374 121.304 57.4508 121.837 57.4508 122.52C57.4508 123.203 57.6374 123.747 58.0108 124.152C58.3948 124.547 58.8588 124.744 59.4028 124.744C59.9468 124.744 60.4054 124.547 60.7788 124.152C61.1628 123.757 61.3548 123.219 61.3548 122.536ZM65.5261 122.52C65.5261 121.603 65.6968 120.797 66.0381 120.104C66.3901 119.411 66.8648 118.877 67.4621 118.504C68.0595 118.131 68.7261 117.944 69.4621 117.944C70.0915 117.944 70.6408 118.072 71.1101 118.328C71.5901 118.584 71.9581 118.92 72.2141 119.336V118.072H74.9501V127H72.2141V125.736C71.9475 126.152 71.5741 126.488 71.0941 126.744C70.6248 127 70.0755 127.128 69.4461 127.128C68.7208 127.128 68.0595 126.941 67.4621 126.568C66.8648 126.184 66.3901 125.645 66.0381 124.952C65.6968 124.248 65.5261 123.437 65.5261 122.52ZM72.2141 122.536C72.2141 121.853 72.0221 121.315 71.6381 120.92C71.2648 120.525 70.8061 120.328 70.2621 120.328C69.7181 120.328 69.2541 120.525 68.8701 120.92C68.4968 121.304 68.3101 121.837 68.3101 122.52C68.3101 123.203 68.4968 123.747 68.8701 124.152C69.2541 124.547 69.7181 124.744 70.2621 124.744C70.8061 124.744 71.2648 124.547 71.6381 124.152C72.0221 123.757 72.2141 123.219 72.2141 122.536ZM79.6655 119.56C79.9855 119.069 80.3855 118.685 80.8655 118.408C81.3455 118.12 81.8788 117.976 82.4655 117.976V120.872H81.7135C81.0308 120.872 80.5188 121.021 80.1775 121.32C79.8362 121.608 79.6655 122.12 79.6655 122.856V127H76.9295V118.072H79.6655V119.56ZM88.7493 124.68V127H87.3573C86.3653 127 85.5919 126.76 85.0373 126.28C84.4826 125.789 84.2053 124.995 84.2053 123.896V120.344H83.1173V118.072H84.2053V115.896H86.9413V118.072H88.7333V120.344H86.9413V123.928C86.9413 124.195 87.0053 124.387 87.1333 124.504C87.2613 124.621 87.4746 124.68 87.7733 124.68H88.7493ZM98.6892 122.392C98.6892 122.648 98.6733 122.915 98.6413 123.192H92.4493C92.4919 123.747 92.6679 124.173 92.9773 124.472C93.2973 124.76 93.6866 124.904 94.1453 124.904C94.8279 124.904 95.3026 124.616 95.5693 124.04H98.4813C98.3319 124.627 98.0599 125.155 97.6653 125.624C97.2813 126.093 96.7959 126.461 96.2093 126.728C95.6226 126.995 94.9666 127.128 94.2413 127.128C93.3666 127.128 92.5879 126.941 91.9053 126.568C91.2226 126.195 90.6893 125.661 90.3053 124.968C89.9213 124.275 89.7293 123.464 89.7293 122.536C89.7293 121.608 89.9159 120.797 90.2893 120.104C90.6733 119.411 91.2066 118.877 91.8893 118.504C92.5719 118.131 93.3559 117.944 94.2413 117.944C95.1053 117.944 95.8733 118.125 96.5453 118.488C97.2173 118.851 97.7399 119.368 98.1133 120.04C98.4973 120.712 98.6892 121.496 98.6892 122.392ZM95.8893 121.672C95.8893 121.203 95.7293 120.829 95.4093 120.552C95.0893 120.275 94.6893 120.136 94.2093 120.136C93.7506 120.136 93.3613 120.269 93.0413 120.536C92.7319 120.803 92.5399 121.181 92.4653 121.672H95.8893ZM105.573 117.976C106.618 117.976 107.45 118.317 108.069 119C108.698 119.672 109.013 120.6 109.013 121.784V127H106.293V122.152C106.293 121.555 106.138 121.091 105.829 120.76C105.519 120.429 105.103 120.264 104.581 120.264C104.058 120.264 103.642 120.429 103.333 120.76C103.023 121.091 102.869 121.555 102.869 122.152V127H100.133V118.072H102.869V119.256C103.146 118.861 103.519 118.552 103.989 118.328C104.458 118.093 104.986 117.976 105.573 117.976Z" fill="black"/>
<path d="M442.055 4.125C444.576 5.21342 451.649 5.0662 454.232 4.125V17.0829H442.329L442.055 4.125Z" fill="#4F719E"/>
<path d="M454.232 4.125C458.476 4.22941 459.423 6.77022 460.464 8.65733C461.395 10.3425 468.036 31.6609 468.42 33.3773C468.552 33.9684 462.954 36.5456 461.893 35.5799C460.833 34.6142 458.968 27.0459 458.537 26.3079C458.537 26.3079 458.476 28.9523 457.615 29.5058C457.615 29.5058 457.638 31.3749 457.061 31.5968C456.262 31.9044 450.672 32.0887 448.144 32.0887C445.616 32.0887 440.026 31.9041 439.226 31.5968C438.649 31.3749 438.673 29.5058 438.673 29.5058C437.812 28.9523 437.75 26.3079 437.75 26.3079C437.32 27.0459 435.676 34.2039 434.724 35.2765C433.771 36.3489 427.932 34.3784 428.001 33.7766C428.201 32.0291 434.892 10.3428 435.823 8.65757C436.865 6.77022 437.812 4.22966 442.055 4.12525C442.055 4.12525 442.086 8.2273 448.144 8.2273C454.202 8.22706 454.232 4.125 454.232 4.125Z" fill="#7795BD"/>
<path d="M448.143 10.1591C440.635 10.1591 440.3 4.31711 440.297 4.25822C440.291 4.12189 440.397 4.00659 440.533 4.00065C440.67 3.99051 440.785 4.10036 440.791 4.23669C440.802 4.45839 441.12 9.66396 448.143 9.66396C455.182 9.66396 455.485 4.45839 455.494 4.23694C455.5 4.10036 455.618 3.99842 455.752 4.00015C455.889 4.00585 455.994 4.12139 455.989 4.25797C455.986 4.31711 455.651 10.1591 448.143 10.1591Z" fill="#342C40"/>
<path d="M448.992 30.4296C444.916 30.4296 440.676 30.1621 438.625 29.7519C438.491 29.7252 438.404 29.5948 438.431 29.4607C438.457 29.3268 438.587 29.2398 438.722 29.2667C442.509 30.0243 453.82 30.2935 457.55 29.2707C457.683 29.2343 457.818 29.312 457.854 29.4439C457.89 29.5758 457.812 29.7118 457.681 29.748C455.925 30.2292 452.52 30.4296 448.992 30.4296Z" fill="#342C40"/>
<path d="M428.421 34.1797C428.421 34.1797 427.952 35.2436 428.105 35.5497C428.227 35.7959 433.108 37.5249 433.529 36.8128C433.95 36.1004 433.952 35.5752 433.952 35.5752L428.421 34.1797Z" fill="#4F719E"/>
<path d="M468.044 33.8242C468.044 33.8242 468.622 34.8327 468.503 35.1531C468.407 35.411 463.737 37.6464 463.243 36.9826C462.749 36.319 462.691 35.7967 462.691 35.7967L468.044 33.8242Z" fill="#4F719E"/>
<path d="M437.75 26.5557C437.638 26.5557 437.537 26.4798 437.509 26.3662C436.778 23.335 437.694 18.5102 438.186 15.9182C438.316 15.2321 438.439 14.5841 438.428 14.4591C438.402 14.3253 438.49 14.1988 438.624 14.1726C438.758 14.1459 438.889 14.2377 438.915 14.3718C438.948 14.5398 438.879 14.924 438.672 16.0107C438.222 18.384 437.284 23.3229 437.99 26.2504C438.022 26.3833 437.941 26.5169 437.808 26.549C437.788 26.5535 437.769 26.5557 437.75 26.5557Z" fill="#342C40"/>
<path d="M458.537 26.5561C458.517 26.5561 458.498 26.5538 458.479 26.5491C458.346 26.5172 458.264 26.3834 458.296 26.2505C459.002 23.323 458.065 18.3844 457.614 16.0108C457.408 14.9244 457.338 14.5401 457.371 14.3719C457.398 14.2378 457.528 14.1499 457.662 14.1767C457.794 14.2026 457.881 14.3293 457.858 14.4615C457.848 14.5911 457.971 15.2359 458.1 15.9185C458.592 18.5106 459.508 23.3353 458.777 26.3665C458.75 26.4799 458.648 26.5561 458.537 26.5561Z" fill="#342C40"/>
<path d="M453.183 19.3575C451.917 19.3575 450.887 18.3274 450.887 17.0611V15.0951C450.887 14.9585 450.998 14.8477 451.134 14.8477H455.232C455.369 14.8477 455.479 14.9585 455.479 15.0951V17.0611C455.479 18.3274 454.449 19.3575 453.183 19.3575ZM451.382 15.3425V17.0611C451.382 18.0545 452.19 18.8626 453.183 18.8626C454.177 18.8626 454.985 18.0545 454.985 17.0611V15.3425H451.382Z" fill="#342C40"/>
<path d="M448.003 53.3037C448.003 53.3037 451.167 88.0637 451.655 90.2982C451.795 90.944 460.72 90.8541 460.731 90.0213C460.753 88.2124 460.189 70.2372 459.872 64.2233C459.556 58.2097 459.852 43.8615 455.929 38.2083C455.578 37.7573 451.107 38.3719 448.003 38.3719C444.899 38.3719 440.428 37.7573 440.077 38.2083C436.154 43.8613 436.451 58.2094 436.134 64.2233C435.818 70.237 435.61 88.2124 435.633 90.0213C435.643 90.8544 444.392 90.944 444.533 90.2982C445.02 88.0639 448.003 53.3037 448.003 53.3037Z" fill="#6C9EDD"/>
<path d="M456.819 39.7749C456.141 39.8937 452.123 40.5592 448.006 40.532C443.886 40.5592 439.868 39.8937 439.19 39.7749C438.987 39.7155 439.512 38.35 439.836 37.8823C440.187 37.432 444.9 38.3695 448.006 38.3695C451.108 38.3695 455.598 37.3096 455.949 37.7599C456.273 38.2275 457.061 39.7041 456.819 39.7749Z" fill="#342C40"/>
<path d="M437.516 45.3862C440.657 45.1762 442.295 43.1634 443.207 40.3041L439.188 39.7773C439.188 39.7773 438.06 41.7973 437.516 45.3862Z" fill="#3679CF"/>
<path d="M450.67 41.0666C450.664 40.8553 450.659 40.6745 450.659 40.5344C450.659 40.4122 450.559 40.313 450.437 40.313C450.315 40.313 450.216 40.4122 450.216 40.5344C450.216 40.6777 450.221 40.8628 450.227 41.0793C450.264 42.403 450.342 45.1578 449.289 46.241C449.003 46.535 448.657 46.6827 448.234 46.6943C448.231 43.5963 448.224 40.5916 448.224 40.5334C448.224 40.4112 448.125 40.3125 448.003 40.3125H448.002C447.88 40.3127 447.781 40.4122 447.781 40.5344C447.782 40.6473 447.807 51.8353 447.781 53.2981C447.779 53.4206 447.877 53.5213 447.999 53.5235C448 53.5235 448.001 53.5235 448.003 53.5235C448.123 53.5235 448.222 53.427 448.224 53.306C448.236 52.6315 448.238 49.9012 448.235 47.137C448.777 47.1246 449.239 46.9284 449.607 46.5498C450.79 45.3323 450.712 42.5571 450.67 41.0666Z" fill="#342C40"/>
<path d="M448.472 40.7857H447.535C446.784 40.7857 446.174 40.1748 446.174 39.4241C446.174 38.6734 446.785 38.0625 447.535 38.0625H448.472C449.223 38.0625 449.834 38.6734 449.834 39.4241C449.834 40.1748 449.223 40.7857 448.472 40.7857ZM447.535 38.6801C447.125 38.6801 446.791 39.0138 446.791 39.4241C446.791 39.8343 447.125 40.1681 447.535 40.1681H448.472C448.882 40.1681 449.216 39.8343 449.216 39.4241C449.216 39.0138 448.882 38.6801 448.472 38.6801H447.535Z" fill="#B5D1E3"/>
<path d="M449.525 39.7309H448.004C447.834 39.7309 447.695 39.5925 447.695 39.4221C447.695 39.2516 447.834 39.1133 448.004 39.1133H449.525C449.696 39.1133 449.834 39.2516 449.834 39.4221C449.834 39.5925 449.696 39.7309 449.525 39.7309Z" fill="#B5D1E3"/>
<path d="M437.518 45.6072C437.403 45.6072 437.305 45.5176 437.297 45.4006C437.289 45.2786 437.382 45.173 437.504 45.1648C440.239 44.9817 441.985 43.4158 442.999 40.2364C443.036 40.1201 443.161 40.0552 443.277 40.0926C443.394 40.1297 443.458 40.2544 443.421 40.371C442.359 43.7001 440.433 45.4127 437.533 45.6067C437.528 45.6072 437.523 45.6072 437.518 45.6072Z" fill="#342C40"/>
<path d="M458.492 45.3862C455.35 45.1762 453.713 43.1634 452.801 40.3041L456.82 39.7773C456.82 39.7773 457.948 41.7973 458.492 45.3862Z" fill="#3679CF"/>
<path d="M458.491 45.6072C458.487 45.6072 458.482 45.607 458.476 45.6067C455.576 45.4127 453.65 43.7001 452.589 40.371C452.552 40.2544 452.616 40.1297 452.732 40.0926C452.849 40.0552 452.974 40.1201 453.011 40.2364C454.024 43.4158 455.771 44.9817 458.506 45.1648C458.628 45.173 458.721 45.2786 458.712 45.4006C458.704 45.5176 458.607 45.6072 458.491 45.6072Z" fill="#342C40"/>
<path d="M438.341 89.1976C438.338 89.1976 438.334 89.1976 438.331 89.1976C438.209 89.1921 438.114 89.0889 438.119 88.9667C438.131 88.6819 439.354 60.3763 440.841 50.5592C440.86 50.4385 440.973 50.3561 441.094 50.3734C441.215 50.3917 441.298 50.5048 441.279 50.6258C439.796 60.4193 438.574 88.7012 438.562 88.9858C438.557 89.1045 438.459 89.1976 438.341 89.1976Z" fill="#342C40"/>
<path d="M457.668 89.1942C457.549 89.1942 457.452 89.1011 457.446 88.9821C457.434 88.6976 456.213 60.4157 454.729 50.6221C454.711 50.5012 454.794 50.3883 454.915 50.3698C455.037 50.3512 455.149 50.4346 455.167 50.5556C456.654 60.3727 457.877 88.6785 457.889 88.9631C457.894 89.0853 457.8 89.1885 457.677 89.1939C457.674 89.1942 457.671 89.1942 457.668 89.1942Z" fill="#342C40"/>
<path d="M444.743 90.2955C444.596 90.9413 435.434 90.8515 435.423 90.0187C435.423 90.0187 435.421 88.806 435.423 88.5148C435.425 88.2236 444.884 88.3852 444.885 88.907C444.887 89.7999 444.743 90.2955 444.743 90.2955Z" fill="#B0CFF5"/>
<path d="M451.56 90.2955C451.707 90.9413 460.869 90.8515 460.88 90.0187C460.88 90.0187 460.882 88.806 460.88 88.5148C460.878 88.2236 451.419 88.3852 451.418 88.907C451.416 89.7999 451.56 90.2955 451.56 90.2955Z" fill="#B0CFF5"/>
<path d="M444.571 41.2275C444.556 41.2275 444.542 41.2267 444.527 41.225C444.323 41.2008 444.178 41.0164 444.202 40.8128L444.511 38.1985C444.536 37.9949 444.719 37.8499 444.924 37.8736C445.127 37.8979 445.273 38.0822 445.248 38.2859L444.939 40.9001C444.917 41.0887 444.756 41.2275 444.571 41.2275Z" fill="#6C9EDD"/>
<path d="M441.196 40.4457C441.163 40.4457 441.129 40.4412 441.095 40.4318C440.898 40.3764 440.783 40.1715 440.838 39.9741L441.415 37.9192C441.471 37.722 441.676 37.6072 441.873 37.6622C442.07 37.7176 442.185 37.9225 442.13 38.1199L441.553 40.1748C441.507 40.3386 441.358 40.4457 441.196 40.4457Z" fill="#6C9EDD"/>
<path d="M451.438 41.2278C451.253 41.2278 451.092 41.089 451.07 40.9002L450.76 38.2859C450.736 38.0823 450.882 37.8979 451.085 37.8737C451.287 37.8497 451.473 37.9949 451.497 38.1986L451.807 40.8128C451.831 41.0165 451.685 41.2008 451.482 41.2251C451.467 41.227 451.452 41.2278 451.438 41.2278Z" fill="#6C9EDD"/>
<path d="M454.805 40.4104C454.643 40.4104 454.494 40.3033 454.448 40.1395L453.881 38.12C453.826 37.9228 453.941 37.7177 454.138 37.6623C454.335 37.6071 454.54 37.7219 454.596 37.9193L455.163 39.9388C455.218 40.136 455.103 40.3411 454.906 40.3966C454.872 40.406 454.838 40.4104 454.805 40.4104Z" fill="#6C9EDD"/>
<path d="M451.576 99.0214C451.476 98.5461 450.831 94.3136 450.826 93.3157C450.823 92.7291 452.26 92.8964 453.696 92.8991C455.137 92.9018 456.579 92.7422 456.565 93.2314C456.536 94.2075 456.066 98.8744 456.066 98.8744L451.576 99.0214Z" fill="#F3F7FF"/>
<path d="M453.906 97.8125C455.212 97.8125 456.213 97.8711 456.211 98.5268C456.208 99.1825 455.007 101.468 455.007 101.468C455.007 101.468 452.894 101.752 452.728 101.585C452.561 101.418 451.553 99.0892 451.476 98.5451C451.399 98.001 452.677 97.8125 453.906 97.8125Z" fill="#B0CFF5"/>
<path d="M456.853 101.812C456.853 102.408 456.853 102.933 456.853 103.271C456.853 103.609 455.192 103.74 453.924 103.74C452.224 103.74 451.004 103.646 451.004 103.421C451.004 103.196 451.004 102.03 451.004 101.805L456.853 101.812Z" fill="#342C40"/>
<path d="M454.877 101.248C455.127 99.297 455.852 97.9124 456.669 98.3627C457.101 98.6008 456.846 98.893 456.954 100.254C457.098 102.055 456.946 102.299 456.828 102.7C456.578 103.55 454.877 101.248 454.877 101.248Z" fill="#4384D6"/>
<path d="M452.875 101.248C452.625 99.297 451.901 97.9124 451.084 98.3627C450.652 98.6008 450.778 99.3836 450.827 100.748C450.807 102.521 450.806 102.299 450.924 102.7C451.174 103.55 452.875 101.248 452.875 101.248Z" fill="#4384D6"/>
<path d="M453.877 100.746C452.126 100.746 451.225 101.974 451.275 102.886C451.275 102.886 453.769 103.361 456.576 102.882C456.576 101.944 455.779 100.746 453.877 100.746Z" fill="#F3F7FF"/>
<path d="M454.267 94.528C452.678 94.528 451.085 94.3877 450.984 94.3788C450.862 94.3679 450.771 94.2596 450.782 94.1366C450.793 94.0139 450.902 93.9238 451.024 93.9344C451.061 93.9377 454.718 94.2601 456.45 93.9374C456.572 93.9151 456.688 93.9948 456.71 94.1158C456.733 94.2368 456.653 94.3533 456.532 94.3759C455.918 94.4902 455.093 94.528 454.267 94.528Z" fill="#DDE6F0"/>
<path d="M444.729 99.0214C444.829 98.5461 445.475 94.3136 445.479 93.3157C445.482 92.7291 444.046 92.8964 442.61 92.8991C441.168 92.9018 439.726 92.7422 439.74 93.2314C439.769 94.2075 440.239 98.8744 440.239 98.8744L444.729 99.0214Z" fill="#F3F7FF"/>
<path d="M442.399 97.8125C441.092 97.8125 440.091 97.8711 440.094 98.5268C440.096 99.1825 441.297 101.468 441.297 101.468C441.297 101.468 443.41 101.752 443.577 101.585C443.743 101.418 444.752 99.0892 444.829 98.5451C444.905 98.001 443.627 97.8125 442.399 97.8125Z" fill="#B0CFF5"/>
<path d="M439.453 101.812C439.453 102.408 439.453 102.933 439.453 103.271C439.453 103.609 441.114 103.74 442.382 103.74C444.082 103.74 445.302 103.646 445.302 103.421C445.302 103.196 445.302 102.03 445.302 101.805L439.453 101.812Z" fill="#342C40"/>
<path d="M441.429 101.248C441.179 99.297 440.454 97.9124 439.637 98.3627C439.205 98.6008 439.46 98.893 439.352 100.254C439.208 102.055 439.359 102.299 439.477 102.7C439.728 103.55 441.429 101.248 441.429 101.248Z" fill="#4384D6"/>
<path d="M443.43 101.248C443.68 99.297 444.404 97.9124 445.222 98.3627C445.654 98.6008 445.527 99.3836 445.478 100.748C445.498 102.521 445.499 102.299 445.381 102.7C445.131 103.55 443.43 101.248 443.43 101.248Z" fill="#4384D6"/>
<path d="M442.429 100.746C444.18 100.746 445.081 101.974 445.031 102.886C445.031 102.886 442.537 103.361 439.73 102.882C439.73 101.944 440.527 100.746 442.429 100.746Z" fill="#F3F7FF"/>
<path d="M442.039 94.5281C441.213 94.5281 440.387 94.4902 439.774 94.3759C439.653 94.3534 439.573 94.2368 439.596 94.1159C439.618 93.9949 439.735 93.9147 439.856 93.9375C441.587 94.2601 445.245 93.9377 445.282 93.9345C445.405 93.9241 445.513 94.0142 445.524 94.1366C445.535 94.2594 445.444 94.3677 445.322 94.3789C445.221 94.3878 443.628 94.5281 442.039 94.5281Z" fill="#DDE6F0"/>
<path d="M37.341 42.2011C39.1606 42.2011 41.3763 41.3932 42.0572 40C43.1033 40.2729 50.7077 42.7828 54.6571 46.7319C54.9983 47.0731 51.7459 54.8287 51.2456 54.601C50.7453 54.3736 47.743 52.6451 47.743 52.6451C47.743 52.6451 47.0742 71.9062 46.9894 72.7034C46.9048 73.5008 39.8413 73.6921 37.341 73.6921C34.8408 73.6921 27.7773 73.5008 27.6927 72.7034C27.6081 71.9059 26.9391 52.6451 26.9391 52.6451C26.9391 52.6451 23.9371 54.3736 23.4365 54.601C22.9362 54.8284 19.6838 47.0729 20.025 46.7319C23.9744 42.7825 31.5788 40.2729 32.6249 40C34.0654 41.968 35.5215 42.2011 37.341 42.2011Z" fill="white"/>
<path d="M37.341 43.7158C31.6923 43.7158 30.9619 40.6489 30.9334 40.5186C30.9045 40.3849 30.9891 40.2533 31.1227 40.2244C31.2558 40.1957 31.3872 40.2798 31.4166 40.4124C31.4434 40.5289 32.1198 43.2209 37.3407 43.2209C42.5639 43.2209 43.2386 40.527 43.2648 40.4122C43.2952 40.2793 43.4269 40.1954 43.56 40.2251C43.6929 40.2548 43.777 40.3854 43.748 40.5186C43.7201 40.6492 42.9899 43.7158 37.341 43.7158Z" fill="#342C40"/>
<path d="M24.727 54.1834C24.6407 54.1834 24.5553 54.1438 24.4999 54.0693C22.6583 51.5852 20.988 45.7761 20.9716 45.7182C20.9293 45.5685 21.0164 45.4127 21.1661 45.3701C21.316 45.3278 21.4717 45.4144 21.5147 45.5638C21.5313 45.6215 23.1863 51.3494 24.9534 53.7331C25.0462 53.8583 25.02 54.0352 24.8948 54.128C24.8443 54.1653 24.7854 54.1834 24.727 54.1834Z" fill="#342C40"/>
<path d="M49.954 54.1839C49.8956 54.1839 49.8367 54.1658 49.786 54.1282C49.6608 54.0354 49.6346 53.8585 49.7274 53.7333C51.4945 51.3499 53.1495 45.6218 53.1661 45.5641C53.2089 45.4144 53.3655 45.3273 53.5147 45.3704C53.6644 45.4129 53.7515 45.5686 53.7092 45.7185C53.6929 45.7764 52.0225 51.5854 50.1809 54.0696C50.1257 54.1446 50.0404 54.1839 49.954 54.1839Z" fill="#342C40"/>
<path d="M28.9556 56.1864C28.411 56.8032 27.7596 57.3416 26.9837 57.7731C26.5598 58.0089 25.9343 56.5021 26.9837 55.8115C27.1955 55.6722 27.4169 55.3654 27.6324 54.9297L28.9556 56.1864Z" fill="#342C40"/>
<path d="M28.7632 56.7677C28.1778 56.7677 27.5525 56.1459 27.2957 55.7045C27.0149 55.2221 27.0901 54.8851 27.2026 54.6874C28.4304 52.5276 29.406 45.933 27.5649 42.2199C27.3751 41.8374 27.3922 41.4311 27.6124 41.076C27.9981 40.4543 28.9354 40.1289 29.6618 40.1289C30.2757 40.1289 30.7349 40.3464 30.9546 40.7415C31.279 41.3252 33.9309 51.3004 29.3268 56.5159C29.1974 56.6737 28.9933 56.7677 28.7632 56.7677Z" fill="#7795BD"/>
<path d="M28.0908 56.0591C28.0441 56.0591 27.9968 56.046 27.955 56.0183C27.8409 55.9431 27.8095 55.7897 27.8845 55.6756C31.2596 50.5566 29.56 43.4147 28.9588 41.348C28.9207 41.2168 28.9959 41.0795 29.1273 41.0414C29.2584 41.0026 29.3957 41.0785 29.4338 41.2099C30.0502 43.3284 31.7896 50.6519 28.2977 55.948C28.2499 56.0198 28.171 56.0591 28.0908 56.0591Z" fill="#342C40"/>
<path d="M45.7266 56.1864C46.2711 56.8032 46.9226 57.3416 47.6983 57.7731C48.1221 58.0089 48.7476 56.5021 47.6983 55.8115C47.4865 55.6722 47.265 55.3654 47.0495 54.9297L45.7266 56.1864Z" fill="#342C40"/>
<path d="M45.9184 56.7677C46.5038 56.7677 47.129 56.1459 47.3859 55.7045C47.6667 55.2221 47.5915 54.8851 47.4789 54.6874C46.2512 52.5276 45.2756 45.933 47.1167 42.2199C47.3065 41.8374 47.2894 41.4311 47.0692 41.076C46.6832 40.4543 45.7462 40.1289 45.0197 40.1289C44.4059 40.1289 43.9467 40.3464 43.727 40.7415C43.4023 41.3252 40.7507 51.3004 45.3548 56.5159C45.4842 56.6737 45.6883 56.7677 45.9184 56.7677Z" fill="#7795BD"/>
<path d="M46.589 56.0594C46.5086 56.0594 46.4299 56.0203 46.3821 55.948C42.8905 50.6519 44.6299 43.3284 45.246 41.2099C45.2841 41.0785 45.4209 41.0026 45.5525 41.0414C45.6836 41.0795 45.7591 41.2168 45.721 41.348C45.1198 43.415 43.4205 50.5566 46.7953 55.6756C46.8705 55.7897 46.8391 55.9431 46.7248 56.0183C46.683 56.046 46.6357 56.0594 46.589 56.0594Z" fill="#342C40"/>
<path d="M37.3384 81.2039C34.2347 81.2039 29.7637 80.5893 29.4122 81.0404C25.4897 86.6933 24.4466 101.352 24.4691 103.161C24.4795 103.994 36.1097 104.062 36.2799 103.438C36.85 101.349 37.3384 96.1355 37.3384 96.1355C37.3384 96.1355 37.8271 101.349 38.3969 103.438C38.5671 104.062 50.1971 103.994 50.2077 103.161C50.2305 101.352 49.1871 86.6935 45.2647 81.0404C44.9131 80.5893 40.4421 81.2039 37.3384 81.2039Z" fill="#6C9EDD"/>
<path d="M46.1549 82.6069C45.4769 82.7257 41.4587 83.3913 37.3416 83.364C33.222 83.3913 29.2038 82.7257 28.5258 82.6069C28.3229 82.5475 28.8475 81.182 29.1716 80.7144C29.523 80.2641 34.2364 81.2016 37.3416 81.2016C40.4443 81.2016 44.9338 80.1416 45.2852 80.5919C45.6093 81.0595 46.3968 82.5359 46.1549 82.6069Z" fill="#342C40"/>
<path d="M26.5195 88.2182C29.6613 88.0082 31.6316 85.9954 32.5433 83.1361L28.5239 82.6094C28.5239 82.6094 27.4038 84.5408 26.5195 88.2182Z" fill="#3679CF"/>
<path d="M40.0052 83.8989C39.9992 83.6874 39.994 83.5065 39.994 83.3667C39.994 83.2445 39.8948 83.1453 39.7726 83.1453C39.6504 83.1453 39.5511 83.2445 39.5511 83.3667C39.5511 83.51 39.5563 83.6951 39.5625 83.9115C39.5999 85.2355 39.6778 87.9901 38.6248 89.0731C38.339 89.367 37.9929 89.5147 37.5703 89.5264C37.567 86.4284 37.5601 83.4239 37.5601 83.3655C37.5599 83.2433 37.4609 83.1445 37.3387 83.1445H37.3382C37.2157 83.1448 37.1167 83.2442 37.1172 83.3665C37.1175 83.4793 37.1432 94.6673 37.1172 96.1301C37.115 96.2526 37.2125 96.3533 37.3347 96.3555C37.3359 96.3555 37.3374 96.3555 37.3389 96.3555C37.4594 96.3555 37.5581 96.259 37.5604 96.138C37.5725 95.4636 37.5735 92.733 37.571 89.969C38.1129 89.9566 38.5748 89.7604 38.9427 89.3819C40.1257 88.1643 40.0472 85.3897 40.0052 83.8989Z" fill="#342C40"/>
<path d="M37.8081 83.6179H36.8713C36.1207 83.6179 35.5098 83.007 35.5098 82.2564C35.5098 81.5054 36.1207 80.8948 36.8713 80.8948H37.8081C38.5588 80.8948 39.1697 81.5057 39.1697 82.2564C39.1697 83.0073 38.5588 83.6179 37.8081 83.6179ZM36.8713 81.5123C36.4611 81.5123 36.1273 81.8461 36.1273 82.2564C36.1273 82.6666 36.4611 83.0004 36.8713 83.0004H37.8081C38.2183 83.0004 38.5521 82.6666 38.5521 82.2564C38.5521 81.8461 38.2183 81.5123 37.8081 81.5123H36.8713Z" fill="#B5D1E3"/>
<path d="M38.8612 82.5629H37.34C37.1696 82.5629 37.0312 82.4246 37.0312 82.2541C37.0312 82.0836 37.1696 81.9453 37.34 81.9453H38.8612C39.0317 81.9453 39.17 82.0836 39.17 82.2541C39.17 82.4246 39.0317 82.5629 38.8612 82.5629Z" fill="#B5D1E3"/>
<path d="M26.522 88.4393C26.4064 88.4393 26.3092 88.3497 26.3013 88.2325C26.2931 88.1105 26.3854 88.0048 26.5074 87.9967C30.1017 87.7562 31.6605 85.1839 32.335 83.0682C32.3723 82.9519 32.4968 82.8876 32.6133 82.9245C32.7299 82.9616 32.7942 83.0863 32.7571 83.2028C31.7444 86.3785 29.5356 88.2382 26.5368 88.4386C26.5319 88.4391 26.5269 88.4393 26.522 88.4393Z" fill="#342C40"/>
<path d="M48.284 88.2182C45.1422 88.0082 43.0485 85.9954 42.1367 83.1361L46.1561 82.6094C46.1561 82.6094 47.27 84.3683 48.284 88.2182Z" fill="#3679CF"/>
<path d="M48.171 88.4391C48.1661 88.4391 48.1612 88.4391 48.156 88.4386C45.15 88.2374 42.937 86.378 41.9246 83.2028C41.8875 83.0863 41.9518 82.9616 42.0683 82.9245C42.1851 82.8876 42.3096 82.9519 42.3467 83.0682C43.0212 85.1834 44.5814 87.7557 48.1854 87.9967C48.3076 88.0048 48.3999 88.1102 48.3915 88.2325C48.3841 88.3495 48.2866 88.4391 48.171 88.4391Z" fill="#342C40"/>
<path d="M44.2852 101.971C44.1773 101.971 44.083 101.892 44.0664 101.782L42.3971 90.7425C42.3787 90.6215 42.4621 90.5087 42.5829 90.4904C42.7044 90.4728 42.8167 90.5555 42.835 90.6762L44.5044 101.716C44.5227 101.837 44.4393 101.95 44.3186 101.968C44.3072 101.97 44.296 101.971 44.2852 101.971Z" fill="#342C40"/>
<path d="M30.1711 103.127C30.1622 103.127 30.153 103.127 30.1439 103.126C30.0224 103.111 29.936 103 29.9509 102.879L31.448 90.6826C31.4629 90.5614 31.5735 90.475 31.695 90.4896C31.8165 90.5047 31.9028 90.6151 31.888 90.7366L30.3908 102.933C30.3769 103.045 30.2814 103.127 30.1711 103.127Z" fill="#342C40"/>
<path d="M50.4809 103.16C50.47 103.993 38.3725 104.061 38.1955 103.437C38.0473 102.914 37.9043 102.197 37.7734 101.414C39.1009 101.543 45.7242 101.749 50.3688 101.195C50.4809 101.916 50.4809 103.16 50.4809 103.16Z" fill="#B0CFF5"/>
<path d="M24.1992 103.16C24.2101 103.993 36.3077 104.061 36.4846 103.437C36.6328 102.914 36.7758 102.197 36.9067 101.414C35.5793 101.543 28.956 101.749 24.3113 101.195C24.1992 101.916 24.1992 103.16 24.1992 103.16Z" fill="#B0CFF5"/>
<path d="M33.9069 84.0632C33.8923 84.0632 33.8777 84.0625 33.8629 84.0608C33.6592 84.0365 33.5137 83.8522 33.5377 83.6486L33.847 81.0343C33.8713 80.8306 34.0549 80.6866 34.2592 80.7094C34.4629 80.7336 34.6083 80.918 34.5843 81.1216L34.2751 83.7359C34.2526 83.9247 34.0922 84.0632 33.9069 84.0632Z" fill="#6C9EDD"/>
<path d="M30.3968 83.7576C30.3637 83.7576 30.3298 83.7531 30.2964 83.7437C30.0989 83.6883 29.9839 83.4834 30.0393 83.286L30.7509 80.7514C30.8063 80.5539 31.0119 80.4391 31.2086 80.4943C31.4061 80.5497 31.5211 80.7546 31.4657 80.952L30.7541 83.4867C30.7081 83.6504 30.5592 83.7576 30.3968 83.7576Z" fill="#6C9EDD"/>
<path d="M40.7738 84.0597C40.5882 84.0597 40.4279 83.9209 40.4056 83.7321L40.0963 81.1178C40.0723 80.9142 40.2178 80.7298 40.4215 80.7056C40.6236 80.6823 40.8094 80.8271 40.8337 81.0304L41.1432 83.6447C41.1672 83.8484 41.0217 84.0327 40.8181 84.0569C40.803 84.0589 40.7884 84.0597 40.7738 84.0597Z" fill="#6C9EDD"/>
<path d="M44.2857 83.7576C44.1236 83.7576 43.9747 83.6504 43.9286 83.4867L43.217 80.952C43.1616 80.7548 43.2767 80.55 43.4741 80.4943C43.6706 80.4391 43.8762 80.5539 43.9318 80.7514L44.6434 83.286C44.6989 83.4832 44.5838 83.6883 44.3864 83.7437C44.3527 83.7531 44.3188 83.7576 44.2857 83.7576Z" fill="#6C9EDD"/>
<path d="M192.138 53.5615C192.138 53.5615 195.302 88.3215 195.789 90.556C195.93 91.2018 204.855 91.112 204.865 90.2791C204.888 88.4702 204.323 70.495 204.007 64.4811C203.691 58.4675 203.986 44.1193 200.064 38.4662C199.712 38.0151 195.241 38.6297 192.138 38.6297C189.034 38.6297 184.563 38.0151 184.212 38.4662C180.289 44.1191 180.585 58.4672 180.269 64.4811C179.952 70.4948 179.745 88.4702 179.767 90.2791C179.778 91.1122 188.527 91.2018 188.668 90.556C189.155 88.3217 192.138 53.5615 192.138 53.5615Z" fill="#6C9EDD"/>
<path d="M200.952 40.0366C200.274 40.1554 196.256 40.821 192.138 40.7937C188.019 40.821 184.001 40.1554 183.323 40.0366C183.12 39.9772 183.644 38.6117 183.968 38.1441C184.32 37.6937 189.033 38.6312 192.138 38.6312C195.241 38.6312 199.731 37.5713 200.082 38.0216C200.406 38.4892 201.194 39.9659 200.952 40.0366Z" fill="#342C40"/>
<path d="M181.652 45.644C184.794 45.434 186.432 43.4212 187.344 40.5619L183.324 40.0352C183.324 40.0352 182.197 42.0551 181.652 45.644Z" fill="#3679CF"/>
<path d="M194.804 41.3284C194.799 41.1171 194.793 40.9362 194.793 40.7962C194.793 40.6739 194.694 40.5747 194.572 40.5747C194.45 40.5747 194.35 40.6739 194.35 40.7962C194.35 40.9394 194.356 41.1245 194.362 41.341C194.399 42.6647 194.477 45.4195 193.424 46.5028C193.138 46.7967 192.792 46.9444 192.369 46.956C192.366 43.858 192.359 40.8533 192.359 40.7952C192.359 40.6729 192.26 40.5742 192.137 40.5742H192.137C192.015 40.5745 191.916 40.6739 191.916 40.7962C191.916 40.909 191.942 52.097 191.916 53.5598C191.914 53.6823 192.011 53.783 192.134 53.7852C192.135 53.7852 192.136 53.7852 192.138 53.7852C192.258 53.7852 192.357 53.6887 192.359 53.5677C192.371 52.8932 192.372 50.1629 192.37 47.3987C192.912 47.3863 193.374 47.1901 193.742 46.8115C194.925 45.594 194.847 42.8189 194.804 41.3284Z" fill="#342C40"/>
<path d="M192.607 41.0474H191.67C190.919 41.0474 190.309 40.4365 190.309 39.6858C190.309 38.9351 190.919 38.3242 191.67 38.3242H192.607C193.358 38.3242 193.969 38.9351 193.969 39.6858C193.969 40.4365 193.358 41.0474 192.607 41.0474ZM191.67 38.9418C191.26 38.9418 190.926 39.2756 190.926 39.6858C190.926 40.096 191.26 40.4298 191.67 40.4298H192.607C193.017 40.4298 193.351 40.096 193.351 39.6858C193.351 39.2756 193.017 38.9418 192.607 38.9418H191.67Z" fill="#B5D1E3"/>
<path d="M193.658 39.9926H192.137C191.966 39.9926 191.828 39.8543 191.828 39.6838C191.828 39.5133 191.966 39.375 192.137 39.375H193.658C193.829 39.375 193.967 39.5133 193.967 39.6838C193.967 39.8543 193.829 39.9926 193.658 39.9926Z" fill="#B5D1E3"/>
<path d="M181.651 45.8689C181.535 45.8689 181.438 45.7794 181.43 45.6623C181.422 45.5404 181.514 45.4347 181.637 45.4265C184.372 45.2434 186.118 43.6775 187.132 40.4981C187.169 40.3818 187.293 40.317 187.41 40.3543C187.526 40.3914 187.591 40.5161 187.554 40.6327C186.492 43.9618 184.566 45.6745 181.666 45.8684C181.661 45.8689 181.656 45.8689 181.651 45.8689Z" fill="#342C40"/>
<path d="M202.627 45.644C199.485 45.434 197.847 43.4212 196.936 40.5619L200.955 40.0352C200.955 40.0352 202.083 42.0551 202.627 45.644Z" fill="#3679CF"/>
<path d="M202.628 45.8689C202.623 45.8689 202.618 45.8687 202.613 45.8684C199.713 45.6745 197.787 43.9618 196.725 40.6327C196.688 40.5161 196.753 40.3914 196.869 40.3543C196.986 40.317 197.11 40.3818 197.147 40.4981C198.161 43.6775 199.907 45.2434 202.643 45.4265C202.765 45.4347 202.857 45.5404 202.849 45.6623C202.841 45.7794 202.744 45.8689 202.628 45.8689Z" fill="#342C40"/>
<path d="M182.476 89.4554C182.472 89.4554 182.469 89.4554 182.466 89.4554C182.344 89.4499 182.249 89.3467 182.254 89.2245C182.266 88.9397 183.489 60.6341 184.976 50.817C184.994 50.6963 185.108 50.6139 185.228 50.6312C185.349 50.6495 185.433 50.7626 185.414 50.8836C183.931 60.6771 182.709 88.959 182.697 89.2436C182.692 89.3623 182.594 89.4554 182.476 89.4554Z" fill="#342C40"/>
<path d="M201.8 89.4559C201.682 89.4559 201.584 89.3629 201.579 89.2439C201.567 88.9593 200.345 60.6774 198.862 50.8839C198.844 50.7629 198.927 50.65 199.048 50.6315C199.17 50.6129 199.282 50.6963 199.3 50.8173C200.787 60.6344 202.01 88.9403 202.022 89.2248C202.027 89.347 201.932 89.4502 201.81 89.4556C201.807 89.4559 201.804 89.4559 201.8 89.4559Z" fill="#342C40"/>
<path d="M188.878 90.5572C188.731 91.203 179.569 91.1132 179.558 90.2804C179.558 90.2804 179.555 89.0677 179.558 88.7765C179.56 88.4853 189.019 88.6469 189.02 89.1687C189.021 90.0617 188.878 90.5572 188.878 90.5572Z" fill="#B0CFF5"/>
<path d="M195.693 90.5572C195.84 91.203 205.002 91.1132 205.013 90.2804C205.013 90.2804 205.015 89.0677 205.013 88.7765C205.011 88.4853 195.552 88.6469 195.551 89.1687C195.549 90.0617 195.693 90.5572 195.693 90.5572Z" fill="#B0CFF5"/>
<path d="M188.708 41.4892C188.693 41.4892 188.678 41.4885 188.664 41.4867C188.46 41.4625 188.315 41.2782 188.339 41.0745L188.648 38.4602C188.672 38.2566 188.856 38.1116 189.06 38.1354C189.264 38.1596 189.409 38.3439 189.385 38.5476L189.076 41.1619C189.053 41.3504 188.893 41.4892 188.708 41.4892Z" fill="#6C9EDD"/>
<path d="M185.33 40.7074C185.297 40.7074 185.263 40.703 185.23 40.6936C185.033 40.6381 184.917 40.4333 184.973 40.2358L185.55 38.181C185.606 37.9838 185.811 37.869 186.008 37.9239C186.205 37.9793 186.32 38.1842 186.265 38.3816L185.688 40.4365C185.641 40.6003 185.492 40.7074 185.33 40.7074Z" fill="#6C9EDD"/>
<path d="M195.571 41.4895C195.385 41.4895 195.225 41.3507 195.202 41.1619L194.893 38.5476C194.869 38.344 195.015 38.1597 195.218 38.1354C195.42 38.1114 195.606 38.2566 195.63 38.4603L195.94 41.0746C195.964 41.2782 195.818 41.4625 195.615 41.4868C195.6 41.4888 195.585 41.4895 195.571 41.4895Z" fill="#6C9EDD"/>
<path d="M198.94 40.6721C198.778 40.6721 198.629 40.565 198.583 40.4012L198.016 38.3817C197.96 38.1845 198.076 37.9794 198.273 37.924C198.469 37.8688 198.675 37.9836 198.731 38.1811L199.298 40.2005C199.353 40.3977 199.238 40.6029 199.04 40.6583C199.007 40.6677 198.973 40.6721 198.94 40.6721Z" fill="#6C9EDD"/>
<path d="M189.035 1.01953C190.369 1.51512 193.968 1.63933 195.719 1.01953C195.759 3.44924 194.558 7.58371 192.377 7.58371C190.196 7.58371 189.035 2.08593 189.035 1.01953Z" fill="#9FB7C7"/>
<path d="M202.329 34.6218C202.329 33.8829 203.92 17.7419 203.635 15.0873C203.635 15.0873 206.574 16.699 207.38 16.9836C208.186 17.2679 211.03 9.44628 210.509 9.11449C204.661 4.90431 197.283 2.28828 197.283 2.28828C197.283 2.28828 196.381 0.25 195.719 0.25C195.01 0.25 194.235 4.84319 192.377 5.83858C190.519 4.84344 189.744 0.25 189.035 0.25C188.372 0.25 187.47 2.28828 187.47 2.28828C187.47 2.28828 180.092 4.90431 174.245 9.11449C173.151 9.51433 175.997 17.3359 177.373 16.9836C178.201 16.7715 181.118 15.0873 181.118 15.0873C180.834 17.7419 182.768 34.0175 182.768 34.7564C182.768 36.1187 187.595 35.1918 192.286 35.199C197.037 35.2064 202.329 36.0019 202.329 34.6218Z" fill="white"/>
<path d="M197.343 2.0415C197.208 2.02195 197.082 2.11449 197.061 2.24983L196.418 6.57482C196.351 7.02093 196.064 7.39429 195.648 7.57318C195.238 7.74959 194.777 7.70357 194.413 7.44971C193.638 6.90859 193.027 6.21828 192.755 5.88599C193.779 5.14 194.437 3.46048 194.973 2.08876C195.22 1.45832 195.556 0.59753 195.735 0.494354C195.864 0.485199 195.965 0.378312 195.965 0.247425C195.965 0.110846 195.854 0 195.718 0C195.258 0 194.977 0.718273 194.512 1.90839C194.01 3.19252 193.33 4.93241 192.376 5.54875C191.422 4.93241 190.742 3.19252 190.24 1.90863C189.774 0.718274 189.494 0 189.034 0C188.897 0 188.774 0.10862 188.774 0.245445C188.774 0.382024 188.873 0.490643 189.01 0.490643C189.187 0.575509 189.529 1.4504 189.779 2.08876C190.318 3.46716 190.98 5.15683 192.012 5.89712C191.752 6.21333 191.201 6.83387 190.499 7.35173C190.109 7.63973 189.609 7.70085 189.162 7.51553C188.719 7.33144 188.413 6.93828 188.342 6.46372L187.715 2.24934C187.694 2.114 187.567 2.02121 187.434 2.04101C187.299 2.0613 187.205 2.18699 187.225 2.32208L187.853 6.53647C187.949 7.18447 188.368 7.72114 188.972 7.97227C189.205 8.06902 189.448 8.11652 189.689 8.11652C190.079 8.11652 190.465 7.99207 190.793 7.74984C190.847 7.71 190.9 7.66918 190.952 7.6286V14.3217C190.952 14.4583 191.063 14.5691 191.2 14.5691H193.569C193.705 14.5691 193.816 14.4583 193.816 14.3217V7.62142C193.918 7.70085 194.022 7.77928 194.13 7.85499C194.433 8.06629 194.784 8.17392 195.139 8.17392C195.377 8.17392 195.617 8.12543 195.845 8.0272C196.419 7.77978 196.816 7.2639 196.908 6.64707L197.552 2.32208C197.571 2.18748 197.478 2.06154 197.343 2.0415ZM193.321 14.075H191.447V7.21045C191.871 6.82274 192.198 6.4516 192.388 6.22051C192.577 6.45036 192.9 6.81828 193.321 7.20328L193.321 14.075Z" fill="#342C40"/>
<path d="M178.787 16.5669C178.716 16.5669 178.646 16.5367 178.597 16.4783C175.751 13.0785 175.345 8.41376 175.329 8.21681C175.318 8.08073 175.419 7.96123 175.556 7.95034C175.69 7.93723 175.811 8.0409 175.822 8.17698C175.826 8.2235 176.234 12.8842 178.976 16.1606C179.064 16.2655 179.05 16.4214 178.946 16.5093C178.899 16.5481 178.843 16.5669 178.787 16.5669Z" fill="#342C40"/>
<path d="M205.966 16.5669C205.91 16.5669 205.854 16.5479 205.807 16.5093C205.703 16.4217 205.689 16.2656 205.776 16.1607C208.519 12.8843 208.927 8.22378 208.931 8.17702C208.942 8.04093 209.061 7.93702 209.197 7.95038C209.334 7.96126 209.435 8.08077 209.424 8.21685C209.408 8.4138 209.002 13.0783 206.156 16.4784C206.107 16.5368 206.037 16.5669 205.966 16.5669Z" fill="#342C40"/>
<path d="M195.711 99.2831C195.611 98.8078 194.965 94.5753 194.961 93.5775C194.958 92.9908 196.394 93.1581 197.83 93.1608C199.272 93.1635 200.714 93.0039 200.7 93.4931C200.671 94.4692 200.201 99.1361 200.201 99.1361L195.711 99.2831Z" fill="#F3F7FF"/>
<path d="M198.041 98.0742C199.347 98.0742 200.348 98.1329 200.346 98.7885C200.343 99.4442 199.142 101.729 199.142 101.729C199.142 101.729 197.029 102.013 196.863 101.846C196.696 101.68 195.687 99.3509 195.611 98.8068C195.534 98.2628 196.812 98.0742 198.041 98.0742Z" fill="#B0CFF5"/>
<path d="M200.986 102.074C200.986 102.669 200.986 103.195 200.986 103.533C200.986 103.87 199.325 104.002 198.057 104.002C196.357 104.002 195.137 103.908 195.137 103.683C195.137 103.458 195.137 102.292 195.137 102.066L200.986 102.074Z" fill="#342C40"/>
<path d="M199.01 101.506C199.26 99.5548 199.984 98.1702 200.802 98.6205C201.234 98.8586 200.979 99.1508 201.087 100.512C201.231 102.313 201.079 102.556 200.961 102.957C200.711 103.808 199.01 101.506 199.01 101.506Z" fill="#4384D6"/>
<path d="M197.008 101.506C196.758 99.5548 196.034 98.1702 195.216 98.6205C194.784 98.8586 194.911 99.6414 194.96 101.006C194.94 102.779 194.939 102.556 195.057 102.957C195.307 103.808 197.008 101.506 197.008 101.506Z" fill="#4384D6"/>
<path d="M198.01 101.008C196.259 101.008 195.358 102.236 195.408 103.148C195.408 103.148 197.902 103.622 200.709 103.143C200.709 102.206 199.912 101.008 198.01 101.008Z" fill="#F3F7FF"/>
<path d="M198.399 94.7897C196.811 94.7897 195.218 94.6495 195.117 94.6405C194.994 94.6297 194.904 94.5213 194.915 94.3983C194.926 94.2756 195.035 94.1855 195.157 94.1962C195.194 94.1994 198.851 94.5218 200.583 94.1991C200.705 94.1769 200.821 94.2565 200.843 94.3775C200.866 94.4985 200.786 94.6151 200.665 94.6376C200.051 94.7519 199.226 94.7897 198.399 94.7897Z" fill="#DDE6F0"/>
<path d="M188.862 99.2831C188.962 98.8078 189.607 94.5753 189.612 93.5775C189.615 92.9908 188.179 93.1581 186.743 93.1608C185.301 93.1635 183.859 93.0039 183.873 93.4931C183.902 94.4692 184.372 99.1361 184.372 99.1361L188.862 99.2831Z" fill="#F3F7FF"/>
<path d="M186.532 98.0742C185.225 98.0742 184.224 98.1329 184.227 98.7885C184.229 99.4442 185.43 101.729 185.43 101.729C185.43 101.729 187.543 102.013 187.71 101.846C187.876 101.68 188.885 99.3509 188.962 98.8068C189.038 98.2628 187.76 98.0742 186.532 98.0742Z" fill="#B0CFF5"/>
<path d="M183.586 102.074C183.586 102.669 183.586 103.195 183.586 103.533C183.586 103.87 185.247 104.002 186.515 104.002C188.215 104.002 189.435 103.908 189.435 103.683C189.435 103.458 189.435 102.292 189.435 102.066L183.586 102.074Z" fill="#342C40"/>
<path d="M185.562 101.506C185.312 99.5548 184.587 98.1702 183.77 98.6205C183.338 98.8586 183.593 99.1508 183.484 100.512C183.341 102.313 183.492 102.556 183.61 102.957C183.86 103.808 185.562 101.506 185.562 101.506Z" fill="#4384D6"/>
<path d="M187.562 101.506C187.813 99.5548 188.537 98.1702 189.354 98.6205C189.786 98.8586 189.659 99.6414 189.611 101.006C189.631 102.779 189.632 102.556 189.514 102.957C189.264 103.808 187.562 101.506 187.562 101.506Z" fill="#4384D6"/>
<path d="M186.562 101.008C188.313 101.008 189.214 102.236 189.164 103.148C189.164 103.148 186.67 103.622 183.863 103.143C183.863 102.206 184.66 101.008 186.562 101.008Z" fill="#F3F7FF"/>
<path d="M186.174 94.7898C185.348 94.7898 184.522 94.7519 183.909 94.6376C183.788 94.6151 183.708 94.4986 183.73 94.3776C183.753 94.2566 183.87 94.1764 183.99 94.1992C185.722 94.5218 189.38 94.1994 189.416 94.1962C189.54 94.1858 189.648 94.2759 189.659 94.3984C189.67 94.5211 189.579 94.6295 189.457 94.6406C189.356 94.6495 187.763 94.7898 186.174 94.7898Z" fill="#DDE6F0"/>
<path d="M319.192 2.91016C322.309 3.53317 323.445 3.77491 326.55 2.91016C326.713 6.38722 323.037 7.11291 323.037 7.11291C323.037 7.11291 319.124 5.33492 319.192 2.91016Z" fill="#9FB7C7"/>
<path d="M322.872 28.8645C324.862 28.8645 330.484 28.6149 330.552 27.5744C330.619 26.534 332.389 14.05 332.389 14.05C332.389 14.05 335.135 15.6312 335.593 15.8393C336.051 16.0474 339.026 8.95226 338.714 8.64026C335.101 5.02712 331.929 2.32153 326.551 2.90842C325.233 4.70868 324.055 7.09014 322.862 7.09014C323.255 7.23217 320.783 4.73318 319.194 2.90842C313.816 2.32128 310.644 5.02712 307.031 8.64001C306.719 8.95202 309.694 16.0472 310.152 15.8391C310.609 15.631 313.356 14.0497 313.356 14.0497C313.356 14.0497 315.125 26.5338 315.193 27.5742C315.261 28.6146 320.882 28.8645 322.872 28.8645Z" fill="white"/>
<path d="M331.086 27.6677C331.086 27.6677 332.944 16.4982 332.388 14.0531C330.195 13.5083 329.763 2.74111 329.763 2.74111H327.318C327.318 2.74111 327.109 8.52021 322.872 8.52021C318.636 8.52021 318.427 2.74111 318.427 2.74111C318.427 2.74111 316.67 2.67059 315.884 2.98606C315.884 2.98606 315.393 13.1879 313.354 14.2273C312.798 16.6724 314.659 27.6677 314.659 27.6677H331.086Z" fill="#6C9EDD"/>
<path d="M311.544 15.303C311.447 15.303 311.353 15.2535 311.3 15.1642C310.381 13.6091 308.116 7.96291 308.02 7.72315C307.962 7.57841 308.033 7.41412 308.177 7.35622C308.322 7.29832 308.487 7.36859 308.544 7.51334C308.568 7.57173 310.889 13.3587 311.786 14.8769C311.866 15.011 311.821 15.1842 311.687 15.2637C311.642 15.2904 311.593 15.303 311.544 15.303Z" fill="#342C40"/>
<path d="M334.2 15.3029C334.151 15.3029 334.102 15.2903 334.057 15.2636C333.922 15.1844 333.878 15.0112 333.957 14.8768C334.855 13.3586 337.176 7.57163 337.199 7.51323C337.257 7.36849 337.422 7.29847 337.566 7.35612C337.711 7.41402 337.781 7.57831 337.723 7.72305C337.627 7.96256 335.363 13.609 334.443 15.1641C334.39 15.2534 334.296 15.3029 334.2 15.3029Z" fill="#342C40"/>
<path d="M322.862 7.09078C322.862 7.09078 320.899 9.76223 318.716 9.81171L317.762 3.4002L319.388 1.28125C320.125 1.2815 320.931 6.0563 322.862 7.09078C324.793 6.0563 325.599 1.2815 326.336 1.2815L327.987 3.40044L327.033 9.81196C324.849 9.76223 322.887 7.09103 322.887 7.09103" fill="#F3F7FF"/>
<path d="M328.029 3.12216C327.875 3.09791 327.731 3.2053 327.709 3.35969L326.793 9.51265C325.227 9.32411 323.783 7.7401 323.292 7.14751C324.35 6.35971 325.031 4.62502 325.586 3.20554C325.851 2.5271 326.18 1.68561 326.364 1.56339C326.507 1.54978 326.619 1.42928 326.619 1.28231C326.619 1.12643 326.492 1 326.336 1C325.842 1 325.564 1.71036 325.06 2.99993C324.542 4.32539 323.84 6.11946 322.863 6.76351C321.885 6.11971 321.183 4.32539 320.665 3.00018C320.161 1.7106 319.883 1.00025 319.389 1.00025C319.233 1.00025 319.106 1.12668 319.106 1.28256C319.106 1.42928 319.218 1.55003 319.361 1.56363C319.545 1.68611 319.874 2.5276 320.139 3.20579C320.697 4.63219 321.381 6.37753 322.448 7.15964C321.948 7.76138 320.514 9.3256 318.957 9.5129L318.042 3.35969C318.019 3.20554 317.876 3.09791 317.721 3.12216C317.567 3.14517 317.461 3.28868 317.484 3.44282L318.438 9.85434C318.458 9.9929 318.577 10.0951 318.717 10.0951C318.719 10.0951 318.721 10.0948 318.723 10.0948C320.613 10.0518 322.294 8.23544 322.875 7.53102C323.457 8.23544 325.137 10.052 327.027 10.0948C327.029 10.0948 327.032 10.0951 327.034 10.0951C327.173 10.0951 327.292 9.9929 327.313 9.85434L328.267 3.44282C328.29 3.28868 328.183 3.14517 328.029 3.12216Z" fill="#342C40"/>
<path d="M317.003 52.9787C317.003 52.9787 315.434 54.1191 312.231 54.1191C309.027 54.1191 307 52.9787 307 52.9787C307 52.9787 308.634 40.4343 314.33 29.1324C315.035 27.7347 320.383 28.1296 320.383 28.1296L317.003 52.9787Z" fill="#3679CF"/>
<path d="M321.53 55.1665C321.53 55.1665 319.732 55.7675 316.529 55.7675C313.326 55.7675 311.527 55.1665 311.527 55.1665C311.527 55.1665 314.577 36.0447 317.732 28.166C321.549 28.1126 323.583 28.0938 323.583 28.0938L321.53 55.1665Z" fill="#4384D6"/>
<path d="M328.722 52.9787C328.722 52.9787 330.291 54.1191 333.494 54.1191C336.697 54.1191 338.724 52.9787 338.724 52.9787C338.724 52.9787 337.079 40.4343 331.383 29.1324C330.679 27.7347 325.33 28.1296 325.33 28.1296L328.722 52.9787Z" fill="#3679CF"/>
<path d="M324.193 55.1665C324.193 55.1665 325.992 55.7675 329.195 55.7675C332.398 55.7675 334.196 55.1665 334.196 55.1665C334.196 55.1665 331.136 36.0447 327.98 28.166C324.163 28.1126 322.129 28.0938 322.129 28.0938L324.193 55.1665Z" fill="#4384D6"/>
<path d="M327.862 56.5807C327.862 56.5807 326.064 57.1817 322.861 57.1817C319.658 57.1817 317.859 56.5807 317.859 56.5807L319.441 28.1133H326.269L327.862 56.5807Z" fill="#6C9EDD"/>
<path d="M331.06 27.1054C330.777 26.8365 314.888 26.8896 314.593 27.2719C314.341 27.599 314.049 28.9423 314.33 29.2399C314.811 29.7504 330.876 29.52 331.247 29.2399C331.568 28.9977 331.355 27.3857 331.06 27.1054Z" fill="#6C9EDD"/>
<path d="M320.964 29.8288C314.492 29.8288 314.229 29.5482 314.124 29.4369C314.017 29.3233 314.022 29.1446 314.135 29.0378C314.238 28.9413 314.393 28.9363 314.501 29.0194C315.57 29.4636 330.278 29.2154 331.12 28.991C331.239 28.9306 331.389 28.9628 331.472 29.0731C331.566 29.1976 331.542 29.3747 331.417 29.4685C331.044 29.7503 324.199 29.8124 322.831 29.8218C322.158 29.8265 321.536 29.8288 320.964 29.8288ZM314.534 29.0489L314.535 29.0494L314.534 29.0489ZM331.077 29.0175L331.077 29.018L331.077 29.0175Z" fill="#342C40"/>
<path d="M322.978 13.5416C322.174 13.5416 321.556 13.255 321.517 13.237C321.376 13.1702 321.316 13.0019 321.383 12.8609C321.45 12.7201 321.618 12.6597 321.758 12.7263C321.77 12.732 322.968 13.2798 324.069 12.7293C324.209 12.6597 324.379 12.7162 324.448 12.8555C324.518 12.9948 324.461 13.1645 324.322 13.2343C323.861 13.4646 323.395 13.5416 322.978 13.5416Z" fill="#342C40"/>
<path d="M323.094 27.1178C321.075 27.1178 319.508 27.0498 319.485 27.0488C319.329 27.0418 319.208 26.91 319.215 26.7543C319.222 26.5987 319.355 26.4762 319.51 26.4849C319.545 26.4861 323.047 26.6375 326.323 26.4849C326.48 26.4755 326.611 26.598 326.618 26.7538C326.625 26.9095 326.505 27.0416 326.349 27.049C325.243 27.1007 324.111 27.1178 323.094 27.1178Z" fill="#342C40"/>
<path d="M314.642 75.102C314.827 74.5322 321.412 74.638 321.696 75.0456C321.98 75.4531 320.845 93.9735 320.561 96.5542C320.277 99.1348 320.466 100.561 320.466 100.561H316.683C316.683 100.561 316.588 94.9242 316.493 93.6338C316.399 92.3435 314.6 81.6827 314.602 78.2858C314.603 75.9771 314.642 75.102 314.642 75.102Z" fill="#C1C1C1"/>
<path d="M321.785 76.8732C318.015 76.1158 314.626 76.8665 314.592 76.8744C314.472 76.9017 314.396 77.0212 314.424 77.1414C314.447 77.2448 314.539 77.3151 314.641 77.3151C314.657 77.3151 314.674 77.3134 314.691 77.3094C314.703 77.3067 315.197 77.1973 316.007 77.1055C315.908 78.7093 316.305 82.5308 316.725 86.568C317.216 91.2807 317.723 96.1538 317.576 98.4971C317.568 98.6201 317.662 98.726 317.785 98.7337C317.789 98.7339 317.794 98.7339 317.799 98.7339C317.916 98.7339 318.014 98.6431 318.021 98.5248C318.17 96.1444 317.661 91.2525 317.169 86.5218C316.743 82.4319 316.341 78.5644 316.457 77.0598C316.9 77.0202 317.409 76.9897 317.969 76.9821L318.291 98.5142C318.293 98.6362 318.392 98.7339 318.514 98.7339C318.515 98.7339 318.516 98.7339 318.517 98.7339C318.64 98.7322 318.739 98.6307 318.737 98.5075L318.415 76.9811C318.948 76.986 319.517 77.0135 320.109 77.0736C320.121 80.9161 319.57 96.5071 318.969 98.4838C318.933 98.6016 318.999 98.7263 319.117 98.7621C319.139 98.7688 319.161 98.7718 319.182 98.7718C319.278 98.7718 319.366 98.7099 319.395 98.6134C320.046 96.4769 320.558 80.686 320.556 77.1246C320.93 77.1723 321.311 77.233 321.697 77.3104C321.817 77.3356 321.936 77.2567 321.96 77.1357C321.984 77.015 321.905 76.8975 321.785 76.8732Z" fill="#DDE6F0"/>
<path d="M318.515 98.5117C317.539 98.5117 316.791 98.5713 316.793 99.2379C316.795 99.9045 317.386 101.403 317.386 101.403C317.386 101.403 319.535 101.691 319.704 101.522C319.874 101.352 320.273 99.81 320.33 99.2567C320.387 98.7032 319.432 98.5117 318.515 98.5117Z" fill="#B0CFF5"/>
<path d="M315.512 101.871C315.512 102.477 315.512 103.011 315.512 103.355C315.512 103.698 317.2 103.832 318.49 103.832C320.219 103.832 321.46 103.606 321.46 103.377C321.46 103.147 321.46 102.092 321.46 101.863L315.512 101.871Z" fill="#342C40"/>
<path d="M317.52 101.178C317.266 99.1934 317.062 98.6115 316.452 99.0695C315.841 99.5275 315.281 101.788 315.536 102.653C316.112 103.518 317.52 101.178 317.52 101.178Z" fill="#4384D6"/>
<path d="M319.555 101.178C319.809 99.1934 320.013 98.6115 320.623 99.0695C321.234 99.5275 321.712 101.929 321.458 102.794C320.81 103.174 319.555 101.178 319.555 101.178Z" fill="#4384D6"/>
<path d="M318.537 100.668C320.318 100.668 321.234 101.917 321.183 102.844C321.183 102.844 318.647 103.326 315.793 102.839C315.793 101.886 316.603 100.668 318.537 100.668Z" fill="#F3F7FF"/>
<path d="M331.095 75.102C330.91 74.5322 324.325 74.638 324.041 75.0456C323.757 75.4531 324.892 93.9735 325.176 96.5542C325.46 99.1348 325.271 100.561 325.271 100.561H329.054C329.054 100.561 329.149 94.9242 329.243 93.6338C329.338 92.3435 331.136 81.6827 331.135 78.2858C331.134 75.9771 331.095 75.102 331.095 75.102Z" fill="#C1C1C1"/>
<path d="M331.145 76.8744C331.111 76.8665 327.721 76.1158 323.953 76.8732C323.832 76.8975 323.754 77.015 323.778 77.1357C323.799 77.2416 323.892 77.3149 323.996 77.3149C324.011 77.3149 324.026 77.3136 324.041 77.3104C324.427 77.233 324.808 77.1723 325.182 77.1246C325.18 80.6863 325.692 96.4767 326.342 98.6132C326.371 98.7094 326.46 98.7715 326.555 98.7715C326.577 98.7715 326.599 98.7683 326.621 98.7619C326.739 98.726 326.805 98.6016 326.769 98.4835C326.167 96.5071 325.616 80.9166 325.628 77.0736C326.22 77.0137 326.79 76.9863 327.322 76.9816L327.001 98.5075C326.999 98.6308 327.097 98.7322 327.22 98.7339C327.222 98.7339 327.222 98.7339 327.224 98.7339C327.345 98.7339 327.445 98.6362 327.447 98.5142L327.769 76.9826C328.328 76.9902 328.838 77.0207 329.281 77.0603C329.397 78.5651 328.994 82.4321 328.569 86.521C328.077 91.2521 327.568 96.1441 327.717 98.5246C327.724 98.6429 327.822 98.7337 327.939 98.7337C327.944 98.7337 327.948 98.7337 327.953 98.7334C328.076 98.7258 328.17 98.6196 328.162 98.4969C328.015 96.1533 328.522 91.2803 329.013 86.5673C329.433 82.5306 329.83 78.7093 329.731 77.1058C330.541 77.1976 331.035 77.3064 331.047 77.3092C331.167 77.3371 331.287 77.2612 331.314 77.1409C331.341 77.0212 331.265 76.9017 331.145 76.8744Z" fill="#DDE6F0"/>
<path d="M327.224 98.5117C328.2 98.5117 328.948 98.5713 328.946 99.2379C328.944 99.9045 328.353 101.403 328.353 101.403C328.353 101.403 326.204 101.691 326.034 101.522C325.865 101.352 325.466 99.81 325.409 99.2567C325.352 98.7032 326.307 98.5117 327.224 98.5117Z" fill="#B0CFF5"/>
<path d="M330.229 101.871C330.229 102.477 330.229 103.011 330.229 103.355C330.229 103.698 328.54 103.832 327.25 103.832C325.522 103.832 324.281 103.606 324.281 103.377C324.281 103.147 324.281 102.092 324.281 101.863L330.229 101.871Z" fill="#342C40"/>
<path d="M328.219 101.178C328.473 99.1934 328.677 98.6115 329.287 99.0695C329.898 99.5275 330.457 101.788 330.203 102.653C329.627 103.518 328.219 101.178 328.219 101.178Z" fill="#4384D6"/>
<path d="M326.184 101.178C325.93 99.1934 325.726 98.6115 325.116 99.0695C324.505 99.5275 324.026 101.929 324.281 102.794C324.929 103.174 326.184 101.178 326.184 101.178Z" fill="#4384D6"/>
<path d="M327.202 100.668C325.421 100.668 324.506 101.917 324.557 102.844C324.557 102.844 327.093 103.326 329.946 102.839C329.946 101.886 329.136 100.668 327.202 100.668Z" fill="#F3F7FF"/>
</svg>
