<svg width="1440" height="417" viewBox="0 0 1440 417" fill="none" xmlns="http://www.w3.org/2000/svg">
<path opacity="0.44" d="M883.058 293.064C881.463 292.887 879.863 292.707 878.264 292.529C877.301 292.48 876.353 292.444 875.386 292.393C877.948 292.62 880.526 292.86 883.058 293.064ZM1571.21 149.164C1571.73 148.756 1572.25 148.35 1572.77 147.947C1571.62 148.686 1570.47 149.428 1569.29 150.184C1569.93 149.845 1570.58 149.5 1571.21 149.164ZM895.966 294.04C893.339 293.696 890.7 293.344 888.06 292.992C885.947 292.896 883.828 292.795 881.706 292.691C884.25 292.98 886.802 293.272 889.319 293.541C891.542 293.713 893.755 293.877 895.966 294.04ZM902.389 294.892C901.52 294.782 900.635 294.661 899.754 294.543C898.535 294.455 897.302 294.357 896.078 294.267C898.195 294.486 900.28 294.681 902.389 294.892ZM1578.7 143.828C1579.15 143.388 1579.6 142.948 1580.05 142.514C1579.03 143.32 1578 144.136 1576.95 144.964C1577.53 144.586 1578.13 144.2 1578.7 143.828ZM1575.67 146.783C1576.41 146.064 1577.13 145.365 1577.85 144.659C1576.9 145.273 1575.95 145.889 1574.98 146.519C1574.15 147.173 1573.3 147.84 1572.45 148.507C1573.54 147.923 1574.61 147.354 1575.67 146.783ZM1585.19 138.125L1586.31 136.742C1585.44 137.594 1584.55 138.46 1583.66 139.34L1585.19 138.125ZM907.659 294.887C904.44 294.41 901.197 293.916 897.952 293.42C895.537 293.325 893.11 293.221 890.682 293.115C893.748 293.528 896.823 293.945 899.852 294.332C902.457 294.519 905.072 294.714 907.659 294.887ZM918.135 296.431C915.479 296.052 912.802 295.659 910.112 295.258C907.953 295.116 905.809 294.986 903.639 294.834C906.414 295.183 909.134 295.496 911.893 295.834C913.971 296.032 916.069 296.243 918.135 296.431ZM926.326 297.567C924.992 297.382 923.657 297.196 922.329 297.013C921.595 296.947 920.87 296.891 920.135 296.824C922.199 297.072 924.284 297.334 926.326 297.567ZM1582.65 141.263C1583.27 140.5 1583.88 139.745 1584.48 138.999L1582.84 140.299L1581.98 140.982C1581.26 141.689 1580.55 142.387 1579.81 143.11L1582.65 141.263ZM1580.09 144.413C1580.8 143.552 1581.49 142.693 1582.17 141.852C1581.11 142.543 1580.05 143.234 1578.95 143.945C1578.14 144.738 1577.33 145.534 1576.49 146.344C1577.72 145.69 1578.91 145.049 1580.09 144.413ZM1590.69 132.104C1590.99 131.626 1591.29 131.15 1591.58 130.68C1590.86 131.558 1590.13 132.453 1589.4 133.363C1589.83 132.939 1590.26 132.519 1590.69 132.104ZM1588.64 135.393C1589.14 134.592 1589.63 133.8 1590.12 133.017C1589.42 133.697 1588.71 134.388 1588 135.089C1587.39 135.832 1586.78 136.587 1586.17 137.35C1587 136.688 1587.83 136.035 1588.64 135.393ZM1586.59 138.707L1587.66 136.969L1588.26 136.008C1587.34 136.733 1586.41 137.471 1585.46 138.221L1585.38 138.32C1584.73 139.124 1584.06 139.955 1583.4 140.78L1583.68 140.592L1586.59 138.707ZM1584.51 142.038C1585.11 141.073 1585.71 140.119 1586.29 139.176L1583.91 140.728L1582.92 141.369C1582.2 142.26 1581.46 143.165 1580.72 144.076C1582.01 143.385 1583.27 142.706 1584.51 142.038ZM917.927 295.53C914.482 294.964 910.965 294.354 907.462 293.754C904.946 293.669 902.431 293.585 899.903 293.489C903.351 294.016 906.807 294.549 910.211 295.047C912.793 295.216 915.361 295.373 917.927 295.53ZM929.882 297.446C926.602 296.923 923.346 296.414 920.046 295.88C917.594 295.733 915.13 295.577 912.663 295.418C915.946 295.895 919.185 296.346 922.438 296.803C924.93 297.025 927.407 297.236 929.882 297.446ZM940.03 299.063C937.675 298.698 935.277 298.309 932.886 297.925C930.811 297.753 928.716 297.566 926.629 297.384C929.187 297.743 931.754 298.105 934.286 298.446C936.211 298.658 938.116 298.858 940.03 299.063ZM947.304 300.162C946.515 300.042 945.735 299.93 944.947 299.812C943.988 299.711 943.016 299.603 942.055 299.5C943.823 299.733 945.545 299.936 947.304 300.162ZM1595.26 125.819C1595.48 125.335 1595.71 124.854 1595.93 124.379C1595.36 125.266 1594.78 126.172 1594.19 127.094C1594.55 126.664 1594.9 126.239 1595.26 125.819ZM1593.67 129.231C1594.05 128.401 1594.43 127.581 1594.81 126.774C1594.22 127.474 1593.63 128.186 1593.04 128.909C1592.55 129.685 1592.05 130.471 1591.56 131.268C1592.27 130.577 1592.98 129.898 1593.67 129.231ZM1592.09 132.682C1592.53 131.732 1592.95 130.794 1593.38 129.87C1592.59 130.624 1591.8 131.394 1590.99 132.178C1590.43 133.061 1589.88 133.958 1589.31 134.866C1590.25 134.124 1591.18 133.396 1592.09 132.682ZM1590.51 136.164L1590.78 135.565L1591.87 133.167C1590.91 133.922 1589.93 134.693 1588.93 135.479L1587.97 137.019L1587.16 138.335C1588.29 137.597 1589.41 136.872 1590.51 136.164ZM1588.91 139.67C1589.39 138.621 1589.86 137.584 1590.33 136.559C1589.19 137.293 1588.04 138.04 1586.87 138.804C1586.26 139.778 1585.65 140.764 1585.03 141.761L1587.83 140.253L1588.91 139.67ZM928.637 296.171C924.796 295.481 920.942 294.782 917.058 294.067C914.439 293.993 911.796 293.9 909.161 293.814C912.839 294.441 916.535 295.078 920.151 295.669C922.982 295.838 925.827 296.018 928.637 296.171ZM941.187 298.391C937.565 297.759 933.94 297.125 930.279 296.47C927.66 296.329 925.032 296.18 922.396 296.026C925.944 296.598 929.473 297.159 932.993 297.714C935.728 297.942 938.475 298.179 941.187 298.391ZM953.11 300.447C949.897 299.904 946.645 299.338 943.392 298.771C940.932 298.582 938.475 298.395 935.996 298.193C939.034 298.673 942.058 299.147 945.054 299.602C947.737 299.882 950.451 300.182 953.11 300.447ZM964.375 302.31C961.554 301.848 958.768 301.406 955.929 300.933C954.081 300.752 952.254 300.584 950.395 300.396C952.658 300.733 954.932 301.076 957.18 301.405C959.567 301.699 962.009 302.028 964.375 302.31ZM970.71 303.342C970.127 303.248 969.538 303.151 968.953 303.056C968.366 302.987 967.795 302.928 967.206 302.859C968.384 303.025 969.538 303.178 970.71 303.342ZM1598.94 119.342C1599.1 118.857 1599.26 118.378 1599.42 117.903C1598.98 118.785 1598.53 119.687 1598.08 120.609C1598.36 120.181 1598.65 119.759 1598.94 119.342ZM1597.79 122.842C1598.06 121.992 1598.34 121.155 1598.61 120.33C1598.13 121.039 1597.65 121.761 1597.16 122.497C1596.78 123.293 1596.4 124.103 1596.01 124.924C1596.61 124.217 1597.2 123.522 1597.79 122.842ZM1596.66 126.398C1596.97 125.418 1597.27 124.452 1597.58 123.501C1596.91 124.274 1596.24 125.066 1595.56 125.873C1595.14 126.788 1594.7 127.717 1594.27 128.661C1595.08 127.89 1595.88 127.135 1596.66 126.398ZM1595.54 130C1595.86 128.95 1596.18 127.916 1596.5 126.897C1595.67 127.677 1594.83 128.478 1593.98 129.297C1593.53 130.275 1593.07 131.268 1592.61 132.275C1593.6 131.5 1594.58 130.74 1595.54 130ZM1594.42 133.639C1594.76 132.547 1595.09 131.469 1595.41 130.405C1594.43 131.171 1593.42 131.956 1592.39 132.76C1591.97 133.692 1591.54 134.637 1591.1 135.593L1590.98 135.858C1592.15 135.101 1593.3 134.36 1594.42 133.639ZM1593.29 137.31C1593.63 136.217 1593.96 135.136 1594.29 134.07L1594.31 133.986C1593.17 134.723 1592 135.479 1590.8 136.253C1590.32 137.299 1589.84 138.359 1589.35 139.432C1590.69 138.707 1592.01 137.999 1593.29 137.31ZM938.627 296.67C934.578 295.888 930.502 295.091 926.406 294.281C923.772 294.223 921.148 294.171 918.499 294.1C922.48 294.833 926.44 295.554 930.369 296.258C933.136 296.406 935.878 296.537 938.627 296.67ZM951.62 299.157C947.838 298.447 943.996 297.704 940.156 296.962C937.449 296.833 934.735 296.7 932.01 296.556C935.864 297.242 939.665 297.896 943.482 298.56C946.21 298.769 948.915 298.962 951.62 299.157ZM964.407 301.511C960.764 300.846 957.148 300.195 953.469 299.511C950.885 299.328 948.291 299.137 945.685 298.94C949.141 299.542 952.606 300.149 956.006 300.72C958.827 300.996 961.611 301.25 964.407 301.511ZM976.177 303.648C973.113 303.103 970.003 302.534 966.895 301.966C964.338 301.731 961.771 301.489 959.193 301.241C962.477 301.78 965.747 302.311 969.012 302.84C971.42 303.121 973.788 303.377 976.177 303.648ZM987.852 305.677C985.182 305.217 982.498 304.748 979.815 304.28C977.7 304.045 975.577 303.806 973.447 303.562C976.094 303.987 978.715 304.397 981.334 304.806C983.509 305.098 985.692 305.395 987.852 305.677ZM993.976 306.741C993.517 306.664 993.048 306.58 992.584 306.5C992.218 306.452 991.857 306.408 991.49 306.361C992.316 306.486 993.153 306.618 993.976 306.741ZM1601.82 112.75C1601.92 112.269 1602.03 111.794 1602.14 111.323C1601.8 112.192 1601.46 113.083 1601.13 113.994C1601.36 113.574 1601.59 113.16 1601.82 112.75ZM1601.06 116.301C1601.24 115.439 1601.42 114.59 1601.59 113.757C1601.21 114.464 1600.82 115.188 1600.44 115.925C1600.15 116.736 1599.87 117.559 1599.59 118.398C1600.08 117.684 1600.58 116.984 1601.06 116.301ZM1600.35 119.925C1600.54 118.925 1600.74 117.94 1600.93 116.973C1600.38 117.753 1599.82 118.552 1599.26 119.372C1598.95 120.308 1598.63 121.261 1598.32 122.23C1599 121.442 1599.68 120.673 1600.35 119.925ZM1599.67 123.614C1599.86 122.537 1600.06 121.477 1600.26 120.434C1599.55 121.229 1598.83 122.047 1598.11 122.886C1597.78 123.893 1597.46 124.916 1597.13 125.957C1597.99 125.154 1598.84 124.372 1599.67 123.614ZM1599 127.354C1599.2 126.228 1599.4 125.118 1599.59 124.026C1598.73 124.812 1597.86 125.621 1596.98 126.453C1596.64 127.506 1596.31 128.577 1595.98 129.663C1597 128.871 1598.01 128.101 1599 127.354ZM1598.33 131.138C1598.54 129.979 1598.74 128.834 1598.94 127.706C1597.93 128.47 1596.9 129.258 1595.85 130.067C1595.52 131.154 1595.18 132.256 1594.83 133.373C1596.03 132.607 1597.19 131.862 1598.33 131.138ZM1597.67 134.961L1598.1 132.505L1598.28 131.449C1597.12 132.184 1595.94 132.941 1594.73 133.72L1594.62 134.078C1594.31 135.072 1594 136.079 1593.69 137.095C1595.05 136.364 1596.38 135.653 1597.67 134.961ZM948.7 297.154C944.44 296.279 940.162 295.394 935.845 294.487C933.151 294.443 930.421 294.37 927.709 294.312C931.916 295.14 936.088 295.948 940.251 296.751C943.068 296.885 945.905 297.035 948.7 297.154ZM962.39 299.924C958.264 299.097 954.141 298.27 949.967 297.417C947.253 297.303 944.513 297.172 941.778 297.044C945.724 297.805 949.681 298.574 953.562 299.3C956.505 299.509 959.472 299.732 962.39 299.924ZM975.596 302.55C971.755 301.801 967.852 301.018 963.952 300.236C961.167 300.055 958.358 299.86 955.548 299.664C959.383 300.374 963.184 301.064 966.982 301.754C969.849 302.017 972.754 302.304 975.596 302.55ZM988.732 305.062C985.029 304.36 981.322 303.654 977.584 302.931C974.895 302.701 972.18 302.453 969.468 302.208C972.965 302.84 976.436 303.458 979.889 304.066C982.827 304.392 985.825 304.754 988.732 305.062ZM1000.67 307.301C997.514 306.717 994.349 306.13 991.156 305.526C988.631 305.262 986.069 304.975 983.522 304.698C986.575 305.233 989.635 305.771 992.65 306.285C995.334 306.629 998.016 306.972 1000.67 307.301ZM1011.62 309.301C1009.31 308.885 1006.97 308.454 1004.64 308.026C1002.43 307.757 1000.16 307.456 997.929 307.176C1000.52 307.607 1003.09 308.026 1005.66 308.45C1007.65 308.737 1009.64 309.023 1011.62 309.301ZM1018.46 310.526C1018.2 310.48 1017.95 310.438 1017.69 310.393C1017.31 310.34 1016.92 310.279 1016.54 310.227C1017.18 310.331 1017.81 310.423 1018.46 310.526ZM1603.59 109.691C1603.67 108.823 1603.77 107.971 1603.87 107.134C1603.56 107.835 1603.25 108.553 1602.95 109.289C1602.75 110.101 1602.56 110.93 1602.36 111.775C1602.77 111.062 1603.18 110.367 1603.59 109.691ZM1603.25 113.348C1603.34 112.336 1603.42 111.34 1603.52 110.365C1603.06 111.141 1602.6 111.941 1602.14 112.764C1601.93 113.71 1601.73 114.677 1601.53 115.662C1602.1 114.868 1602.68 114.096 1603.25 113.348ZM1602.96 117.086C1603.04 115.992 1603.12 114.917 1603.21 113.861C1602.61 114.656 1602 115.479 1601.39 116.326C1601.18 117.351 1600.98 118.395 1600.77 119.458C1601.51 118.642 1602.24 117.851 1602.96 117.086ZM1602.71 120.891C1602.78 119.743 1602.85 118.613 1602.93 117.502C1602.19 118.294 1601.44 119.115 1600.68 119.963C1600.47 121.04 1600.27 122.136 1600.07 123.251C1600.96 122.438 1601.84 121.651 1602.71 120.891ZM1602.48 124.757C1602.54 123.569 1602.61 122.398 1602.68 121.246C1601.8 122.024 1600.9 122.829 1599.99 123.662C1599.79 124.778 1599.59 125.913 1599.38 127.064C1600.43 126.269 1601.47 125.499 1602.48 124.757ZM1602.26 128.673C1602.32 127.455 1602.39 126.254 1602.46 125.07C1601.43 125.824 1600.39 126.606 1599.32 127.415C1599.12 128.56 1598.91 129.723 1598.71 130.901C1599.92 130.133 1601.1 129.39 1602.26 128.673ZM1602.04 132.633L1602.14 130.887L1602.24 128.956C1601.08 129.682 1599.88 130.435 1598.65 131.212L1598.43 132.496L1598.03 134.765C1599.41 134.03 1600.74 133.32 1602.04 132.633ZM958.311 297.511C953.915 296.559 949.459 295.575 944.994 294.587C942.338 294.558 939.698 294.542 937.025 294.5C941.402 295.419 945.747 296.32 950.06 297.205C952.828 297.319 955.563 297.411 958.311 297.511ZM972.429 300.529C968.161 299.627 963.859 298.706 959.531 297.772C956.802 297.674 954.076 297.58 951.327 297.467C955.602 298.34 959.819 299.179 964.043 300.024C966.859 300.205 969.638 300.363 972.429 300.529ZM986.254 303.412C982.135 302.561 978.015 301.71 973.845 300.832C971.106 300.671 968.368 300.511 965.607 300.335C969.651 301.143 973.684 301.943 977.671 302.718C980.556 302.965 983.395 303.183 986.254 303.412ZM999.549 306.137C995.739 305.369 991.872 304.571 988.004 303.773C985.23 303.553 982.458 303.335 979.659 303.098C983.538 303.849 987.397 304.587 991.229 305.311C994.031 305.604 996.773 305.861 999.549 306.137ZM1012.78 308.761C1009.13 308.046 1005.47 307.317 1001.78 306.58C999.07 306.313 996.371 306.054 993.635 305.772C997.362 306.47 1001.03 307.138 1004.72 307.814C1007.43 308.143 1010.09 308.446 1012.78 308.761ZM1025.22 311.169C1021.97 310.547 1018.73 309.93 1015.45 309.29C1013.06 309.014 1010.69 308.754 1008.28 308.465C1011.48 309.048 1014.66 309.627 1017.81 310.186C1020.31 310.531 1022.74 310.837 1025.22 311.169ZM1036.35 313.288C1033.94 312.838 1031.5 312.366 1029.06 311.899C1027.09 311.64 1025.12 311.382 1023.14 311.115C1025.57 311.539 1028.01 311.97 1030.43 312.385C1032.4 312.686 1034.39 312.994 1036.35 313.288ZM1042.75 314.462C1042.55 314.426 1042.35 314.391 1042.16 314.355L1041.66 314.282C1042.02 314.343 1042.38 314.402 1042.75 314.462ZM1606.2 126.256C1606.13 124.99 1606.07 123.74 1606 122.509C1604.96 123.244 1603.9 124.013 1602.81 124.813C1602.74 126.011 1602.67 127.227 1602.6 128.458C1603.84 127.693 1605.03 126.959 1606.2 126.256ZM1606.42 130.334L1606.36 129.225L1606.21 126.517C1605.04 127.227 1603.83 127.968 1602.59 128.741L1602.47 130.86L1602.38 132.451C1603.77 131.716 1605.12 131.01 1606.42 130.334ZM968.149 297.87C963.528 296.823 958.889 295.766 954.209 294.686C951.528 294.673 948.804 294.626 946.105 294.599C950.638 295.6 955.159 296.595 959.628 297.56C962.466 297.661 965.334 297.785 968.149 297.87ZM982.665 301.135C978.225 300.151 973.722 299.133 969.214 298.111C966.446 298.028 963.639 297.918 960.848 297.821C965.237 298.768 969.614 299.708 973.939 300.62C976.844 300.791 979.786 300.983 982.665 301.135ZM996.998 304.277C992.673 303.34 988.31 302.382 983.923 301.411C981.089 301.263 978.213 301.088 975.354 300.923C979.637 301.822 983.862 302.69 988.092 303.56C991.054 303.795 994.066 304.062 996.998 304.277ZM1010.99 307.273C1006.82 306.389 1002.66 305.505 998.435 304.593C995.598 304.386 992.706 304.145 989.841 303.922C993.873 304.749 997.887 305.569 1001.86 306.367C1004.9 306.666 1007.99 306.994 1010.99 307.273ZM1024.48 310.109C1020.64 309.315 1016.76 308.494 1012.86 307.668C1009.97 307.404 1007.01 307.092 1004.09 306.809C1007.92 307.576 1011.75 308.34 1015.53 309.077C1018.51 309.423 1021.53 309.782 1024.48 310.109ZM1037.82 312.835C1034.22 312.109 1030.59 311.364 1026.95 310.613C1024.08 310.3 1021.13 309.941 1018.22 309.61C1021.9 310.322 1025.52 311.001 1029.16 311.691C1032.04 312.072 1034.97 312.472 1037.82 312.835ZM1050.29 315.318C1047.03 314.675 1043.79 314.043 1040.5 313.382C1038.01 313.07 1035.5 312.747 1032.99 312.42C1036.1 313.008 1039.19 313.582 1042.26 314.148C1044.94 314.541 1047.64 314.939 1050.29 315.318ZM1060.88 317.399C1058.77 316.992 1056.61 316.563 1054.47 316.139C1052.45 315.856 1050.39 315.549 1048.36 315.258C1050.75 315.695 1053.17 316.142 1055.54 316.565C1057.34 316.853 1059.09 317.117 1060.88 317.399ZM1067.64 318.678L1067.57 318.665L1067.5 318.655L1067.64 318.678ZM977.481 298.097C972.707 296.97 967.931 295.842 963.09 294.679C960.467 294.681 957.869 294.702 955.229 294.69C959.959 295.779 964.637 296.842 969.304 297.898C972.052 297.979 974.755 298.031 977.481 298.097ZM992.453 301.595C987.824 300.523 983.179 299.442 978.488 298.336C975.784 298.272 973.093 298.218 970.369 298.139C974.944 299.174 979.504 300.2 984.012 301.199C986.849 301.347 989.64 301.464 992.453 301.595ZM1007.05 304.953C1002.62 303.949 998.131 302.909 993.632 301.867C990.847 301.739 988.078 301.619 985.27 301.475C989.713 302.458 994.142 303.433 998.519 304.38C1001.39 304.589 1004.21 304.761 1007.05 304.953ZM1021.48 308.184C1017.16 307.225 1012.82 306.255 1008.45 305.265C1005.62 305.077 1002.81 304.9 999.955 304.695C1004.32 305.637 1008.63 306.543 1012.93 307.454C1015.82 307.718 1018.63 307.937 1021.48 308.184ZM1035.68 311.296C1031.49 310.387 1027.31 309.477 1023.07 308.54C1020.27 308.3 1017.51 308.08 1014.68 307.823C1018.82 308.697 1022.94 309.557 1027.02 310.4C1029.94 310.719 1032.79 310.995 1035.68 311.296ZM1049.34 314.24C1045.47 313.419 1041.55 312.57 1037.62 311.717C1034.82 311.429 1032.04 311.153 1029.21 310.848C1033.02 311.633 1036.83 312.419 1040.59 313.173C1043.53 313.542 1046.43 313.889 1049.34 314.24ZM1062.65 317.028C1059.07 316.286 1055.47 315.529 1051.85 314.766C1049.05 314.432 1046.23 314.087 1043.4 313.736C1047.15 314.481 1050.85 315.205 1054.55 315.929C1057.28 316.311 1059.95 316.661 1062.65 317.028ZM1075.55 319.665C1072.25 318.998 1068.97 318.34 1065.64 317.654C1063.16 317.322 1060.68 316.988 1058.18 316.642C1061.37 317.261 1064.51 317.859 1067.66 318.458C1070.3 318.865 1072.94 319.273 1075.55 319.665ZM1086.08 321.791C1083.93 321.364 1081.74 320.916 1079.56 320.474C1077.74 320.205 1075.96 319.955 1074.14 319.679C1076.15 320.06 1078.18 320.449 1080.17 320.817C1082.15 321.148 1084.11 321.467 1086.08 321.791ZM986.919 298.327C982.038 297.131 977.098 295.907 972.133 294.668C969.464 294.684 966.761 294.675 964.074 294.678C968.952 295.85 973.771 296.99 978.579 298.123C981.357 298.189 984.164 298.277 986.919 298.327ZM1002.37 302.061C997.551 300.904 992.75 299.754 987.869 298.562C985.133 298.513 982.344 298.427 979.587 298.363C984.338 299.482 989.033 300.571 993.72 301.655C996.598 301.787 999.515 301.946 1002.37 302.061ZM1017.45 305.651C1012.8 304.557 1008.14 303.448 1003.43 302.318C1000.61 302.206 997.739 302.056 994.898 301.927C999.47 302.984 1004.03 304.032 1008.53 305.053C1011.5 305.25 1014.51 305.473 1017.45 305.651ZM1032.12 309.092C1027.71 308.071 1023.22 307.011 1018.73 305.953C1015.83 305.779 1012.85 305.557 1009.92 305.364C1014.36 306.367 1018.77 307.357 1023.15 308.326C1026.14 308.582 1029.16 308.856 1032.12 309.092ZM1046.87 312.453C1042.49 311.461 1038.1 310.466 1033.66 309.444C1030.72 309.212 1027.71 308.932 1024.74 308.682C1029.1 309.644 1033.4 310.572 1037.7 311.505C1040.75 311.819 1043.85 312.16 1046.87 312.453ZM1060.97 315.609C1056.83 314.691 1052.68 313.768 1048.48 312.821C1045.57 312.54 1042.59 312.226 1039.64 311.927C1043.77 312.819 1047.88 313.697 1051.95 314.558C1054.97 314.919 1057.98 315.268 1060.97 315.609ZM1074.75 318.644C1070.86 317.8 1066.91 316.925 1062.96 316.049C1060.13 315.73 1057.31 315.42 1054.45 315.083C1058.23 315.88 1062.01 316.678 1065.73 317.445C1068.75 317.851 1071.77 318.259 1074.75 318.644ZM1088.23 321.525C1084.59 320.753 1080.92 319.968 1077.24 319.176C1074.47 318.822 1071.7 318.467 1068.9 318.096C1072.51 318.832 1076.07 319.548 1079.64 320.265C1082.51 320.691 1085.39 321.117 1088.23 321.525ZM1100.85 324.168C1097.73 323.521 1094.63 322.883 1091.48 322.22C1088.89 321.854 1086.25 321.453 1083.63 321.072C1086.97 321.737 1090.27 322.38 1093.57 323.024C1096.02 323.418 1098.42 323.786 1100.85 324.168ZM1111.73 326.413C1109.58 325.975 1107.38 325.518 1105.2 325.064C1103.32 324.774 1101.44 324.484 1099.55 324.186C1101.55 324.574 1103.55 324.971 1105.52 325.345C1107.6 325.706 1109.67 326.061 1111.73 326.413ZM996.053 298.44C991.052 297.176 985.988 295.878 980.908 294.571C978.298 294.602 975.709 294.648 973.084 294.667C978.078 295.912 983.051 297.148 987.959 298.348C990.682 298.396 993.351 298.407 996.053 298.44ZM1011.79 302.381C1006.88 301.161 1001.93 299.924 996.948 298.665C994.256 298.633 991.589 298.619 988.875 298.573C993.805 299.776 998.656 300.937 1003.52 302.104C1006.3 302.215 1009.03 302.287 1011.79 302.381ZM1027.28 306.19C1022.47 305.017 1017.66 303.839 1012.78 302.631C1010.04 302.538 1007.32 302.463 1004.56 302.355C1009.35 303.504 1014.09 304.627 1018.82 305.74C1021.67 305.911 1024.45 306.037 1027.28 306.19ZM1042.44 309.865C1037.81 308.753 1033.12 307.617 1028.42 306.469C1025.61 306.319 1022.85 306.189 1020.02 306.022C1024.62 307.106 1029.21 308.185 1033.74 309.231C1036.68 309.462 1039.54 309.652 1042.44 309.865ZM1057.36 313.413C1052.87 312.356 1048.32 311.27 1043.76 310.178C1040.91 309.972 1038.12 309.796 1035.24 309.572C1039.71 310.601 1044.15 311.612 1048.56 312.608C1051.52 312.893 1054.43 313.146 1057.36 313.413ZM1072.19 316.855C1067.76 315.833 1063.34 314.82 1058.86 313.769C1055.97 313.509 1053.09 313.253 1050.17 312.975C1054.5 313.951 1058.78 314.895 1063.05 315.84C1066.11 316.185 1069.17 316.53 1072.19 316.855ZM1086.47 320.114C1082.34 319.182 1078.19 318.237 1074 317.274C1071.05 316.961 1068.03 316.614 1065.04 316.28C1069.17 317.191 1073.27 318.09 1077.33 318.968C1080.39 319.359 1083.44 319.744 1086.47 320.114ZM1100.18 323.191C1096.39 322.353 1092.53 321.48 1088.68 320.61C1085.75 320.256 1082.78 319.872 1079.82 319.498C1083.75 320.347 1087.69 321.193 1091.57 322.011C1094.47 322.423 1097.31 322.798 1100.18 323.191ZM1114.03 326.206C1110.32 325.404 1106.6 324.599 1102.86 323.777C1100.09 323.403 1097.33 323.03 1094.54 322.638C1098.15 323.393 1101.72 324.124 1105.29 324.859C1108.21 325.311 1111.15 325.773 1114.03 326.206ZM1126.53 328.881C1123.4 328.22 1120.28 327.558 1117.12 326.877C1114.63 326.508 1112.14 326.137 1109.63 325.754C1112.88 326.417 1116.09 327.059 1119.3 327.702C1121.73 328.108 1124.12 328.487 1126.53 328.881ZM1137.69 331.226C1135.54 330.781 1133.36 330.318 1131.19 329.86C1129.29 329.555 1127.37 329.238 1125.45 328.925C1127.43 329.319 1129.43 329.723 1131.38 330.105C1133.49 330.482 1135.6 330.858 1137.69 331.226ZM1005.28 298.545C1000.12 297.202 994.906 295.833 989.675 294.453C987.059 294.498 984.419 294.526 981.786 294.559C986.904 295.873 992.001 297.179 997.039 298.451C999.785 298.483 1002.55 298.529 1005.28 298.545ZM1021.33 302.7C1016.32 301.419 1011.23 300.094 1006.14 298.769C1003.43 298.754 1000.67 298.706 997.935 298.676C1002.95 299.943 1007.93 301.192 1012.87 302.417C1015.69 302.512 1018.53 302.623 1021.33 302.7ZM1037.19 306.718C1032.25 305.473 1027.3 304.23 1022.29 302.948C1019.51 302.872 1016.67 302.758 1013.87 302.667C1018.79 303.886 1023.65 305.072 1028.5 306.255C1031.4 306.411 1034.33 306.581 1037.19 306.718ZM1052.73 310.597C1047.94 309.413 1043.13 308.214 1038.28 306.994C1035.43 306.86 1032.52 306.686 1029.64 306.534C1034.41 307.695 1039.14 308.84 1043.83 309.964C1046.8 310.179 1049.79 310.401 1052.73 310.597ZM1068.05 314.368C1063.41 313.24 1058.69 312.073 1053.97 310.904C1051.06 310.713 1048.09 310.488 1045.15 310.277C1049.77 311.383 1054.39 312.489 1058.94 313.557C1061.98 313.83 1065.04 314.116 1068.05 314.368ZM1083.01 317.967C1078.5 316.891 1073.97 315.802 1069.4 314.694C1066.45 314.449 1063.47 314.182 1060.48 313.917C1065.06 314.988 1069.58 316.027 1074.1 317.066C1077.1 317.385 1080.04 317.669 1083.01 317.967ZM1097.79 321.456C1093.4 320.429 1089 319.398 1084.55 318.338C1081.65 318.05 1078.78 317.779 1075.85 317.471C1080.19 318.467 1084.49 319.439 1088.78 320.404C1091.81 320.771 1094.79 321.109 1097.79 321.456ZM1112.21 324.808C1108.05 323.853 1103.84 322.872 1099.61 321.884C1096.72 321.553 1093.85 321.237 1090.92 320.886C1094.96 321.793 1098.98 322.697 1102.95 323.572C1106.05 323.991 1109.15 324.409 1112.21 324.808ZM1126.17 327.983C1122.28 327.107 1118.33 326.206 1114.38 325.301C1111.49 324.929 1108.6 324.554 1105.67 324.162C1109.54 325.009 1113.39 325.85 1117.21 326.671C1120.21 327.118 1123.2 327.556 1126.17 327.983ZM1139.85 331.017C1136.19 330.212 1132.56 329.421 1128.87 328.596C1126.04 328.192 1123.15 327.761 1120.29 327.34C1123.99 328.132 1127.64 328.89 1131.3 329.659C1134.16 330.12 1137.01 330.574 1139.85 331.017ZM1152.41 333.762C1149.34 333.1 1146.24 332.425 1143.13 331.741C1140.73 331.369 1138.36 331.017 1135.93 330.631C1139.01 331.275 1142.07 331.903 1145.12 332.526C1147.57 332.95 1149.98 333.351 1152.41 333.762ZM1163.86 336.203C1161.71 335.749 1159.53 335.281 1157.37 334.819C1155.48 334.505 1153.56 334.175 1151.65 333.852C1153.65 334.258 1155.67 334.673 1157.65 335.067C1159.72 335.449 1161.8 335.83 1163.86 336.203ZM1014.22 298.557C1008.95 297.149 1003.63 295.717 998.282 294.272C995.703 294.331 993.128 294.395 990.532 294.441C995.796 295.829 1001.04 297.205 1006.23 298.556C1008.92 298.571 1011.56 298.556 1014.22 298.557ZM1030.59 302.907C1025.45 301.557 1020.23 300.162 1015.02 298.769C1012.37 298.77 1009.76 298.793 1007.1 298.78C1012.22 300.112 1017.34 301.448 1022.38 302.735C1025.14 302.81 1027.85 302.849 1030.59 302.907ZM1046.77 307.128C1041.71 305.819 1036.61 304.489 1031.48 303.14C1028.76 303.084 1026.09 303.053 1023.35 302.98C1028.4 304.27 1033.39 305.529 1038.37 306.781C1041.2 306.914 1043.97 307.013 1046.77 307.128ZM1062.71 311.222C1057.75 309.958 1052.77 308.685 1047.74 307.383C1044.98 307.27 1042.25 307.185 1039.46 307.056C1044.36 308.288 1049.22 309.496 1054.05 310.691C1056.96 310.882 1059.83 311.05 1062.71 311.222ZM1078.35 315.182C1073.55 313.979 1068.69 312.745 1063.81 311.502C1060.97 311.335 1058.17 311.184 1055.3 310.999C1060.06 312.175 1064.8 313.345 1069.48 314.482C1072.46 314.729 1075.4 314.955 1078.35 315.182ZM1093.84 319.042C1089.15 317.887 1084.39 316.696 1079.63 315.502C1076.71 315.279 1073.79 315.05 1070.84 314.807C1075.47 315.931 1080.08 317.043 1084.65 318.131C1087.72 318.436 1090.81 318.758 1093.84 319.042ZM1109.02 322.737C1104.43 321.627 1099.85 320.521 1095.19 319.378C1092.22 319.103 1089.2 318.799 1086.19 318.502C1090.74 319.583 1095.22 320.63 1099.71 321.677C1102.82 322.034 1105.95 322.403 1109.02 322.737ZM1123.77 326.275C1119.4 325.24 1115.01 324.187 1110.58 323.117C1107.59 322.795 1104.56 322.448 1101.53 322.105C1105.88 323.118 1110.19 324.116 1114.47 325.095C1117.59 325.497 1120.69 325.896 1123.77 326.275ZM1138 329.64C1133.97 328.7 1129.85 327.72 1125.75 326.744C1122.75 326.377 1119.68 325.977 1116.64 325.588C1120.77 326.533 1124.91 327.482 1128.96 328.392C1132.01 328.825 1135 329.227 1138 329.64ZM1152.43 332.956C1148.43 332.04 1144.4 331.116 1140.34 330.176C1137.47 329.787 1134.62 329.407 1131.71 328.998C1135.57 329.856 1139.41 330.702 1143.23 331.538C1146.31 332.014 1149.4 332.501 1152.43 332.956ZM1165.9 335.998C1162.31 335.195 1158.72 334.391 1155.08 333.564C1152.25 333.145 1149.37 332.699 1146.51 332.261C1150.2 333.065 1153.85 333.842 1157.49 334.622C1160.32 335.093 1163.11 335.545 1165.9 335.998ZM1178.38 338.777C1175.41 338.126 1172.39 337.447 1169.37 336.772C1166.95 336.384 1164.55 336.008 1162.11 335.606C1165.14 336.253 1168.17 336.893 1171.16 337.517C1173.59 337.948 1175.98 338.359 1178.38 338.777ZM1190.14 341.314C1187.97 340.851 1185.8 340.377 1183.63 339.91C1181.79 339.595 1179.92 339.264 1178.07 338.941C1180.13 339.366 1182.22 339.8 1184.26 340.216C1186.22 340.586 1188.18 340.953 1190.14 341.314ZM1023.15 298.542C1017.74 297.062 1012.31 295.571 1006.82 294.052C1004.25 294.126 1001.67 294.19 999.085 294.251C1004.46 295.703 1009.81 297.14 1015.11 298.555C1017.79 298.554 1020.48 298.557 1023.15 298.542ZM1039.87 303.09C1034.6 301.669 1029.27 300.217 1023.92 298.754C1021.27 298.771 1018.58 298.765 1015.9 298.768C1021.15 300.169 1026.4 301.568 1031.57 302.927C1034.34 302.984 1037.12 303.049 1039.87 303.09ZM1056.32 307.501C1051.17 306.134 1045.96 304.732 1040.73 303.322C1038 303.283 1035.22 303.215 1032.46 303.16C1037.62 304.515 1042.75 305.856 1047.83 307.169C1050.66 307.284 1053.51 307.404 1056.32 307.501ZM1072.56 311.779C1067.48 310.45 1062.41 309.121 1057.26 307.754C1054.47 307.659 1051.63 307.537 1048.8 307.424C1053.88 308.736 1058.89 310.015 1063.89 311.288C1066.79 311.46 1069.69 311.626 1072.56 311.779ZM1088.61 315.952C1083.65 314.673 1078.65 313.375 1073.62 312.057C1070.76 311.908 1067.87 311.737 1064.99 311.569C1069.93 312.827 1074.85 314.072 1079.72 315.29C1082.69 315.518 1085.67 315.745 1088.61 315.952ZM1104.22 319.956C1099.45 318.748 1094.6 317.494 1089.75 316.245C1086.85 316.043 1083.93 315.831 1081 315.61C1085.78 316.809 1090.58 318.011 1095.28 319.169C1098.29 319.448 1101.25 319.699 1104.22 319.956ZM1119.76 323.856C1115.05 322.681 1110.32 321.499 1105.54 320.29C1102.6 320.037 1099.65 319.782 1096.67 319.508C1101.38 320.663 1106.03 321.788 1110.67 322.91C1113.73 323.239 1116.74 323.547 1119.76 323.856ZM1134.94 327.607C1130.39 326.493 1125.84 325.372 1121.23 324.225C1118.25 323.924 1115.25 323.611 1112.24 323.29C1116.81 324.393 1121.34 325.472 1125.85 326.541C1128.92 326.915 1131.91 327.253 1134.94 327.607ZM1149.83 331.234C1145.47 330.184 1141.05 329.104 1136.62 328.02C1133.66 327.677 1130.72 327.345 1127.72 326.982C1131.98 327.993 1136.24 328.998 1140.44 329.973C1143.58 330.4 1146.73 330.829 1149.83 331.234ZM1164.29 334.681C1160.15 333.702 1155.97 332.703 1151.77 331.695C1148.79 331.31 1145.79 330.914 1142.77 330.508C1146.93 331.472 1151.08 332.429 1155.18 333.362C1158.25 333.816 1161.27 334.247 1164.29 334.681ZM1178.72 338.046C1174.69 337.114 1170.68 336.188 1166.6 335.229C1163.66 334.813 1160.7 334.384 1157.72 333.946C1161.68 334.842 1165.58 335.703 1169.49 336.573C1172.57 337.068 1175.68 337.573 1178.72 338.046ZM1192.1 341.122C1188.56 340.318 1184.99 339.498 1181.4 338.668C1178.6 338.237 1175.78 337.794 1172.94 337.345C1176.58 338.149 1180.17 338.936 1183.75 339.715C1186.56 340.196 1189.33 340.658 1192.1 341.122ZM1204.88 343.997C1201.87 343.326 1198.81 342.633 1195.75 341.943C1193.35 341.545 1190.96 341.157 1188.53 340.746C1191.48 341.387 1194.44 342.033 1197.34 342.648C1199.88 343.111 1202.37 343.548 1204.88 343.997ZM1216.45 346.539C1214.25 346.059 1212.07 345.588 1209.86 345.101C1208.11 344.794 1206.33 344.473 1204.57 344.158C1206.74 344.61 1208.94 345.073 1211.1 345.521C1212.9 345.864 1214.67 346.202 1216.45 346.539ZM1031.9 298.457C1026.39 296.916 1020.87 295.373 1015.28 293.792C1012.73 293.879 1010.18 293.958 1007.61 294.032C1013.12 295.558 1018.58 297.054 1024.01 298.54C1026.66 298.522 1029.28 298.489 1031.9 298.457ZM1048.92 303.187C1043.53 301.698 1038.1 300.189 1032.63 298.66C1030.02 298.692 1027.42 298.734 1024.79 298.753C1030.17 300.223 1035.52 301.68 1040.82 303.109C1043.54 303.147 1046.23 303.164 1048.92 303.187ZM1065.67 307.79C1060.41 306.359 1055.07 304.882 1049.72 303.406C1047.04 303.385 1044.39 303.378 1041.69 303.341C1046.94 304.756 1052.18 306.169 1057.34 307.541C1060.14 307.636 1062.9 307.712 1065.67 307.79ZM1082.28 312.269C1077.06 310.868 1071.84 309.468 1066.54 308.027C1063.8 307.952 1061.06 307.886 1058.29 307.794C1063.48 309.171 1068.58 310.505 1073.7 311.843C1076.57 311.993 1079.44 312.138 1082.28 312.269ZM1098.59 316.614C1093.51 315.269 1088.4 313.911 1083.24 312.527C1080.42 312.398 1077.6 312.268 1074.76 312.121C1079.82 313.445 1084.84 314.748 1089.83 316.033C1092.77 316.237 1095.69 316.429 1098.59 316.614ZM1114.63 320.833C1109.7 319.549 1104.7 318.228 1099.69 316.903C1096.81 316.723 1093.89 316.526 1090.97 316.326C1095.89 317.592 1100.8 318.857 1105.64 320.082C1108.65 320.341 1111.66 320.596 1114.63 320.833ZM1130.41 324.909C1125.58 323.671 1120.72 322.414 1115.82 321.138C1112.88 320.907 1109.94 320.668 1106.97 320.415C1111.79 321.635 1116.58 322.836 1121.33 324.019C1124.38 324.328 1127.4 324.623 1130.41 324.909ZM1146.03 328.873C1141.28 327.676 1136.53 326.477 1131.72 325.245C1128.76 324.966 1125.8 324.689 1122.8 324.388C1127.48 325.553 1132.11 326.685 1136.72 327.815C1139.84 328.175 1142.95 328.535 1146.03 328.873ZM1161.21 332.676C1156.68 331.553 1152.1 330.404 1147.5 329.244C1144.49 328.917 1141.46 328.577 1138.41 328.227C1142.93 329.332 1147.42 330.423 1151.87 331.491C1155 331.896 1158.12 332.295 1161.21 332.676ZM1176.03 336.323C1171.73 335.278 1167.38 334.2 1163.01 333.12C1159.98 332.747 1156.88 332.347 1153.8 331.952C1158.13 332.991 1162.45 334.028 1166.71 335.03C1169.84 335.474 1172.94 335.902 1176.03 336.323ZM1190.76 339.869C1186.52 338.854 1182.28 337.845 1177.98 336.801C1175.03 336.402 1172.09 336.012 1169.1 335.591C1173.27 336.568 1177.39 337.518 1181.51 338.468C1184.61 338.947 1187.7 339.413 1190.76 339.869ZM1205.08 343.26C1201.14 342.336 1197.18 341.403 1193.18 340.45C1190.21 340.012 1187.19 339.547 1184.18 339.088C1188.11 339.991 1191.99 340.871 1195.87 341.747C1198.95 342.255 1202.04 342.772 1205.08 343.26ZM1218.41 346.371C1214.94 345.573 1211.41 344.742 1207.88 343.914C1205.1 343.472 1202.31 343.024 1199.5 342.565C1203.02 343.358 1206.53 344.147 1210 344.911C1212.82 345.408 1215.62 345.892 1218.41 346.371ZM1231.54 349.349C1228.43 348.648 1225.31 347.94 1222.18 347.228C1219.82 346.826 1217.48 346.437 1215.1 346.023C1218.17 346.694 1221.24 347.372 1224.28 348.025C1226.73 348.481 1229.12 348.906 1231.54 349.349ZM1242.77 351.863C1240.64 351.391 1238.53 350.927 1236.38 350.445C1234.62 350.128 1232.85 349.804 1231.08 349.48C1233.45 349.983 1235.8 350.476 1238.15 350.971C1239.7 351.274 1241.23 351.564 1242.77 351.863ZM1040.58 298.328C1034.95 296.723 1029.33 295.124 1023.62 293.476C1021.09 293.576 1018.57 293.676 1016.03 293.763C1021.64 295.352 1027.18 296.898 1032.72 298.445C1035.34 298.412 1037.97 298.376 1040.58 298.328ZM1057.9 303.239C1052.4 301.688 1046.87 300.122 1041.28 298.53C1038.68 298.579 1036.06 298.613 1033.44 298.647C1038.93 300.183 1044.39 301.697 1049.81 303.192C1052.51 303.214 1055.22 303.233 1057.9 303.239ZM1074.92 308.016C1069.57 306.525 1064.12 304.993 1058.68 303.458C1056.01 303.454 1053.3 303.431 1050.61 303.411C1055.98 304.894 1061.35 306.376 1066.63 307.813C1069.41 307.888 1072.17 307.957 1074.92 308.016ZM1091.77 312.663C1086.47 311.209 1081.16 309.747 1075.78 308.253C1073.04 308.197 1070.28 308.124 1067.51 308.05C1072.83 309.496 1078.08 310.907 1083.31 312.312C1086.15 312.441 1088.96 312.553 1091.77 312.663ZM1108.45 317.207C1103.23 315.794 1097.99 314.372 1092.7 312.92C1089.9 312.811 1087.1 312.696 1084.27 312.57C1089.48 313.967 1094.64 315.335 1099.78 316.692C1102.69 316.874 1105.58 317.045 1108.45 317.207ZM1124.8 321.609C1119.73 320.255 1114.6 318.87 1109.44 317.476C1106.6 317.318 1103.75 317.16 1100.87 316.981C1105.92 318.314 1110.94 319.638 1115.91 320.93C1118.89 321.165 1121.86 321.395 1124.8 321.609ZM1140.94 325.888C1135.98 324.584 1130.97 323.253 1125.94 321.91C1123.01 321.7 1120.05 321.468 1117.09 321.237C1122.03 322.521 1126.95 323.793 1131.81 325.039C1134.86 325.327 1137.93 325.622 1140.94 325.888ZM1156.79 330.014C1151.94 328.759 1147.1 327.509 1142.19 326.218C1139.2 325.958 1136.14 325.658 1133.11 325.375C1137.99 326.621 1142.79 327.829 1147.59 329.039C1150.68 329.375 1153.75 329.701 1156.79 330.014ZM1172.29 333.997C1167.62 332.809 1162.92 331.601 1158.18 330.376C1155.17 330.07 1152.12 329.739 1149.06 329.41C1153.79 330.598 1158.47 331.767 1163.12 332.918C1166.21 333.296 1169.24 333.642 1172.29 333.997ZM1187.61 337.88C1183.08 336.745 1178.46 335.568 1173.85 334.393C1170.86 334.049 1167.89 333.715 1164.86 333.348C1169.3 334.445 1173.73 335.544 1178.09 336.602C1181.27 337.033 1184.47 337.474 1187.61 337.88ZM1202.55 341.58C1198.17 340.5 1193.78 339.419 1189.34 338.311C1186.3 337.92 1183.21 337.506 1180.13 337.092C1184.55 338.162 1188.94 339.213 1193.3 340.254C1196.42 340.714 1199.48 341.143 1202.55 341.58ZM1217.3 345.176C1213.08 344.156 1208.85 343.13 1204.57 342.079C1201.6 341.661 1198.64 341.252 1195.63 340.811C1199.79 341.799 1203.89 342.759 1207.99 343.717C1211.11 344.213 1214.22 344.702 1217.3 345.176ZM1231.52 348.593C1227.66 347.679 1223.75 346.733 1219.83 345.786C1216.85 345.332 1213.81 344.845 1210.79 344.37C1214.65 345.271 1218.5 346.164 1222.31 347.035C1225.39 347.558 1228.48 348.091 1231.52 348.593ZM1245.23 351.81C1241.66 350.977 1238.05 350.129 1234.43 349.275C1231.67 348.824 1228.89 348.362 1226.09 347.893C1229.58 348.687 1233.07 349.484 1236.51 350.253C1239.43 350.781 1242.34 351.302 1245.23 351.81ZM1258.24 354.804C1255.07 354.082 1251.94 353.372 1248.74 352.632C1246.41 352.226 1244.11 351.838 1241.75 351.419C1244.87 352.109 1247.97 352.787 1251.05 353.463C1253.47 353.922 1255.84 354.358 1258.24 354.804ZM1269.17 357.293C1267.21 356.854 1265.21 356.395 1263.22 355.941C1261.35 355.597 1259.48 355.252 1257.59 354.9C1260.23 355.468 1262.79 356.002 1265.39 356.557C1266.67 356.81 1267.9 357.044 1269.17 357.293ZM1049.16 298.152C1043.46 296.496 1037.75 294.838 1031.96 293.138C1029.44 293.252 1026.9 293.346 1024.36 293.449C1030.09 295.1 1035.73 296.707 1041.38 298.316C1043.98 298.268 1046.58 298.214 1049.16 298.152ZM1066.75 303.231C1061.14 301.62 1055.51 299.998 1049.82 298.346C1047.25 298.41 1044.68 298.469 1042.08 298.519C1047.69 300.117 1053.24 301.687 1058.77 303.244C1061.44 303.248 1064.1 303.242 1066.75 303.231ZM1084.09 308.188C1078.6 306.632 1073.05 305.04 1067.48 303.439C1064.84 303.452 1062.21 303.465 1059.55 303.463C1065.02 305.005 1070.48 306.541 1075.87 308.038C1078.62 308.096 1081.37 308.149 1084.09 308.188ZM1101.25 313.025C1095.83 311.507 1090.38 309.972 1084.88 308.412C1082.17 308.374 1079.46 308.33 1076.73 308.276C1082.12 309.774 1087.47 311.247 1092.78 312.705C1095.61 312.814 1098.45 312.935 1101.25 313.025ZM1118.15 317.723C1112.83 316.252 1107.5 314.776 1102.1 313.265C1099.32 313.177 1096.51 313.068 1093.71 312.961C1099.03 314.421 1104.29 315.845 1109.53 317.264C1112.42 317.425 1115.3 317.583 1118.15 317.723ZM1134.75 322.29C1129.58 320.88 1124.36 319.442 1119.11 317.99C1116.28 317.853 1113.4 317.691 1110.53 317.534C1115.73 318.942 1120.91 320.337 1126.03 321.703C1128.97 321.914 1131.85 322.101 1134.75 322.29ZM1151.11 326.732C1146.05 325.369 1140.93 323.974 1135.78 322.57C1132.92 322.385 1130.07 322.211 1127.17 322.004C1132.24 323.356 1137.3 324.702 1142.28 326.012C1145.26 326.272 1148.17 326.493 1151.11 326.732ZM1167.32 331.05C1162.31 329.723 1157.32 328.402 1152.24 327.037C1149.32 326.803 1146.41 326.577 1143.45 326.321C1148.45 327.633 1153.37 328.899 1158.29 330.173C1161.33 330.483 1164.32 330.764 1167.32 331.05ZM1183.25 335.247C1178.4 333.977 1173.5 332.691 1168.57 331.383C1165.61 331.103 1162.68 330.838 1159.69 330.535C1164.48 331.774 1169.23 332.99 1173.96 334.192C1177.07 334.552 1180.19 334.911 1183.25 335.247ZM1198.75 339.274C1194.1 338.079 1189.37 336.842 1184.64 335.606C1181.62 335.279 1178.58 334.938 1175.52 334.588C1180.19 335.777 1184.86 336.963 1189.46 338.112C1192.58 338.514 1195.67 338.897 1198.75 339.274ZM1214.19 343.202C1209.61 342.045 1205.03 340.881 1200.39 339.692C1197.35 339.323 1194.28 338.936 1191.2 338.544C1195.73 339.674 1200.23 340.787 1204.69 341.884C1207.88 342.332 1211.05 342.778 1214.19 343.202ZM1229.17 346.957C1224.78 345.865 1220.38 344.768 1215.92 343.643C1212.87 343.234 1209.8 342.815 1206.71 342.382C1211.17 343.475 1215.56 344.534 1219.96 345.593C1223.07 346.068 1226.11 346.506 1229.17 346.957ZM1243.84 350.58C1239.69 349.568 1235.49 348.526 1231.28 347.479C1228.29 347.044 1225.31 346.611 1222.28 346.154C1226.4 347.145 1230.5 348.124 1234.56 349.083C1237.67 349.593 1240.77 350.093 1243.84 350.58ZM1258.32 354.083C1254.4 353.143 1250.43 352.182 1246.46 351.214C1243.49 350.749 1240.46 350.251 1237.46 349.764C1241.28 350.667 1245.11 351.571 1248.87 352.442C1252.02 352.992 1255.21 353.556 1258.32 354.083ZM1272.13 357.357C1268.45 356.492 1264.79 355.638 1261.07 354.75C1258.29 354.283 1255.47 353.797 1252.65 353.312C1256.25 354.137 1259.81 354.948 1263.37 355.754C1266.3 356.293 1269.24 356.838 1272.13 357.357ZM1284.95 360.354C1281.9 359.651 1278.82 358.932 1275.73 358.205C1273.27 357.768 1270.82 357.337 1268.33 356.884C1271.45 357.586 1274.51 358.257 1277.59 358.939C1280.05 359.415 1282.51 359.892 1284.95 360.354ZM1296.6 363.018C1294.44 362.527 1292.25 362.023 1290.07 361.525C1288.39 361.21 1286.72 360.904 1285.03 360.582C1287.01 361.019 1288.99 361.452 1290.95 361.876C1292.84 362.258 1294.73 362.644 1296.6 363.018ZM1057.6 297.914C1051.81 296.205 1046 294.485 1040.13 292.73C1037.64 292.855 1035.17 292.988 1032.67 293.103C1038.47 294.806 1044.2 296.472 1049.91 298.131C1052.49 298.067 1055.04 297.992 1057.6 297.914ZM1075.45 303.158C1069.75 301.49 1064.04 299.817 1058.25 298.109C1055.7 298.187 1053.15 298.261 1050.58 298.325C1056.29 299.983 1061.93 301.608 1067.56 303.224C1070.21 303.211 1072.83 303.186 1075.45 303.158ZM1093.03 308.274C1087.46 306.663 1081.83 305.02 1076.17 303.366C1073.55 303.395 1070.93 303.417 1068.29 303.432C1073.88 305.039 1079.46 306.634 1084.96 308.196C1087.67 308.234 1090.35 308.254 1093.03 308.274ZM1110.4 313.265C1104.92 311.698 1099.38 310.107 1093.81 308.497C1091.14 308.478 1088.45 308.455 1085.75 308.42C1091.27 309.984 1096.75 311.528 1102.18 313.049C1104.95 313.137 1107.66 313.195 1110.4 313.265ZM1127.64 318.151C1122.2 316.616 1116.76 315.079 1111.23 313.503C1108.51 313.436 1105.79 313.374 1103.03 313.289C1108.47 314.813 1113.84 316.296 1119.2 317.779C1122.04 317.917 1124.84 318.033 1127.64 318.151ZM1144.66 322.925C1139.33 321.44 1133.95 319.929 1128.53 318.402C1125.75 318.287 1122.98 318.181 1120.17 318.046C1125.44 319.504 1130.68 320.945 1135.88 322.362C1138.81 322.552 1141.77 322.756 1144.66 322.925ZM1161.26 327.527C1156.1 326.11 1150.87 324.655 1145.63 323.196C1142.76 323.031 1139.82 322.829 1136.91 322.643C1142.08 324.054 1147.25 325.463 1152.34 326.831C1155.33 327.071 1158.31 327.31 1161.26 327.527ZM1177.77 332.026C1172.63 330.632 1167.5 329.244 1162.28 327.812C1159.37 327.599 1156.43 327.372 1153.47 327.138C1158.59 328.512 1163.63 329.842 1168.67 331.179C1171.72 331.468 1174.77 331.761 1177.77 332.026ZM1193.94 336.378C1188.97 335.049 1183.96 333.703 1178.9 332.333C1175.94 332.074 1172.93 331.793 1169.92 331.511C1174.9 332.83 1179.84 334.124 1184.74 335.405C1187.83 335.739 1190.9 336.068 1193.94 336.378ZM1209.73 340.579C1204.96 339.324 1200.11 338.027 1195.26 336.73C1192.25 336.426 1189.18 336.092 1186.12 335.763C1190.95 337.022 1195.77 338.276 1200.51 339.495C1203.61 339.872 1206.67 340.226 1209.73 340.579ZM1225.53 344.7C1220.77 343.467 1216 342.225 1211.17 340.957C1208.17 340.613 1205.19 340.279 1202.15 339.912C1206.81 341.107 1211.45 342.286 1216.04 343.447C1219.22 343.873 1222.4 344.299 1225.53 344.7ZM1240.87 348.643C1236.33 347.484 1231.78 346.32 1227.16 345.126C1224.07 344.734 1220.91 344.304 1217.77 343.887C1222.36 345.043 1226.88 346.164 1231.41 347.286C1234.58 347.75 1237.74 348.205 1240.87 348.643ZM1255.81 352.433C1251.48 351.345 1247.08 350.227 1242.67 349.103C1239.64 348.68 1236.59 348.253 1233.5 347.808C1237.9 348.897 1242.27 349.971 1246.6 351.026C1249.71 351.514 1252.75 351.968 1255.81 352.433ZM1270.57 356.105C1266.41 355.079 1262.21 354.031 1257.99 352.974C1255.01 352.526 1252.04 352.082 1249.02 351.611C1253.1 352.605 1257.19 353.6 1261.2 354.559C1264.35 355.088 1267.47 355.599 1270.57 356.105ZM1285.1 359.648C1281.1 358.68 1277.13 357.722 1273.08 356.728C1270.13 356.252 1267.13 355.752 1264.13 355.254C1268.07 356.189 1271.97 357.106 1275.86 358.017C1278.96 358.567 1282.05 359.12 1285.1 359.648ZM1298.95 362.976C1295.38 362.127 1291.78 361.263 1288.15 360.387C1285.28 359.896 1282.36 359.373 1279.45 358.862C1283.07 359.705 1286.64 360.522 1290.22 361.341C1293.13 361.887 1296.07 362.449 1298.95 362.976ZM1311.93 366.039C1308.9 365.33 1305.81 364.597 1302.73 363.867C1300.27 363.422 1297.79 362.965 1295.31 362.505C1298.21 363.169 1301.11 363.828 1303.97 364.47C1306.62 364.992 1309.31 365.532 1311.93 366.039ZM1323.55 368.716C1321.31 368.203 1319.09 367.699 1316.84 367.182C1315.39 366.904 1313.98 366.646 1312.51 366.363C1314.21 366.738 1315.93 367.124 1317.61 367.493C1319.59 367.9 1321.59 368.319 1323.55 368.716ZM1606.65 134.69C1605.21 135.34 1603.71 136.018 1602.15 136.724C1599.98 174.88 1595.49 225.667 1558.42 267.304C1511.27 320.27 1411.44 358.416 1196.68 336.879C1201.58 338.187 1206.47 339.491 1211.29 340.76C1423.89 365.123 1523.57 331.425 1569.54 280.751C1610.28 235.849 1608.91 177.621 1606.65 134.69ZM1602.16 136.475C1603.71 135.774 1605.2 135.1 1606.64 134.455C1606.57 133.149 1606.5 131.857 1606.43 130.581C1605.12 131.261 1603.77 131.973 1602.37 132.714C1602.3 133.953 1602.23 135.206 1602.16 136.475ZM857.026 290.95C855.614 290.914 854.205 290.88 852.79 290.841C855.459 291.016 858.097 291.165 860.744 291.32C859.514 291.205 858.259 291.069 857.026 290.95ZM866.792 291.203C864.542 291.159 862.265 291.081 860.008 291.027C862.742 291.286 865.439 291.514 868.156 291.761C870.404 291.888 872.676 292.038 874.91 292.154C872.218 291.848 869.509 291.528 866.792 291.203ZM875.911 291.334C873.547 291.299 871.195 291.276 868.823 291.232C872.025 291.612 875.18 291.958 878.351 292.317C880.753 292.437 883.141 292.546 885.531 292.656C882.341 292.226 879.138 291.787 875.911 291.334ZM885.34 291.469C882.785 291.446 880.202 291.393 877.634 291.359C881.173 291.853 884.654 292.31 888.154 292.78C890.8 292.899 893.466 293.035 896.097 293.14C892.529 292.594 888.953 292.043 885.34 291.469ZM894.32 291.508C891.825 291.498 889.349 291.507 886.845 291.487C890.616 292.084 894.323 292.64 898.048 293.208C900.665 293.31 903.26 293.393 905.863 293.483C902.019 292.827 898.206 292.19 894.32 291.508ZM903.578 291.535C900.937 291.538 898.272 291.52 895.619 291.512C899.645 292.216 903.583 292.867 907.561 293.543C910.274 293.633 913.011 293.745 915.706 293.821C911.696 293.078 907.635 292.305 903.578 291.535ZM912.426 291.487C909.884 291.505 907.354 291.532 904.801 291.538C908.937 292.322 913.059 293.098 917.148 293.854C919.844 293.928 922.511 293.978 925.193 294.039C920.961 293.202 916.72 292.36 912.426 291.487ZM921.413 291.411C918.796 291.442 916.164 291.458 913.537 291.478C917.891 292.361 922.207 293.223 926.497 294.069C929.241 294.129 932.013 294.212 934.739 294.258C930.335 293.33 925.873 292.37 921.413 291.411ZM930.168 291.282C927.602 291.326 925.035 291.369 922.456 291.402C926.972 292.372 931.477 293.335 935.936 294.274C938.635 294.318 941.297 294.331 943.977 294.361C939.396 293.347 934.813 292.332 930.168 291.282ZM938.875 291.11C936.295 291.167 933.707 291.218 931.115 291.263C935.817 292.325 940.454 293.35 945.088 294.374C947.807 294.402 950.546 294.447 953.248 294.462C948.494 293.364 943.706 292.249 938.875 291.11ZM947.578 290.903C944.995 290.973 942.401 291.032 939.805 291.091C944.674 292.238 949.51 293.368 954.303 294.473C956.952 294.487 959.563 294.468 962.196 294.467C957.375 293.306 952.468 292.1 947.578 290.903ZM956.098 290.638C953.548 290.72 950.999 290.804 948.438 290.876C953.372 292.083 958.314 293.295 963.18 294.466C965.882 294.464 968.593 294.471 971.276 294.455C966.249 293.2 961.188 291.927 956.098 290.638ZM964.625 290.359C962.072 290.455 959.497 290.527 956.933 290.612C962.066 291.911 967.157 293.188 972.226 294.454C974.872 294.436 977.49 294.399 980.119 294.369C974.982 293.047 969.831 291.718 964.625 290.359ZM972.94 290.009C970.43 290.115 967.93 290.231 965.408 290.326C970.65 291.693 975.832 293.029 980.998 294.357C983.641 294.325 986.286 294.295 988.91 294.251C983.622 292.854 978.316 291.45 972.94 290.009ZM981.313 289.656C978.792 289.776 976.241 289.868 973.707 289.977C979.114 291.426 984.448 292.836 989.766 294.238C992.377 294.192 994.974 294.136 997.567 294.078C992.187 292.623 986.79 291.16 981.313 289.656ZM989.519 289.228C987.035 289.357 984.572 289.504 982.077 289.624C987.564 291.13 992.979 292.599 998.371 294.057C1000.96 293.997 1003.55 293.931 1006.12 293.858C1000.64 292.338 995.1 290.795 989.519 289.228ZM997.742 288.79C995.253 288.933 992.744 289.058 990.244 289.19C995.843 290.761 1001.4 292.313 1006.91 293.838C1009.49 293.764 1012.07 293.691 1014.63 293.604C1009.05 292.027 1003.41 290.413 997.742 288.79ZM1005.83 288.302C1003.37 288.454 1000.92 288.61 998.455 288.753C1004.13 290.377 1009.79 291.997 1015.37 293.577C1017.92 293.489 1020.44 293.388 1022.97 293.288C1017.32 291.657 1011.57 289.977 1005.83 288.302ZM1013.87 287.786C1011.43 287.949 1008.97 288.105 1006.51 288.258C1012.27 289.937 1018.04 291.624 1023.71 293.26C1026.25 293.16 1028.82 293.07 1031.34 292.957C1025.58 291.263 1019.72 289.522 1013.87 287.786ZM1021.86 287.24C1019.43 287.413 1016.99 287.579 1014.55 287.743C1020.41 289.482 1026.27 291.224 1032.05 292.922C1034.56 292.808 1037.03 292.673 1039.52 292.548C1033.68 290.806 1027.77 289.023 1021.86 287.24ZM1555.05 157.661C1457.47 199.701 1272.5 269.224 1022.51 287.191C1028.44 288.979 1034.36 290.765 1040.21 292.513C1297.31 279.474 1465.16 204.258 1555.05 157.661ZM1561.51 154.864C1560.31 155.385 1559.11 155.906 1557.89 156.437C1468.71 202.896 1300.23 279.436 1040.83 292.695C1046.72 294.454 1052.54 296.181 1058.34 297.893C1328.5 289.598 1481.04 205.772 1561.51 154.864ZM1566.96 152.479C1565.62 153.067 1564.28 153.656 1562.9 154.257C1482.78 205.072 1330.18 289.632 1059 298.088C1064.8 299.802 1070.53 301.479 1076.25 303.151C1359.18 299.897 1495.76 207.752 1566.96 152.479ZM1572.15 150.193C1570.75 150.812 1569.33 151.439 1567.88 152.075C1496.89 207.275 1360.44 299.945 1076.97 303.359C1082.65 305.02 1088.3 306.667 1093.89 308.283C1389.92 310.337 1510.23 209.875 1572.15 150.193ZM1577.2 147.951C1575.78 148.585 1574.31 149.235 1572.84 149.889C1511.06 209.509 1390.96 310.382 1094.67 308.505C1100.26 310.12 1105.81 311.718 1111.31 313.288C1420.9 320.904 1524.62 212.07 1577.2 147.951ZM1582.2 145.719C1580.76 146.366 1579.27 147.031 1577.76 147.702C1525.27 211.77 1421.79 320.939 1112.14 313.527C1117.69 315.109 1123.15 316.649 1128.62 318.19C1396.56 329.281 1502.2 250.759 1555.1 184.48C1566.08 170.727 1574.78 157.505 1582.2 145.719ZM1587.15 143.498C1585.69 144.155 1584.2 144.823 1582.68 145.506C1575.22 157.365 1566.46 170.691 1555.39 184.551C1502.5 250.818 1396.96 329.316 1129.51 318.441C1134.95 319.977 1140.36 321.493 1145.73 322.987C1389.37 336.987 1493.6 275.513 1545.44 212.733C1565.51 188.418 1577.73 163.903 1587.15 143.498ZM1592.06 141.284C1590.59 141.946 1589.11 142.616 1587.57 143.309C1578.14 163.767 1565.89 188.384 1545.73 212.807C1493.9 275.569 1389.78 337.028 1146.67 323.249C1151.94 324.715 1157.2 326.183 1162.38 327.605C1392.04 344.335 1494.5 293.317 1544.71 234.238C1571.69 202.493 1583.6 168.417 1592.06 141.284ZM1596.94 139.077C1595.48 139.737 1593.99 140.413 1592.45 141.11C1583.98 168.287 1572.07 202.464 1545 234.315C1494.82 293.369 1392.49 344.382 1163.42 327.891C1168.67 329.331 1173.84 330.729 1179 332.129C1399.9 351.44 1500.91 307.758 1549.51 251.966C1581.99 214.685 1591.09 171.992 1596.94 139.077ZM1598.12 138.543L1597.3 138.914C1591.45 171.869 1582.37 214.665 1549.8 252.044C1501.22 307.807 1400.38 351.492 1180.13 332.437C1185.26 333.823 1190.33 335.183 1195.37 336.531C1410.88 358.357 1510.95 320.228 1558.13 267.223C1595.12 225.682 1599.64 174.996 1601.8 136.878C1600.61 137.418 1599.38 137.973 1598.12 138.543ZM1597.35 138.651L1597.96 138.377C1599.28 137.777 1600.57 137.195 1601.82 136.63C1601.89 135.371 1601.96 134.126 1602.03 132.895C1600.72 133.588 1599.37 134.306 1597.98 135.048C1597.78 136.235 1597.57 137.436 1597.35 138.651ZM1592.53 140.829C1594.06 140.138 1595.54 139.469 1596.99 138.815C1597.2 137.61 1597.41 136.42 1597.62 135.244C1596.31 135.943 1594.97 136.662 1593.59 137.402C1593.25 138.532 1592.89 139.673 1592.53 140.829ZM1587.71 143.004C1589.23 142.32 1590.7 141.658 1592.15 141.004C1592.5 139.862 1592.85 138.733 1593.2 137.617C1591.89 138.318 1590.56 139.037 1589.19 139.772C1588.71 140.837 1588.21 141.915 1587.71 143.004ZM1582.89 145.17C1584.39 144.499 1585.86 143.839 1587.29 143.194C1587.78 142.121 1588.27 141.06 1588.75 140.01L1588.02 140.405L1584.78 142.148C1584.16 143.144 1583.53 144.152 1582.89 145.17ZM1578.08 147.322C1579.54 146.667 1581.01 146.015 1582.41 145.384C1583.04 144.387 1583.66 143.4 1584.27 142.425C1582.99 143.113 1581.68 143.818 1580.35 144.531C1579.6 145.452 1578.85 146.38 1578.08 147.322ZM1573.29 149.447C1574.72 148.813 1576.14 148.186 1577.52 147.571C1578.26 146.66 1579 145.76 1579.73 144.867C1578.48 145.538 1577.21 146.22 1575.91 146.91C1575.05 147.745 1574.17 148.597 1573.29 149.447ZM1568.59 151.524C1569.95 150.924 1571.29 150.335 1572.61 149.75C1573.44 148.945 1574.27 148.146 1575.08 147.354C1573.89 147.996 1572.68 148.641 1571.44 149.3C1570.5 150.034 1569.55 150.774 1568.59 151.524ZM1564.12 153.486C1565.32 152.961 1566.49 152.445 1567.67 151.928C1568.52 151.265 1569.37 150.604 1570.21 149.953C1569.12 150.53 1568.04 151.104 1566.93 151.694C1565.99 152.292 1565.07 152.88 1564.12 153.486ZM1560.66 154.992C1561.34 154.696 1562.04 154.394 1562.71 154.1C1563.3 153.732 1563.88 153.362 1564.45 152.998C1563.2 153.658 1561.95 154.317 1560.66 154.992ZM-150.54 416.158C-30.2718 365.607 317.322 240.211 722.859 282.094C763.711 286.312 803.459 288.967 842.061 290.292C803.552 287.526 763.571 283.414 722.011 277.698C276.889 216.476 -40.2705 349.718 -151.981 407.155L-152.018 406.923C-40.1224 349.417 277.069 216.277 722.13 277.49C765.814 283.499 807.771 287.745 848.085 290.505C850.107 290.567 852.11 290.605 854.128 290.66C811.993 286.544 767.768 280.789 721.268 273.093C238.811 193.244 -50.3388 332.401 -153.612 396.968L-153.652 396.718C-50.1555 332.063 239.073 193.06 721.399 272.886C768.946 280.756 814.126 286.606 857.109 290.738C859.609 290.802 862.12 290.879 864.609 290.932C819.34 285.461 771.4 278.09 720.526 268.487C203.535 170.901 -60.4877 313.721 -155.442 385.536L-155.486 385.264C-60.2878 313.349 203.871 170.733 720.666 268.283C772.334 278.036 820.988 285.497 866.876 290.99C869.356 291.04 871.806 291.058 874.277 291.096C826.11 284.283 774.726 275.332 719.785 263.882C171.823 149.686 -70.5625 293.442 -157.533 372.474L-157.582 372.172C-70.3501 293.036 172.239 149.54 719.932 263.68C775.47 275.254 827.384 284.282 876.001 291.121C878.637 291.16 881.283 291.208 883.908 291.235C832.848 283.084 778.032 272.562 719.045 259.277C144.412 129.862 -80.3943 271.398 -159.957 357.338L-160.009 357.009C-80.1861 270.972 144.871 129.729 719.198 259.076C778.714 272.479 833.991 283.078 885.436 291.257C888.008 291.28 890.556 291.28 893.117 291.292C839.285 281.821 781.159 269.742 718.305 254.673C122.397 111.794 -89.6151 247.426 -162.805 339.548L-162.865 339.172C-89.3935 246.973 122.944 111.687 718.464 254.472C781.76 269.649 840.27 281.796 894.415 291.295C897.094 291.306 899.778 291.32 902.446 291.318C845.785 280.529 784.347 266.929 717.565 250.067C106.683 95.8292 -97.7835 221.617 -166.162 318.576L-166.228 318.166C-97.5617 221.161 107.264 95.736 717.729 249.869C784.931 266.836 846.72 280.502 903.669 291.322C906.257 291.317 908.83 291.3 911.407 291.284C852.039 279.196 787.353 264.06 716.826 245.463C97.9901 82.2783 -104.333 194.353 -170.086 294.065L-170.157 293.621C-104.105 193.904 98.6038 82.1976 716.994 245.265C787.902 263.963 852.892 279.156 912.517 291.274C915.171 291.257 917.822 291.236 920.463 291.207C858.327 277.822 790.429 261.202 716.088 240.859C96.3231 71.2574 -108.751 166.441 -174.556 266.144L-174.641 265.616C-108.503 165.973 97.0129 71.2025 716.259 240.661C790.953 261.101 859.138 277.781 921.507 291.197C924.115 291.166 926.718 291.13 929.315 291.087C864.481 276.419 793.39 258.304 715.349 236.253C100.592 62.5501 -110.822 139.007 -179.436 235.667L-179.518 235.154C-110.553 138.584 101.305 62.5051 715.524 236.057C793.876 258.195 865.225 276.371 930.261 291.068C932.861 291.023 935.451 290.97 938.038 290.913C870.534 274.975 796.294 255.382 714.61 231.649C109.323 55.7745 -110.601 113.068 -184.523 203.89L-184.595 203.439C-110.377 112.708 109.866 55.6855 714.787 231.453C796.783 255.278 871.265 274.925 938.968 290.896C941.584 290.837 944.205 290.784 946.809 290.714C876.603 273.507 799.235 252.465 713.872 227.044C120.725 50.4025 -108.493 89.3143 -189.601 172.172L-189.67 171.738C-108.28 88.9837 121.221 50.3024 714.051 226.849C799.697 252.354 877.286 273.45 947.668 290.688C950.24 290.617 952.795 290.531 955.354 290.45C882.509 271.988 802.069 249.51 713.133 222.439C133.325 45.957 -105.034 67.9894 -194.502 141.556L-194.57 141.137C-104.83 67.6805 133.781 45.8456 713.315 222.245C802.522 249.397 883.178 271.931 956.189 290.423C958.769 290.34 961.365 290.272 963.93 290.177C888.438 270.468 804.903 246.547 712.396 217.834C146.133 42.0765 -100.715 49.0146 -199.127 112.669L-199.19 112.275C-100.528 48.7272 146.533 41.9497 712.58 217.641C805.337 246.431 889.071 270.405 964.714 290.144C967.243 290.05 969.746 289.932 972.263 289.826C894.187 268.886 807.631 243.546 711.658 213.23C158.455 38.4829 -95.954 32.1737 -203.422 85.8438L-203.484 85.4522C-95.7696 31.8944 158.848 38.3548 711.844 213.036C808.057 243.429 894.81 268.823 973.03 289.794C975.569 289.686 978.121 289.591 980.648 289.472C899.972 267.304 810.371 240.543 710.921 208.625C170.033 35.0329 -91.0174 17.1514 -207.386 61.0816L-207.445 60.7147C-90.8408 16.8884 170.403 34.8991 711.107 208.433C810.798 240.427 900.589 267.241 981.405 289.44C983.911 289.322 986.389 289.179 988.883 289.05C905.632 265.663 813.067 237.521 710.182 204.021C313.067 74.7175 63.76 26.7005 -88.8495 25.3583L-87.2468 25.1017C65.6267 26.8112 314.662 74.9828 710.371 203.828C813.485 237.403 906.222 265.594 989.608 289.012C992.114 288.881 994.624 288.754 997.117 288.612C911.288 264.012 815.76 234.492 709.444 199.416C366.765 86.3571 131.769 31.9027 -26.6738 15.4042L-25.6586 15.2417C132.868 31.9017 367.683 86.406 709.634 199.224C816.174 234.375 911.871 263.943 997.832 288.574C1000.31 288.433 1002.77 288.28 1005.24 288.129C916.856 262.326 818.399 231.442 708.706 194.812C396.738 90.6342 172.278 33.6229 12.6957 9.10132L13.5453 8.96531C173.158 33.5881 397.47 90.6233 708.897 194.62C818.801 231.321 917.418 262.251 1005.92 288.085C1008.38 287.932 1010.84 287.775 1013.29 287.612C922.375 260.614 821.006 228.376 707.969 190.207C418.447 92.4448 202.645 34.0748 43.4518 4.17741L44.1026 4.07322C203.324 34.0278 418.935 92.3539 708.16 190.016C821.405 228.255 922.931 260.541 1013.96 287.569C1016.41 287.406 1018.86 287.244 1021.3 287.071C927.858 258.884 823.591 225.299 707.23 185.602C435.222 92.8064 227.037 33.841 68.9232 0.0995486L69.5571 -0.00193522C227.679 33.785 435.692 92.7101 707.423 185.412C823.979 225.175 928.395 258.807 1021.95 287.022C1274.57 268.953 1460.86 198.195 1557.72 156.272C1560.8 154.663 1563.82 153.083 1566.72 151.548C1569.48 149.786 1572.16 148.063 1574.74 146.395C1577.15 144.497 1579.47 142.657 1581.72 140.874L1583.28 139.348C1584.79 137.862 1586.27 136.414 1587.71 135.007C1589.44 132.871 1591.11 130.814 1592.74 128.845C1594.14 126.619 1595.51 124.485 1596.85 122.454C1597.95 120.161 1599.03 117.976 1600.11 115.909C1600.94 113.572 1601.77 111.359 1602.62 109.28C1602.95 107.937 1603.29 106.639 1603.65 105.389L1603.77 106.135C1603.66 106.534 1603.55 106.939 1603.44 107.348C1603.57 107.058 1603.69 106.771 1603.82 106.486L1604.08 108.117L1603.98 109.039L1604.18 108.723L1604.25 109.155L1603.92 109.703C1603.81 110.736 1603.71 111.791 1603.62 112.866C1603.96 112.428 1604.3 112 1604.64 111.58L1604.69 111.942C1604.32 112.407 1603.95 112.884 1603.58 113.37C1603.49 114.461 1603.4 115.573 1603.32 116.706C1603.94 116.057 1604.55 115.428 1605.16 114.82L1605.21 115.137C1604.57 115.776 1603.94 116.437 1603.29 117.12C1603.21 118.254 1603.13 119.409 1603.06 120.583C1603.96 119.798 1604.84 119.043 1605.72 118.319L1605.76 118.603C1604.87 119.349 1603.96 120.126 1603.04 120.935C1602.96 122.105 1602.89 123.294 1602.82 124.501C1603.9 123.711 1604.96 122.953 1605.99 122.227C1605.93 121.149 1605.88 120.085 1605.83 119.035L1606.35 122.264L1606.33 122.279C1606.39 123.521 1606.46 124.781 1606.52 126.058L1606.92 125.823L1606.96 126.068L1606.54 126.319L1606.69 129.185L1606.75 130.164L1607.54 129.75L1607.58 129.983L1606.76 130.409C1606.83 131.695 1606.9 132.993 1606.97 134.307L1608.19 133.759L1608.22 133.984L1606.98 134.542C1609.24 177.509 1610.65 235.835 1569.83 280.833C1523.89 331.459 1424.48 365.175 1212.73 341.136C1217.62 342.42 1222.48 343.686 1227.29 344.933C1438.56 371.792 1538.12 341.714 1583.06 293.013C1610.87 262.866 1617.75 225.575 1617.23 190.224L1617.58 192.465C1617.78 227.167 1610.6 263.551 1583.34 293.098C1538.46 341.746 1439.16 371.842 1228.81 345.328C1233.52 346.545 1238.15 347.726 1242.8 348.909C1454.19 378.32 1554.15 351.371 1598.21 304.323C1613.86 287.61 1622.46 268.359 1626.51 248.201L1626.66 249.121C1622.52 268.971 1613.93 287.92 1598.49 304.409C1554.49 351.389 1454.89 378.371 1244.59 349.367C1249.14 350.524 1253.65 351.665 1258.12 352.784C1470.71 384.783 1571.32 360.544 1614.65 314.895C1622.51 306.613 1628.48 297.622 1632.9 288.139L1632.99 288.679C1628.58 297.995 1622.67 306.829 1614.93 314.982C1571.69 360.542 1471.53 384.831 1260.29 353.324C1264.63 354.409 1268.96 355.493 1273.22 356.541C1487.88 391.182 1589.42 369.348 1632.14 324.886C1634.14 322.797 1636 320.653 1637.76 318.469L1637.82 318.835C1636.13 320.923 1634.34 322.974 1632.42 324.974C1589.81 369.325 1488.83 391.219 1275.78 357.167C1279.98 358.193 1284.13 359.198 1288.28 360.198C1491.69 395.098 1594.65 380.128 1641.6 342.459L1641.64 342.734C1594.75 380.156 1492.42 395.096 1291.09 360.88C1295.05 361.832 1298.96 362.758 1302.87 363.682C1488.63 397.378 1591.77 390.258 1644.7 361.806L1644.73 362.033C1592.03 390.253 1489.84 397.435 1306.54 364.547C1310.05 365.376 1313.55 366.2 1317 367.001C1487.79 399.593 1589.84 398.386 1647.23 377.618L1647.26 377.822C1590.37 398.352 1489.76 399.73 1322.2 368.192C1325.16 368.873 1328.14 369.56 1331.07 370.224C1488.68 401.704 1588.75 405.009 1649.32 390.658L1649.35 390.841C1589.72 404.942 1491.96 401.99 1338.95 371.995C1341.06 372.466 1343.16 372.933 1345.27 373.398C1445.13 394.174 1522.28 403.872 1581.12 405.023L1580.09 405.188C1524.47 404.013 1452.61 395.254 1360.84 376.799C1440.12 393.87 1505.3 404.082 1558.49 408.647L1557.73 408.769C1501.18 403.877 1431.15 392.623 1345.13 373.581C1336.1 371.703 1326.89 369.737 1317.5 367.683C1308.71 365.877 1299.79 364.005 1290.65 362.027C1282.35 360.347 1273.9 358.586 1265.29 356.752C1256.4 354.985 1247.3 353.114 1238.05 351.167C1229.21 349.438 1220.18 347.616 1211 345.718C1202.21 344.032 1193.27 342.264 1184.16 340.416C1175.44 338.777 1166.6 337.072 1157.56 335.273C1148.94 333.688 1140.21 332.048 1131.28 330.307C1122.8 328.79 1114.22 327.224 1105.45 325.555C1097.13 324.112 1088.71 322.619 1080.11 321.03C1072.01 319.676 1063.81 318.267 1055.45 316.775C1047.22 315.455 1038.83 314.055 1030.33 312.593C1022.21 311.354 1013.93 310.031 1005.57 308.66C997.58 307.508 989.501 306.304 981.29 305.024C973.344 303.958 965.269 302.817 957.099 301.618C949.552 300.687 941.924 299.706 934.187 298.657C926.806 297.844 919.317 296.961 911.776 296.043C904.341 295.335 896.832 294.575 889.232 293.753C882.244 293.209 875.179 292.607 868.074 291.973C861.423 291.589 854.74 291.178 848.003 290.716C807.514 289.468 765.739 286.743 722.755 282.303C317.198 240.418 -30.3913 365.879 -150.504 416.38L-150.54 416.158Z" fill="#5885DD"/>
</svg>
